<?xml version="1.0" encoding="utf-8"?>
<!-- Generator: Adobe Illustrator 16.0.0, SVG Export Plug-In . SVG Version: 6.00 Build 0)  -->
<!DOCTYPE svg PUBLIC "-//W3C//DTD SVG 1.1//EN" "http://www.w3.org/Graphics/SVG/1.1/DTD/svg11.dtd">
<svg version="1.1" id="Layer_1" xmlns="http://www.w3.org/2000/svg" xmlns:xlink="http://www.w3.org/1999/xlink" x="0px" y="0px"
	 width="65px" height="65px" viewBox="0 0 65 65" enable-background="new 0 0 65 65" xml:space="preserve">
<g>
	<g>
		<g>
			<g>
				<path fill="#3A7F0D" d="M29.927,0.5c0,0,3.757,2.877-1.38,9.289c-2.793,3.482-3.488,8.635,3.004,12.164
					c-1.153-2.6-3.128-8.668,1.192-12.842c0,0-3.664,4.496,0.563,12.678c2.608-1.072,8.393-4.15,7.203-10.035
					C38.936,3.977,29.927,0.5,29.927,0.5z"/>
				<path fill="#49A010" d="M33.289,21.754c3.923-5.035,4.848-11.992,2.022-18.004c-2.694-2.209-5.385-3.25-5.385-3.25
					s3.757,2.877-1.38,9.289c-2.793,3.482-3.488,8.635,3.004,12.164c-1.153-2.6-3.128-8.668,1.192-12.842
					C32.743,9.111,29.091,13.594,33.289,21.754z"/>
			</g>
			<circle fill="#3A7F0D" cx="24.769" cy="11.524" r="0.555"/>
			<circle fill="#49A010" cx="25.991" cy="10.168" r="0.397"/>
			<circle fill="#49A010" cx="23.788" cy="7.103" r="0.989"/>
			<circle fill="#49A010" cx="27.556" cy="7.511" r="0.316"/>
			<path fill="#49A010" d="M29.731,4.176c0.253,0.436,0.108,0.992-0.327,1.246c-0.434,0.252-0.991,0.107-1.245-0.328
				c-0.253-0.432-0.106-0.99,0.327-1.244S29.478,3.742,29.731,4.176z"/>
		</g>
		<g>
			<g>
				<path fill="#3A7F0D" d="M34.073,64.5c0,0-3.758-2.877,1.38-9.289c2.792-3.482,3.488-8.635-3.005-12.164
					c1.154,2.6,3.129,8.666-1.191,12.84c0,0,3.663-4.494-0.563-12.676c-2.608,1.072-8.392,4.15-7.203,10.035
					C25.064,61.023,34.073,64.5,34.073,64.5z"/>
				<path fill="#49A010" d="M30.711,43.244c-3.924,5.035-4.848,11.994-2.023,18.004c2.695,2.211,5.386,3.252,5.386,3.252
					s-3.758-2.877,1.38-9.289c2.792-3.482,3.488-8.635-3.005-12.164c1.154,2.6,3.129,8.666-1.191,12.84
					C31.257,55.887,34.909,51.404,30.711,43.244z"/>
			</g>
			<circle fill="#3A7F0D" cx="39.232" cy="53.475" r="0.554"/>
			<circle fill="#49A010" cx="38.008" cy="54.831" r="0.397"/>
			<circle fill="#49A010" cx="40.214" cy="57.897" r="0.99"/>
			<circle fill="#49A010" cx="36.444" cy="57.488" r="0.317"/>
			<circle fill="#49A010" cx="35.054" cy="60.363" r="0.911"/>
		</g>
	</g>
	<g>
		<g>
			<g>
				<path fill="#3A7F0D" d="M53.161,8.406c0,0,0.623,4.691-7.545,5.594c-4.436,0.486-8.571,3.639-6.476,10.727
					c1.022-2.656,3.916-8.342,9.922-8.238c0,0-5.769,0.588-8.565,9.361c2.603,1.086,8.868,3,12.188-2.002
					C57.073,17.236,53.161,8.406,53.161,8.406z"/>
				<path fill="#49A010" d="M40.51,25.814c6.334-0.787,11.907-5.053,14.16-11.303c-0.343-3.467-1.509-6.105-1.509-6.105
					s0.623,4.691-7.545,5.594c-4.436,0.486-8.571,3.639-6.476,10.727c1.022-2.656,3.916-8.342,9.922-8.238
					C49.062,16.488,43.311,17.076,40.51,25.814z"/>
			</g>
			<circle fill="#3A7F0D" cx="41.718" cy="12.555" r="0.554"/>
			<circle fill="#49A010" cx="43.542" cy="12.461" r="0.396"/>
			<circle fill="#49A010" cx="44.152" cy="8.734" r="0.99"/>
			<path fill="#49A010" d="M46.833,11.768c-0.044,0.17-0.218,0.271-0.386,0.227c-0.17-0.045-0.271-0.217-0.227-0.389
				c0.045-0.166,0.217-0.268,0.386-0.225C46.775,11.426,46.878,11.6,46.833,11.768z"/>
			<circle fill="#49A010" cx="49.542" cy="10.638" r="0.91"/>
		</g>
		<g>
			<g>
				<path fill="#3A7F0D" d="M10.839,56.592c0,0-0.624-4.689,7.544-5.592c4.436-0.488,8.572-3.639,6.477-10.727
					c-1.023,2.654-3.916,8.342-9.922,8.238c0,0,5.769-0.588,8.564-9.361c-2.602-1.088-8.868-3-12.188,2
					C6.927,47.764,10.839,56.592,10.839,56.592z"/>
				<path fill="#49A010" d="M23.49,39.186c-6.334,0.787-11.908,5.053-14.16,11.301c0.344,3.469,1.509,6.105,1.509,6.105
					S10.215,51.902,18.383,51c4.436-0.488,8.572-3.639,6.477-10.727c-1.023,2.654-3.916,8.342-9.922,8.238
					C14.938,48.512,20.689,47.924,23.49,39.186z"/>
			</g>
			<circle fill="#3A7F0D" cx="22.282" cy="52.445" r="0.555"/>
			<circle fill="#49A010" cx="20.458" cy="52.539" r="0.396"/>
			<circle fill="#49A010" cx="19.849" cy="56.267" r="0.989"/>
			<circle fill="#49A010" cx="17.473" cy="53.312" r="0.317"/>
			<circle fill="#49A010" cx="14.458" cy="54.362" r="0.91"/>
		</g>
	</g>
	<g>
		<g>
			<g>
				<path fill="#3A7F0D" d="M64,30.426c0,0-2.877,3.758-9.29-1.379c-3.482-2.793-8.634-3.488-12.164,3.006
					c2.601-1.156,8.668-3.129,12.841,1.189c0,0-4.494-3.664-12.676,0.564c1.072,2.607,4.15,8.393,10.035,7.203
					C60.522,39.436,64,30.426,64,30.426z"/>
				<path fill="#49A010" d="M42.745,33.789c5.035,3.922,11.991,4.848,18.004,2.021C62.958,33.117,64,30.426,64,30.426
					s-2.877,3.758-9.29-1.379c-3.482-2.793-8.634-3.488-12.164,3.006c2.601-1.156,8.668-3.129,12.841,1.189
					C55.387,33.242,50.902,29.592,42.745,33.789z"/>
			</g>
			<circle fill="#3A7F0D" cx="52.975" cy="25.269" r="0.553"/>
			<circle fill="#49A010" cx="54.331" cy="26.49" r="0.397"/>
			<path fill="#49A010" d="M57.896,25.141c-0.472,0.277-1.076,0.117-1.354-0.354c-0.275-0.475-0.117-1.08,0.354-1.354
				c0.472-0.277,1.077-0.119,1.353,0.354C58.527,24.258,58.368,24.863,57.896,25.141z"/>
			<circle fill="#49A010" cx="56.989" cy="28.055" r="0.317"/>
			<path fill="#49A010" d="M60.322,30.232c-0.436,0.252-0.99,0.107-1.244-0.328c-0.253-0.432-0.108-0.992,0.326-1.246
				c0.434-0.252,0.992-0.105,1.245,0.326C60.902,29.42,60.757,29.979,60.322,30.232z"/>
		</g>
		<g>
			<g>
				<path fill="#3A7F0D" d="M0,34.572c0,0,2.876-3.758,9.289,1.381c3.48,2.791,8.635,3.488,12.164-3.006
					c-2.6,1.156-8.668,3.129-12.84-1.191c0,0,4.494,3.664,12.674-0.562c-1.07-2.609-4.148-8.393-10.033-7.203
					C3.477,25.564,0,34.572,0,34.572z"/>
				<path fill="#49A010" d="M21.254,31.209c-5.035-3.922-11.992-4.846-18.004-2.02C1.041,31.885,0,34.572,0,34.572
					s2.876-3.758,9.289,1.381c3.48,2.791,8.635,3.488,12.164-3.006c-2.6,1.156-8.668,3.129-12.84-1.191
					C8.613,31.756,13.095,35.41,21.254,31.209z"/>
			</g>
			<circle fill="#3A7F0D" cx="11.023" cy="39.731" r="0.555"/>
			<circle fill="#49A010" cx="9.667" cy="38.508" r="0.396"/>
			<path fill="#49A010" d="M6.103,39.857c0.472-0.275,1.077-0.115,1.354,0.357c0.275,0.471,0.117,1.076-0.354,1.352
				c-0.472,0.277-1.077,0.117-1.354-0.354C5.471,40.74,5.632,40.135,6.103,39.857z"/>
			<circle fill="#49A010" cx="7.01" cy="36.943" r="0.317"/>
			<circle fill="#49A010" cx="4.136" cy="35.556" r="0.91"/>
		</g>
	</g>
	<g>
		<g>
			<g>
				<path fill="#3A7F0D" d="M56.093,53.66c0,0-4.69,0.623-5.593-7.545c-0.487-4.436-3.639-8.57-10.727-6.475
					c2.655,1.021,8.342,3.916,8.238,9.922c0,0-0.588-5.77-9.361-8.566c-1.087,2.604-3.001,8.869,2.002,12.189
					C47.264,57.572,56.093,53.66,56.093,53.66z"/>
				<path fill="#49A010" d="M38.686,41.01c0.787,6.334,5.053,11.906,11.301,14.16c3.467-0.344,6.106-1.51,6.106-1.51
					s-4.69,0.623-5.593-7.545c-0.487-4.436-3.639-8.57-10.727-6.475c2.655,1.021,8.342,3.916,8.238,9.922
					C48.012,49.562,47.423,43.811,38.686,41.01z"/>
			</g>
			<circle fill="#3A7F0D" cx="51.944" cy="42.218" r="0.554"/>
			<path fill="#49A010" d="M51.939,44.424c-0.212-0.055-0.337-0.271-0.282-0.48c0.055-0.213,0.271-0.34,0.481-0.285
				c0.212,0.057,0.34,0.271,0.284,0.486C52.365,44.354,52.15,44.482,51.939,44.424z"/>
			<circle fill="#49A010" cx="55.765" cy="44.65" r="0.989"/>
			<path fill="#49A010" d="M52.731,47.334c-0.17-0.045-0.27-0.219-0.228-0.387c0.046-0.17,0.219-0.271,0.39-0.227
				c0.167,0.045,0.268,0.217,0.224,0.385C53.074,47.275,52.899,47.379,52.731,47.334z"/>
			<circle fill="#49A010" cx="53.862" cy="50.042" r="0.91"/>
		</g>
		<g>
			<g>
				<path fill="#3A7F0D" d="M7.907,11.338c0,0,4.689-0.623,5.591,7.545c0.488,4.436,3.641,8.572,10.728,6.477
					c-2.655-1.021-8.341-3.916-8.237-9.922c0,0,0.588,5.768,9.361,8.564c1.086-2.602,3-8.869-2.001-12.189
					C16.736,7.426,7.907,11.338,7.907,11.338z"/>
				<path fill="#49A010" d="M25.314,23.99c-0.787-6.334-5.054-11.908-11.303-14.16c-3.468,0.344-6.104,1.508-6.104,1.508
					s4.689-0.623,5.591,7.545c0.488,4.436,3.641,8.572,10.728,6.477c-2.655-1.021-8.341-3.916-8.237-9.922
					C15.988,15.438,16.575,21.189,25.314,23.99z"/>
			</g>
			<circle fill="#3A7F0D" cx="12.054" cy="22.78" r="0.554"/>
			<circle fill="#49A010" cx="11.961" cy="20.958" r="0.397"/>
			<circle fill="#49A010" cx="8.233" cy="20.349" r="0.99"/>
			<circle fill="#49A010" cx="11.187" cy="17.973" r="0.317"/>
			<circle fill="#49A010" cx="10.136" cy="14.958" r="0.91"/>
		</g>
	</g>
</g>
</svg>
