<?xml version="1.0" encoding="utf-8"?>
<!-- Generator: Adobe Illustrator 16.0.0, SVG Export Plug-In . SVG Version: 6.00 Build 0)  -->
<!DOCTYPE svg PUBLIC "-//W3C//DTD SVG 1.1//EN" "http://www.w3.org/Graphics/SVG/1.1/DTD/svg11.dtd">
<svg version="1.1" id="Layer_1" xmlns="http://www.w3.org/2000/svg" xmlns:xlink="http://www.w3.org/1999/xlink" x="0px" y="0px"
	 width="65px" height="65px" viewBox="0 0 65 65" enable-background="new 0 0 65 65" xml:space="preserve">
<g>
	<path fill="#A86743" d="M61.966,32.501c0-5.938-0.353-11.463-2.071-16.101C62.5,10.972,63.43,5.811,63.43,3.495
		c0-5.932-13.848-1.221-30.93-1.221S1.57-2.437,1.57,3.495c0,2.229,0.855,7.095,3.244,12.299c-1.681,4.758-1.781,10.51-1.781,16.707
		c0,5.937,0.354,11.461,2.072,16.099C2.5,54.028,1.57,59.19,1.57,61.507c0,5.93,13.848,1.219,30.93,1.219s30.93,4.711,30.93-1.219
		c0-2.231-1.132-7.1-3.764-12.306C61.588,44.444,61.966,38.695,61.966,32.501z"/>
	<path fill="#8C4E2F" d="M32.5,62.726c17.082,0,30.93,4.711,30.93-1.219c0-2.231-1.132-7.1-3.764-12.306
		c1.922-4.757,2.3-10.506,2.3-16.7c0-5.938-0.353-11.463-2.071-16.101C62.5,10.972,63.43,5.811,63.43,3.495
		c0-5.932-13.848-1.221-30.93-1.221"/>
	<path fill="#BC7957" d="M32.5,2.274c-15.641,0-28.562-3.944-30.633-0.057C7.15,3.907,18.874,5.083,32.5,5.083
		s25.351-1.176,30.633-2.865C61.062-1.67,48.141,2.274,32.5,2.274z"/>
	<path fill="#A86743" d="M63.133,2.218c0-0.001-0.002-0.002-0.002-0.002C63.07,2.1,62.997,1.992,62.916,1.89
		c-0.006-0.007-0.01-0.014-0.01-0.014c-0.086-0.107-0.178-0.199-0.275-0.287c-0.008-0.006-0.016-0.014-0.023-0.02
		c-0.101-0.087-0.211-0.168-0.328-0.242c-0.008-0.004-0.014-0.008-0.021-0.013c-2.692-1.667-9.837-0.371-19.046,0.438
		c-0.069,0.006-0.14,0.012-0.209,0.018c-0.373,0.032-0.75,0.063-1.129,0.095c-0.129,0.01-0.258,0.02-0.387,0.03
		c-0.331,0.025-0.665,0.05-1.002,0.074c-0.156,0.011-0.312,0.022-0.469,0.032c-0.316,0.021-0.635,0.042-0.955,0.062
		c-0.176,0.011-0.348,0.021-0.523,0.031c-0.309,0.018-0.621,0.033-0.934,0.049c-0.186,0.009-0.371,0.019-0.557,0.026
		c-0.312,0.014-0.627,0.025-0.941,0.037c-0.188,0.006-0.373,0.014-0.561,0.02c-0.34,0.011-0.682,0.018-1.023,0.025
		c-0.164,0.003-0.327,0.008-0.492,0.011C33.523,2.27,33.014,2.274,32.5,2.274v2.809C46.126,5.083,57.85,3.907,63.133,2.218z"/>
	<path fill="#8C4E2F" d="M8.875,32.5c0-7.891-1.986-14.848-5.01-18.959c0.287,0.739,0.6,1.491,0.949,2.253
		c-1.681,4.758-1.781,10.51-1.781,16.707c0,5.937,0.354,11.461,2.072,16.099c-0.461,0.962-0.869,1.913-1.229,2.845
		C6.893,47.33,8.875,40.381,8.875,32.5z"/>
	<path fill="#A86743" d="M56.125,32.5c0,6.553,1.372,12.458,3.568,16.628c1.896-4.742,2.272-10.464,2.272-16.627
		c0-5.938-0.353-11.463-2.071-16.101c0.461-0.962,0.868-1.914,1.229-2.845C58.107,17.67,56.125,24.619,56.125,32.5z"/>
	<g>
		<path fill="#7DA81D" d="M32.5,56.25c-4.986,0.001-9.674-1.941-13.199-5.467c-7.279-7.277-7.279-19.12,0-26.399
			c0.586-0.586,1.535-0.586,2.121,0s0.586,1.535,0,2.121c-6.108,6.109-6.108,16.049,0,22.157c6.109,6.107,16.047,6.107,22.156,0
			c2.959-2.959,4.588-6.894,4.588-11.079c0-4.185-1.629-8.119-4.588-11.078c-0.586-0.586-0.586-1.535,0-2.121s1.535-0.586,2.121,0
			c3.525,3.525,5.467,8.213,5.467,13.2c0,4.985-1.941,9.674-5.467,13.199S37.486,56.25,32.5,56.25z"/>
	</g>
	<path fill="#4C8E11" d="M45.699,50.783c3.525-3.525,5.467-8.214,5.467-13.199c0-4.987-1.941-9.675-5.467-13.2
		c-0.586-0.586-1.535-0.586-2.121,0s-0.586,1.535,0,2.121c2.959,2.959,4.588,6.894,4.588,11.078c0,4.186-1.629,8.12-4.588,11.079
		c-3.055,3.054-7.066,4.58-11.078,4.58v3.008C37.486,56.25,42.174,54.309,45.699,50.783z"/>
	<path fill="#7DA81D" d="M32.834,48.416c0,0.185-0.15,0.334-0.334,0.334l0,0c-0.184,0-0.334-0.149-0.334-0.334v-28.5
		c0-0.184,0.15-0.333,0.334-0.333l0,0c0.184,0,0.334,0.149,0.334,0.333V48.416z"/>
	<circle fill="#7DA81D" cx="32.5" cy="49.354" r="1.312"/>
	<g>
		<path fill="#7DA81D" d="M32.512,12.324c-1.386,0.68-2.435,3.739-2.435,5.199s1.05,2.671,2.435,2.93V12.324z"/>
		<path fill="#469315" d="M32.488,12.324c1.386,0.68,2.434,3.739,2.434,5.199s-1.049,2.671-2.434,2.93V12.324z"/>
	</g>
	<g>
		<g>
			<g>
				<path fill="#7DA81D" d="M38.633,21.438c-1.461-0.498-4.365,0.924-5.398,1.956c-1.031,1.032-1.146,2.631-0.35,3.792
					L38.633,21.438z"/>
				<path fill="#469315" d="M38.617,21.423c0.498,1.46-0.924,4.365-1.955,5.397c-1.033,1.032-2.631,1.146-3.793,0.351L38.617,21.423
					z"/>
			</g>
			<g>
				<path fill="#7DA81D" d="M38.633,28.188c-1.461-0.498-4.365,0.924-5.398,1.956c-1.031,1.032-1.146,2.631-0.35,3.792
					L38.633,28.188z"/>
				<path fill="#469315" d="M38.617,28.173c0.498,1.46-0.924,4.365-1.955,5.397c-1.033,1.032-2.631,1.146-3.793,0.351L38.617,28.173
					z"/>
			</g>
			<g>
				<path fill="#7DA81D" d="M38.633,34.938c-1.461-0.498-4.365,0.924-5.398,1.956c-1.031,1.032-1.146,2.631-0.35,3.792
					L38.633,34.938z"/>
				<path fill="#469315" d="M38.617,34.923c0.498,1.46-0.924,4.365-1.955,5.397c-1.033,1.032-2.631,1.146-3.793,0.351L38.617,34.923
					z"/>
			</g>
			<g>
				<path fill="#7DA81D" d="M37.609,42.709c-1.201-0.409-3.59,0.76-4.438,1.608c-0.85,0.849-0.943,2.163-0.289,3.118L37.609,42.709z
					"/>
				<path fill="#469315" d="M37.596,42.696c0.41,1.201-0.758,3.59-1.607,4.438s-2.162,0.942-3.119,0.288L37.596,42.696z"/>
			</g>
		</g>
		<g>
			<g>
				<path fill="#7DA81D" d="M26.367,21.438c1.461-0.498,4.365,0.924,5.398,1.956c1.031,1.032,1.146,2.631,0.35,3.792L26.367,21.438z
					"/>
				<path fill="#469315" d="M26.383,21.423c-0.498,1.46,0.924,4.365,1.955,5.397c1.033,1.032,2.631,1.146,3.793,0.351L26.383,21.423
					z"/>
			</g>
			<g>
				<path fill="#7DA81D" d="M26.367,28.188c1.461-0.498,4.365,0.924,5.398,1.956c1.031,1.032,1.146,2.631,0.35,3.792L26.367,28.188z
					"/>
				<path fill="#469315" d="M26.383,28.173c-0.498,1.46,0.924,4.365,1.955,5.397c1.033,1.032,2.631,1.146,3.793,0.351L26.383,28.173
					z"/>
			</g>
			<g>
				<path fill="#7DA81D" d="M26.367,34.938c1.461-0.498,4.365,0.924,5.398,1.956c1.031,1.032,1.146,2.631,0.35,3.792L26.367,34.938z
					"/>
				<path fill="#469315" d="M26.383,34.923c-0.498,1.46,0.924,4.365,1.955,5.397c1.033,1.032,2.631,1.146,3.793,0.351L26.383,34.923
					z"/>
			</g>
			<g>
				<path fill="#7DA81D" d="M27.391,42.709c1.201-0.409,3.59,0.76,4.438,1.608c0.85,0.849,0.943,2.163,0.289,3.118L27.391,42.709z"
					/>
				<path fill="#469315" d="M27.404,42.696c-0.41,1.201,0.758,3.59,1.607,4.438s2.162,0.942,3.119,0.288L27.404,42.696z"/>
			</g>
		</g>
	</g>
</g>
</svg>
