<?xml version="1.0" encoding="utf-8"?>
<!-- Generator: Adobe Illustrator 16.0.0, SVG Export Plug-In . SVG Version: 6.00 Build 0)  -->
<!DOCTYPE svg PUBLIC "-//W3C//DTD SVG 1.1//EN" "http://www.w3.org/Graphics/SVG/1.1/DTD/svg11.dtd">
<svg version="1.1" id="Layer_1" xmlns="http://www.w3.org/2000/svg" xmlns:xlink="http://www.w3.org/1999/xlink" x="0px" y="0px"
	 width="65px" height="65px" viewBox="0 0 65 65" enable-background="new 0 0 65 65" xml:space="preserve">
<g>
	<path fill="#5A20A5" d="M54.988,11.465c6.367,6.367,1.973,24.436-11.883,38.291S11.182,68.008,4.814,61.639
		c-6.369-6.367,8.113-14.348,21.969-28.205C40.641,19.58,48.621,5.096,54.988,11.465z"/>
	<path fill="#6731BC" d="M38.535,45.188c12.031-12.029,16.924-27.229,13.84-35.195c-5.963-1.078-13.562,11.414-25.592,23.441
		C14.754,45.463,2.26,53.064,3.342,59.027C11.309,62.109,26.506,57.217,38.535,45.188z"/>
	<path fill="#8354DD" d="M35.148,29.916c0.928,0.93-0.953,4.312-4.201,7.561s-6.631,5.129-7.561,4.201
		c-0.928-0.928,1.986-3.279,5.234-6.527S34.221,28.988,35.148,29.916z"/>
	<ellipse fill="#8354DD" cx="37.531" cy="27.275" rx="0.914" ry="1.006"/>
	<ellipse fill="#8354DD" cx="40.822" cy="23.619" rx="0.549" ry="0.641"/>
	<polygon fill="#7DA81D" points="51.971,8.176 41.553,10.734 47.949,12.379 46.67,19.324 50.873,15.305 50.691,21.336 
		55.078,16.582 56.539,20.057 57.088,16.582 61.109,19.873 56.904,10.004 	"/>
	<polygon fill="#68930A" points="56.814,13.293 58.277,16.766 58.686,14.182 56.904,10.004 51.971,8.176 48.986,8.91 49.688,9.09 
		48.408,16.035 52.611,12.014 52.428,18.045 	"/>
	<path fill="#68930A" d="M52.061,9.455c0,0-1.188-6.123,1.098-8.316c2.283-2.191,11.834,1.67,7.426,5.303
		c0,0-2.582,2.787-3.314-0.641c-0.746-3.496-3.471-1.92-2.559,0.547c0.914,2.469,3.475,4.045,1.555,4.686
		C54.346,11.672,52.061,9.455,52.061,9.455z"/>
</g>
</svg>
