<?xml version="1.0" encoding="utf-8"?>
<!-- Generator: Adobe Illustrator 16.0.0, SVG Export Plug-In . SVG Version: 6.00 Build 0)  -->
<!DOCTYPE svg PUBLIC "-//W3C//DTD SVG 1.1//EN" "http://www.w3.org/Graphics/SVG/1.1/DTD/svg11.dtd">
<svg version="1.1" id="Layer_1" xmlns="http://www.w3.org/2000/svg" xmlns:xlink="http://www.w3.org/1999/xlink" x="0px" y="0px"
	 width="65px" height="65px" viewBox="0 0 65 65" enable-background="new 0 0 65 65" xml:space="preserve">
<g>
	<g>
		<path fill="#FFC533" d="M62.08,37.617c0,12.031-13.244,15.408-29.58,15.408S2.92,49.648,2.92,37.617
			c0-12.033,13.244-21.787,29.58-21.787S62.08,25.584,62.08,37.617z"/>
		<path fill="#FFB031" d="M62.08,37.617c0,12.031-13.244,15.408-29.58,15.408S2.92,49.648,2.92,37.617
			c0-12.033,13.244-18.762,29.58-18.762S62.08,25.584,62.08,37.617z"/>
		<path fill="#FF912E" d="M62.08,37.617c0,12.031-13.244,15.408-29.58,15.408S2.92,49.648,2.92,37.617
			c0-12.033,13.244-5.492,29.58-5.492S62.08,25.584,62.08,37.617z"/>
		<ellipse fill="#FF4817" cx="32.5" cy="40.641" rx="10.688" ry="2.375"/>
		<path fill="#D33213" d="M43.188,40.641c0,1.312-4.785,2.375-10.688,2.375s-10.688-1.062-10.688-2.375
			c0-1.311,4.785,0.502,10.688,0.502S43.188,39.33,43.188,40.641z"/>
		<g>
			<circle fill="#082856" cx="20.81" cy="35.312" r="2.657"/>
			<circle fill="#082856" cx="44.19" cy="35.312" r="2.657"/>
		</g>
		<g>
			<path d="M23.467,35.312c0,1.469-1.189,2.658-2.656,2.658c-1.469,0-2.658-1.189-2.658-2.658"/>
			<path d="M46.848,35.312c0,1.469-1.189,2.658-2.656,2.658c-1.469,0-2.658-1.189-2.658-2.658"/>
		</g>
	</g>
	<path fill="#FFC533" d="M34.416,13.891c0,1.059-0.857,3.75-1.916,3.75s-1.916-2.691-1.916-3.75s0.857-1.916,1.916-1.916
		S34.416,12.832,34.416,13.891z"/>
</g>
</svg>
