<?xml version="1.0" encoding="utf-8"?>
<!-- Generator: Adobe Illustrator 16.0.0, SVG Export Plug-In . SVG Version: 6.00 Build 0)  -->
<!DOCTYPE svg PUBLIC "-//W3C//DTD SVG 1.1//EN" "http://www.w3.org/Graphics/SVG/1.1/DTD/svg11.dtd">
<svg version="1.1" id="Layer_1" xmlns="http://www.w3.org/2000/svg" xmlns:xlink="http://www.w3.org/1999/xlink" x="0px" y="0px"
	 width="65px" height="65px" viewBox="0 0 65 65" enable-background="new 0 0 65 65" xml:space="preserve">
<g>
	<path fill="#BC743F" d="M44.407,6.11c0,6.245-5.331,11.309-11.907,11.309S20.593,12.355,20.593,6.11S25.924,1.368,32.5,1.368
		S44.407-0.135,44.407,6.11z"/>
	<path fill="#BC743F" d="M57.885,52.129c0.079-0.747,0.122-1.536,0.122-2.38c0-14.087-11.419-33.021-25.507-33.021
		S6.993,35.662,6.993,49.749c0,0.844,0.043,1.633,0.122,2.38c-2.748,2.516-3.891,5.897-2.561,8.502
		c1.69,3.314,6.736,4.132,11.379,1.898c4.458,1.267,10.24,1.261,16.566,1.261s12.108,0.006,16.566-1.261
		c4.643,2.233,9.688,1.416,11.379-1.898C61.775,58.026,60.633,54.645,57.885,52.129z"/>
	<path fill="#A3612B" d="M57.885,52.129c0.079-0.747,0.122-1.536,0.122-2.38c0-14.087-11.419-5.733-25.507-5.733
		S6.993,35.662,6.993,49.749c0,0.844,0.043,1.633,0.122,2.38c-2.748,2.516-3.891,5.897-2.561,8.502
		c1.69,3.314,6.736,4.132,11.379,1.898c4.458,1.267,10.24,1.261,16.566,1.261s12.108,0.006,16.566-1.261
		c4.643,2.233,9.688,1.416,11.379-1.898C61.775,58.026,60.633,54.645,57.885,52.129z"/>
	<path fill="#17AF3E" d="M41.693,17.322c0,0.656-0.529,1.187-1.186,1.187H24.492c-0.656,0-1.187-0.53-1.187-1.187v-2.373
		c0-0.655,0.53-1.187,1.187-1.187h16.016c0.656,0,1.186,0.531,1.186,1.187V17.322z"/>
	<path fill="#23CC53" d="M40.508,13.763H24.492c-0.656,0-1.187,0.531-1.187,1.187v0.691c0,0.657,0.53,1.186,1.187,1.186h16.016
		c0.656,0,1.186-0.528,1.186-1.186v-0.691C41.693,14.294,41.164,13.763,40.508,13.763z"/>
	<path fill="#CE995F" d="M41.917,23.316c0,1.178-4.216-0.148-9.417-0.148c-5.202,0-9.417,1.326-9.417,0.148
		c0-1.177,4.215-2.88,9.417-2.88C37.701,20.437,41.917,22.14,41.917,23.316z"/>
	<path fill="#CE995F" d="M23.908,3.009c0-1.245,3.847,0.155,8.592,0.155c4.744,0,8.591-1.4,8.591-0.155
		c0,1.243-3.847,3.045-8.591,3.045C27.755,6.054,23.908,4.252,23.908,3.009z"/>
</g>
</svg>
