<?xml version="1.0" encoding="utf-8"?>
<!-- Generator: Adobe Illustrator 16.0.0, SVG Export Plug-In . SVG Version: 6.00 Build 0)  -->
<!DOCTYPE svg PUBLIC "-//W3C//DTD SVG 1.1//EN" "http://www.w3.org/Graphics/SVG/1.1/DTD/svg11.dtd">
<svg version="1.1" id="Layer_1" xmlns="http://www.w3.org/2000/svg" xmlns:xlink="http://www.w3.org/1999/xlink" x="0px" y="0px"
	 width="65px" height="65px" viewBox="0 0 65 65" enable-background="new 0 0 65 65" xml:space="preserve">
<g>
	<g>
		<path fill="#7F1105" d="M32.5,48.739c-6.2,0-11.858-4.207-14.827-10.871H6.369c-1.121,0-2.125-0.696-2.513-1.746
			c-0.393-1.049-0.092-2.232,0.754-2.965l11.293-9.795c1.49-8.112,7.484-12.737,16.597-12.737c9.112,0,15.106,4.625,16.597,12.737
			l11.292,9.795c0.847,0.733,1.147,1.917,0.755,2.965c-0.39,1.05-1.392,1.746-2.513,1.746H47.327
			C44.357,44.532,38.7,48.739,32.5,48.739z"/>
		<path fill="#AA2D15" d="M32.5,48.739c-6.2,0-11.858-4.207-14.827-10.871H6.369c-1.121,0-2.125-0.696-2.513-1.746
			c-0.393-1.049-0.092-2.232,0.754-2.965l11.293-9.795c1.49-8.112,7.484-6.965,16.597-6.965c9.112,0,15.106-1.147,16.597,6.965
			l11.292,9.795c0.847,0.733,1.147,1.917,0.755,2.965c-0.39,1.05-1.392,1.746-2.513,1.746H47.327
			C44.357,44.532,38.7,48.739,32.5,48.739z"/>
		<path fill="#AA2D15" d="M6.369,37.868"/>
		<path fill="#931C0C" d="M15.903,23.362c1.49-8.112,7.484-6.965,16.597-6.965c9.112,0,15.106-1.147,16.597,6.965l11.292,9.795
			c0.847,0.733,1.147,1.917,0.755,2.965c-0.39,1.05-1.392,1.746-2.513,1.746H47.327"/>
		<path fill="#421210" d="M32.5,13.309c7.129,0,13.019,3.276,14.099,11.439l12.032,10.436H45.506
			c-2.25,6.408-7.219,10.871-13.006,10.871s-10.757-4.463-13.006-10.871H6.369l12.032-10.436
			C19.482,16.585,25.372,13.309,32.5,13.309 M32.5,7.94c-10.047,0-17.022,5.183-19.041,13.987L2.851,31.129
			c-1.692,1.467-2.295,3.833-1.511,5.932c0.783,2.1,2.788,3.491,5.03,3.491H16c3.57,6.709,9.741,10.87,16.501,10.87
			s12.931-4.161,16.501-10.87h9.63c2.241,0,4.247-1.391,5.029-3.491c0.784-2.1,0.182-4.465-1.511-5.932l-10.608-9.202
			C49.522,13.124,42.548,7.94,32.5,7.94L32.5,7.94z"/>
		<path fill="#260707" d="M6.369,40.553H16c3.57,6.709,9.741,10.87,16.501,10.87s12.931-4.161,16.501-10.87h9.63
			c2.207,0,4.179-1.353,4.986-3.4c-0.311-0.789-0.801-1.509-1.469-2.088l-10.608-9.201c-2.019-8.805-8.994-15.599-19.041-15.599
			s-17.022,6.793-19.041,15.599L2.851,35.065c-0.667,0.579-1.157,1.299-1.469,2.088C2.19,39.2,4.162,40.553,6.369,40.553z
			 M6.369,35.184l12.032-10.436c1.081-8.163,6.97-11.439,14.099-11.439S45.519,16.585,46.6,24.748l12.032,10.436h-4.539l4.539,3.937
			H45.506c-2.25,6.406-7.219,10.871-13.006,10.871s-10.757-4.464-13.006-10.871H6.369l4.538-3.937H6.369z"/>
	</g>
	<rect x="6.437" y="35.073" fill="#BC3C1E" width="52.128" height="21.138"/>
	<polyline fill="#D14A2F" points="58.564,56.211 6.437,56.211 6.437,35.073 	"/>
	<g>
		<polygon fill="#421210" points="28.608,30.89 28.072,30.353 28.072,22.569 28.608,22.031 36.392,22.031 36.928,22.569 
			36.928,30.353 36.392,30.89 		"/>
		<polyline fill="#260707" points="36.392,22.031 36.928,22.569 36.928,30.353 36.392,30.89 28.608,30.89 28.072,30.353 		"/>
		<path fill="#D14A2F" d="M36.392,22.569v7.784h-7.783v-7.784H36.392 M36.392,21.496h-7.783l-1.074,1.073v7.784l1.074,1.074h7.783
			l1.075-1.074v-7.784L36.392,21.496L36.392,21.496z"/>
	</g>
	<g>
		<polyline fill="#2B0808" points="19.349,56.211 19.349,37.422 45.652,37.422 45.652,56.211 		"/>
		<polygon fill="#421210" points="19.349,40.31 19.349,56.211 45.652,56.211 45.652,50.974 		"/>
		<polygon fill="#AA2D15" points="46.189,56.211 45.115,56.211 45.115,37.958 19.885,37.958 19.885,56.211 18.812,56.211 
			18.812,37.422 19.349,36.885 45.652,36.885 46.189,37.422 		"/>
	</g>
	<g>
		<g>
			<g>
				<path fill="#AA2D15" d="M15.937,49.991H9.788c-0.204,0-0.369-0.166-0.369-0.369v-6.15c0-0.203,0.165-0.369,0.369-0.369h6.149
					c0.205,0,0.368,0.166,0.368,0.369v6.15C16.305,49.825,16.142,49.991,15.937,49.991z M10.157,49.253h5.411v-5.412h-5.411V49.253z
					"/>
			</g>
			<g>
				<g>
					<path fill="#AA2D15" d="M10.135,49.643c-0.094,0-0.188-0.036-0.26-0.107c-0.144-0.144-0.144-0.38,0-0.523l5.449-5.453
						c0.146-0.141,0.379-0.144,0.523,0c0.145,0.145,0.145,0.379,0,0.523l-5.449,5.453C10.324,49.606,10.229,49.643,10.135,49.643z"
						/>
				</g>
				<g>
					<path fill="#AA2D15" d="M15.588,49.643c-0.094,0-0.19-0.037-0.264-0.107l-5.449-5.453c-0.144-0.144-0.144-0.378,0-0.523
						c0.144-0.144,0.377-0.144,0.523,0l5.449,5.453c0.145,0.143,0.145,0.379,0,0.523C15.776,49.607,15.681,49.643,15.588,49.643z"/>
				</g>
			</g>
		</g>
		<g>
			<g>
				<path fill="#AA2D15" d="M55.213,49.991h-6.148c-0.205,0-0.37-0.166-0.37-0.369v-6.15c0-0.203,0.166-0.369,0.37-0.369h6.148
					c0.204,0,0.369,0.166,0.369,0.369v6.15C55.583,49.825,55.417,49.991,55.213,49.991z M49.432,49.253h5.412v-5.412h-5.412V49.253z
					"/>
			</g>
			<g>
				<g>
					<path fill="#AA2D15" d="M49.411,49.643c-0.092,0-0.188-0.036-0.258-0.107c-0.145-0.144-0.145-0.38,0-0.523l5.449-5.453
						c0.145-0.141,0.379-0.144,0.523,0c0.145,0.145,0.145,0.379,0,0.523l-5.45,5.453C49.603,49.606,49.507,49.643,49.411,49.643z"/>
				</g>
				<g>
					<path fill="#AA2D15" d="M54.864,49.643c-0.093,0-0.188-0.037-0.262-0.107l-5.449-5.453c-0.145-0.144-0.145-0.378,0-0.523
						c0.143-0.144,0.375-0.144,0.522,0l5.45,5.453c0.145,0.143,0.145,0.379,0,0.523C55.052,49.607,54.958,49.643,54.864,49.643z"/>
				</g>
			</g>
		</g>
	</g>
	<path fill="#931C0C" d="M59.274,56.456c0,0.333-0.27,0.604-0.604,0.604H6.331c-0.333,0-0.604-0.27-0.604-0.604l0,0
		c0-0.333,0.27-0.604,0.604-0.604h52.34C59.004,55.852,59.274,56.123,59.274,56.456L59.274,56.456z"/>
</g>
</svg>
