<?xml version="1.0" encoding="utf-8"?>
<!-- Generator: Adobe Illustrator 16.0.0, SVG Export Plug-In . SVG Version: 6.00 Build 0)  -->
<!DOCTYPE svg PUBLIC "-//W3C//DTD SVG 1.1//EN" "http://www.w3.org/Graphics/SVG/1.1/DTD/svg11.dtd">
<svg version="1.1" id="Layer_1" xmlns="http://www.w3.org/2000/svg" xmlns:xlink="http://www.w3.org/1999/xlink" x="0px" y="0px"
	 width="65px" height="65px" viewBox="0 0 65 65" enable-background="new 0 0 65 65" xml:space="preserve">
<g>
	<path fill="#57AF3A" d="M17.165,35.735c1.607-1.429,2.53-3.375,2.53-5.522c0-2.46-1.006-4.56-2.772-5.871
		c-1.924-1.557-4.436-2.252-8.146-2.252c-2.294,0-4.761,0.219-6.438,0.573C1.56,22.828,1,23.518,1,24.316v25.385
		c0,0.844,0.621,1.558,1.457,1.673c0.869,0.121,2.727,0.323,5.401,0.323c4.735,0,7.935-0.908,10.099-2.89
		c1.788-1.736,2.694-3.884,2.694-6.381C20.651,39.276,19.099,37.081,17.165,35.735z M12.945,30.557c0,1.944-2.014,2.638-3.899,2.638
		H7.709v-5.127c0.376-0.021,0.797-0.033,1.26-0.033C12.945,28.035,12.945,29.738,12.945,30.557z M7.709,39.101h1.068
		c1.856,0,4.973,0.427,4.973,3.288c0,2.207-1.659,3.327-4.934,3.327c-0.414,0-0.783-0.005-1.107-0.016V39.101z"/>
	<path fill="#57AF3A" d="M30.605,22.281h-3.331c-0.933,0-1.689,0.757-1.689,1.689v25.809c0,0.933,0.757,1.689,1.689,1.689h3.331
		c0.933,0,1.688-0.756,1.688-1.689V23.97C32.294,23.038,31.538,22.281,30.605,22.281z"/>
	<path fill="#57AF3A" d="M50.709,21.86c-8.052,0-13.676,6.269-13.676,15.244c0,8.705,5.466,14.785,13.293,14.785
		C57.133,51.89,64,47.165,64,36.606C64,27.923,58.535,21.86,50.709,21.86z"/>
	<path fill="#429623" d="M50.709,25.469c-7.494,0-12.88,5.433-13.589,13.422c0.698,7.737,5.928,12.998,13.206,12.998
		c6.385,0,12.824-4.16,13.596-13.392C63.248,30.745,58.007,25.469,50.709,25.469z"/>
	<g>
		<path fill="#429623" d="M2.457,51.375c0.852,0.12,2.66,0.314,5.252,0.321V45.7v-0.446v-5.906v-0.246V34.22
			c0.376-0.021,0.797-0.033,1.26-0.033c3.977,0,3.977,1.704,3.977,2.522c0,1.484-1.175,2.236-2.568,2.51
			c1.647,0.26,3.373,1.041,3.373,3.169c0,1.646-0.926,2.687-2.754,3.108c1.434,0.354,2.754,1.182,2.754,3.044
			c0,1.427-0.705,2.393-2.081,2.902c2.718-0.389,4.766-1.241,6.288-2.635c0.988-0.959,1.698-2.05,2.144-3.251
			c-0.618-1.59-1.695-2.807-2.936-3.67c1.148-1.02,1.938-2.307,2.302-3.74c-0.615-0.987-1.413-1.794-2.302-2.413
			c0.817-0.726,1.456-1.587,1.887-2.539c-0.472-1.08-1.188-2.004-2.129-2.701c-1.409-1.141-3.142-1.816-5.424-2.097
			c1.438,0.546,1.446,1.576,1.446,2.159c0,1.944-2.014,2.638-3.899,2.638H7.709V28.26c-1.966,0.055-3.95,0.256-5.369,0.556
			C1.56,28.98,1,29.67,1,30.469v19.233C1,50.545,1.621,51.26,2.457,51.375z"/>
		<path fill="#429623" d="M30.605,28.434h-3.331c-0.933,0-1.689,0.757-1.689,1.689v19.657c0,0.933,0.757,1.689,1.689,1.689h3.331
			c0.933,0,1.688-0.756,1.688-1.689V30.123C32.294,29.19,31.538,28.434,30.605,28.434z"/>
	</g>
	<g>
		<path fill="#EBF0F2" d="M49.588,28.228c-2.949,1.447-5.182,7.954-5.182,11.06c0,3.107,2.232,5.685,5.182,6.234V28.228z"/>
		<path fill="#EBF0F2" d="M51.449,28.228c2.947,1.447,5.178,7.954,5.178,11.06c0,3.107-2.233,5.685-5.178,6.234V28.228z"/>
	</g>
	<g>
		<g>
			<path fill="#57AF3A" d="M16.69,13.326c-1.062,3.108,1.961,9.288,4.158,11.484c2.196,2.198,5.597,2.442,8.071,0.745L16.69,13.326z
				"/>
			<path fill="#6BD146" d="M16.688,13.33c3.106-1.061,9.284,1.963,11.479,4.16c2.198,2.197,2.442,5.598,0.748,8.069L16.688,13.33z"
				/>
		</g>
		<g>
			<path fill="#57AF3A" d="M41.188,13.326c1.062,3.108-1.961,9.288-4.159,11.484c-2.195,2.198-5.597,2.442-8.07,0.745L41.188,13.326
				z"/>
			<path fill="#6BD146" d="M41.192,13.33c-3.107-1.061-9.286,1.963-11.482,4.16c-2.197,2.197-2.441,5.598-0.747,8.069L41.192,13.33z
				"/>
		</g>
	</g>
</g>
</svg>
