<?xml version="1.0" encoding="utf-8"?>
<!-- Generator: Adobe Illustrator 16.0.0, SVG Export Plug-In . SVG Version: 6.00 Build 0)  -->
<!DOCTYPE svg PUBLIC "-//W3C//DTD SVG 1.1//EN" "http://www.w3.org/Graphics/SVG/1.1/DTD/svg11.dtd">
<svg version="1.1" id="Layer_1" xmlns="http://www.w3.org/2000/svg" xmlns:xlink="http://www.w3.org/1999/xlink" x="0px" y="0px"
	 width="65px" height="65px" viewBox="0 0 65 65" enable-background="new 0 0 65 65" xml:space="preserve">
<g>
	<g>
		<ellipse fill="#97A8AA" cx="32.499" cy="59.413" rx="20.979" ry="5.087"/>
		<path fill="#AEB9BA" d="M53.479,59.413c0,2.811-9.393,5.087-20.98,5.087S11.52,62.224,11.52,59.413"/>
	</g>
	<g>
		<path fill="#E8B277" d="M13.688,20.913l2.688,2.688l2.688-2.688l2.688,2.688l2.688-2.688l2.688,2.688l2.688-2.688l2.688,2.688
			l2.688-2.688l2.688,2.688l2.688-2.688l2.688,2.688l2.688-2.688l2.688,2.688l2.688-2.688l1.848,1.849
			C49.084,11.551,41.361,0.5,32.498,0.5c-8.857,0-16.578,11.05-20.656,22.26L13.688,20.913z"/>
		<path fill="#E8B277" d="M54.428,26.638l-3.115,3.115l-2.688-2.688l-2.688,2.688l-2.688-2.688l-2.688,2.688l-2.688-2.688
			l-2.688,2.688L32.5,27.065l-2.688,2.688l-2.688-2.688l-2.688,2.688l-2.688-2.688l-2.688,2.688l-2.688-2.688l-2.688,2.688
			l-3.115-3.114c-1.164,4.039-1.809,7.935-1.809,11.158c0,13.112,10.629,23.74,23.734,23.74c13.113,0,23.738-10.628,23.738-23.74
			C56.236,34.573,55.592,30.678,54.428,26.638z"/>
	</g>
	<g>
		<path fill="#EFBF8B" d="M13.688,20.913l2.688,2.688l2.688-2.688l0.271,0.272L32.498,0.5c-8.857,0-16.578,11.05-20.656,22.26
			L13.688,20.913z"/>
		<path fill="#EFBF8B" d="M13.688,29.753l-3.115-3.114c-1.164,4.039-1.809,7.935-1.809,11.158l5.459-8.579L13.688,29.753z"/>
	</g>
	<g>
		<path fill="#D89E60" d="M32.5,23.601l2.688-2.688l2.688,2.688l2.688-2.688l2.688,2.688l2.688-2.688l2.688,2.688l2.688-2.688
			l1.848,1.849C49.084,11.551,41.361,0.5,32.498,0.5v23.1L32.5,23.601z"/>
		<path fill="#D89E60" d="M54.428,26.638l-3.115,3.115l-2.688-2.688l-2.688,2.688l-2.688-2.688l-2.688,2.688l-2.688-2.688
			l-2.688,2.688L32.5,27.065l-0.002,0.001v34.471c13.113,0,23.738-10.628,23.738-23.74C56.236,34.573,55.592,30.678,54.428,26.638z"
			/>
	</g>
</g>
</svg>
