<?xml version="1.0" encoding="utf-8"?>
<!-- Generator: Adobe Illustrator 16.0.0, SVG Export Plug-In . SVG Version: 6.00 Build 0)  -->
<!DOCTYPE svg PUBLIC "-//W3C//DTD SVG 1.1//EN" "http://www.w3.org/Graphics/SVG/1.1/DTD/svg11.dtd">
<svg version="1.1" id="Layer_1" xmlns="http://www.w3.org/2000/svg" xmlns:xlink="http://www.w3.org/1999/xlink" x="0px" y="0px"
	 width="65px" height="65px" viewBox="0 0 65 65" enable-background="new 0 0 65 65" xml:space="preserve">
<g>
	<g>
		<path fill="#1E4405" d="M16.591,21.685c-0.356,0.505-0.568,1.116-0.568,1.78c0,1.158,0.642,2.156,1.583,2.689
			c0.223,1.333,1.109,2.439,2.312,2.965c-0.141,0.226-0.229,0.493-0.229,0.78c0,0.809,0.657,1.466,1.468,1.466
			c0.25,0,0.483-0.068,0.69-0.18c0.488,0.586,1.142,1.025,1.889,1.252c0.195,1.525,1.484,2.709,3.062,2.709
			c0.535,0,1.029-0.148,1.467-0.385c0.541,0.281,1.156,0.441,1.807,0.441c0.917,0,1.758-0.314,2.428-0.84
			c0.67,0.525,1.512,0.84,2.428,0.84c0.651,0,1.266-0.16,1.807-0.441c0.438,0.236,0.934,0.385,1.466,0.385
			c1.578,0,2.868-1.184,3.063-2.709c0.748-0.227,1.401-0.666,1.889-1.252c0.209,0.111,0.44,0.18,0.69,0.18
			c0.812,0,1.468-0.657,1.468-1.466c0-0.287-0.086-0.555-0.229-0.78c1.203-0.525,2.092-1.632,2.314-2.965
			c0.94-0.533,1.582-1.531,1.582-2.689c0-0.664-0.212-1.275-0.567-1.78c0.438-0.255,0.737-0.723,0.737-1.266
			c0-0.811-0.656-1.468-1.467-1.468c-0.033,0-0.063,0.009-0.095,0.01c-0.188-1.492-1.425-2.652-2.955-2.707
			c-0.26-0.412-0.716-0.688-1.239-0.688c-0.233,0-0.452,0.06-0.647,0.158c-0.561-0.551-1.326-0.892-2.174-0.892
			c-1.429,0-2.621,0.972-2.98,2.287c-0.098-0.01-0.192-0.03-0.293-0.03c-0.41,0-0.799,0.084-1.155,0.228
			c-0.505-0.355-1.116-0.566-1.779-0.566c-0.702,0-1.343,0.242-1.862,0.635c-0.52-0.393-1.16-0.635-1.863-0.635
			c-0.661,0-1.274,0.211-1.777,0.566c-0.358-0.144-0.746-0.228-1.156-0.228c-0.1,0-0.194,0.021-0.291,0.03
			c-0.361-1.315-1.551-2.287-2.981-2.287c-0.847,0-1.612,0.341-2.174,0.892c-0.195-0.099-0.414-0.158-0.647-0.158
			c-0.524,0-0.979,0.276-1.24,0.688c-1.529,0.055-2.767,1.215-2.955,2.707c-0.031-0.001-0.062-0.01-0.094-0.01
			c-0.81,0-1.467,0.657-1.467,1.468C15.854,20.962,16.152,21.43,16.591,21.685z"/>
		<path fill="#2A6602" d="M36.119,33.307c0,1.85-1.5,2.219-3.35,2.219s-3.35-0.369-3.35-2.217c0-1.85,1.5-10.991,3.35-10.993
			C34.619,22.315,36.119,31.458,36.119,33.307z"/>
		<path fill="#51B224" d="M40.592,59.145c0,4.467-3.623,5.355-8.092,5.355s-8.092-0.889-8.092-5.355
			c0-4.469,3.623-26.555,8.092-26.555S40.592,54.676,40.592,59.145z"/>
		<path fill="#3E9311" d="M32.5,32.59c4.469,0,8.092,22.086,8.092,26.555c0,4.467-3.623,5.355-8.092,5.355"/>
		<g>
			<path fill="#51B224" d="M32.981,36.111c1.615,1.617,0.628,3.25-0.989,4.865c-1.616,1.615-3.248,2.605-4.863,0.99
				c-1.617-1.617-8.296-10.916-6.681-12.532C22.065,27.817,31.364,34.496,32.981,36.111z"/>
			<path fill="#3E9311" d="M20.448,29.435c1.617-1.617,10.916,5.062,12.533,6.677c1.615,1.617,0.628,3.25-0.989,4.865"/>
			<path fill="#51B224" d="M32.019,36.111c-1.616,1.617-0.627,3.25,0.989,4.865s3.248,2.605,4.863,0.99
				c1.617-1.617,8.295-10.916,6.68-12.532C42.935,27.817,33.635,34.496,32.019,36.111z"/>
			<path fill="#3E9311" d="M44.551,29.435c-1.616-1.617-10.916,5.062-12.532,6.677c-1.616,1.617-0.627,3.25,0.989,4.865"/>
		</g>
		<path fill="#2F7005" d="M57.913,22.095c0.568-0.806,0.907-1.782,0.907-2.845c0-1.85-1.025-3.444-2.527-4.296
			c-0.357-2.129-1.774-3.896-3.697-4.734c0.229-0.361,0.366-0.787,0.366-1.246c0-1.294-1.049-2.343-2.343-2.343
			c-0.4,0-0.772,0.109-1.104,0.287c-0.779-0.934-1.822-1.639-3.018-2c-0.312-2.437-2.372-4.326-4.895-4.326
			c-0.851,0-1.64,0.234-2.339,0.612C38.398,0.757,37.418,0.5,36.378,0.5c-1.464,0-2.808,0.503-3.878,1.34
			c-1.071-0.837-2.414-1.34-3.878-1.34c-1.04,0-2.021,0.257-2.886,0.704c-0.7-0.378-1.489-0.612-2.341-0.612
			c-2.521,0-4.581,1.89-4.894,4.326c-1.194,0.361-2.239,1.066-3.018,2c-0.332-0.178-0.703-0.287-1.104-0.287
			c-1.295,0-2.344,1.049-2.344,2.343c0,0.459,0.138,0.885,0.367,1.246c-1.923,0.839-3.34,2.605-3.697,4.734
			C7.205,15.806,6.18,17.4,6.18,19.25c0,1.062,0.339,2.039,0.906,2.845c-0.7,0.406-1.177,1.155-1.177,2.022
			c0,1.294,1.049,2.343,2.343,2.343c0.051,0,0.1-0.013,0.15-0.015c0.301,2.385,2.276,4.236,4.721,4.323
			c0.416,0.659,1.144,1.1,1.979,1.1c0.374,0,0.723-0.095,1.034-0.251c0.896,0.879,2.12,1.424,3.473,1.424
			c2.283,0,4.187-1.552,4.762-3.653c0.156,0.015,0.308,0.048,0.468,0.048c0.653,0,1.273-0.134,1.845-0.363
			c0.805,0.566,1.782,0.904,2.842,0.904c1.122,0,2.145-0.386,2.975-1.015c0.83,0.629,1.852,1.015,2.975,1.015
			c1.059,0,2.037-0.338,2.842-0.904c0.57,0.229,1.191,0.363,1.846,0.363c0.158,0,0.312-0.033,0.467-0.048
			c0.574,2.102,2.479,3.653,4.762,3.653c1.353,0,2.576-0.545,3.472-1.424c0.313,0.156,0.661,0.251,1.035,0.251
			c0.837,0,1.563-0.44,1.979-1.1c2.443-0.087,4.42-1.938,4.72-4.323c0.051,0.002,0.1,0.015,0.151,0.015
			c1.294,0,2.343-1.049,2.343-2.343C59.091,23.25,58.614,22.501,57.913,22.095z"/>
		<path fill="#3A8708" d="M8.402,16.891c0.301,2.385,2.276,4.237,4.721,4.323c0.416,0.659,1.144,1.1,1.979,1.1
			c0.374,0,0.723-0.095,1.034-0.251c0.896,0.879,2.12,1.424,3.473,1.424c2.283,0,4.187-1.552,4.762-3.653
			c0.156,0.016,0.308,0.048,0.468,0.048c0.653,0,1.273-0.134,1.845-0.363c0.805,0.566,1.782,0.904,2.842,0.904
			c1.122,0,2.145-0.386,2.975-1.014c0.83,0.628,1.852,1.014,2.975,1.014c1.059,0,2.037-0.338,2.842-0.904
			c0.57,0.229,1.191,0.363,1.846,0.363c0.158,0,0.312-0.032,0.467-0.048c0.574,2.102,2.479,3.653,4.762,3.653
			c1.353,0,2.576-0.545,3.472-1.424c0.313,0.156,0.661,0.251,1.035,0.251c0.837,0,1.563-0.44,1.979-1.1
			c2.443-0.086,4.42-1.938,4.72-4.323c0.051,0.002,0.1,0.015,0.151,0.015c0.457,0,0.882-0.136,1.242-0.363
			c-0.434-0.651-1.013-1.199-1.697-1.588c-0.357-2.129-1.774-3.896-3.697-4.734c0.229-0.361,0.366-0.787,0.366-1.246
			c0-1.294-1.049-2.343-2.343-2.343c-0.4,0-0.772,0.109-1.104,0.287c-0.779-0.934-1.822-1.639-3.018-2
			c-0.312-2.437-2.372-4.326-4.895-4.326c-0.851,0-1.64,0.234-2.339,0.612C38.398,0.757,37.418,0.5,36.378,0.5
			c-1.464,0-2.808,0.503-3.878,1.34c-1.071-0.837-2.414-1.34-3.878-1.34c-1.04,0-2.021,0.257-2.886,0.704
			c-0.7-0.378-1.489-0.612-2.341-0.612c-2.521,0-4.581,1.89-4.894,4.326c-1.194,0.361-2.239,1.066-3.018,2
			c-0.332-0.178-0.703-0.287-1.104-0.287c-1.295,0-2.344,1.049-2.344,2.343c0,0.459,0.138,0.885,0.367,1.246
			c-1.923,0.839-3.34,2.605-3.697,4.734c-0.685,0.389-1.264,0.937-1.697,1.588c0.359,0.228,0.785,0.363,1.242,0.363
			C8.303,16.905,8.352,16.893,8.402,16.891z"/>
		<g>
			<g>
				<path fill="#4A9B16" d="M28.311,6.98c0.218,0.721-1.111,0.716-2.613,1.165s-2.611,1.183-2.828,0.462
					c-0.214-0.721,0.829-1.669,2.332-2.118C26.703,6.04,28.095,6.26,28.311,6.98z"/>
				<path fill="#4A9B16" d="M15.902,12.211c0.155,0.515-0.789,0.511-1.858,0.829c-1.069,0.321-1.86,0.843-2.012,0.33
					c-0.154-0.514,0.59-1.188,1.659-1.509C14.76,11.542,15.75,11.698,15.902,12.211z"/>
				<path fill="#4A9B16" d="M20.861,7.779c0.242,0.479-0.688,0.642-1.684,1.144c-0.997,0.504-1.682,1.156-1.924,0.678
					c-0.242-0.479,0.371-1.272,1.368-1.776C19.617,7.322,20.619,7.302,20.861,7.779z"/>
				<path fill="#4A9B16" d="M30.861,4.046c0.021,0.536-0.893,0.298-2.006,0.342c-1.115,0.047-2.011,0.356-2.032-0.18
					c-0.021-0.535,0.866-1.004,1.981-1.05C29.918,3.114,30.84,3.511,30.861,4.046z"/>
				<path fill="#4A9B16" d="M25.111,2.319c0.231,0.484-0.703,0.628-1.706,1.109c-1.008,0.484-1.705,1.124-1.938,0.64
					c-0.23-0.483,0.398-1.265,1.402-1.749C23.876,1.838,24.88,1.837,25.111,2.319z"/>
				<circle fill="#4A9B16" cx="20.956" cy="6.225" r="0.586"/>
				<circle fill="#4A9B16" cx="15.231" cy="8.974" r="0.45"/>
				<circle fill="#4A9B16" cx="12.843" cy="15.869" r="0.766"/>
				<circle fill="#4A9B16" cx="20.325" cy="11.542" r="0.585"/>
				<circle fill="#4A9B16" cx="30.286" cy="1.943" r="0.271"/>
				<circle fill="#4A9B16" cx="25.011" cy="4.782" r="0.496"/>
				<circle fill="#4A9B16" cx="31.051" cy="7.487" r="0.405"/>
			</g>
			<g>
				<path fill="#4A9B16" d="M36.689,6.98c-0.219,0.721,1.111,0.716,2.613,1.165s2.611,1.183,2.827,0.462
					c0.215-0.721-0.828-1.669-2.331-2.118C38.297,6.04,36.905,6.26,36.689,6.98z"/>
				<path fill="#4A9B16" d="M49.097,12.211c-0.153,0.515,0.79,0.511,1.859,0.829c1.069,0.321,1.859,0.843,2.011,0.33
					c0.155-0.514-0.589-1.188-1.658-1.509C50.24,11.542,49.249,11.698,49.097,12.211z"/>
				<path fill="#4A9B16" d="M44.139,7.779c-0.243,0.479,0.688,0.642,1.684,1.144c0.998,0.504,1.682,1.156,1.923,0.678
					c0.243-0.479-0.37-1.272-1.367-1.776C45.383,7.322,44.38,7.302,44.139,7.779z"/>
				<path fill="#4A9B16" d="M34.14,4.046c-0.023,0.536,0.892,0.298,2.005,0.342c1.115,0.047,2.011,0.356,2.032-0.18
					c0.021-0.535-0.866-1.004-1.981-1.05C35.082,3.114,34.16,3.511,34.14,4.046z"/>
				<path fill="#4A9B16" d="M39.891,2.319c-0.232,0.484,0.701,0.628,1.704,1.109c1.008,0.484,1.704,1.124,1.938,0.64
					c0.232-0.483-0.397-1.265-1.402-1.749C41.124,1.838,40.119,1.837,39.891,2.319z"/>
				<circle fill="#4A9B16" cx="44.044" cy="6.225" r="0.586"/>
				<path fill="#4A9B16" d="M49.32,8.974c0,0.249,0.199,0.451,0.447,0.451c0.251,0,0.451-0.202,0.451-0.451s-0.2-0.45-0.451-0.45
					C49.52,8.523,49.32,8.725,49.32,8.974z"/>
				<circle fill="#4A9B16" cx="52.157" cy="15.869" r="0.766"/>
				<circle fill="#4A9B16" cx="44.675" cy="11.542" r="0.585"/>
				<circle fill="#4A9B16" cx="34.714" cy="1.943" r="0.271"/>
				<circle fill="#4A9B16" cx="39.989" cy="4.782" r="0.496"/>
				<circle fill="#4A9B16" cx="33.949" cy="7.487" r="0.405"/>
			</g>
		</g>
	</g>
	<circle fill="#3E9311" cx="32.5" cy="41.098" r="1.078"/>
</g>
</svg>
