<?xml version="1.0" encoding="utf-8"?>
<!-- Generator: Adobe Illustrator 16.0.0, SVG Export Plug-In . SVG Version: 6.00 Build 0)  -->
<!DOCTYPE svg PUBLIC "-//W3C//DTD SVG 1.1//EN" "http://www.w3.org/Graphics/SVG/1.1/DTD/svg11.dtd">
<svg version="1.1" id="Layer_1" xmlns="http://www.w3.org/2000/svg" xmlns:xlink="http://www.w3.org/1999/xlink" x="0px" y="0px"
	 width="65px" height="65px" viewBox="0 0 65 65" enable-background="new 0 0 65 65" xml:space="preserve">
<g>
	<g>
		<path fill="#76999B" d="M53.084,23.416h-3.048V7.046c0-0.704-0.576-1.28-1.283-1.28H16.247c-0.708,0-1.283,0.576-1.283,1.28v16.37
			h-3.048V7.046c0-2.386,1.943-4.33,4.331-4.33h32.506c2.388,0,4.331,1.944,4.331,4.33V23.416z"/>
	</g>
	<g>
		<path fill="#5D7C7C" d="M16.247,5.766c-2.388,0-4.331,1.942-4.331,4.33v13.32h3.048v-13.32v-3.05
			C14.964,6.342,15.539,5.766,16.247,5.766z"/>
		<path fill="#5D7C7C" d="M48.753,5.766c0.707,0,1.283,0.576,1.283,1.28v3.05v13.32h3.048v-13.32
			C53.084,7.708,51.141,5.766,48.753,5.766z"/>
	</g>
	<path fill="#8CAFAF" d="M47.561,59.907c0,2.109-1.709,3.819-3.819,3.819H22.53c-2.108,0-3.817-1.71-3.817-3.819l-7.637-36.061
		c0-2.11,1.709-3.816,3.819-3.816h35.21c2.11,0,3.818,1.706,3.818,3.816L47.561,59.907z"/>
	<path fill="#76999B" d="M11.076,23.847c0-2.11,1.709-3.816,3.819-3.816h35.21c2.11,0,3.818,1.706,3.818,3.816l-6.362,36.061
		c0,2.109-1.709,3.819-3.819,3.819"/>
	<ellipse fill="#547272" cx="32.5" cy="20.708" rx="18.851" ry="2.159"/>
	<path fill="#3F5655" d="M51.352,20.708c0,1.193-8.44,2.159-18.852,2.159c-10.412,0-18.851-0.966-18.851-2.159"/>
	<g>
		<g>
			<circle fill="#9DC1C0" cx="11.541" cy="22.402" r="2.541"/>
			<path fill="#8CAFAF" d="M13.338,20.605c0.992,0.992,0.992,2.601,0,3.593c-0.992,0.992-2.602,0.992-3.593,0.002"/>
		</g>
		<g>
			<circle fill="#9DC1C0" cx="53.459" cy="22.402" r="2.54"/>
			<path fill="#8CAFAF" d="M55.257,20.605c0.991,0.992,0.991,2.601,0,3.593c-0.993,0.992-2.604,0.992-3.595,0.002"/>
		</g>
	</g>
	<path fill="#FF6D00" d="M40.293,6.401c0,0.443-0.358,0.801-0.801,0.801H25.505c-0.441,0-0.799-0.357-0.799-0.801V2.074
		c0-0.445,0.357-0.801,0.799-0.801h13.987c0.442,0,0.801,0.355,0.801,0.801V6.401z"/>
	<path fill="#FF8B00" d="M39.493,1.273H25.505c-0.441,0-0.799,0.355-0.799,0.801v1.194c0,0.442,0.357,0.801,0.799,0.801h13.987
		c0.442,0,0.801-0.358,0.801-0.801V2.074C40.293,1.629,39.935,1.273,39.493,1.273z"/>
	<g>
		<circle fill="#8CAFAF" cx="22.084" cy="30.275" r="0.762"/>
		<circle fill="#8CAFAF" cx="27.292" cy="30.275" r="0.762"/>
		<circle fill="#8CAFAF" cx="32.5" cy="30.275" r="0.763"/>
		<circle fill="#8CAFAF" cx="37.707" cy="30.275" r="0.762"/>
		<circle fill="#8CAFAF" cx="42.916" cy="30.275" r="0.762"/>
	</g>
</g>
</svg>
