<?xml version="1.0" encoding="utf-8"?>
<!-- Generator: Adobe Illustrator 16.0.0, SVG Export Plug-In . SVG Version: 6.00 Build 0)  -->
<!DOCTYPE svg PUBLIC "-//W3C//DTD SVG 1.1//EN" "http://www.w3.org/Graphics/SVG/1.1/DTD/svg11.dtd">
<svg version="1.1" id="Layer_1" xmlns="http://www.w3.org/2000/svg" xmlns:xlink="http://www.w3.org/1999/xlink" x="0px" y="0px"
	 width="65px" height="65px" viewBox="0 0 65 65" enable-background="new 0 0 65 65" xml:space="preserve">
<g>
	<g>
		<path fill="#FF860D" d="M42.551,20.173c0,5.551-4.5,44.327-10.051,44.327S22.449,25.724,22.449,20.173s4.5-7.989,10.051-7.989
			S42.551,14.622,42.551,20.173z"/>
		<path fill="#E56107" d="M38.17,20.173c0,5.551-2.539,44.327-5.67,44.327s-5.67-38.776-5.67-44.327s2.539-7.989,5.67-7.989
			S38.17,14.622,38.17,20.173z"/>
		<g>
			<g>
				<g>
					<path fill="#E56107" d="M28.679,19.873c0,0.308-0.25,0.559-0.56,0.559h-2.317c-0.309,0-0.56-0.251-0.56-0.559l0,0
						c0-0.309,0.251-0.559,0.56-0.559h2.317C28.429,19.314,28.679,19.564,28.679,19.873L28.679,19.873z"/>
					<path fill="#FF860D" d="M31.684,23.566c0,0.309-0.249,0.559-0.559,0.559h-2.317c-0.31,0-0.56-0.25-0.56-0.559l0,0
						c0-0.308,0.25-0.559,0.56-0.559h2.317C31.435,23.008,31.684,23.259,31.684,23.566L31.684,23.566z"/>
				</g>
				<g>
					<path fill="#E56107" d="M28.679,27.991c0,0.308-0.25,0.559-0.56,0.559h-2.317c-0.309,0-0.56-0.251-0.56-0.559l0,0
						c0-0.309,0.251-0.559,0.56-0.559h2.317C28.429,27.433,28.679,27.683,28.679,27.991L28.679,27.991z"/>
					<path fill="#FF860D" d="M31.684,31.685c0,0.308-0.249,0.558-0.559,0.558h-2.317c-0.31,0-0.56-0.25-0.56-0.558l0,0
						c0-0.308,0.25-0.559,0.56-0.559h2.317C31.435,31.126,31.684,31.377,31.684,31.685L31.684,31.685z"/>
				</g>
				<g>
					<path fill="#E56107" d="M28.679,36.109c0,0.307-0.25,0.559-0.56,0.559h-2.317c-0.309,0-0.56-0.252-0.56-0.559l0,0
						c0-0.309,0.251-0.559,0.56-0.559h2.317C28.429,35.551,28.679,35.801,28.679,36.109L28.679,36.109z"/>
					<path fill="#FF860D" d="M31.684,39.803c0,0.307-0.249,0.559-0.559,0.559h-2.317c-0.31,0-0.56-0.252-0.56-0.559l0,0
						c0-0.309,0.25-0.559,0.56-0.559h2.317C31.435,39.244,31.684,39.494,31.684,39.803L31.684,39.803z"/>
				</g>
				<g>
					<path fill="#E56107" d="M29.812,44.848c0,0.271-0.22,0.492-0.492,0.492h-2.041c-0.27,0-0.491-0.221-0.491-0.492l0,0
						c0-0.271,0.222-0.492,0.491-0.492h2.041C29.593,44.355,29.812,44.576,29.812,44.848L29.812,44.848z"/>
					<path fill="#FF860D" d="M30.203,48.098c0,0.27-0.22,0.49-0.491,0.49H27.67c-0.27,0-0.491-0.221-0.491-0.49l0,0
						c0-0.271,0.222-0.492,0.491-0.492h2.042C29.983,47.605,30.203,47.826,30.203,48.098L30.203,48.098z"/>
				</g>
				<g>
					<path fill="#E56107" d="M30.076,52.812c0,0.219-0.176,0.396-0.395,0.396h-1.64c-0.217,0-0.395-0.178-0.395-0.396l0,0
						c0-0.217,0.178-0.395,0.395-0.395h1.64C29.9,52.418,30.076,52.596,30.076,52.812L30.076,52.812z"/>
					<path fill="#FF860D" d="M32.2,55.424c0,0.217-0.176,0.395-0.395,0.395h-1.64c-0.217,0-0.395-0.178-0.395-0.395l0,0
						c0-0.219,0.178-0.395,0.395-0.395h1.64C32.024,55.029,32.2,55.205,32.2,55.424L32.2,55.424z"/>
				</g>
			</g>
			<g>
				<g>
					<path fill="#E56107" d="M36.32,19.873c0,0.308,0.25,0.559,0.561,0.559h2.317c0.309,0,0.56-0.251,0.56-0.559l0,0
						c0-0.309-0.251-0.559-0.56-0.559h-2.317C36.57,19.314,36.32,19.564,36.32,19.873L36.32,19.873z"/>
					<path fill="#FF860D" d="M33.315,23.566c0,0.309,0.25,0.559,0.56,0.559h2.317c0.309,0,0.56-0.25,0.56-0.559l0,0
						c0-0.308-0.251-0.559-0.56-0.559h-2.317C33.565,23.008,33.315,23.259,33.315,23.566L33.315,23.566z"/>
				</g>
				<g>
					<path fill="#E56107" d="M36.32,27.991c0,0.308,0.25,0.559,0.561,0.559h2.317c0.309,0,0.56-0.251,0.56-0.559l0,0
						c0-0.309-0.251-0.559-0.56-0.559h-2.317C36.57,27.433,36.32,27.683,36.32,27.991L36.32,27.991z"/>
					<path fill="#FF860D" d="M33.315,31.685c0,0.308,0.25,0.558,0.56,0.558h2.317c0.309,0,0.56-0.25,0.56-0.558l0,0
						c0-0.308-0.251-0.559-0.56-0.559h-2.317C33.565,31.126,33.315,31.377,33.315,31.685L33.315,31.685z"/>
				</g>
				<g>
					<path fill="#E56107" d="M36.32,36.109c0,0.307,0.25,0.559,0.561,0.559h2.317c0.309,0,0.56-0.252,0.56-0.559l0,0
						c0-0.309-0.251-0.559-0.56-0.559h-2.317C36.57,35.551,36.32,35.801,36.32,36.109L36.32,36.109z"/>
					<path fill="#FF860D" d="M33.315,39.803c0,0.307,0.25,0.559,0.56,0.559h2.317c0.309,0,0.56-0.252,0.56-0.559l0,0
						c0-0.309-0.251-0.559-0.56-0.559h-2.317C33.565,39.244,33.315,39.494,33.315,39.803L33.315,39.803z"/>
				</g>
				<g>
					<path fill="#E56107" d="M35.188,44.848c0,0.271,0.22,0.492,0.491,0.492h2.042c0.27,0,0.491-0.221,0.491-0.492l0,0
						c0-0.271-0.222-0.492-0.491-0.492h-2.042C35.407,44.355,35.188,44.576,35.188,44.848L35.188,44.848z"/>
					<path fill="#FF860D" d="M34.604,48.098c0,0.27,0.22,0.49,0.492,0.49h2.041c0.27,0,0.491-0.221,0.491-0.49l0,0
						c0-0.271-0.222-0.492-0.491-0.492h-2.041C34.823,47.605,34.604,47.826,34.604,48.098L34.604,48.098z"/>
				</g>
				<g>
					<path fill="#E56107" d="M34.924,52.812c0,0.219,0.176,0.396,0.395,0.396h1.64c0.217,0,0.394-0.178,0.394-0.396l0,0
						c0-0.217-0.177-0.395-0.394-0.395h-1.64C35.1,52.418,34.924,52.596,34.924,52.812L34.924,52.812z"/>
					<path fill="#FF860D" d="M32.799,55.424c0,0.217,0.177,0.395,0.396,0.395h1.64c0.217,0,0.395-0.178,0.395-0.395l0,0
						c0-0.219-0.178-0.395-0.395-0.395h-1.64C32.976,55.029,32.799,55.205,32.799,55.424L32.799,55.424z"/>
				</g>
			</g>
		</g>
		<path fill="#FFAF10" d="M41.104,15.557c-1.759-2.308-4.948-3.373-8.604-3.373s-6.845,1.065-8.604,3.373
			c0.508,1.993,4.162,1.379,8.604,1.379C36.94,16.936,40.596,17.55,41.104,15.557z"/>
		<path fill="#FF860D" d="M32.5,16.936c2.012,0,3.857,0.125,5.327,0.078c-0.788-3.322-2.874-4.83-5.327-4.83
			c-2.454,0-4.539,1.508-5.327,4.83C28.643,17.061,30.488,16.936,32.5,16.936z"/>
	</g>
	<g>
		<g>
			<path fill="#68AD27" d="M27.756,4.671c0.494,0.694,5.564,9.008,4.87,9.503s-6.894-7.015-7.39-7.709
				c-0.495-0.695-0.334-1.661,0.362-2.156C26.294,3.813,27.26,3.976,27.756,4.671z"/>
			<path fill="#5C8729" d="M26.688,8.253c0.514,0.398,6.027,5.352,5.629,5.864c-0.398,0.514-6.562-3.607-7.074-4.006
				c-0.513-0.399-0.607-1.138-0.207-1.652C25.432,7.946,26.174,7.854,26.688,8.253z"/>
			<path fill="#7FCC2E" d="M30.615,3.766c0.274,0.809,2.727,10.232,1.917,10.506c-0.809,0.273-4.572-8.708-4.847-9.517
				c-0.272-0.808,0.161-1.686,0.971-1.96C29.464,2.522,30.343,2.956,30.615,3.766z"/>
		</g>
		<g>
			<path fill="#68AD27" d="M37.244,4.671c-0.495,0.694-5.565,9.008-4.87,9.503c0.694,0.495,6.894-7.015,7.39-7.709
				c0.495-0.695,0.333-1.661-0.361-2.156C38.706,3.813,37.74,3.976,37.244,4.671z"/>
			<path fill="#5C8729" d="M38.312,8.253c-0.514,0.398-6.028,5.352-5.629,5.864c0.398,0.514,6.562-3.607,7.074-4.006
				c0.512-0.399,0.606-1.138,0.207-1.652C39.567,7.946,38.826,7.854,38.312,8.253z"/>
			<path fill="#7FCC2E" d="M34.385,3.766c-0.273,0.809-2.727,10.232-1.918,10.506c0.811,0.273,4.573-8.708,4.848-9.517
				c0.271-0.808-0.162-1.686-0.971-1.96C35.536,2.522,34.657,2.956,34.385,3.766z"/>
		</g>
	</g>
	<path fill="#5C8729" d="M34.175,2.175c0,0.926-0.75,12.156-1.675,12.156s-1.675-11.23-1.675-12.156c0-0.925,0.75-1.675,1.675-1.675
		S34.175,1.25,34.175,2.175z"/>
	<circle fill="#7FCC2E" cx="23.631" cy="6.579" r="0.408"/>
	<circle fill="#7FCC2E" cx="40.316" cy="12.185" r="0.408"/>
	<circle fill="#7FCC2E" cx="23.65" cy="8.017" r="0.215"/>
	<circle fill="#7FCC2E" cx="40.231" cy="7.288" r="0.216"/>
	<circle fill="#7FCC2E" cx="26.4" cy="1.875" r="0.773"/>
	<circle fill="#5C8729" cx="25.746" cy="12.141" r="0.397"/>
	<circle fill="#5C8729" cx="38.513" cy="2.626" r="0.622"/>
</g>
</svg>
