<?xml version="1.0" encoding="utf-8"?>
<!-- Generator: Adobe Illustrator 16.0.0, SVG Export Plug-In . SVG Version: 6.00 Build 0)  -->
<!DOCTYPE svg PUBLIC "-//W3C//DTD SVG 1.1//EN" "http://www.w3.org/Graphics/SVG/1.1/DTD/svg11.dtd">
<svg version="1.1" id="Layer_1" xmlns="http://www.w3.org/2000/svg" xmlns:xlink="http://www.w3.org/1999/xlink" x="0px" y="0px"
	 width="65px" height="65px" viewBox="0 0 65 65" enable-background="new 0 0 65 65" xml:space="preserve">
<g>
	<ellipse fill="#DD2478" cx="32.3" cy="45.894" rx="15.233" ry="4.961"/>
	<ellipse fill="#B51063" cx="32.301" cy="45.894" rx="9.521" ry="4.961"/>
	<g>
		<g>
			<path fill="#082856" d="M19.923,15.192c2.418,3.734-0.671,5.602-4.407,8.021s-6.704,4.473-9.122,0.738
				C3.973,20.216,2.729,11.657,6.466,9.237C10.203,6.817,17.502,11.454,19.923,15.192z"/>
			<path fill="#DD2478" d="M16.615,17.155c2.418,3.734,2.637,3.639-1.1,6.059s-6.704,4.473-9.122,0.738
				C3.973,20.216,2.729,11.657,6.466,9.237C10.203,6.817,14.195,13.417,16.615,17.155z"/>
			<path fill="#B51063" d="M6.466,9.237c3.737-2.42,7.729,4.18,10.149,7.918c2.418,3.734,2.637,3.639-1.1,6.059"/>
		</g>
		<g>
			<path fill="#082856" d="M44.679,15.192c-2.418,3.734,0.671,5.602,4.407,8.021s6.704,4.473,9.122,0.738
				c2.421-3.736,3.664-12.295-0.073-14.715S47.099,11.454,44.679,15.192z"/>
			<path fill="#DD2478" d="M47.986,17.155c-2.418,3.734-2.637,3.639,1.1,6.059s6.704,4.473,9.122,0.738
				c2.421-3.736,3.664-12.295-0.073-14.715S50.406,13.417,47.986,17.155z"/>
			<path fill="#B51063" d="M58.135,9.237c-3.737-2.42-7.729,4.18-10.148,7.918c-2.418,3.734-2.637,3.639,1.1,6.059"/>
		</g>
	</g>
	<path fill="#082856" d="M61.88,32.345c0,12.031-13.243,15.408-29.579,15.408S2.722,44.376,2.722,32.345
		c0-12.033,13.243-21.787,29.579-21.787S61.88,20.312,61.88,32.345z"/>
	<path d="M61.88,32.345c0,12.031-13.243,15.408-29.579,15.408S2.722,44.376,2.722,32.345c0-12.033,13.243-5.492,29.579-5.492
		S61.88,20.312,61.88,32.345z"/>
	<g>
		<circle fill="#FDFEFF" cx="20.61" cy="30.04" r="2.657"/>
		<circle fill="#FDFEFF" cx="43.991" cy="30.04" r="2.657"/>
	</g>
	<path fill="#DD2478" d="M36.152,36.019c0,0.809-1.635,2.656-3.652,2.656s-3.653-1.848-3.653-2.656c0-0.807,1.636-1.461,3.653-1.461
		S36.152,35.212,36.152,36.019z"/>
	<path fill="#B51063" d="M36.152,36.019c0,0.809-1.635,2.656-3.652,2.656s-3.653-1.848-3.653-2.656c0-0.807,1.636,0.266,3.653,0.266
		S36.152,35.212,36.152,36.019z"/>
	<g>
		<g>
			<path fill="#082856" d="M10.566,36.702c0.068,0.219-0.056,0.455-0.278,0.523l-7.914,2.436c-0.225,0.07-0.457-0.055-0.525-0.275
				l0,0c-0.068-0.223,0.054-0.457,0.278-0.525l7.914-2.438C10.264,36.354,10.498,36.479,10.566,36.702L10.566,36.702z"/>
			<path fill="#082856" d="M9.612,34.085c-0.009,0.23-0.205,0.408-0.438,0.398l-8.272-0.367C0.668,34.104,0.49,33.909,0.5,33.679
				l0,0c0.01-0.232,0.206-0.412,0.439-0.4l8.271,0.367C9.443,33.655,9.623,33.853,9.612,34.085L9.612,34.085z"/>
			<path fill="#082856" d="M12.108,39.151c0.102,0.168,0.048,0.385-0.12,0.488L5.98,43.265c-0.172,0.104-0.388,0.049-0.489-0.119
				l0,0c-0.104-0.168-0.048-0.387,0.121-0.488l6.007-3.625C11.789,38.929,12.007,38.983,12.108,39.151L12.108,39.151z"/>
		</g>
		<g>
			<path fill="#082856" d="M54.434,36.702c-0.068,0.219,0.056,0.455,0.278,0.523l7.914,2.436c0.225,0.07,0.456-0.055,0.526-0.275
				l0,0c0.066-0.223-0.056-0.457-0.279-0.525l-7.914-2.438C54.736,36.354,54.502,36.479,54.434,36.702L54.434,36.702z"/>
			<path fill="#082856" d="M55.387,34.085c0.01,0.23,0.206,0.408,0.438,0.398l8.272-0.367c0.234-0.012,0.412-0.207,0.402-0.438l0,0
				c-0.01-0.232-0.206-0.412-0.439-0.4l-8.271,0.367C55.557,33.655,55.377,33.853,55.387,34.085L55.387,34.085z"/>
			<path fill="#082856" d="M52.892,39.151c-0.102,0.168-0.048,0.385,0.12,0.488l6.008,3.625c0.172,0.104,0.388,0.049,0.489-0.119
				l0,0c0.104-0.168,0.048-0.387-0.122-0.488l-6.007-3.625C53.211,38.929,52.993,38.983,52.892,39.151L52.892,39.151z"/>
		</g>
	</g>
	<g>
		<circle fill="#E0A624" cx="32.346" cy="52.048" r="4.384"/>
		<path fill="#E28223" d="M36.729,52.048c0,2.422-1.963,4.385-4.384,4.385c-2.422,0-4.384-1.963-4.384-4.385"/>
	</g>
</g>
</svg>
