<?xml version="1.0" encoding="utf-8"?>
<!-- Generator: Adobe Illustrator 16.0.0, SVG Export Plug-In . SVG Version: 6.00 Build 0)  -->
<!DOCTYPE svg PUBLIC "-//W3C//DTD SVG 1.1//EN" "http://www.w3.org/Graphics/SVG/1.1/DTD/svg11.dtd">
<svg version="1.1" id="Layer_1" xmlns="http://www.w3.org/2000/svg" xmlns:xlink="http://www.w3.org/1999/xlink" x="0px" y="0px"
	 width="65px" height="65px" viewBox="0 0 65 65" enable-background="new 0 0 65 65" xml:space="preserve">
<g>
	<path fill="#C6BD8B" d="M62.08,37.223c0,12.031-13.243,15.408-29.579,15.408S2.92,49.254,2.92,37.223
		c0-12.033,13.244-21.787,29.58-21.787S62.08,25.189,62.08,37.223z"/>
	<path fill="#B5AD74" d="M62.08,37.223c0,12.031-13.243,15.408-29.579,15.408S2.92,49.254,2.92,37.223
		c0-12.033,13.244-18.762,29.58-18.762S62.08,25.189,62.08,37.223z"/>
	<path fill="#9E945A" d="M62.08,37.223c0,12.031-13.243,15.408-29.579,15.408S2.92,49.254,2.92,37.223
		c0-12.033,13.244-5.492,29.58-5.492S62.08,25.189,62.08,37.223z"/>
	<g>
		<circle fill="#082856" cx="20.81" cy="34.918" r="2.657"/>
		<circle fill="#082856" cx="44.19" cy="34.918" r="2.657"/>
	</g>
	<g>
		<path d="M23.467,34.918c0,1.469-1.189,2.658-2.657,2.658s-2.657-1.189-2.657-2.658"/>
		<path d="M46.847,34.918c0,1.469-1.189,2.658-2.656,2.658c-1.468,0-2.657-1.189-2.657-2.658"/>
	</g>
	<g>
		<ellipse fill="#9E945A" cx="8.5" cy="50.023" rx="4" ry="9.062"/>
		<ellipse fill="#9E945A" cx="14.5" cy="50.023" rx="4" ry="9.062"/>
		<ellipse fill="#9E945A" cx="20.5" cy="50.023" rx="4" ry="9.062"/>
		<ellipse fill="#9E945A" cx="26.5" cy="50.023" rx="4" ry="9.062"/>
		<ellipse fill="#9E945A" cx="32.5" cy="50.023" rx="4" ry="9.062"/>
		<ellipse fill="#9E945A" cx="38.5" cy="50.023" rx="4" ry="9.062"/>
		<ellipse fill="#9E945A" cx="44.5" cy="50.023" rx="4" ry="9.062"/>
		<ellipse fill="#9E945A" cx="50.5" cy="50.023" rx="4" ry="9.062"/>
		<ellipse fill="#9E945A" cx="56.5" cy="50.023" rx="4" ry="9.062"/>
	</g>
	<g>
		<ellipse fill="#9E945A" cx="6.167" cy="43.336" rx="4.187" ry="12.188"/>
		<ellipse fill="#9E945A" cx="58.833" cy="43.336" rx="4.187" ry="12.188"/>
	</g>
	
		<rect x="28.938" y="36.836" transform="matrix(0.7072 -0.707 0.707 0.7072 -19.0463 34.8087)" fill="#FCD827" width="7.124" height="7.124"/>
	<polygon fill="#E0A624" points="37.539,40.398 32.5,45.436 27.462,40.398 32.5,41.543 	"/>
	<path fill="#B51063" d="M31.726,25.127c0,0,1.5-5.334-7.5-8.459s-1.5-8.625,3-5.5c0,0-1.578-1.064-2.126-2.875
		c-0.666-2.207,7.376-4.75,9.126,1.875c0,0-1.306-1.734-0.626-2.875c0.834-1.395,4.331-1.105,6.084,1.293
		c2.376,3.25,1.042,6.582-2.208,7.832S31.726,25.127,31.726,25.127z"/>
	<path fill="#CE1D7E" d="M33.6,7.293c-0.186,0.314-0.217,0.67-0.172,1.025c-2.629-4.201-8.921-1.99-8.328-0.025
		c0.548,1.811,2.126,2.875,2.126,2.875c-4.5-3.125-12,2.375-3,5.5c0.022,0.008,0.044,0.018,0.066,0.025
		c1.825,0.102,3.832,0.021,5.929-0.281c4.516-0.652,8.369-2.162,10.631-3.951c0.146-1.207-0.197-2.547-1.168-3.875
		C37.931,6.188,34.434,5.898,33.6,7.293z"/>
	<path fill="#F27EC3" d="M27.434,12.305c0,0.535-1.367,0.031-2.938,0.031s-2.75,0.504-2.75-0.031s1.273-0.969,2.844-0.969
		S27.434,11.77,27.434,12.305z"/>
	<path fill="#F27EC3" d="M30.899,7.445c-0.002,0.439-0.976,0.016-2.096,0.008c-1.122-0.008-1.967,0.4-1.965-0.039
		c0.003-0.441,0.916-0.791,2.036-0.783C29.997,6.639,30.903,7.004,30.899,7.445z"/>
	<path fill="#F27EC3" d="M37.399,7.992c-0.002,0.473-0.66,0.021-1.418,0.016c-0.76-0.006-1.333,0.436-1.33-0.037
		c0.002-0.471,0.622-0.85,1.381-0.846C36.791,7.131,37.403,7.52,37.399,7.992z"/>
</g>
</svg>
