<?xml version="1.0" encoding="utf-8"?>
<!-- Generator: Adobe Illustrator 16.0.0, SVG Export Plug-In . SVG Version: 6.00 Build 0)  -->
<!DOCTYPE svg PUBLIC "-//W3C//DTD SVG 1.1//EN" "http://www.w3.org/Graphics/SVG/1.1/DTD/svg11.dtd">
<svg version="1.1" id="Layer_1" xmlns="http://www.w3.org/2000/svg" xmlns:xlink="http://www.w3.org/1999/xlink" x="0px" y="0px"
	 width="65px" height="65px" viewBox="0 0 65 65" enable-background="new 0 0 65 65" xml:space="preserve">
<g>
	<g>
		<path fill="#E09B00" d="M56.5,41.375c0,10.628-10.744,14.054-24,14.054s-24-3.426-24-14.054c0-10.629,10.744-19.242,24-19.242
			S56.5,30.747,56.5,41.375z"/>
		<path fill="#EFB600" d="M8.5,41.375c0-10.629,10.744-19.242,24-19.242"/>
		<path fill="#DB8C00" d="M32.5,22.133c13.256,0,24,8.613,24,19.242c0,10.628-10.744,14.054-24,14.054"/>
		<path fill="#E09B00" d="M32.5,22.133c13.256,0,24,8.613,24,19.242"/>
		<path fill="#F4C237" d="M50.33,16.993c0,7.895-7.983,10.441-17.83,10.441s-17.83-2.546-17.83-10.441
			c0-7.894,7.983-14.295,17.83-14.295S50.33,9.099,50.33,16.993z"/>
		<path fill="#EFB600" d="M50.33,16.993c0,7.895-7.983,10.441-17.83,10.441s-17.83-2.546-17.83-10.441
			c0-7.894,7.983-12.868,17.83-12.868S50.33,9.099,50.33,16.993z"/>
		<path fill="#EDA900" d="M50.33,16.993c0,7.895-7.983,10.441-17.83,10.441s-17.83-2.546-17.83-10.441"/>
		<g>
			<g>
				<circle fill="#2D2612" cx="24.572" cy="12.53" r="1.948"/>
				<path fill="#443B23" d="M22.624,12.53c0,0.197,0.038,0.384,0.094,0.563c0.179,0.055,0.366,0.093,0.564,0.093
					c1.075,0,1.947-0.871,1.947-1.947c0-0.199-0.039-0.385-0.094-0.565c-0.179-0.055-0.366-0.092-0.562-0.092
					C23.497,10.583,22.624,11.454,22.624,12.53z"/>
			</g>
			<g>
				<circle fill="#2D2612" cx="40.427" cy="12.53" r="1.947"/>
				<path fill="#443B23" d="M38.479,12.53c0,0.197,0.039,0.384,0.092,0.563c0.181,0.055,0.368,0.093,0.564,0.093
					c1.075,0,1.947-0.871,1.947-1.947c0-0.199-0.038-0.385-0.094-0.565c-0.177-0.055-0.364-0.092-0.562-0.092
					C39.35,10.583,38.479,11.454,38.479,12.53z"/>
			</g>
		</g>
		<path fill="#D15400" d="M36.657,15.642l-3.844-2.718c-0.188-0.134-0.438-0.134-0.627,0l-3.844,2.718
			c-0.152,0.105-0.236,0.281-0.229,0.463c0.006,0.184,0.105,0.352,0.263,0.448l3.844,2.309c0.085,0.052,0.183,0.077,0.28,0.077
			c0.095,0,0.193-0.025,0.28-0.077l3.844-2.309c0.158-0.096,0.255-0.264,0.263-0.448C36.893,15.922,36.807,15.747,36.657,15.642z"/>
		<path fill="#FF6D00" d="M36.657,15.642l-3.844-2.718c-0.188-0.134-0.438-0.134-0.627,0l-3.844,2.718
			c-0.152,0.105-0.236,0.281-0.229,0.463c0.006,0.184,0.105,0.352,0.263,0.448l3.844,0.722c0.085,0.053,0.183,0.079,0.28,0.079
			c0.095,0,0.193-0.025,0.28-0.079l3.844-0.722c0.158-0.096,0.255-0.264,0.263-0.448C36.893,15.922,36.807,15.747,36.657,15.642z"/>
	</g>
	<g>
		<g>
			<g>
				<ellipse fill="#DB8C00" cx="27.512" cy="52.554" rx="3.024" ry="0.95"/>
				<path fill="#D15400" d="M29,58.06c0,0.899-0.6,1.63-1.499,1.63l0,0c-0.901,0-1.501-0.73-1.501-1.63v-5.075
					c0-0.899,0.6-0.543,1.501-0.543l0,0c0.899,0,1.499-0.356,1.499,0.543V58.06z"/>
			</g>
			<g>
				<g>
					<path fill="#D15400" d="M21.791,62.302c-0.602,0-1.087-0.515-1.087-1.117c0-1.74,1.416-3.186,3.155-3.186h4.003
						c0.602,0,1.088,0.399,1.088,1c0,0.6-0.487,1-1.088,1h-4.003c-0.542,0-0.981,0.557-0.981,1.098
						C22.877,61.699,22.393,62.302,21.791,62.302z"/>
				</g>
				<g>
					<path fill="#D15400" d="M24.916,62.302c-0.6,0-1.086-0.515-1.086-1.117c0-1.74,1.416-3.186,3.156-3.186h2.905
						c0.6,0,1.087,0.399,1.087,1c0,0.6-0.487,1-1.087,1h-2.905c-0.542,0-0.981,0.557-0.981,1.098
						C26.004,61.699,25.518,62.302,24.916,62.302z"/>
				</g>
			</g>
		</g>
		<g>
			<g>
				<ellipse fill="#E09B00" cx="37.488" cy="52.554" rx="3.024" ry="0.95"/>
				<path fill="#D15400" d="M36,58.06c0,0.899,0.6,1.63,1.499,1.63l0,0c0.901,0,1.501-0.73,1.501-1.63v-5.075
					c0-0.899-0.6-0.543-1.501-0.543l0,0C36.6,52.441,36,52.085,36,52.984V58.06z"/>
			</g>
			<g>
				<g>
					<path fill="#D15400" d="M43.209,62.302c0.602,0,1.087-0.515,1.087-1.117c0-1.74-1.416-3.186-3.157-3.186h-4.003
						c-0.601,0-1.088,0.399-1.088,1c0,0.6,0.487,1,1.088,1h4.003c0.542,0,0.983,0.557,0.983,1.098
						C42.123,61.699,42.607,62.302,43.209,62.302z"/>
				</g>
				<g>
					<path fill="#D15400" d="M40.084,62.302c0.6,0,1.086-0.515,1.086-1.117c0-1.74-1.416-3.186-3.158-3.186h-2.903
						c-0.6,0-1.087,0.399-1.087,1c0,0.6,0.487,1,1.087,1h2.903c0.542,0,0.983,0.557,0.983,1.098
						C38.996,61.699,39.482,62.302,40.084,62.302z"/>
				</g>
			</g>
		</g>
	</g>
</g>
</svg>
