<?xml version="1.0" encoding="utf-8"?>
<!-- Generator: Adobe Illustrator 16.0.0, SVG Export Plug-In . SVG Version: 6.00 Build 0)  -->
<!DOCTYPE svg PUBLIC "-//W3C//DTD SVG 1.1//EN" "http://www.w3.org/Graphics/SVG/1.1/DTD/svg11.dtd">
<svg version="1.1" id="Layer_1" xmlns="http://www.w3.org/2000/svg" xmlns:xlink="http://www.w3.org/1999/xlink" x="0px" y="0px"
	 width="65px" height="65px" viewBox="0 0 65 65" enable-background="new 0 0 65 65" xml:space="preserve">
<g>
	<g>
		<g>
			<g>
				<g>
					<g>
						<g>
							<circle fill="#FFB92C" cx="23.772" cy="32.814" r="5.643"/>
							<path fill="#FF912E" d="M27.763,28.824c2.204,2.204,2.204,5.777,0.001,7.982c-2.204,2.203-5.777,2.203-7.982-0.002
								c-2.204-2.203,2.305-1.268,4.51-3.473C26.495,31.128,25.56,26.62,27.763,28.824z"/>
							<path fill="#FFE966" d="M22.964,28.51c0.465,0.465-0.721,0.845-1.687,1.81c-0.966,0.966-1.347,2.151-1.811,1.687
								c-0.465-0.467-0.059-1.626,0.905-2.591C21.338,28.45,22.497,28.044,22.964,28.51z"/>
							<circle fill="#FFE966" cx="24.29" cy="28.208" r="0.348"/>
							<circle fill="#FFE966" cx="19.462" cy="32.987" r="0.139"/>
						</g>
						<g>
							<circle fill="#FFB92C" cx="41.228" cy="32.814" r="5.644"/>
							<path fill="#FF912E" d="M37.236,28.824c-2.204,2.204-2.204,5.777,0,7.982c2.204,2.203,5.777,2.203,7.982-0.002
								c2.204-2.203-2.305-1.268-4.51-3.473C38.506,31.128,39.44,26.62,37.236,28.824z"/>
							<path fill="#FFE966" d="M42.037,28.51c-0.465,0.465,0.72,0.845,1.686,1.81c0.966,0.966,1.348,2.151,1.811,1.687
								c0.465-0.467,0.06-1.626-0.905-2.591C43.662,28.45,42.504,28.044,42.037,28.51z"/>
							<circle fill="#FFE966" cx="40.71" cy="28.208" r="0.347"/>
							<circle fill="#FFE966" cx="45.537" cy="32.987" r="0.139"/>
						</g>
					</g>
					<g>
						<circle fill="#FFB92C" cx="32.5" cy="28.844" r="5.644"/>
						<path fill="#FF912E" d="M38.144,28.844c0,3.117-2.526,5.643-5.644,5.643s-5.644-2.525-5.644-5.643
							c0-3.118,2.526,0.732,5.644,0.732S38.144,25.726,38.144,28.844z"/>
						<path fill="#FFE966" d="M34.973,25.226c0,0.657-1.107,0.091-2.473,0.091s-2.472,0.566-2.472-0.091
							c0-0.658,1.106-1.19,2.472-1.19S34.973,24.567,34.973,25.226z"/>
						<circle fill="#FFE966" cx="36.125" cy="25.953" r="0.348"/>
						<circle fill="#FFE966" cx="29.331" cy="25.917" r="0.14"/>
					</g>
				</g>
				<g>
					<g>
						<g>
							<circle fill="#FFB92C" cx="24.61" cy="40.044" r="5.103"/>
							<path fill="#FF912E" d="M28.219,36.436c1.992,1.994,1.992,5.225,0,7.219c-1.994,1.99-5.224,1.99-7.217-0.002
								c-1.994-1.992,2.083-1.146,4.077-3.139C27.07,38.52,26.225,34.441,28.219,36.436z"/>
							<path fill="#FFE966" d="M23.877,36.15c0.42,0.42-0.65,0.768-1.523,1.639c-0.871,0.873-1.219,1.943-1.637,1.523
								c-0.42-0.42-0.054-1.469,0.819-2.34C22.408,36.1,23.455,35.73,23.877,36.15z"/>
							<path fill="#FFE966" d="M25.299,35.656c0.126,0.123,0.126,0.322,0.003,0.445c-0.125,0.123-0.325,0.123-0.448,0
								c-0.121-0.121-0.121-0.322,0-0.445C24.977,35.535,25.177,35.535,25.299,35.656z"/>
							<path fill="#FFE966" d="M20.802,40.111c0.048,0.049,0.048,0.129,0,0.18c-0.05,0.047-0.132,0.047-0.178,0
								c-0.049-0.051-0.049-0.131,0-0.18C20.67,40.062,20.752,40.062,20.802,40.111z"/>
						</g>
						<g>
							<circle fill="#FFB92C" cx="40.39" cy="40.044" r="5.103"/>
							<path fill="#FF912E" d="M36.782,36.436c-1.993,1.994-1.993,5.225,0,7.219c1.993,1.99,5.224,1.99,7.216-0.002
								c1.994-1.992-2.082-1.146-4.076-3.139C37.93,38.52,38.775,34.441,36.782,36.436z"/>
							<path fill="#FFE966" d="M41.123,36.15c-0.42,0.42,0.651,0.768,1.523,1.639c0.872,0.873,1.218,1.943,1.638,1.523
								c0.421-0.42,0.052-1.469-0.82-2.34C42.593,36.1,41.544,35.73,41.123,36.15z"/>
							<circle fill="#FFE966" cx="39.923" cy="35.879" r="0.315"/>
							<circle fill="#FFE966" cx="44.288" cy="40.201" r="0.127"/>
						</g>
					</g>
					<g>
						<path fill="#FFB92C" d="M37.604,36.453c0,2.82-2.286,5.105-5.104,5.105s-5.104-2.285-5.104-5.105
							c0-2.816,2.286-5.101,5.104-5.101S37.604,33.637,37.604,36.453z"/>
						<path fill="#FF912E" d="M37.604,36.453c0,2.82-2.286,5.105-5.104,5.105s-5.104-2.285-5.104-5.105
							c0-2.816,2.286,0.662,5.104,0.662S37.604,33.637,37.604,36.453z"/>
						<path fill="#FFE966" d="M34.736,33.186c0,0.592-1.002,0.078-2.236,0.078s-2.235,0.514-2.235-0.078
							c0-0.598,1.001-1.077,2.235-1.077S34.736,32.588,34.736,33.186z"/>
						<circle fill="#FFE966" cx="35.776" cy="33.84" r="0.315"/>
						<circle fill="#FFE966" cx="29.635" cy="33.809" r="0.126"/>
					</g>
				</g>
				<g>
					<g>
						<g>
							<circle fill="#FFB92C" cx="25.208" cy="47.226" r="4.716"/>
							<path fill="#FF912E" d="M28.543,43.891c1.84,1.842,1.84,4.828,0,6.67c-1.843,1.842-4.828,1.842-6.67,0
								c-1.844-1.842,1.924-1.062,3.768-2.902C27.482,45.816,26.7,42.047,28.543,43.891z"/>
							<path fill="#FFE966" d="M24.531,43.627c0.387,0.389-0.604,0.709-1.408,1.514c-0.808,0.807-1.125,1.795-1.514,1.408
								c-0.389-0.391-0.05-1.359,0.756-2.164C23.174,43.578,24.142,43.238,24.531,43.627z"/>
							<circle fill="#FFE966" cx="25.64" cy="43.376" r="0.291"/>
							<circle fill="#FFE966" cx="21.607" cy="47.37" r="0.117"/>
						</g>
						<g>
							<circle fill="#FFB92C" cx="39.793" cy="47.226" r="4.716"/>
							<path fill="#FF912E" d="M36.459,43.891c-1.843,1.842-1.843,4.828-0.002,6.67c1.842,1.842,4.828,1.842,6.671,0
								s-1.925-1.062-3.767-2.902C37.519,45.816,38.299,42.047,36.459,43.891z"/>
							<path fill="#FFE966" d="M40.47,43.627c-0.388,0.389,0.603,0.709,1.408,1.514c0.806,0.807,1.124,1.795,1.514,1.408
								c0.389-0.391,0.049-1.359-0.758-2.164C41.828,43.578,40.858,43.238,40.47,43.627z"/>
							<circle fill="#FFE966" cx="39.36" cy="43.376" r="0.291"/>
							<circle fill="#FFE966" cx="43.395" cy="47.37" r="0.118"/>
						</g>
					</g>
					<g>
						<path fill="#FFB92C" d="M37.215,43.908c0,2.604-2.109,4.713-4.715,4.713c-2.604,0-4.716-2.109-4.716-4.713
							c0-2.607,2.111-4.717,4.716-4.717C35.105,39.191,37.215,41.301,37.215,43.908z"/>
						<path fill="#FF912E" d="M37.215,43.908c0,2.604-2.109,4.713-4.715,4.713c-2.604,0-4.716-2.109-4.716-4.713
							c0-2.607,2.111,0.609,4.716,0.609C35.105,44.518,37.215,41.301,37.215,43.908z"/>
						<path fill="#FFE966" d="M34.566,40.885c0,0.549-0.925,0.074-2.066,0.074s-2.066,0.475-2.066-0.074
							c0-0.553,0.925-0.996,2.066-0.996S34.566,40.332,34.566,40.885z"/>
						<circle fill="#FFE966" cx="35.528" cy="41.49" r="0.292"/>
						<circle fill="#FFE966" cx="29.853" cy="41.461" r="0.116"/>
					</g>
				</g>
				<g>
					<g>
						<g>
							<circle fill="#FFB92C" cx="26.941" cy="52.841" r="3.596"/>
							<path fill="#FF912E" d="M29.484,50.299c1.402,1.404,1.402,3.68,0,5.084c-1.405,1.404-3.682,1.404-5.086,0
								s1.467-0.809,2.873-2.213C28.676,51.768,28.079,48.893,29.484,50.299z"/>
							<path fill="#FFE966" d="M26.425,50.098c0.297,0.295-0.459,0.539-1.073,1.152c-0.615,0.615-0.856,1.371-1.154,1.074
								c-0.295-0.297-0.037-1.033,0.58-1.648C25.391,50.061,26.128,49.799,26.425,50.098z"/>
							<circle fill="#FFE966" cx="27.271" cy="49.906" r="0.221"/>
							<circle fill="#FFE966" cx="24.196" cy="52.951" r="0.089"/>
						</g>
						<g>
							<circle fill="#FFB92C" cx="38.06" cy="52.841" r="3.595"/>
							<path fill="#FF912E" d="M35.519,50.299c-1.405,1.404-1.405,3.68-0.003,5.084c1.404,1.404,3.682,1.404,5.086,0
								s-1.468-0.809-2.872-2.213C36.324,51.768,36.92,48.893,35.519,50.299z"/>
							<path fill="#FFE966" d="M38.575,50.098c-0.296,0.295,0.458,0.539,1.073,1.152c0.616,0.615,0.856,1.371,1.154,1.074
								c0.296-0.297,0.037-1.033-0.577-1.648S38.872,49.799,38.575,50.098z"/>
							<circle fill="#FFE966" cx="37.73" cy="49.906" r="0.221"/>
							<circle fill="#FFE966" cx="40.805" cy="52.951" r="0.089"/>
						</g>
					</g>
					<g>
						<circle fill="#FFB92C" cx="32.5" cy="50.311" r="3.596"/>
						<path fill="#FF912E" d="M36.096,50.311c0,1.986-1.609,3.594-3.596,3.594c-1.985,0-3.596-1.607-3.596-3.594
							c0-1.984,1.61,0.465,3.596,0.465C34.486,50.775,36.096,48.326,36.096,50.311z"/>
						<path fill="#FFE966" d="M34.074,48.006c0,0.418-0.705,0.057-1.574,0.057c-0.87,0-1.574,0.361-1.574-0.057
							c0-0.42,0.704-0.758,1.574-0.758C33.369,47.248,34.074,47.586,34.074,48.006z"/>
						<circle fill="#FFE966" cx="34.808" cy="48.469" r="0.222"/>
						<circle fill="#FFE966" cx="30.481" cy="48.447" r="0.089"/>
					</g>
				</g>
				<g>
					<g>
						<g>
							<path fill="#FFB92C" d="M29.93,55.326c1.194,1.197,1.194,3.139,0,4.336c-1.198,1.197-3.139,1.197-4.336,0
								s-1.197-3.139,0-4.336C26.791,54.131,28.731,54.131,29.93,55.326z"/>
							<path fill="#FF912E" d="M29.93,55.326c1.194,1.197,1.194,3.139,0,4.336c-1.198,1.197-3.139,1.197-4.336,0
								s1.251-0.689,2.448-1.887S28.731,54.131,29.93,55.326z"/>
							<path fill="#FFE966" d="M27.32,55.156c0.253,0.252-0.391,0.459-0.914,0.982c-0.524,0.525-0.73,1.168-0.983,0.916
								s-0.032-0.883,0.493-1.406C26.44,55.125,27.067,54.902,27.32,55.156z"/>
							<circle fill="#FFE966" cx="28.042" cy="54.993" r="0.189"/>
							<path fill="#FFE966" d="M25.476,57.535c0.026,0.027,0.026,0.078,0,0.107c-0.031,0.029-0.08,0.029-0.108-0.002
								c-0.029-0.027-0.029-0.078,0-0.105C25.396,57.504,25.444,57.504,25.476,57.535z"/>
						</g>
						<g>
							<circle fill="#FFB92C" cx="37.239" cy="57.494" r="3.065"/>
							<path fill="#FF912E" d="M35.072,55.326c-1.196,1.197-1.196,3.139-0.002,4.336c1.197,1.197,3.139,1.197,4.336,0
								s-1.252-0.689-2.448-1.887C35.761,56.578,36.268,54.131,35.072,55.326z"/>
							<path fill="#FFE966" d="M37.679,55.156c-0.252,0.252,0.392,0.459,0.915,0.982c0.523,0.525,0.73,1.168,0.983,0.916
								s0.032-0.883-0.492-1.406S37.932,54.902,37.679,55.156z"/>
							<circle fill="#FFE966" cx="36.958" cy="54.993" r="0.189"/>
							<path fill="#FFE966" d="M39.525,57.535c-0.028,0.027-0.028,0.078,0,0.107c0.031,0.029,0.078,0.029,0.108-0.002
								c0.028-0.027,0.028-0.078,0-0.105C39.604,57.504,39.557,57.504,39.525,57.535z"/>
						</g>
					</g>
					<g>
						<circle fill="#FFB92C" cx="32.5" cy="55.338" r="3.065"/>
						<path fill="#FF912E" d="M35.565,55.338c0,1.693-1.373,3.062-3.065,3.062s-3.065-1.369-3.065-3.062s1.373,0.396,3.065,0.396
							S35.565,53.645,35.565,55.338z"/>
						<path fill="#FFE966" d="M33.842,53.373c0,0.357-0.601,0.049-1.342,0.049s-1.342,0.309-1.342-0.049s0.601-0.646,1.342-0.646
							S33.842,53.016,33.842,53.373z"/>
						<circle fill="#FFE966" cx="34.467" cy="53.768" r="0.189"/>
						<circle fill="#FFE966" cx="30.778" cy="53.748" r="0.077"/>
					</g>
				</g>
				<g>
					<g>
						<g>
							<circle fill="#FFB92C" cx="29.146" cy="60.272" r="2.17"/>
							<path fill="#FF912E" d="M30.68,58.738c0.848,0.848,0.848,2.221,0,3.068c-0.848,0.846-2.222,0.846-3.068,0
								c-0.848-0.848,0.886-0.488,1.732-1.336C30.191,59.623,29.832,57.891,30.68,58.738z"/>
							<path fill="#FFE966" d="M28.834,58.617c0.179,0.178-0.277,0.326-0.648,0.695c-0.371,0.371-0.517,0.826-0.696,0.648
								c-0.178-0.18-0.022-0.625,0.349-0.996C28.211,58.594,28.654,58.438,28.834,58.617z"/>
							<circle fill="#FFE966" cx="29.345" cy="58.501" r="0.134"/>
							<path fill="#FFE966" d="M27.527,60.301c0.02,0.02,0.02,0.055,0,0.076c-0.021,0.02-0.057,0.02-0.078-0.002
								c-0.019-0.02-0.019-0.055,0-0.074C27.471,60.277,27.506,60.277,27.527,60.301z"/>
						</g>
						<g>
							<circle fill="#FFB92C" cx="35.854" cy="60.272" r="2.17"/>
							<path fill="#FF912E" d="M34.32,58.738c-0.847,0.848-0.847,2.221,0,3.068c0.848,0.846,2.222,0.846,3.068,0
								c0.848-0.848-0.887-0.488-1.732-1.336C34.809,59.623,35.168,57.891,34.32,58.738z"/>
							<path fill="#FFE966" d="M36.166,58.617c-0.178,0.178,0.277,0.326,0.648,0.695c0.371,0.371,0.517,0.826,0.696,0.648
								c0.178-0.18,0.022-0.625-0.349-0.996C36.79,58.594,36.346,58.438,36.166,58.617z"/>
							<circle fill="#FFE966" cx="35.655" cy="58.501" r="0.134"/>
							<path fill="#FFE966" d="M37.475,60.301c-0.021,0.02-0.021,0.055,0,0.076c0.021,0.02,0.055,0.02,0.075-0.002
								c0.021-0.02,0.021-0.055,0-0.074C37.529,60.277,37.495,60.277,37.475,60.301z"/>
						</g>
					</g>
					<g>
						<circle fill="#FFB92C" cx="32.5" cy="58.744" r="2.17"/>
						<path fill="#FF912E" d="M34.67,58.744c0,1.199-0.972,2.17-2.17,2.17s-2.17-0.971-2.17-2.17c0-1.197,0.972,0.281,2.17,0.281
							S34.67,57.547,34.67,58.744z"/>
						<path fill="#FFE966" d="M33.449,57.354c0,0.254-0.424,0.035-0.949,0.035c-0.524,0-0.95,0.219-0.95-0.035
							s0.426-0.457,0.95-0.457C33.025,56.896,33.449,57.1,33.449,57.354z"/>
						<circle fill="#FFE966" cx="33.893" cy="57.633" r="0.134"/>
						<circle fill="#FFE966" cx="31.282" cy="57.621" r="0.054"/>
					</g>
				</g>
				<g>
					<g>
						<circle fill="#FFB92C" cx="32.5" cy="62.33" r="2.17"/>
						<path fill="#FF912E" d="M34.67,62.33c0,1.199-0.972,2.17-2.17,2.17s-2.17-0.971-2.17-2.17c0-1.197,0.972,0.281,2.17,0.281
							S34.67,61.133,34.67,62.33z"/>
						<path fill="#FFE966" d="M33.449,60.939c0,0.252-0.424,0.035-0.949,0.035c-0.524,0-0.95,0.217-0.95-0.035
							s0.426-0.457,0.95-0.457C33.025,60.482,33.449,60.688,33.449,60.939z"/>
						<circle fill="#FFE966" cx="33.893" cy="61.219" r="0.134"/>
						<circle fill="#FFE966" cx="31.282" cy="61.207" r="0.054"/>
					</g>
				</g>
			</g>
		</g>
		<g>
			<g>
				<path fill="#68AD27" d="M32.598,10.582c0,0,1.625,22.248-6.05,30.496c-6.715,7.215-5.608,12.133-5.608,12.133
					s-7.688-19.445-1.624-34.922C24.777,4.353,32.598,5.172,32.598,5.172V10.582z"/>
				<path fill="#559B0B" d="M32.598,10.582V9.345c-2.512,0.476-7.817,2.728-11.843,13.002c-4.245,10.831-1.753,23.599,0.125,30.292
					c-0.069-1.484,0.29-5.783,5.668-11.561C34.223,32.83,32.598,10.582,32.598,10.582z"/>
				<path fill="#447A0B" d="M32.598,5.172v5.41c0,0,1.625,22.248-6.05,30.496"/>
			</g>
			<g>
				<path fill="#68AD27" d="M32.402,10.582c0,0-1.625,22.248,6.05,30.496c6.714,7.215,5.608,12.133,5.608,12.133
					s7.688-19.445,1.623-34.922C40.224,4.353,32.402,5.172,32.402,5.172V10.582z"/>
				<path fill="#559B0B" d="M32.402,10.582V9.345c2.512,0.476,7.816,2.728,11.843,13.002c4.245,10.831,1.753,23.599-0.126,30.292
					c0.07-1.484-0.289-5.783-5.667-11.561C30.777,32.83,32.402,10.582,32.402,10.582z"/>
				<path fill="#447A0B" d="M32.402,5.172v5.41c0,0-1.625,22.248,6.05,30.496"/>
			</g>
		</g>
	</g>
	<path fill="#447A0B" d="M34.878,2.468c0,1.086-1.064,3.688-2.378,3.688c-1.314,0-2.378-2.603-2.378-3.688
		c0-1.087,1.063-1.968,2.378-1.968C33.813,0.5,34.878,1.381,34.878,2.468z"/>
</g>
</svg>
