<?xml version="1.0" encoding="utf-8"?>
<!-- Generator: Adobe Illustrator 16.0.0, SVG Export Plug-In . SVG Version: 6.00 Build 0)  -->
<!DOCTYPE svg PUBLIC "-//W3C//DTD SVG 1.1//EN" "http://www.w3.org/Graphics/SVG/1.1/DTD/svg11.dtd">
<svg version="1.1" id="Layer_1" xmlns="http://www.w3.org/2000/svg" xmlns:xlink="http://www.w3.org/1999/xlink" x="0px" y="0px"
	 width="65px" height="65px" viewBox="0 0 65 65" enable-background="new 0 0 65 65" xml:space="preserve">
<g>
	<g>
		<g>
			<path fill="#C6BF9D" d="M17.551,17.738c1.324,2.18-0.5,5.709-4.076,7.881s-7.003,7.02-8.326,4.84
				C3.825,28.279,2.49,15.592,6.066,13.42C9.642,11.25,16.227,15.559,17.551,17.738z"/>
			<path fill="#DB602A" d="M13.232,20.793c1.324,2.18,3.819,2.654,0.243,4.826s-7.003,7.02-8.326,4.84
				C3.825,28.279,2.49,15.592,6.066,13.42C9.642,11.25,11.908,18.613,13.232,20.793z"/>
			<path fill="#C4491E" d="M6.066,13.42c3.576-2.17,5.842,5.193,7.166,7.373s3.819,2.654,0.243,4.826"/>
		</g>
		<g>
			<path fill="#C6BF9D" d="M47.45,17.738c-1.324,2.18,0.5,5.709,4.076,7.881s7.003,7.02,8.326,4.84
				c1.324-2.18,2.659-14.867-0.917-17.039C55.359,11.25,48.774,15.559,47.45,17.738z"/>
			<path fill="#DB602A" d="M51.768,20.793c-1.323,2.18-3.818,2.654-0.242,4.826s7.003,7.02,8.326,4.84
				c1.324-2.18,2.659-14.867-0.917-17.039C55.359,11.25,53.093,18.613,51.768,20.793z"/>
			<path fill="#C4491E" d="M58.935,13.42c-3.576-2.17-5.842,5.193-7.167,7.373c-1.323,2.18-3.818,2.654-0.242,4.826"/>
		</g>
	</g>
	<g>
		<path fill="#EFE9CE" d="M62.08,35.764c0,12.031-13.243,15.408-29.579,15.408S2.92,47.795,2.92,35.764
			c0-12.033,13.244-21.787,29.58-21.787S62.08,23.73,62.08,35.764z"/>
		<path fill="#DDD7B3" d="M62.08,35.764c0,12.031-13.243,15.408-29.579,15.408S2.92,47.795,2.92,35.764
			c0-12.033,13.244-18.762,29.58-18.762S62.08,23.73,62.08,35.764z"/>
		<path fill="#C6BF9D" d="M62.08,35.764c0,12.031-13.243,15.408-29.579,15.408S2.92,47.795,2.92,35.764
			c0-12.033,13.244-5.492,29.58-5.492S62.08,23.73,62.08,35.764z"/>
		<g>
			<circle fill="#082856" cx="20.81" cy="28.459" r="2.657"/>
			<circle fill="#082856" cx="44.19" cy="28.459" r="2.657"/>
		</g>
		<g>
			<path d="M23.467,28.459c0,1.469-1.189,2.658-2.657,2.658s-2.657-1.189-2.657-2.658"/>
			<path d="M46.847,28.459c0,1.469-1.189,2.658-2.656,2.658c-1.468,0-2.657-1.189-2.657-2.658"/>
		</g>
	</g>
	<g>
		<path fill="#B23610" d="M13.589,41.863c0-7.693,8.467-9.852,18.909-9.852c10.444,0,18.913,2.158,18.913,9.852
			c0,7.691-8.469,13.928-18.913,13.928C22.056,55.791,13.589,49.555,13.589,41.863z"/>
		<path fill="#C4491E" d="M13.589,41.863c0-7.693,8.467-9.852,18.909-9.852c10.444,0,18.913,2.158,18.913,9.852
			c0,7.691-8.469,11.994-18.913,11.994C22.056,53.857,13.589,49.555,13.589,41.863z"/>
		<path fill="#DB602A" d="M13.589,41.863c0-7.693,8.467-9.852,18.909-9.852c10.444,0,18.913,2.158,18.913,9.852
			c0,7.691-8.469,3.51-18.913,3.51C22.056,45.373,13.589,49.555,13.589,41.863z"/>
		<g>
			<path fill="#C4491E" d="M38.275,43.334c0-0.938,0.759-1.697,1.699-1.697c0.938,0,1.696,0.76,1.696,1.697
				c0,0.941-0.759,1.699-1.696,1.699C39.034,45.033,38.275,44.275,38.275,43.334z"/>
			<path fill="#C4491E" d="M23.328,43.334c0-0.938,0.759-1.697,1.697-1.697c0.94,0,1.699,0.76,1.699,1.697
				c0,0.941-0.759,1.699-1.699,1.699C24.086,45.033,23.328,44.275,23.328,43.334z"/>
		</g>
		<g>
			<path fill="#B23610" d="M38.275,43.334c0-0.938,0.759-1.697,1.699-1.697c0.938,0,1.696,0.76,1.696,1.697"/>
			<path fill="#B23610" d="M23.328,43.334c0-0.938,0.759-1.697,1.697-1.697c0.94,0,1.699,0.76,1.699,1.697"/>
		</g>
	</g>
	<g>
		<g>
			<path fill="#E2BB5A" d="M24.125,18.084c0,2.072-0.055,3.75-2.125,3.75c-2.071,0-5.375-1.678-5.375-3.75
				c0-2.07,1.678-8.875,3.75-8.875C22.447,9.209,24.125,16.014,24.125,18.084z"/>
			<path fill="#CCA142" d="M20.375,9.209c2.071,0,3.75,6.805,3.75,8.875c0,2.072-0.055,3.75-2.125,3.75"/>
		</g>
		<g>
			<path fill="#E2BB5A" d="M40.875,18.084c0,2.072,0.054,3.75,2.125,3.75c2.07,0,5.375-1.678,5.375-3.75
				c0-2.07-1.679-8.875-3.75-8.875C42.553,9.209,40.875,16.014,40.875,18.084z"/>
			<path fill="#CCA142" d="M44.625,9.209c-2.072,0-3.75,6.805-3.75,8.875c0,2.072,0.054,3.75,2.125,3.75"/>
		</g>
	</g>
</g>
</svg>
