<?xml version="1.0" encoding="utf-8"?>
<!-- Generator: Adobe Illustrator 16.0.0, SVG Export Plug-In . SVG Version: 6.00 Build 0)  -->
<!DOCTYPE svg PUBLIC "-//W3C//DTD SVG 1.1//EN" "http://www.w3.org/Graphics/SVG/1.1/DTD/svg11.dtd">
<svg version="1.1" id="Layer_1" xmlns="http://www.w3.org/2000/svg" xmlns:xlink="http://www.w3.org/1999/xlink" x="0px" y="0px"
	 width="65px" height="65px" viewBox="0 0 65 65" enable-background="new 0 0 65 65" xml:space="preserve">
<g>
	<g>
		<path fill="#7DA81D" d="M33.051,60.472c0,0.305-0.247,0.552-0.551,0.552l0,0c-0.304,0-0.551-0.248-0.551-0.552V13.358
			c0-0.304,0.247-0.551,0.551-0.551l0,0c0.304,0,0.551,0.248,0.551,0.551V60.472z"/>
		<circle fill="#7DA81D" cx="32.499" cy="62.021" r="2.169"/>
		<g>
			<path fill="#7DA81D" d="M32.52,0.809c-2.29,1.124-4.025,6.18-4.025,8.594s1.735,4.416,4.025,4.843V0.809z"/>
			<path fill="#469315" d="M32.48,0.809c2.29,1.124,4.023,6.18,4.023,8.594s-1.735,4.416-4.023,4.843V0.809z"/>
		</g>
		<g>
			<g>
				<g>
					<path fill="#7DA81D" d="M42.638,15.875c-2.416-0.823-7.217,1.528-8.925,3.234c-1.704,1.706-1.896,4.349-0.578,6.269
						L42.638,15.875z"/>
					<path fill="#469315" d="M42.612,15.849c0.822,2.414-1.528,7.217-3.232,8.923c-1.708,1.707-4.35,1.895-6.271,0.58L42.612,15.849
						z"/>
				</g>
				<g>
					<path fill="#7DA81D" d="M42.638,27.034c-2.416-0.824-7.217,1.526-8.925,3.233c-1.704,1.706-1.896,4.349-0.578,6.268
						L42.638,27.034z"/>
					<path fill="#469315" d="M42.612,27.008c0.822,2.414-1.528,7.216-3.232,8.923c-1.708,1.706-4.35,1.895-6.271,0.579
						L42.612,27.008z"/>
				</g>
				<g>
					<path fill="#7DA81D" d="M42.638,38.192c-2.416-0.825-7.217,1.526-8.925,3.232c-1.704,1.707-1.896,4.349-0.578,6.269
						L42.638,38.192z"/>
					<path fill="#469315" d="M42.612,38.166c0.822,2.414-1.528,7.217-3.232,8.923c-1.708,1.706-4.35,1.896-6.271,0.58L42.612,38.166
						z"/>
				</g>
				<g>
					<path fill="#7DA81D" d="M40.945,51.036c-1.984-0.676-5.935,1.257-7.335,2.66c-1.404,1.402-1.56,3.576-0.478,5.155
						L40.945,51.036z"/>
					<path fill="#469315" d="M40.924,51.017c0.677,1.985-1.254,5.934-2.658,7.337c-1.404,1.402-3.574,1.558-5.156,0.476
						L40.924,51.017z"/>
				</g>
			</g>
			<g>
				<g>
					<path fill="#7DA81D" d="M22.36,15.875c2.416-0.823,7.217,1.528,8.925,3.234c1.704,1.706,1.896,4.349,0.578,6.269L22.36,15.875z
						"/>
					<path fill="#469315" d="M22.388,15.849c-0.824,2.414,1.526,7.217,3.232,8.923c1.708,1.707,4.348,1.895,6.269,0.58
						L22.388,15.849z"/>
				</g>
				<g>
					<path fill="#7DA81D" d="M22.36,27.034c2.416-0.824,7.217,1.526,8.925,3.233c1.704,1.706,1.896,4.349,0.578,6.268L22.36,27.034z
						"/>
					<path fill="#469315" d="M22.388,27.008c-0.824,2.414,1.526,7.216,3.232,8.923c1.708,1.706,4.348,1.895,6.269,0.579
						L22.388,27.008z"/>
				</g>
				<g>
					<path fill="#7DA81D" d="M22.36,38.192c2.416-0.825,7.217,1.526,8.925,3.232c1.704,1.707,1.896,4.349,0.578,6.269L22.36,38.192z
						"/>
					<path fill="#469315" d="M22.388,38.166c-0.824,2.414,1.526,7.217,3.232,8.923c1.708,1.706,4.348,1.896,6.269,0.58
						L22.388,38.166z"/>
				</g>
				<g>
					<path fill="#7DA81D" d="M24.053,51.036c1.986-0.676,5.935,1.257,7.337,2.66c1.404,1.402,1.56,3.576,0.476,5.155L24.053,51.036z
						"/>
					<path fill="#469315" d="M24.076,51.017c-0.677,1.985,1.252,5.934,2.658,7.337c1.404,1.402,3.572,1.558,5.154,0.476
						L24.076,51.017z"/>
				</g>
			</g>
		</g>
	</g>
	<g>
		<path fill="#469315" d="M13.333,46.848c0.002,0.004,0.004,0.006,0.004,0.006l0.006-0.001c1.203,0.81,2.846,0.689,3.909-0.375
			c1.064-1.064,2.522-4.042,2.031-5.564l0.012-0.012l-0.014-0.003l-0.002-0.013l-0.012,0.011c-1.524-0.491-4.503,0.967-5.566,2.031
			c-0.163,0.164-0.296,0.343-0.414,0.53v-3.687c0.014,0.023,0.023,0.048,0.038,0.071l-0.004,0.004l0.01,0.006
			c0.004,0.004,0.004,0.008,0.008,0.012l0.004-0.005c1.203,0.81,2.846,0.688,3.909-0.375c1.064-1.064,2.522-4.044,2.031-5.565
			l0.012-0.012l-0.014-0.003c-0.002-0.004-0.002-0.01-0.002-0.014l-0.012,0.012c-1.524-0.49-4.503,0.969-5.566,2.032
			c-0.163,0.164-0.296,0.344-0.414,0.53v-3.677c1.251-0.396,2.162-1.552,2.162-2.936c0-1.504-1.073-4.643-2.497-5.372v-0.015
			c-0.004,0.002-0.008,0.006-0.008,0.006c-0.008,0-0.012-0.004-0.016-0.006v0.015c-1.423,0.729-2.499,3.868-2.499,5.372
			c0,1.384,0.913,2.541,2.165,2.936v3.678c-0.118-0.187-0.252-0.368-0.416-0.531c-1.064-1.062-4.043-2.522-5.565-2.032l-0.012-0.012
			c-0.001,0.004,0,0.01-0.001,0.014l-0.014,0.003l0.012,0.012c-0.492,1.521,0.967,4.501,2.03,5.565
			c1.064,1.063,2.706,1.185,3.907,0.374l0.006,0.006c0.004-0.004,0.004-0.009,0.008-0.013l0.008-0.005l-0.004-0.004
			c0.016-0.023,0.025-0.048,0.041-0.071v3.688c-0.118-0.187-0.252-0.367-0.416-0.531c-1.064-1.064-4.043-2.522-5.565-2.031
			l-0.012-0.011c-0.001,0.004,0,0.009-0.001,0.013l-0.014,0.003l0.012,0.012c-0.492,1.521,0.967,4.5,2.03,5.564
			c1.064,1.064,2.706,1.185,3.909,0.375l0.004,0.004c0.002-0.003,0.004-0.006,0.006-0.009l0.01-0.006l-0.004-0.004
			c0.016-0.024,0.025-0.049,0.041-0.074v3.689c-0.118-0.187-0.252-0.368-0.416-0.531c-1.064-1.063-4.043-2.522-5.565-2.031
			l-0.012-0.012c-0.001,0.004,0,0.01-0.001,0.015l-0.014,0.002l0.012,0.011c-0.492,1.521,0.967,4.501,2.03,5.564
			c1.064,1.064,2.706,1.186,3.909,0.376l0.004,0.004c0.002-0.003,0.004-0.007,0.004-0.007l0.012-0.009l-0.004-0.004
			c0.016-0.024,0.025-0.049,0.041-0.073v4.305c-0.099-0.159-0.211-0.312-0.351-0.45c-0.872-0.875-3.323-2.075-4.574-1.671
			l-0.01-0.009l-0.002,0.011l-0.012,0.002l0.01,0.01c-0.404,1.25,0.795,3.701,1.671,4.576c0.875,0.875,2.221,0.974,3.213,0.309
			l0.002,0.003c0.002-0.002,0.002-0.005,0.002-0.005s0.01-0.006,0.014-0.009l-0.004-0.004c0.016-0.024,0.025-0.05,0.041-0.075v0.771
			c-0.583,0.154-1.014,0.679-1.014,1.31c0,0.75,0.607,1.359,1.359,1.359c0.751,0,1.36-0.609,1.36-1.359
			c0-0.631-0.432-1.156-1.014-1.311v-0.768c0.014,0.023,0.025,0.049,0.04,0.073l-0.006,0.004c0.004,0.003,0.008,0.004,0.008,0.004
			s0.006,0.008,0.008,0.01l0.004-0.003c0.99,0.666,2.339,0.566,3.213-0.309c0.876-0.875,2.075-3.327,1.669-4.577l0.01-0.009
			l-0.01-0.002l-0.001-0.011l-0.01,0.009c-1.25-0.404-3.702,0.797-4.575,1.671c-0.139,0.138-0.251,0.292-0.35,0.451v-4.306
			c0.014,0.023,0.025,0.049,0.04,0.072l-0.006,0.005l0.012,0.006c0,0,0.004,0.007,0.006,0.01l0.004-0.004
			c1.203,0.81,2.846,0.688,3.909-0.376c1.064-1.062,2.522-4.043,2.031-5.564l0.012-0.011l-0.014-0.002l-0.002-0.015l-0.012,0.012
			c-1.524-0.491-4.503,0.968-5.566,2.031c-0.163,0.164-0.296,0.343-0.414,0.53v-3.688c0.014,0.023,0.025,0.049,0.04,0.073
			l-0.006,0.005L13.333,46.848z"/>
		<path fill="#469315" d="M52.452,46.848c0.002,0.004,0.004,0.006,0.004,0.006l0.006-0.001c1.203,0.81,2.845,0.689,3.909-0.375
			c1.063-1.064,2.522-4.042,2.03-5.564l0.012-0.012l-0.014-0.003l-0.001-0.013l-0.012,0.011c-1.524-0.491-4.503,0.967-5.567,2.031
			c-0.162,0.164-0.296,0.343-0.414,0.53v-3.687c0.014,0.023,0.023,0.048,0.039,0.071l-0.004,0.004l0.01,0.006
			c0.004,0.004,0.004,0.008,0.008,0.012l0.004-0.005c1.203,0.81,2.845,0.688,3.909-0.375c1.063-1.064,2.522-4.044,2.03-5.565
			l0.012-0.012l-0.014-0.003c-0.001-0.004-0.001-0.01-0.001-0.014l-0.012,0.012c-1.524-0.49-4.503,0.969-5.567,2.032
			c-0.162,0.164-0.296,0.344-0.414,0.53v-3.677c1.252-0.396,2.163-1.552,2.163-2.936c0-1.504-1.074-4.643-2.497-5.372v-0.015
			c-0.004,0.002-0.008,0.006-0.008,0.006c-0.008,0-0.012-0.004-0.016-0.006v0.015c-1.424,0.729-2.499,3.868-2.499,5.372
			c0,1.384,0.913,2.541,2.164,2.936v3.678c-0.118-0.187-0.251-0.368-0.416-0.531c-1.063-1.062-4.042-2.522-5.564-2.032l-0.012-0.012
			c-0.002,0.004,0,0.01-0.002,0.014l-0.014,0.003l0.012,0.012c-0.491,1.521,0.967,4.501,2.031,5.565
			c1.063,1.063,2.706,1.185,3.907,0.374l0.006,0.006c0.004-0.004,0.004-0.009,0.008-0.013l0.008-0.005l-0.004-0.004
			c0.015-0.023,0.024-0.048,0.04-0.071v3.688c-0.118-0.187-0.251-0.367-0.416-0.531c-1.063-1.064-4.042-2.522-5.564-2.031
			l-0.012-0.011c-0.002,0.004,0,0.009-0.002,0.013l-0.014,0.003l0.012,0.012c-0.491,1.521,0.967,4.5,2.031,5.564
			c1.063,1.064,2.706,1.185,3.909,0.375l0.004,0.004c0.002-0.003,0.004-0.006,0.006-0.009l0.01-0.006l-0.004-0.004
			c0.015-0.024,0.024-0.049,0.04-0.074v3.689c-0.118-0.187-0.251-0.368-0.416-0.531c-1.063-1.063-4.042-2.522-5.564-2.031
			l-0.012-0.012c-0.002,0.004,0,0.01-0.002,0.015l-0.014,0.002l0.012,0.011c-0.491,1.521,0.967,4.501,2.031,5.564
			c1.063,1.064,2.706,1.186,3.909,0.376l0.004,0.004c0.002-0.003,0.004-0.007,0.004-0.007l0.012-0.009l-0.004-0.004
			c0.015-0.024,0.024-0.049,0.04-0.073v4.305c-0.099-0.159-0.211-0.312-0.35-0.45c-0.873-0.875-3.323-2.075-4.575-1.671l-0.01-0.009
			l-0.001,0.011l-0.012,0.002l0.01,0.01c-0.404,1.25,0.795,3.701,1.671,4.576c0.874,0.875,2.221,0.974,3.213,0.309l0.002,0.003
			c0.002-0.002,0.002-0.005,0.002-0.005s0.01-0.006,0.014-0.009l-0.004-0.004c0.015-0.024,0.024-0.05,0.04-0.075v0.771
			c-0.582,0.154-1.014,0.679-1.014,1.31c0,0.75,0.607,1.359,1.36,1.359c0.75,0,1.359-0.609,1.359-1.359
			c0-0.631-0.431-1.156-1.014-1.311v-0.768c0.014,0.023,0.025,0.049,0.041,0.073L52.44,60.83c0.004,0.003,0.008,0.004,0.008,0.004
			s0.006,0.008,0.008,0.01l0.004-0.003c0.99,0.666,2.338,0.566,3.213-0.309c0.876-0.875,2.075-3.327,1.669-4.577l0.01-0.009
			l-0.01-0.002l-0.002-0.011l-0.01,0.009c-1.249-0.404-3.702,0.797-4.574,1.671c-0.14,0.138-0.252,0.292-0.351,0.451v-4.306
			c0.014,0.023,0.025,0.049,0.041,0.072l-0.006,0.005l0.012,0.006c0,0,0.004,0.007,0.006,0.01l0.004-0.004
			c1.203,0.81,2.845,0.688,3.909-0.376c1.063-1.062,2.522-4.043,2.03-5.564l0.012-0.011l-0.014-0.002l-0.001-0.015l-0.012,0.012
			c-1.524-0.491-4.503,0.968-5.567,2.031c-0.162,0.164-0.296,0.343-0.414,0.53v-3.688c0.014,0.023,0.025,0.049,0.041,0.073
			l-0.006,0.005L52.452,46.848z"/>
	</g>
</g>
</svg>
