<?xml version="1.0" encoding="utf-8"?>
<!-- Generator: Adobe Illustrator 16.0.0, SVG Export Plug-In . SVG Version: 6.00 Build 0)  -->
<!DOCTYPE svg PUBLIC "-//W3C//DTD SVG 1.1//EN" "http://www.w3.org/Graphics/SVG/1.1/DTD/svg11.dtd">
<svg version="1.1" id="Layer_1" xmlns="http://www.w3.org/2000/svg" xmlns:xlink="http://www.w3.org/1999/xlink" x="0px" y="0px"
	 width="65px" height="65px" viewBox="0 0 65 65" enable-background="new 0 0 65 65" xml:space="preserve">
<g>
	<g>
		<g>
			<g>
				<path fill="#56250F" d="M1.466,10.144c-3.059,3.127,2.917,5.072,7.888,9.93c4.967,4.861,7.044,10.795,10.103,7.67
					c3.056-3.125,1.509-9.6-3.459-14.459C11.028,8.425,4.522,7.019,1.466,10.144z"/>
				<path fill="#E58761" d="M13.27,15.144c-3.934-3.848-8.825-5.52-12.214-4.502c-1.99,2.848,3.6,4.838,8.298,9.432
					c3.845,3.764,5.959,8.15,8.138,8.498C19.432,25.204,17.745,19.522,13.27,15.144z"/>
				<path fill="#D86A39" d="M11.27,17.144c3.215,3.145,6.069,6.969,6.096,10.117l0.126,1.311c1.94-3.367,0.254-9.049-4.222-13.428
					c-3.934-3.848-8.825-5.52-12.214-4.502"/>
			</g>
		</g>
		<g>
			<g>
				<path fill="#56250F" d="M63.533,10.144c3.06,3.127-2.917,5.072-7.887,9.93c-4.966,4.861-7.044,10.795-10.103,7.67
					c-3.056-3.125-1.509-9.6,3.458-14.459C53.971,8.425,60.478,7.019,63.533,10.144z"/>
				<path fill="#E58761" d="M51.729,15.144c3.934-3.848,8.826-5.52,12.215-4.502c1.99,2.848-3.6,4.838-8.298,9.432
					c-3.845,3.764-5.959,8.15-8.138,8.498C45.568,25.204,47.254,19.522,51.729,15.144z"/>
				<path fill="#D86A39" d="M53.729,17.144c-3.214,3.145-6.068,6.969-6.096,10.117l-0.125,1.311
					c-1.94-3.367-0.255-9.049,4.221-13.428c3.934-3.848,8.826-5.52,12.215-4.502"/>
			</g>
		</g>
	</g>
	<g>
		<path fill="#E58761" d="M62.079,39.577c0,12.031-13.243,15.408-29.579,15.408S2.92,51.608,2.92,39.577
			c0-12.033,13.244-21.787,29.58-21.787S62.079,27.544,62.079,39.577z"/>
		<path fill="#D86A39" d="M62.079,39.577c0,12.031-13.243,15.408-29.579,15.408S2.92,51.608,2.92,39.577
			c0-12.033,13.244-18.762,29.58-18.762S62.079,27.544,62.079,39.577z"/>
		<path fill="#C14D14" d="M62.079,39.577c0,12.031-13.243,15.408-29.579,15.408S2.92,51.608,2.92,39.577
			c0-12.033,13.244-5.492,29.58-5.492S62.079,27.544,62.079,39.577z"/>
		<g>
			<circle fill="#082856" cx="20.81" cy="37.272" r="2.657"/>
			<circle fill="#082856" cx="44.19" cy="37.272" r="2.657"/>
		</g>
		<g>
			<path d="M23.467,37.272c0,1.469-1.189,2.658-2.657,2.658s-2.657-1.189-2.657-2.658"/>
			<path d="M46.847,37.272c0,1.469-1.189,2.658-2.656,2.658c-1.468,0-2.657-1.189-2.657-2.658"/>
		</g>
	</g>
	<path fill="#56250F" d="M44.248,45.044c0,3.078-5.262,9.789-11.748,9.789c-6.488,0-11.748-6.711-11.748-9.789
		c0-3.08,5.26-5.574,11.748-5.574C38.986,39.47,44.248,41.964,44.248,45.044z"/>
	<path fill="#261005" d="M44.248,45.044c0,3.078-5.262,9.789-11.748,9.789c-6.488,0-11.748-6.711-11.748-9.789
		c0-3.08,5.26-0.578,11.748-0.578C38.986,44.466,44.248,41.964,44.248,45.044z"/>
	<path fill="#F25595" d="M23.781,53.054c-2.711-0.809-5.091-1.945-6.908-3.201c-0.822,2.236-1.074,5.113,0.355,6.205
		c1.894,1.445,6.038-0.781,7.656-2.701C24.519,53.265,24.152,53.165,23.781,53.054z"/>
	<path fill="#F980B7" d="M16.873,49.853c-0.354,0.963-0.59,2.039-0.644,3.047c0.091,0.4,0.237,0.771,0.491,1.068
		c1.516,1.773,5.657,0.787,8.029-0.648c-0.321-0.082-0.643-0.168-0.969-0.266C21.07,52.245,18.69,51.108,16.873,49.853z"/>
</g>
</svg>
