<?xml version="1.0" encoding="utf-8"?>
<!-- Generator: Adobe Illustrator 16.0.0, SVG Export Plug-In . SVG Version: 6.00 Build 0)  -->
<!DOCTYPE svg PUBLIC "-//W3C//DTD SVG 1.1//EN" "http://www.w3.org/Graphics/SVG/1.1/DTD/svg11.dtd">
<svg version="1.1" id="Layer_1" xmlns="http://www.w3.org/2000/svg" xmlns:xlink="http://www.w3.org/1999/xlink" x="0px" y="0px"
	 width="65px" height="65px" viewBox="0 0 65 65" enable-background="new 0 0 65 65" xml:space="preserve">
<g>
	<g>
		<g>
			<path fill="#BFAB8A" d="M9.05,50.128c0,1.583-1.283,1.398-2.864,1.398l0,0c-1.581,0-2.865,0.184-2.865-1.398l-1.018-4.904
				c0-1.583,2.302-2.865,3.883-2.865l0,0c1.581,0,3.884,1.282,3.884,2.865L9.05,50.128z"/>
			<path fill="#AD997B" d="M7.972,50.128c0,1.583-0.802,1.398-1.786,1.398l0,0c-0.984,0-1.784,0.184-1.784-1.398l-0.635-4.904
				c0-1.583,1.435-2.865,2.419-2.865l0,0c0.984,0,2.418,1.282,2.418,2.865L7.972,50.128z"/>
		</g>
		<g>
			<path fill="#BFAB8A" d="M22.208,50.128c0,1.583-1.283,1.398-2.864,1.398l0,0c-1.582,0-2.865,0.184-2.865-1.398l-1.021-4.904
				c0-1.583,2.304-2.865,3.886-2.865l0,0c1.581,0,3.882,1.282,3.882,2.865L22.208,50.128z"/>
			<path fill="#AD997B" d="M21.128,50.128c0,1.583-0.801,1.398-1.784,1.398l0,0c-0.986,0-1.784,0.184-1.784-1.398l-0.637-4.904
				c0-1.583,1.435-2.865,2.421-2.865l0,0c0.983,0,2.418,1.282,2.418,2.865L21.128,50.128z"/>
		</g>
		<g>
			<path fill="#BFAB8A" d="M35.364,50.128c0,1.583-1.282,1.398-2.864,1.398l0,0c-1.582,0-2.864,0.184-2.864-1.398l-1.021-4.904
				c0-1.583,2.303-2.865,3.885-2.865l0,0c1.582,0,3.884,1.282,3.884,2.865L35.364,50.128z"/>
			<path fill="#AD997B" d="M34.284,50.128c0,1.583-0.799,1.398-1.784,1.398l0,0c-0.983,0-1.784,0.184-1.784-1.398l-0.635-4.904
				c0-1.583,1.436-2.865,2.419-2.865l0,0c0.985,0,2.421,1.282,2.421,2.865L34.284,50.128z"/>
		</g>
		<g>
			<path fill="#BFAB8A" d="M48.521,50.128c0,1.583-1.283,1.398-2.865,1.398l0,0c-1.58,0-2.864,0.184-2.864-1.398l-1.018-4.904
				c0-1.583,2.302-2.865,3.882-2.865l0,0c1.582,0,3.885,1.282,3.885,2.865L48.521,50.128z"/>
			<path fill="#AD997B" d="M47.442,50.128c0,1.583-0.8,1.398-1.786,1.398l0,0c-0.984,0-1.784,0.184-1.784-1.398l-0.634-4.904
				c0-1.583,1.434-2.865,2.418-2.865l0,0c0.986,0,2.421,1.282,2.421,2.865L47.442,50.128z"/>
		</g>
		<g>
			<path fill="#BFAB8A" d="M61.68,50.128c0,1.583-1.282,1.398-2.865,1.398l0,0c-1.581,0-2.864,0.184-2.864-1.398l-1.02-4.904
				c0-1.583,2.303-2.865,3.884-2.865l0,0c1.583,0,3.883,1.282,3.883,2.865L61.68,50.128z"/>
			<path fill="#AD997B" d="M60.599,50.128c0,1.583-0.8,1.398-1.784,1.398l0,0c-0.985,0-1.784,0.184-1.784-1.398l-0.635-4.904
				c0-1.583,1.434-2.865,2.419-2.865l0,0c0.984,0,2.419,1.282,2.419,2.865L60.599,50.128z"/>
		</g>
	</g>
	<path fill="#BFAB8A" d="M64,41.505C64,44.484,61.585,47,58.608,47H6.391C3.415,47,1,44.484,1,41.505v-7.908
		C1,30.619,3.415,28,6.391,28h52.218C61.585,28,64,30.619,64,33.598V41.505z"/>
	<path fill="#CCB696" d="M58.608,28H6.391C3.415,28,1,30.619,1,33.598v0.539C1,37.115,3.415,40,6.391,40h52.218
		C61.585,40,64,37.115,64,34.136v-0.539C64,30.619,61.585,28,58.608,28z"/>
	<g>
		<g>
			<g>
				<path fill="#DBC3A1" d="M18.683,30.943c0,0.833-2.786,1.947-6.224,1.947s-6.224-1.115-6.224-1.947
					c0-0.833,2.786-1.509,6.224-1.509S18.683,30.109,18.683,30.943z"/>
				<ellipse fill="#9E8B69" cx="12.459" cy="30.943" rx="6.224" ry="1.509"/>
				<path fill="#7F6D50" d="M18.683,30.943c0,0.833-2.786,1.509-6.224,1.509s-6.224-0.677-6.224-1.509"/>
			</g>
			<g>
				<path fill="#E8B277" d="M19.5,24.53c0,3.891-3.152,7.042-7.041,7.042S5.417,28.42,5.417,24.53
					c0-3.888,3.153-11.063,7.042-11.063S19.5,20.642,19.5,24.53z"/>
				<path fill="#EFBF8B" d="M5.417,24.53c0-3.888,3.153-11.063,7.042-11.063"/>
				<path fill="#D89E60" d="M12.459,13.466c3.889,0,7.041,7.175,7.041,11.063c0,3.891-3.152,7.042-7.041,7.042"/>
			</g>
		</g>
		<g>
			<g>
				<path fill="#DBC3A1" d="M38.725,30.943c0,0.833-2.787,1.947-6.225,1.947s-6.225-1.115-6.225-1.947
					c0-0.833,2.787-1.509,6.225-1.509S38.725,30.109,38.725,30.943z"/>
				<ellipse fill="#9E8B69" cx="32.5" cy="30.943" rx="6.225" ry="1.509"/>
				<path fill="#7F6D50" d="M38.725,30.943c0,0.833-2.787,1.509-6.225,1.509s-6.225-0.677-6.225-1.509"/>
			</g>
			<g>
				<path fill="#E8B277" d="M39.541,24.53c0,3.891-3.153,7.042-7.041,7.042c-3.889,0-7.042-3.152-7.042-7.042
					c0-3.888,3.153-11.063,7.042-11.063C36.388,13.466,39.541,20.642,39.541,24.53z"/>
				<path fill="#EFBF8B" d="M25.458,24.53c0-3.888,3.153-11.063,7.042-11.063"/>
				<path fill="#D89E60" d="M32.5,13.466c3.888,0,7.041,7.175,7.041,11.063c0,3.891-3.153,7.042-7.041,7.042"/>
			</g>
		</g>
		<g>
			<g>
				<path fill="#DBC3A1" d="M58.766,30.943c0,0.833-2.787,1.947-6.225,1.947s-6.225-1.115-6.225-1.947
					c0-0.833,2.787-1.509,6.225-1.509S58.766,30.109,58.766,30.943z"/>
				<ellipse fill="#9E8B69" cx="52.541" cy="30.943" rx="6.225" ry="1.509"/>
				<path fill="#7F6D50" d="M58.766,30.943c0,0.833-2.787,1.509-6.225,1.509s-6.225-0.677-6.225-1.509"/>
			</g>
			<g>
				<path fill="#E8B277" d="M59.582,24.53c0,3.891-3.153,7.042-7.041,7.042c-3.889,0-7.042-3.152-7.042-7.042
					c0-3.888,3.153-11.063,7.042-11.063C56.429,13.466,59.582,20.642,59.582,24.53z"/>
				<path fill="#EFBF8B" d="M45.499,24.53c0-3.888,3.153-11.063,7.042-11.063"/>
				<path fill="#D89E60" d="M52.541,13.466c3.888,0,7.041,7.175,7.041,11.063c0,3.891-3.153,7.042-7.041,7.042"/>
			</g>
		</g>
	</g>
</g>
</svg>
