<?xml version="1.0" encoding="utf-8"?>
<!-- Generator: Adobe Illustrator 16.0.0, SVG Export Plug-In . SVG Version: 6.00 Build 0)  -->
<!DOCTYPE svg PUBLIC "-//W3C//DTD SVG 1.1//EN" "http://www.w3.org/Graphics/SVG/1.1/DTD/svg11.dtd">
<svg version="1.1" id="Layer_1" xmlns="http://www.w3.org/2000/svg" xmlns:xlink="http://www.w3.org/1999/xlink" x="0px" y="0px"
	 width="65px" height="65px" viewBox="0 0 65 65" enable-background="new 0 0 65 65" xml:space="preserve">
<g>
	<g>
		<ellipse fill="#97A8AA" cx="32.499" cy="59.413" rx="20.98" ry="5.087"/>
		<path fill="#AEB9BA" d="M53.479,59.413c0,2.811-9.393,5.087-20.98,5.087s-20.979-2.276-20.979-5.087"/>
	</g>
	<g>
		<path fill="#E8B277" d="M56.237,37.797c0,13.112-10.625,23.74-23.738,23.74c-13.105,0-23.735-10.628-23.735-23.74
			C8.763,24.688,19.393,0.5,32.499,0.5C45.612,0.5,56.237,24.688,56.237,37.797z"/>
		<path fill="#EFBF8B" d="M8.763,37.797C8.763,24.688,19.393,0.5,32.499,0.5"/>
		<path fill="#D89E60" d="M32.499,0.5c13.113,0,23.738,24.188,23.738,37.297c0,13.112-10.625,23.74-23.738,23.74"/>
	</g>
</g>
</svg>
