<?xml version="1.0" encoding="utf-8"?>
<!-- Generator: Adobe Illustrator 16.0.0, SVG Export Plug-In . SVG Version: 6.00 Build 0)  -->
<!DOCTYPE svg PUBLIC "-//W3C//DTD SVG 1.1//EN" "http://www.w3.org/Graphics/SVG/1.1/DTD/svg11.dtd">
<svg version="1.1" id="Layer_1" xmlns="http://www.w3.org/2000/svg" xmlns:xlink="http://www.w3.org/1999/xlink" x="0px" y="0px"
	 width="65px" height="65px" viewBox="0 0 65 65" enable-background="new 0 0 65 65" xml:space="preserve">
<g>
	<path fill="#EA371F" d="M58.605,64.159c-0.865-7.818-11.809-14.002-25.188-14.002S9.096,56.341,8.23,64.159H58.605z"/>
	<path fill="#148DE0" d="M52.334,62.325c0,1.012-0.82,1.834-1.834,1.834H16.334c-1.012,0-1.832-0.822-1.832-1.834l0,0
		c0-1.014,0.82-1.834,1.832-1.834H50.5C51.514,60.491,52.334,61.312,52.334,62.325L52.334,62.325z"/>
	<path fill="#67BEEF" d="M50.5,60.491H16.334c-0.6,0-1.129,0.293-1.463,0.74c0.334,0.447,0.863,0.74,1.463,0.74H50.5
		c0.602,0,1.13-0.293,1.465-0.74C51.63,60.784,51.102,60.491,50.5,60.491z"/>
	<path fill="#C12414" d="M14.406,55.292c5.141,1.787,11.771,2.453,19.012,2.453s13.871-0.666,19.012-2.453
		c-4.627-3.145-11.426-5.135-19.012-5.135S19.032,52.147,14.406,55.292z"/>
	<g>
		<path fill="#C6BD8B" d="M62.997,38.337c0,12.031-13.243,15.408-29.579,15.408S3.839,50.368,3.839,38.337
			c0-12.033,13.243-21.787,29.579-21.787S62.997,26.304,62.997,38.337z"/>
		<path fill="#C98D61" d="M62.997,38.337c0,12.031-13.243,15.408-29.579,15.408S3.839,50.368,3.839,38.337
			c0-12.033,13.243-18.762,29.579-18.762S62.997,26.304,62.997,38.337z"/>
		<path fill="#E8A874" d="M62.997,38.337c0,12.031-13.243,15.408-29.579,15.408S3.839,50.368,3.839,38.337
			c0-12.033,13.243-5.492,29.579-5.492S62.997,26.304,62.997,38.337z"/>
		
			<ellipse transform="matrix(0.9929 -0.1193 0.1193 0.9929 -3.4908 3.2605)" fill="#EA371F" cx="25.484" cy="30.782" rx="17.875" ry="5.251"/>
		
			<ellipse transform="matrix(0.9929 -0.1193 0.1193 0.9929 -2.9986 3.2311)" fill="#C12414" cx="25.484" cy="26.657" rx="17.875" ry="5.251"/>
		<g>
			<path fill="#EA371F" d="M14.955,28.491c0,0-6.334,6.666-2.668,24l-7.666-0.668l-0.5-3.332l-1.5,2.666l-2-1.334
				c0,0-1.334-15.998,7.166-23.666L14.955,28.491z"/>
			<path fill="#C12414" d="M4.107,30.942c1.59,0.375,3.418,0.59,5.367,0.59c1.335,0,2.609-0.105,3.793-0.289
				c0.875-1.893,1.688-2.752,1.688-2.752l-7.168-2.334C6.266,27.53,5.062,29.175,4.107,30.942z"/>
			<path fill="#EA371F" d="M50.045,28.491c0,0,6.334,6.666,2.667,24l7.667-0.668l0.5-3.332l1.5,2.666l2-1.334
				c0,0,1.333-15.998-7.167-23.666L50.045,28.491z"/>
			<path fill="#C12414" d="M60.893,30.942c-1.59,0.375-3.418,0.59-5.367,0.59c-1.335,0-2.609-0.105-3.794-0.289
				c-0.874-1.893-1.687-2.752-1.687-2.752l7.167-2.334C58.734,27.53,59.938,29.175,60.893,30.942z"/>
		</g>
		<g>
			<circle fill="#082856" cx="21.728" cy="41.616" r="2.657"/>
			<circle fill="#082856" cx="45.108" cy="41.616" r="2.657"/>
		</g>
		<g>
			<path d="M24.385,41.616c0,1.469-1.189,2.658-2.657,2.658s-2.657-1.189-2.657-2.658"/>
			<path d="M47.765,41.616c0,1.469-1.189,2.658-2.655,2.658c-1.469,0-2.658-1.189-2.658-2.658"/>
		</g>
	</g>
	<path fill="#CE416F" d="M42.918,47.991c0,1.52-4.215,2.75-9.416,2.75s-9.417-1.23-9.417-2.75c0-1.518,4.216-0.25,9.417-0.25
		S42.918,46.474,42.918,47.991z"/>
	<g>
		<path fill="#148DE0" d="M14.546,20.46c0,0,5.063,0.086,5.917-10.418c0.48-5.857,5.273-13.119,12.347-6.688
			s5.402-1.672,9.772,0.643c4.376,2.316,3.348,14.92,7.978,16.848c4.631,1.93-21.479,4.631-21.479,4.631l-12.992-4.373L14.546,20.46
			z"/>
		<path fill="#1758DD" d="M42.582,7.663c-4.37-2.314-2.699,5.789-9.772-0.643s-11.866,0.83-12.347,6.688
			c-0.332,4.084-1.301,6.562-2.361,8.072l10.979,3.695c0,0,13.661-1.414,19.466-2.926C46.127,18.372,46.17,9.562,42.582,7.663z"/>
		<path fill="#723E14" d="M52.532,22.044c0,2.203-1.783,3.988-3.989,3.988H17.935c-2.2,0-3.988-1.785-3.988-3.988l0,0
			c0-2.201,1.788-3.986,3.988-3.986h30.608C50.749,18.058,52.532,19.843,52.532,22.044L52.532,22.044z"/>
		<path fill="#49290A" d="M43.208,22.044c0,2.203-0.925,3.988-2.062,3.988H25.333c-1.139,0-2.061-1.785-2.061-3.988l0,0
			c0-2.201,0.922-3.986,2.061-3.986h15.812C42.283,18.058,43.208,19.843,43.208,22.044L43.208,22.044z"/>
		<path fill="#148DE0" d="M64.137,20.284c0,5.973-14.163,10.811-31.636,10.811c-17.477,0-31.639-4.838-31.639-10.811
			c0-5.971,14.162,1.91,31.639,1.91C49.974,22.194,64.137,14.313,64.137,20.284z"/>
		<path fill="#1758DD" d="M32.501,22.194c-14.286,0-26.343-5.256-30.277-3.92c3.935,4.445,15.991,7.678,30.277,7.678
			c14.281,0,26.343-3.232,30.277-7.678C58.844,16.938,46.782,22.194,32.501,22.194z"/>
	</g>
	<g>
		<g>
			<path fill="#1758DD" d="M17.346,64.159V53.47c0-1-0.812,0.439-1.812,0.439c-1.002,0-1.812,0.811-1.812,1.812v8.438H17.346z"/>
			<path fill="#148DE0" d="M15.533,53.909c-1.002,0-1.812,0.811-1.812,1.812v5.438h3.625V53.47
				C17.346,52.47,16.533,53.909,15.533,53.909z"/>
		</g>
		<g>
			<path fill="#1758DD" d="M49.49,64.159V53.47c0-1,0.812,0.439,1.812,0.439c1.002,0,1.812,0.811,1.812,1.812v8.438H49.49z"/>
			<path fill="#148DE0" d="M51.303,53.909c1.002,0,1.812,0.811,1.812,1.812v5.438H49.49V53.47
				C49.49,52.47,50.303,53.909,51.303,53.909z"/>
		</g>
	</g>
</g>
</svg>
