<?xml version="1.0" encoding="utf-8"?>
<!-- Generator: Adobe Illustrator 16.0.0, SVG Export Plug-In . SVG Version: 6.00 Build 0)  -->
<!DOCTYPE svg PUBLIC "-//W3C//DTD SVG 1.1//EN" "http://www.w3.org/Graphics/SVG/1.1/DTD/svg11.dtd">
<svg version="1.1" id="Layer_1" xmlns="http://www.w3.org/2000/svg" xmlns:xlink="http://www.w3.org/1999/xlink" x="0px" y="0px"
	 width="65px" height="65px" viewBox="0 0 65 65" enable-background="new 0 0 65 65" xml:space="preserve">
<g>
	<g>
		<g>
			<path fill="#148DE0" d="M63.77,55.703V22.727c0-7.417-6.012-13.43-13.428-13.43h-5.971c-7.416,0-13.428,6.013-13.428,13.43
				v32.977H63.77z"/>
			<path fill="#0C76BF" d="M63.77,55.703V22.727c0-7.417-6.012-13.43-13.428-13.43h-5.971c-7.416,0-13.428,6.013-13.428,13.43"/>
			<path fill="#0C76BF" d="M49.184,45.479c0,0.448-0.361,0.811-0.809,0.811h-3.328c-0.445,0-0.807-0.362-0.807-0.811l0,0
				c0-0.445,0.361-0.808,0.807-0.808h3.328C48.822,44.672,49.184,45.034,49.184,45.479L49.184,45.479z"/>
			<path fill="#0C76BF" d="M49.184,52.423c0,0.447-0.361,0.81-0.809,0.81h-3.328c-0.445,0-0.807-0.362-0.807-0.81l0,0
				c0-0.446,0.361-0.808,0.807-0.808h3.328C48.822,51.615,49.184,51.977,49.184,52.423L49.184,52.423z"/>
			<path fill="#0C76BF" d="M52.037,48.333c0,0.447-0.363,0.809-0.809,0.809H47.9c-0.445,0-0.809-0.361-0.809-0.809l0,0
				c0-0.445,0.363-0.808,0.809-0.808h3.328C51.674,47.525,52.037,47.888,52.037,48.333L52.037,48.333z"/>
			<path fill="#148DE0" d="M53.594,34.8c0-0.448,0.359-0.811,0.809-0.811h3.326c0.445,0,0.809,0.362,0.809,0.811l0,0
				c0,0.445-0.363,0.808-0.809,0.808h-3.326C53.953,35.607,53.594,35.245,53.594,34.8L53.594,34.8z"/>
			<path fill="#148DE0" d="M53.594,27.856c0-0.447,0.359-0.81,0.809-0.81h3.326c0.445,0,0.809,0.362,0.809,0.81l0,0
				c0,0.446-0.363,0.808-0.809,0.808h-3.326C53.953,28.664,53.594,28.303,53.594,27.856L53.594,27.856z"/>
			<path fill="#148DE0" d="M50.74,31.946c0-0.447,0.361-0.809,0.809-0.809h3.326c0.447,0,0.809,0.361,0.809,0.809l0,0
				c0,0.445-0.361,0.808-0.809,0.808h-3.326C51.102,32.754,50.74,32.392,50.74,31.946L50.74,31.946z"/>
		</g>
		<path fill="#FF7C24" d="M50.342,9.297h-5.971c-7.416,0-13.428,6.013-13.428,13.43l0.059,0.06H63.77v-0.06
			C63.77,15.31,57.758,9.297,50.342,9.297z"/>
		<path fill="#FFA522" d="M50.342,9.297h-5.971c-7.416,0-13.428,6.013-13.428,13.43l0.059,0.06"/>
		<path fill="#FFA522" d="M30.943,22.727v0.81H63.77v-0.81c0-0.19-0.021-0.376-0.029-0.565h-32.77
			C30.963,22.351,30.943,22.536,30.943,22.727z"/>
	</g>
	<g>
		<polygon fill="#D14A2F" points="46.342,54.89 46.342,38.828 34.232,26.719 17.105,26.719 4.996,38.828 4.996,54.89 		"/>
		<polyline fill="#BC3C1E" points="46.342,54.89 46.342,38.828 34.232,26.719 17.105,26.719 4.996,38.828 		"/>
		<polygon fill="#931C0C" points="46.152,38.64 34.232,26.719 17.105,26.719 5.186,38.64 		"/>
		<polyline fill="#AA2D15" points="17.105,26.719 5.186,38.64 46.152,38.64 		"/>
		<polygon fill="#7F1105" points="17.105,26.719 4.996,38.828 4.996,40.64 5.186,40.64 17.105,28.719 34.232,28.719 46.152,40.64 
			46.342,40.64 46.342,38.828 34.232,26.719 		"/>
		<path fill="#470E0E" d="M50.107,37.529C49.91,36.961,49.604,36.433,49.17,36L37.061,23.891c-0.75-0.751-1.768-1.172-2.828-1.172
			H17.105c-1.061,0-2.078,0.421-2.828,1.172L2.168,36c-0.434,0.433-0.74,0.96-0.938,1.528c0.551,0.673,1.377,1.111,2.314,1.111
			h1.641l11.92-11.921h17.127l11.92,11.921h1.643C48.73,38.64,49.557,38.201,50.107,37.529z"/>
		<path fill="#260707" d="M34.232,25.531H17.105c-1.061,0-2.078,0.421-2.828,1.172L2.537,38.442c0.316,0.116,0.65,0.197,1.008,0.197
			h1.641l11.92-11.921h17.127l11.92,11.921h1.643c0.357,0,0.689-0.08,1.006-0.197l-11.74-11.739
			C36.311,25.952,35.293,25.531,34.232,25.531z"/>
		<g>
			<g>
				<path fill="#AA2D15" d="M31.639,54.89H19.699c-0.395,0-0.717-0.323-0.717-0.717v-11.94c0-0.394,0.322-0.717,0.717-0.717h11.939
					c0.398,0,0.717,0.323,0.717,0.717v11.94C32.355,54.566,32.037,54.89,31.639,54.89z M20.416,53.456h10.506V42.949H20.416V53.456z
					"/>
			</g>
			<g>
				<g>
					<path fill="#AA2D15" d="M20.375,54.212c-0.18,0-0.365-0.069-0.506-0.207c-0.277-0.28-0.277-0.737,0-1.015l10.582-10.586
						c0.283-0.274,0.736-0.28,1.014,0c0.281,0.279,0.281,0.735,0,1.015l-10.58,10.586C20.742,54.141,20.559,54.212,20.375,54.212z"
						/>
				</g>
				<g>
					<path fill="#AA2D15" d="M30.961,54.212c-0.184,0-0.369-0.071-0.51-0.207L19.869,43.419c-0.277-0.279-0.277-0.735,0-1.015
						c0.281-0.28,0.734-0.28,1.016,0l10.58,10.586c0.281,0.277,0.281,0.734,0,1.015C31.326,54.143,31.143,54.212,30.961,54.212z"/>
				</g>
			</g>
		</g>
		<path fill="#AA2D15" d="M47.189,54.953c0,0.414-0.336,0.75-0.75,0.75H5.273c-0.414,0-0.75-0.336-0.75-0.75l0,0
			c0-0.414,0.336-0.75,0.75-0.75h41.166C46.854,54.203,47.189,54.539,47.189,54.953L47.189,54.953z"/>
	</g>
</g>
</svg>
