<?xml version="1.0" encoding="utf-8"?>
<!-- Generator: Adobe Illustrator 16.0.0, SVG Export Plug-In . SVG Version: 6.00 Build 0)  -->
<!DOCTYPE svg PUBLIC "-//W3C//DTD SVG 1.1//EN" "http://www.w3.org/Graphics/SVG/1.1/DTD/svg11.dtd">
<svg version="1.1" id="Layer_1" xmlns="http://www.w3.org/2000/svg" xmlns:xlink="http://www.w3.org/1999/xlink" x="0px" y="0px"
	 width="65px" height="65px" viewBox="0 0 65 65" enable-background="new 0 0 65 65" xml:space="preserve">
<g>
	<path fill="#148DE0" d="M58.605,64.159c-0.865-7.818-11.809-14.002-25.188-14.002S9.096,56.341,8.23,64.159H58.605z"/>
	<path fill="#EAA918" d="M52.334,62.325c0,1.012-0.82,1.834-1.834,1.834H16.334c-1.012,0-1.832-0.822-1.832-1.834l0,0
		c0-1.014,0.82-1.834,1.832-1.834H50.5C51.514,60.491,52.334,61.312,52.334,62.325L52.334,62.325z"/>
	<path fill="#FFBA31" d="M50.5,60.491H16.334c-0.602,0-1.129,0.293-1.463,0.74c0.334,0.447,0.861,0.74,1.463,0.74H50.5
		c0.602,0,1.131-0.293,1.465-0.74C51.631,60.784,51.102,60.491,50.5,60.491z"/>
	<path fill="#1758DD" d="M14.406,55.292c5.141,1.787,11.771,2.453,19.012,2.453s13.871-0.666,19.012-2.453
		c-4.627-3.145-11.426-5.135-19.012-5.135S19.033,52.147,14.406,55.292z"/>
	<g>
		<path fill="#C6BD8B" d="M62.998,38.337c0,12.031-13.244,15.408-29.58,15.408s-29.58-3.377-29.58-15.408
			c0-12.033,13.244-21.787,29.58-21.787S62.998,26.304,62.998,38.337z"/>
		<path fill="#C98D61" d="M62.998,38.337c0,12.031-13.244,15.408-29.58,15.408s-29.58-3.377-29.58-15.408
			c0-12.033,13.244-18.762,29.58-18.762S62.998,26.304,62.998,38.337z"/>
		<path fill="#E8A874" d="M62.998,38.337c0,12.031-13.244,15.408-29.58,15.408s-29.58-3.377-29.58-15.408
			c0-12.033,13.244-5.492,29.58-5.492S62.998,26.304,62.998,38.337z"/>
		<g>
			<circle fill="#082856" cx="21.728" cy="41.616" r="2.657"/>
			<circle fill="#082856" cx="45.108" cy="41.616" r="2.657"/>
		</g>
		<g>
			<path d="M24.385,41.616c0,1.469-1.189,2.658-2.656,2.658c-1.469,0-2.658-1.189-2.658-2.658"/>
			<path d="M47.766,41.616c0,1.469-1.189,2.658-2.656,2.658c-1.469,0-2.658-1.189-2.658-2.658"/>
		</g>
	</g>
	<path fill="#CE416F" d="M42.92,47.991c0,1.52-4.217,2.75-9.418,2.75s-9.416-1.23-9.416-2.75c0-1.518,4.215-0.25,9.416-0.25
		S42.92,46.474,42.92,47.991z"/>
	<g>
		<path fill="#EAA918" d="M14.547,20.46c0,0,5.062,0.086,5.916-10.418c0.48-5.857,5.273-13.119,12.348-6.688
			c7.072,6.432,5.402-1.672,9.773,0.643c4.375,2.316,3.346,14.92,7.977,16.848c4.631,1.93-21.48,4.631-21.48,4.631l-12.992-4.373
			L14.547,20.46z"/>
		<path fill="#C98909" d="M42.584,7.663c-4.371-2.314-2.701,5.789-9.773-0.643c-7.074-6.432-11.867,0.83-12.348,6.688
			c-0.332,4.084-1.301,6.562-2.361,8.072l10.979,3.695c0,0,13.662-1.414,19.467-2.926C46.127,18.372,46.17,9.562,42.584,7.663z"/>
		<path fill="#723E14" d="M52.533,22.044c0,2.203-1.783,3.988-3.99,3.988H17.936c-2.203,0-3.988-1.785-3.988-3.988l0,0
			c0-2.201,1.785-3.986,3.988-3.986h30.607C50.75,18.058,52.533,19.843,52.533,22.044L52.533,22.044z"/>
		<path fill="#49290A" d="M43.209,22.044c0,2.203-0.926,3.988-2.062,3.988H25.334c-1.139,0-2.061-1.785-2.061-3.988l0,0
			c0-2.201,0.922-3.986,2.061-3.986h15.812C42.283,18.058,43.209,19.843,43.209,22.044L43.209,22.044z"/>
		<path fill="#EAA918" d="M64.137,20.284c0,5.973-14.162,10.811-31.635,10.811c-17.477,0-31.639-4.838-31.639-10.811
			c0-5.971,14.162,1.91,31.639,1.91C49.975,22.194,64.137,14.313,64.137,20.284z"/>
		<path fill="#C98909" d="M32.502,22.194c-14.285,0-26.344-5.256-30.277-3.92c3.934,4.445,15.992,7.678,30.277,7.678
			c14.281,0,26.342-3.232,30.277-7.678C58.844,16.938,46.783,22.194,32.502,22.194z"/>
	</g>
	<g>
		<g>
			<path fill="#BF8208" d="M17.346,64.159V53.47c0-1-0.812,0.439-1.812,0.439c-1.002,0-1.812,0.811-1.812,1.812v8.438H17.346z"/>
			<path fill="#EAA918" d="M15.533,53.909c-1.002,0-1.812,0.811-1.812,1.812v5.438h3.625V53.47
				C17.346,52.47,16.533,53.909,15.533,53.909z"/>
		</g>
		<g>
			<path fill="#BF8208" d="M49.49,64.159V53.47c0-1,0.812,0.439,1.812,0.439c1.002,0,1.812,0.811,1.812,1.812v8.438H49.49z"/>
			<path fill="#EAA918" d="M51.303,53.909c1.002,0,1.812,0.811,1.812,1.812v5.438H49.49V53.47
				C49.49,52.47,50.303,53.909,51.303,53.909z"/>
		</g>
	</g>
</g>
</svg>
