<?xml version="1.0" encoding="utf-8"?>
<!-- Generator: Adobe Illustrator 16.0.0, SVG Export Plug-In . SVG Version: 6.00 Build 0)  -->
<!DOCTYPE svg PUBLIC "-//W3C//DTD SVG 1.1//EN" "http://www.w3.org/Graphics/SVG/1.1/DTD/svg11.dtd">
<svg version="1.1" id="Layer_1" xmlns="http://www.w3.org/2000/svg" xmlns:xlink="http://www.w3.org/1999/xlink" x="0px" y="0px"
	 width="65px" height="65px" viewBox="0 0 65 65" enable-background="new 0 0 65 65" xml:space="preserve">
<g>
	<g>
		<g>
			<path fill="#C0F0F2" d="M31.537,35.403c-1.434,0-2.756,0.472-3.827,1.262c-1.179-1.27-2.86-2.067-4.731-2.067
				c-1.131,0-2.194,0.293-3.118,0.802c-1.055-1.216-2.49-2.086-4.128-2.418c-0.876-6.375-6.329-11.289-12.94-11.289
				c-0.436,0-0.869,0.023-1.292,0.064v26.028c0.423,0.041,0.856,0.064,1.292,0.064c2.46,0,4.754-0.692,6.72-1.875
				c1.285,1.07,2.939,1.712,4.741,1.712c1.753,0,3.361-0.61,4.632-1.625c1.113,0.914,2.54,1.465,4.094,1.465
				c1.437,0,2.756-0.474,3.827-1.262c1.181,1.27,2.86,2.068,4.731,2.068c3.57,0,6.464-2.896,6.464-6.466
				C38.001,38.297,35.107,35.403,31.537,35.403z"/>
			<path fill="#9CD8E2" d="M31.537,37.665c-1.434,0-2.756,0.472-3.827,1.262c-1.179-1.27-2.86-2.07-4.731-2.07
				c-1.131,0-2.194,0.292-3.118,0.803c-1.055-1.214-2.49-2.088-4.128-2.418c-0.876-6.373-6.329-11.288-12.94-11.288
				c-0.436,0-0.869,0.024-1.292,0.065v26.024c0.423,0.045,0.856,0.065,1.292,0.065c2.46,0,4.754-0.691,6.72-1.873
				c1.285,1.067,2.939,1.713,4.741,1.713c1.753,0,3.361-0.61,4.632-1.625c1.113,0.914,2.54,1.463,4.094,1.463
				c1.437,0,2.756-0.474,3.827-1.265c1.181,1.271,2.86,2.07,4.731,2.07c3.57,0,6.464-2.894,6.464-6.464
				C38.001,40.557,35.107,37.665,31.537,37.665z"/>
		</g>
		<g>
			<path fill="#C0F0F2" d="M33.463,35.403c1.434,0,2.756,0.472,3.827,1.262c1.179-1.27,2.86-2.067,4.731-2.067
				c1.131,0,2.194,0.293,3.117,0.802c1.054-1.216,2.492-2.086,4.129-2.418c0.875-6.375,6.329-11.289,12.941-11.289
				c0.435,0,0.867,0.023,1.291,0.064v26.028c-0.424,0.041-0.856,0.064-1.291,0.064c-2.461,0-4.755-0.692-6.722-1.875
				c-1.284,1.07-2.939,1.712-4.74,1.712c-1.754,0-3.36-0.61-4.632-1.625c-1.113,0.914-2.54,1.465-4.094,1.465
				c-1.437,0-2.756-0.474-3.827-1.262c-1.181,1.27-2.86,2.068-4.731,2.068c-3.57,0-6.464-2.896-6.464-6.466
				C26.999,38.297,29.893,35.403,33.463,35.403z"/>
			<path fill="#9CD8E2" d="M33.463,37.665c1.434,0,2.756,0.472,3.827,1.262c1.179-1.27,2.86-2.07,4.731-2.07
				c1.131,0,2.194,0.292,3.117,0.803c1.054-1.214,2.492-2.088,4.129-2.418c0.875-6.373,6.329-11.288,12.941-11.288
				c0.435,0,0.867,0.024,1.291,0.065v26.024c-0.424,0.045-0.856,0.065-1.291,0.065c-2.461,0-4.755-0.691-6.722-1.873
				c-1.284,1.067-2.939,1.713-4.74,1.713c-1.754,0-3.36-0.61-4.632-1.625c-1.113,0.914-2.54,1.463-4.094,1.463
				c-1.437,0-2.756-0.474-3.827-1.265c-1.181,1.271-2.86,2.07-4.731,2.07c-3.57,0-6.464-2.894-6.464-6.464
				C26.999,40.557,29.893,37.665,33.463,37.665z"/>
		</g>
		<g>
			<g>
				<g>
					<path fill="#148DE0" d="M63.255,39.797V28.776c0-2.481-2.011-4.489-4.49-4.489H56.77c-2.478,0-4.488,2.008-4.488,4.489v11.021
						H63.255z"/>
					<path fill="#0C76BF" d="M63.255,39.797V28.776c0-2.481-2.011-4.489-4.49-4.489H56.77c-2.478,0-4.488,2.008-4.488,4.489"/>
					<path fill="#0C76BF" d="M58.38,36.379c0,0.149-0.122,0.271-0.272,0.271h-1.111c-0.149,0-0.269-0.122-0.269-0.271l0,0
						c0-0.148,0.119-0.271,0.269-0.271h1.111C58.258,36.108,58.38,36.23,58.38,36.379L58.38,36.379z"/>
					<path fill="#0C76BF" d="M58.38,38.701c0,0.148-0.122,0.269-0.272,0.269h-1.111c-0.149,0-0.269-0.12-0.269-0.269l0,0
						c0-0.151,0.119-0.271,0.269-0.271h1.111C58.258,38.43,58.38,38.55,58.38,38.701L58.38,38.701z"/>
					<path fill="#0C76BF" d="M59.333,37.332c0,0.151-0.122,0.272-0.272,0.272h-1.11c-0.149,0-0.271-0.121-0.271-0.272l0,0
						c0-0.146,0.121-0.269,0.271-0.269h1.11C59.211,37.063,59.333,37.186,59.333,37.332L59.333,37.332z"/>
					<path fill="#148DE0" d="M59.851,32.812c0-0.151,0.122-0.272,0.272-0.272h1.109c0.151,0,0.272,0.121,0.272,0.272l0,0
						c0,0.146-0.121,0.267-0.272,0.267h-1.109C59.973,33.078,59.851,32.958,59.851,32.812L59.851,32.812z"/>
					<path fill="#148DE0" d="M59.851,30.49c0-0.149,0.122-0.271,0.272-0.271h1.109c0.151,0,0.272,0.122,0.272,0.271l0,0
						c0,0.148-0.121,0.271-0.272,0.271h-1.109C59.973,30.761,59.851,30.639,59.851,30.49L59.851,30.49z"/>
					<path fill="#148DE0" d="M58.899,31.856c0-0.15,0.12-0.271,0.271-0.271h1.109c0.152,0,0.272,0.12,0.272,0.271l0,0
						c0,0.148-0.12,0.271-0.272,0.271H59.17C59.02,32.127,58.899,32.005,58.899,31.856L58.899,31.856z"/>
				</g>
				<path fill="#FF7C24" d="M58.765,24.287H56.77c-2.478,0-4.488,2.008-4.488,4.489l0.021,0.019h10.952v-0.019
					C63.255,26.295,61.244,24.287,58.765,24.287z"/>
				<path fill="#FFA522" d="M58.765,24.287H56.77c-2.478,0-4.488,2.008-4.488,4.489l0.021,0.019"/>
				<path fill="#FFA522" d="M52.281,28.776v0.27h10.974v-0.27c0-0.062-0.008-0.127-0.012-0.19H52.291
					C52.289,28.649,52.281,28.714,52.281,28.776z"/>
			</g>
			<g>
				<polygon fill="#D14A2F" points="52.614,41.232 52.614,35.092 47.984,30.465 41.438,30.465 36.811,35.092 36.811,41.232 				"/>
				<polyline fill="#BC3C1E" points="52.614,41.232 52.614,35.092 47.984,30.465 41.438,30.465 36.811,35.092 				"/>
				<polygon fill="#931C0C" points="52.54,35.021 47.984,30.465 41.438,30.465 36.882,35.021 				"/>
				<polyline fill="#AA2D15" points="41.438,30.465 36.882,35.021 52.54,35.021 				"/>
				<polygon fill="#7F1105" points="41.438,30.465 36.811,35.092 36.811,35.786 36.882,35.786 41.438,31.229 47.984,31.229 
					52.54,35.786 52.614,35.786 52.614,35.092 47.984,30.465 				"/>
				<path fill="#470E0E" d="M54.054,34.596c-0.077-0.217-0.194-0.42-0.359-0.584l-4.629-4.63c-0.286-0.286-0.675-0.446-1.081-0.446
					h-6.547c-0.404,0-0.794,0.16-1.08,0.446l-4.63,4.63c-0.166,0.164-0.284,0.367-0.357,0.584c0.21,0.257,0.526,0.425,0.884,0.425
					h0.628l4.556-4.556h6.547l4.556,4.556h0.629C53.528,35.021,53.843,34.853,54.054,34.596z"/>
				<path fill="#260707" d="M47.984,30.011h-6.547c-0.404,0-0.794,0.158-1.08,0.448l-4.49,4.486
					c0.122,0.044,0.251,0.075,0.387,0.075h0.628l4.556-4.556h6.547l4.556,4.556h0.629c0.136,0,0.263-0.031,0.385-0.075l-4.488-4.486
					C48.779,30.169,48.391,30.011,47.984,30.011z"/>
				<g>
					<g>
						<path fill="#AA2D15" d="M46.994,41.232H42.43c-0.151,0-0.272-0.125-0.272-0.276v-4.562c0-0.152,0.121-0.274,0.272-0.274h4.564
							c0.151,0,0.273,0.122,0.273,0.274v4.562C47.268,41.107,47.146,41.232,46.994,41.232z M42.703,40.684h4.016v-4.015h-4.016
							V40.684z"/>
					</g>
					<g>
						<g>
							<path fill="#AA2D15" d="M42.687,40.972c-0.067,0-0.14-0.024-0.193-0.079c-0.104-0.106-0.104-0.282,0-0.387l4.046-4.045
								c0.107-0.106,0.28-0.11,0.388,0c0.106,0.105,0.106,0.28,0,0.386l-4.044,4.046C42.827,40.946,42.758,40.972,42.687,40.972z"/>
						</g>
						<g>
							<path fill="#AA2D15" d="M46.734,40.972c-0.07,0-0.142-0.025-0.195-0.079l-4.046-4.046c-0.104-0.105-0.104-0.28,0-0.386
								c0.108-0.11,0.282-0.11,0.39,0l4.044,4.045c0.106,0.104,0.106,0.28,0,0.387C46.875,40.947,46.806,40.972,46.734,40.972z"/>
						</g>
					</g>
				</g>
				<path fill="#AA2D15" d="M52.937,41.254c0,0.161-0.127,0.29-0.287,0.29H36.915c-0.157,0-0.286-0.129-0.286-0.29l0,0
					c0-0.156,0.129-0.284,0.286-0.284h15.734C52.81,40.97,52.937,41.098,52.937,41.254L52.937,41.254z"/>
			</g>
		</g>
		<g>
			<path fill="#7DA81D" d="M63.5,38.516c-29.477,0.265-54.194,9.307-62,21.605h62V38.516z"/>
			<path fill="#7DA81D" d="M63.5,38.516c-29.477,0.265-54.194,9.307-62,21.605h62V38.516z"/>
			<g>
				<path fill="#2D7216" d="M63.5,38.516c-29.477,0.265-54.194,9.307-62,21.605h62V38.516z"/>
				<g>
					<path fill="#42892E" d="M13.072,60.121c10.071-8.34,28.637-14.263,50.428-15.364v-3.152
						c-25.682,0.759-47.331,8.191-56.642,18.517H13.072z"/>
					<path fill="#42892E" d="M63.5,51.249v-3.272c-17.773,1.282-33.179,5.775-43.211,12.145h8.508
						C37.908,55.695,49.931,52.525,63.5,51.249z"/>
					<path fill="#42892E" d="M63.5,58.013v-3.416c-9.059,1.058-17.367,2.964-24.479,5.524h13.294
						C55.866,59.271,59.601,58.56,63.5,58.013z"/>
				</g>
			</g>
			<g>
				<path fill="#7DA81D" d="M1.5,38.516c29.477,0.265,54.193,9.307,62,21.605h-62V38.516z"/>
				<g>
					<path fill="#96C610" d="M51.927,60.121C41.856,51.781,23.29,45.858,1.5,44.757v-3.152c25.681,0.759,47.33,8.191,56.642,18.517
						H51.927z"/>
					<path fill="#96C610" d="M1.5,51.249v-3.272c17.773,1.282,33.177,5.775,43.212,12.145h-8.509
						C27.092,55.695,15.068,52.525,1.5,51.249z"/>
					<path fill="#96C610" d="M1.5,58.013v-3.416c9.058,1.058,17.366,2.964,24.479,5.524H12.684C9.133,59.271,5.399,58.56,1.5,58.013
						z"/>
				</g>
			</g>
		</g>
	</g>
	<g>
		<g>
			<path fill="#AEB9BA" d="M28.808,42.158V23.697c0-4.149-3.364-7.515-7.518-7.515h-3.342c-4.151,0-7.518,3.365-7.518,7.515v18.461
				H28.808z"/>
			<path fill="#92A4A5" d="M28.808,42.158V23.697c0-4.149-3.364-7.515-7.518-7.515h-3.342c-4.151,0-7.518,3.365-7.518,7.515"/>
			<path fill="#C7D2D3" d="M14.765,33.986c0,0.249-0.202,0.454-0.453,0.454h-1.862c-0.25,0-0.451-0.205-0.451-0.454l0,0
				c0-0.249,0.201-0.452,0.451-0.452h1.862C14.562,33.534,14.765,33.737,14.765,33.986L14.765,33.986z"/>
			<path fill="#C7D2D3" d="M14.765,37.873c0,0.25-0.202,0.453-0.453,0.453h-1.862c-0.25,0-0.451-0.203-0.451-0.453l0,0
				c0-0.251,0.201-0.452,0.451-0.452h1.862C14.562,37.421,14.765,37.622,14.765,37.873L14.765,37.873z"/>
			<path fill="#C7D2D3" d="M16.363,35.583c0,0.251-0.203,0.454-0.454,0.454h-1.861c-0.251,0-0.456-0.203-0.456-0.454l0,0
				c0-0.249,0.205-0.45,0.456-0.45h1.861C16.16,35.133,16.363,35.334,16.363,35.583L16.363,35.583z"/>
			<path fill="#148DE0" d="M26.796,31.008c0,0.249-0.202,0.45-0.452,0.45h-1.865c-0.246,0-0.45-0.201-0.45-0.45l0,0
				c0-0.251,0.204-0.454,0.45-0.454h1.865C26.594,30.554,26.796,30.757,26.796,31.008L26.796,31.008z"/>
			<path fill="#148DE0" d="M27.674,33.161c0,0.251-0.202,0.454-0.451,0.454h-1.865c-0.248,0-0.452-0.203-0.452-0.454l0,0
				c0-0.249,0.204-0.45,0.452-0.45h1.865C27.472,32.711,27.674,32.912,27.674,33.161L27.674,33.161z"/>
			<circle fill="#465453" cx="19.62" cy="22.568" r="2.875"/>
			<path fill="#2B3534" d="M19.621,21.131c-1.339,0-2.454,0.918-2.772,2.155c0.318,1.238,1.434,2.157,2.772,2.157
				c1.338,0,2.45-0.919,2.771-2.157C22.071,22.049,20.959,21.131,19.621,21.131z"/>
			<g>
				<g>
					<g>
						<g>
							<path fill="#2B3534" d="M20.302,21.879c-0.197-0.197-0.198-0.519-0.001-0.718l6.07-6.068
								c0.198-0.195,0.519-0.195,0.716,0.001c0.199,0.199,0.199,0.521,0,0.72l-6.067,6.065
								C20.819,22.078,20.501,22.078,20.302,21.879z"/>
						</g>
						<path fill="#FFA522" d="M29.239,21.372c-0.593,0.594-1.556,0.594-2.151,0l-2.936-2.936c-0.593-0.594-0.081-1.044,0.513-1.64
							l7.623-7.623c0.596-0.594,1.56-0.592,2.153,0l2.422,2.422c0.594,0.594,0.594,1.56,0,2.153L29.239,21.372z"/>
						<path fill="#FF7C24" d="M28.254,20.385l7.621-7.624c0.595-0.593,0.595-1.556,0-2.149l-1.434-1.438
							c-0.594-0.592-1.558-0.594-2.153,0l-7.623,7.623c-0.594,0.596-1.105,1.046-0.513,1.64l1.951,1.948
							C26.695,20.978,27.658,20.978,28.254,20.385z"/>
						<path fill="#FFA522" d="M35.278,14.197c-0.133,0.132-0.349,0.132-0.479,0l-0.953-0.957c-0.135-0.131-0.135-0.344,0-0.478l0,0
							c0.131-0.133,0.345-0.133,0.477-0.002l0.956,0.957C35.409,13.852,35.409,14.063,35.278,14.197L35.278,14.197z"/>
						<path fill="#FFA522" d="M34.172,15.303c-0.131,0.134-0.346,0.134-0.479,0l-0.956-0.955c-0.13-0.133-0.13-0.346,0.001-0.479
							l0,0c0.133-0.132,0.347-0.134,0.478,0l0.956,0.956C34.303,14.957,34.305,15.172,34.172,15.303L34.172,15.303z"/>
						<path fill="#FFA522" d="M33.067,16.41c-0.133,0.132-0.349,0.132-0.479,0l-0.959-0.956c-0.13-0.134-0.129-0.349,0.001-0.479
							l0,0c0.132-0.132,0.348-0.132,0.479-0.002l0.957,0.958C33.198,16.062,33.198,16.277,33.067,16.41L33.067,16.41z"/>
					</g>
					<g>
						<g>
							<path fill="#2B3534" d="M18.938,23.257c0.198,0.197,0.198,0.52,0,0.719l-6.07,6.067c-0.197,0.197-0.518,0.197-0.717,0
								c-0.199-0.199-0.199-0.52,0-0.719l6.07-6.067C18.421,23.06,18.739,23.06,18.938,23.257z"/>
						</g>
						<path fill="#FFA522" d="M9.999,23.766c0.596-0.596,1.559-0.594,2.152,0l2.936,2.936c0.594,0.594,0.08,1.044-0.514,1.64
							l-7.622,7.621c-0.595,0.596-1.559,0.594-2.151,0L2.378,33.54c-0.596-0.594-0.596-1.556,0-2.153L9.999,23.766z"/>
						<path fill="#FF7C24" d="M10.986,24.753l-7.623,7.621c-0.596,0.596-0.596,1.559-0.002,2.153L4.8,35.962
							c0.593,0.594,1.557,0.596,2.151,0l7.622-7.621c0.594-0.596,1.107-1.046,0.514-1.64l-1.949-1.95
							C12.545,24.157,11.581,24.157,10.986,24.753z"/>
						<path fill="#FFA522" d="M3.961,30.94c0.132-0.134,0.348-0.132,0.479,0l0.957,0.954c0.131,0.134,0.131,0.347,0,0.479l0,0
							c-0.133,0.132-0.349,0.132-0.479,0l-0.957-0.956C3.831,31.286,3.829,31.071,3.961,30.94L3.961,30.94z"/>
						<path fill="#FFA522" d="M5.066,29.833c0.133-0.132,0.347-0.132,0.48,0l0.955,0.956c0.131,0.132,0.131,0.349-0.001,0.478l0,0
							C6.371,31.4,6.154,31.4,6.023,31.269l-0.956-0.957C4.936,30.179,4.935,29.966,5.066,29.833L5.066,29.833z"/>
						<path fill="#FFA522" d="M6.173,28.727c0.133-0.132,0.347-0.132,0.479,0l0.956,0.958c0.132,0.131,0.132,0.345-0.001,0.479l0,0
							c-0.132,0.13-0.346,0.13-0.478,0l-0.955-0.957C6.041,29.075,6.041,28.858,6.173,28.727L6.173,28.727z"/>
					</g>
				</g>
				<g>
					<g>
						<g>
							<path fill="#2B3534" d="M20.308,23.251c0.199-0.199,0.521-0.199,0.719,0l6.067,6.067c0.199,0.197,0.199,0.521,0,0.719
								c-0.199,0.197-0.521,0.195-0.717,0l-6.069-6.069C20.111,23.77,20.11,23.448,20.308,23.251z"/>
						</g>
						<path fill="#FFA522" d="M20.817,32.188c-0.595-0.593-0.594-1.558,0-2.151l2.934-2.936c0.596-0.596,1.045-0.081,1.638,0.514
							l7.626,7.622c0.593,0.595,0.593,1.56,0,2.153l-2.422,2.422c-0.595,0.593-1.56,0.593-2.154-0.002L20.817,32.188z"/>
						<path fill="#FF7C24" d="M21.805,31.201l7.622,7.623c0.595,0.596,1.556,0.596,2.151,0.002l1.437-1.436
							c0.593-0.594,0.593-1.559,0-2.153l-7.626-7.622c-0.593-0.595-1.042-1.109-1.638-0.514l-1.946,1.948
							C21.208,29.644,21.208,30.607,21.805,31.201z"/>
						<path fill="#FFA522" d="M27.989,38.228c-0.131-0.132-0.131-0.347,0-0.479l0.959-0.957c0.131-0.132,0.343-0.132,0.478,0.002
							l0,0c0.133,0.132,0.133,0.344,0,0.478l-0.956,0.955C28.339,38.358,28.122,38.358,27.989,38.228L27.989,38.228z"/>
						<path fill="#FFA522" d="M26.886,37.122c-0.133-0.132-0.133-0.349,0-0.479l0.955-0.957c0.133-0.132,0.345-0.13,0.479,0l0,0
							c0.131,0.133,0.131,0.348,0,0.479l-0.957,0.957C27.231,37.254,27.018,37.254,26.886,37.122L26.886,37.122z"/>
						<path fill="#FFA522" d="M25.78,36.016c-0.135-0.133-0.135-0.348,0-0.479l0.955-0.954c0.131-0.134,0.346-0.134,0.477,0l0,0
							c0.134,0.129,0.134,0.346,0,0.478l-0.954,0.956C26.123,36.147,25.912,36.147,25.78,36.016L25.78,36.016z"/>
					</g>
					<g>
						<g>
							<path fill="#2B3534" d="M18.931,21.885c-0.199,0.199-0.519,0.199-0.717,0l-6.069-6.065c-0.197-0.199-0.197-0.521,0-0.72
								c0.201-0.197,0.521-0.197,0.718,0l6.068,6.069C19.13,21.366,19.13,21.688,18.931,21.885z"/>
						</g>
						<path fill="#FFA522" d="M18.423,12.948c0.595,0.594,0.593,1.557,0,2.151l-2.936,2.937c-0.594,0.594-1.044,0.081-1.64-0.517
							L6.226,9.898c-0.593-0.594-0.593-1.558,0-2.151l2.422-2.422c0.594-0.594,1.558-0.594,2.152,0.002L18.423,12.948z"/>
						<path fill="#FF7C24" d="M17.436,13.935L9.814,6.312c-0.595-0.595-1.561-0.595-2.154,0L6.226,7.747
							c-0.593,0.594-0.593,1.558,0,2.151l7.622,7.621c0.596,0.598,1.046,1.11,1.64,0.517l1.949-1.95
							C18.03,15.492,18.03,14.529,17.436,13.935z"/>
						<path fill="#FFA522" d="M11.249,6.91c0.133,0.132,0.133,0.346,0,0.478l-0.956,0.957c-0.133,0.133-0.346,0.133-0.479,0l0,0
							c-0.134-0.132-0.132-0.347,0-0.478l0.957-0.957C10.902,6.778,11.116,6.776,11.249,6.91L11.249,6.91z"/>
						<path fill="#FFA522" d="M12.355,8.014c0.132,0.134,0.132,0.351,0,0.479L11.399,9.45c-0.133,0.133-0.349,0.133-0.48,0l0,0
							c-0.129-0.132-0.129-0.348,0-0.478l0.958-0.959C12.007,7.885,12.223,7.885,12.355,8.014L12.355,8.014z"/>
						<path fill="#FFA522" d="M13.46,9.121c0.132,0.132,0.131,0.347,0,0.478l-0.956,0.957c-0.131,0.132-0.346,0.132-0.478,0l0,0
							c-0.133-0.132-0.133-0.346,0-0.479l0.954-0.955C13.113,8.988,13.329,8.988,13.46,9.121L13.46,9.121z"/>
					</g>
				</g>
			</g>
			<circle fill="#FFA522" cx="19.621" cy="22.568" r="1.398"/>
			<path fill="#FF7C24" d="M20.606,21.579c0.547,0.547,0.547,1.433,0,1.978c-0.545,0.545-1.428,0.547-1.977,0"/>
		</g>
		<path fill="#7DA81D" d="M34.951,43.435c0,0.883,1.202,1.597,0.318,1.597H3.969c-0.881,0,0.32-0.714,0.32-1.597l0,0
			c0-0.882,0.714-1.597,1.598-1.597h27.467C34.234,41.838,34.951,42.553,34.951,43.435L34.951,43.435z"/>
		<path fill="#96C610" d="M33.354,41.838H5.887c-0.865,0-1.564,0.687-1.593,1.542h30.652C34.916,42.524,34.219,41.838,33.354,41.838
			z"/>
	</g>
</g>
</svg>
