<?xml version="1.0" encoding="utf-8"?>
<!-- Generator: Adobe Illustrator 16.0.0, SVG Export Plug-In . SVG Version: 6.00 Build 0)  -->
<!DOCTYPE svg PUBLIC "-//W3C//DTD SVG 1.1//EN" "http://www.w3.org/Graphics/SVG/1.1/DTD/svg11.dtd">
<svg version="1.1" id="Layer_1" xmlns="http://www.w3.org/2000/svg" xmlns:xlink="http://www.w3.org/1999/xlink" x="0px" y="0px"
	 width="65px" height="65px" viewBox="0 0 65 65" enable-background="new 0 0 65 65" xml:space="preserve">
<g>
	<g>
		<g>
			<path fill="#FF860D" d="M52.58,10.686c0,2.702-2.191,21.576-4.891,21.576c-2.703,0-4.894-18.874-4.894-21.576
				c0-2.702,2.19-3.889,4.894-3.889C50.389,6.797,52.58,7.984,52.58,10.686z"/>
			<path fill="#E56107" d="M50.447,10.686c0,2.702-1.234,21.576-2.758,21.576c-1.525,0-2.762-18.874-2.762-21.576
				c0-2.702,1.236-3.889,2.762-3.889C49.213,6.797,50.447,7.984,50.447,10.686z"/>
			<g>
				<g>
					<g>
						<path fill="#E56107" d="M45.826,10.54c0,0.149-0.12,0.272-0.271,0.272h-1.127c-0.149,0-0.273-0.123-0.273-0.272l0,0
							c0-0.149,0.124-0.271,0.273-0.271h1.127C45.706,10.269,45.826,10.391,45.826,10.54L45.826,10.54z"/>
						<path fill="#FF860D" d="M47.291,12.338c0,0.15-0.123,0.272-0.272,0.272H45.89c-0.15,0-0.271-0.122-0.271-0.272l0,0
							c0-0.15,0.121-0.272,0.271-0.272h1.129C47.168,12.066,47.291,12.188,47.291,12.338L47.291,12.338z"/>
					</g>
					<g>
						<path fill="#E56107" d="M45.826,14.492c0,0.15-0.12,0.272-0.271,0.272h-1.127c-0.149,0-0.273-0.122-0.273-0.272l0,0
							c0-0.149,0.124-0.271,0.273-0.271h1.127C45.706,14.22,45.826,14.342,45.826,14.492L45.826,14.492z"/>
						<path fill="#FF860D" d="M47.291,16.29c0,0.15-0.123,0.272-0.272,0.272H45.89c-0.15,0-0.271-0.122-0.271-0.272l0,0
							c0-0.149,0.121-0.271,0.271-0.271h1.129C47.168,16.019,47.291,16.141,47.291,16.29L47.291,16.29z"/>
					</g>
					<g>
						<path fill="#E56107" d="M45.826,18.445c0,0.148-0.12,0.271-0.271,0.271h-1.127c-0.149,0-0.273-0.123-0.273-0.271l0,0
							c0-0.151,0.124-0.273,0.273-0.273h1.127C45.706,18.172,45.826,18.294,45.826,18.445L45.826,18.445z"/>
						<path fill="#FF860D" d="M47.291,20.241c0,0.15-0.123,0.273-0.272,0.273H45.89c-0.15,0-0.271-0.123-0.271-0.273l0,0
							c0-0.149,0.121-0.271,0.271-0.271h1.129C47.168,19.97,47.291,20.092,47.291,20.241L47.291,20.241z"/>
					</g>
					<g>
						<path fill="#E56107" d="M46.381,22.697c0,0.132-0.107,0.24-0.242,0.24h-0.991c-0.132,0-0.24-0.107-0.24-0.24l0,0
							c0-0.131,0.108-0.239,0.24-0.239h0.991C46.273,22.458,46.381,22.566,46.381,22.697L46.381,22.697z"/>
						<path fill="#FF860D" d="M46.57,24.28c0,0.131-0.107,0.239-0.24,0.239h-0.994c-0.131,0-0.238-0.107-0.238-0.239l0,0
							c0-0.132,0.107-0.24,0.238-0.24h0.994C46.463,24.04,46.57,24.147,46.57,24.28L46.57,24.28z"/>
					</g>
					<g>
						<path fill="#E56107" d="M46.508,26.574c0,0.107-0.085,0.193-0.191,0.193h-0.798c-0.106,0-0.192-0.086-0.192-0.193l0,0
							c0-0.104,0.086-0.192,0.192-0.192h0.798C46.423,26.382,46.508,26.47,46.508,26.574L46.508,26.574z"/>
						<path fill="#FF860D" d="M47.542,27.845c0,0.105-0.086,0.193-0.192,0.193h-0.798c-0.105,0-0.191-0.087-0.191-0.193l0,0
							c0-0.105,0.086-0.191,0.191-0.191h0.798C47.456,27.654,47.542,27.74,47.542,27.845L47.542,27.845z"/>
					</g>
				</g>
				<g>
					<g>
						<path fill="#E56107" d="M49.548,10.54c0,0.149,0.122,0.272,0.273,0.272h1.128c0.149,0,0.272-0.123,0.272-0.272l0,0
							c0-0.149-0.123-0.271-0.272-0.271h-1.128C49.67,10.269,49.548,10.391,49.548,10.54L49.548,10.54z"/>
						<path fill="#FF860D" d="M48.086,12.338c0,0.15,0.122,0.272,0.272,0.272h1.128c0.15,0,0.271-0.122,0.271-0.272l0,0
							c0-0.15-0.121-0.272-0.271-0.272h-1.128C48.208,12.066,48.086,12.188,48.086,12.338L48.086,12.338z"/>
					</g>
					<g>
						<path fill="#E56107" d="M49.548,14.492c0,0.15,0.122,0.272,0.273,0.272h1.128c0.149,0,0.272-0.122,0.272-0.272l0,0
							c0-0.149-0.123-0.271-0.272-0.271h-1.128C49.67,14.22,49.548,14.342,49.548,14.492L49.548,14.492z"/>
						<path fill="#FF860D" d="M48.086,16.29c0,0.15,0.122,0.272,0.272,0.272h1.128c0.15,0,0.271-0.122,0.271-0.272l0,0
							c0-0.149-0.121-0.271-0.271-0.271h-1.128C48.208,16.019,48.086,16.141,48.086,16.29L48.086,16.29z"/>
					</g>
					<g>
						<path fill="#E56107" d="M49.548,18.445c0,0.148,0.122,0.271,0.273,0.271h1.128c0.149,0,0.272-0.123,0.272-0.271l0,0
							c0-0.151-0.123-0.273-0.272-0.273h-1.128C49.67,18.172,49.548,18.294,49.548,18.445L49.548,18.445z"/>
						<path fill="#FF860D" d="M48.086,20.241c0,0.15,0.122,0.273,0.272,0.273h1.128c0.15,0,0.271-0.123,0.271-0.273l0,0
							c0-0.149-0.121-0.271-0.271-0.271h-1.128C48.208,19.97,48.086,20.092,48.086,20.241L48.086,20.241z"/>
					</g>
					<g>
						<path fill="#E56107" d="M48.996,22.697c0,0.132,0.107,0.24,0.239,0.24h0.994c0.13,0,0.239-0.107,0.239-0.24l0,0
							c0-0.131-0.109-0.239-0.239-0.239h-0.994C49.104,22.458,48.996,22.566,48.996,22.697L48.996,22.697z"/>
						<path fill="#FF860D" d="M48.713,24.28c0,0.131,0.104,0.239,0.239,0.239h0.992c0.132,0,0.239-0.107,0.239-0.239l0,0
							c0-0.132-0.107-0.24-0.239-0.24h-0.992C48.817,24.04,48.713,24.147,48.713,24.28L48.713,24.28z"/>
					</g>
					<g>
						<path fill="#E56107" d="M48.868,26.574c0,0.107,0.086,0.193,0.192,0.193h0.797c0.105,0,0.191-0.086,0.191-0.193l0,0
							c0-0.104-0.086-0.192-0.191-0.192h-0.797C48.954,26.382,48.868,26.47,48.868,26.574L48.868,26.574z"/>
						<path fill="#FF860D" d="M47.834,27.845c0,0.105,0.085,0.193,0.192,0.193h0.798c0.105,0,0.191-0.087,0.191-0.193l0,0
							c0-0.105-0.086-0.191-0.191-0.191h-0.798C47.919,27.654,47.834,27.74,47.834,27.845L47.834,27.845z"/>
					</g>
				</g>
			</g>
			<path fill="#FFAF10" d="M51.876,8.44c-0.856-1.125-2.407-1.643-4.187-1.643c-1.781,0-3.334,0.518-4.189,1.643
				c0.247,0.969,2.025,0.671,4.189,0.671C49.85,9.111,51.629,9.41,51.876,8.44z"/>
			<path fill="#FF860D" d="M47.689,9.111c0.978,0,1.877,0.06,2.592,0.037c-0.384-1.617-1.399-2.351-2.592-2.351
				c-1.196,0-2.211,0.734-2.595,2.351C45.812,9.171,46.71,9.111,47.689,9.111z"/>
		</g>
		<g>
			<g>
				<path fill="#68AD27" d="M45.378,3.14c0.242,0.338,2.71,4.385,2.373,4.626c-0.34,0.241-3.356-3.416-3.599-3.752
					c-0.241-0.339-0.162-0.809,0.177-1.05C44.668,2.723,45.137,2.802,45.378,3.14z"/>
				<path fill="#5C8729" d="M44.858,4.884c0.25,0.194,2.935,2.605,2.741,2.855c-0.194,0.249-3.196-1.756-3.445-1.95
					c-0.249-0.195-0.295-0.554-0.1-0.804C44.248,4.735,44.608,4.69,44.858,4.884z"/>
				<path fill="#7FCC2E" d="M46.771,2.699c0.133,0.394,1.329,4.981,0.934,5.115c-0.395,0.132-2.227-4.238-2.359-4.633
					c-0.133-0.393,0.077-0.82,0.473-0.954C46.21,2.095,46.638,2.306,46.771,2.699z"/>
			</g>
			<g>
				<path fill="#68AD27" d="M49.997,3.14c-0.241,0.338-2.709,4.385-2.371,4.626c0.339,0.241,3.356-3.416,3.598-3.752
					c0.241-0.339,0.163-0.809-0.176-1.05C50.708,2.723,50.237,2.802,49.997,3.14z"/>
				<path fill="#5C8729" d="M50.518,4.884c-0.251,0.194-2.934,2.605-2.74,2.855c0.193,0.249,3.194-1.756,3.444-1.95
					c0.247-0.195,0.295-0.554,0.1-0.804C51.128,4.735,50.768,4.69,50.518,4.884z"/>
				<path fill="#7FCC2E" d="M48.605,2.699c-0.133,0.394-1.327,4.981-0.934,5.115c0.395,0.132,2.226-4.238,2.358-4.633
					c0.134-0.393-0.078-0.82-0.471-0.954C49.166,2.095,48.737,2.306,48.605,2.699z"/>
			</g>
		</g>
		<path fill="#5C8729" d="M48.504,1.925c0,0.451-0.364,5.917-0.814,5.917c-0.451,0-0.816-5.466-0.816-5.917
			c0-0.45,0.365-0.815,0.816-0.815C48.14,1.11,48.504,1.476,48.504,1.925z"/>
		<circle fill="#7FCC2E" cx="43.371" cy="4.069" r="0.199"/>
		<circle fill="#7FCC2E" cx="51.493" cy="6.797" r="0.199"/>
		<circle fill="#7FCC2E" cx="43.381" cy="4.77" r="0.104"/>
		<circle fill="#7FCC2E" cx="51.452" cy="4.414" r="0.105"/>
		<circle fill="#7FCC2E" cx="44.719" cy="1.779" r="0.376"/>
		<circle fill="#5C8729" cx="44.4" cy="6.777" r="0.193"/>
		<circle fill="#5C8729" cx="50.615" cy="2.145" r="0.302"/>
	</g>
	<g>
		<path fill="#7FAD8F" d="M53.054,19.513c-1.867,0-3.516,0.943-4.496,2.375c-0.979-1.433-2.628-2.375-4.495-2.375
			c-3.007,0-5.552,2.44-5.443,5.445c0.2,5.576,7.225,5.745,9.61,11.826c0.12,0.309,0.23,0.433,0.328,0.423
			c0.1,0.01,0.209-0.114,0.329-0.423c2.385-6.081,9.409-6.25,9.61-11.826C58.606,21.953,56.06,19.513,53.054,19.513z"/>
		<path fill="#91BCA2" d="M48.558,27.328c3.612,0,6.9,0.12,9.354-0.048c0.34-0.665,0.552-1.422,0.585-2.322
			c0.052-1.401-0.48-2.676-1.362-3.641c-0.521-0.148-1.073-0.285-1.653-0.404c-0.249-0.025-0.501-0.039-0.756-0.039
			c-2.562,0-4.823,1.292-6.168,3.26c-1.346-1.968-3.605-3.26-6.169-3.26c-0.256,0-0.506,0.014-0.756,0.039
			c-0.579,0.12-1.132,0.256-1.651,0.404c-0.882,0.964-1.414,2.238-1.362,3.641c0.031,0.9,0.244,1.657,0.584,2.322
			C41.656,27.448,44.943,27.328,48.558,27.328z"/>
		<path fill="#A7C6B6" d="M48.558,24.216c4.718,0,8.673,0.278,9.74-0.859c-0.446-1.525-1.597-2.765-3.064-3.393
			c-0.501-0.16-1.045-0.302-1.629-0.423c-0.181-0.019-0.366-0.028-0.551-0.028c-1.867,0-3.516,0.943-4.496,2.375
			c-0.979-1.433-2.628-2.375-4.495-2.375c-0.186,0-0.37,0.01-0.551,0.028c-0.582,0.122-1.13,0.263-1.629,0.423
			c-1.467,0.627-2.616,1.868-3.064,3.393C39.885,24.494,43.842,24.216,48.558,24.216z"/>
		<g>
			<path fill="#BFD8CC" d="M47.008,21.806c0,0.86-1.22,0.034-2.722,0.034c-1.505,0-2.723,0.826-2.723-0.034
				c0-0.859,1.218-1.556,2.723-1.556C45.788,20.25,47.008,20.947,47.008,21.806z"/>
			<circle fill="#BFD8CC" cx="40.639" cy="22.357" r="0.438"/>
			<circle fill="#BFD8CC" cx="39.984" cy="23.159" r="0.146"/>
		</g>
		<g>
			<path fill="#BFD8CC" d="M55.821,21.806c0,0.86-1.218,0.034-2.721,0.034c-1.505,0-2.723,0.826-2.723-0.034
				c0-0.859,1.218-1.556,2.723-1.556C54.604,20.25,55.821,20.947,55.821,21.806z"/>
			<circle fill="#BFD8CC" cx="49.454" cy="22.357" r="0.437"/>
			<circle fill="#BFD8CC" cx="48.798" cy="23.159" r="0.146"/>
		</g>
		<g>
			<g>
				<g>
					<path fill="#2F7745" d="M48.553,21.889c0,0,0.55-6.295-2.904-7.788c-2.296-0.995-2.094,1.92-0.812,2.385
						c0,0-2.203-1.59-2.785-0.156c-0.47,1.149,1.215,1.902,2.494,1.902c0,0-2.277-0.372-2.271,0.581
						c0.006,0.707,0.582,0.931,2.677,0.697C47.046,19.278,48.553,21.889,48.553,21.889z"/>
					<path fill="#3D9955" d="M45.648,14.101c-0.783-0.338-1.275-0.223-1.532,0.095c0.048,0.749,1.822,1.525,2.867,3.348
						c0.641,1.12,0.621,2.74,0.982,3.532c0.377,0.446,0.587,0.812,0.587,0.812S49.103,15.593,45.648,14.101z"/>
				</g>
				<g>
					<path fill="#2F7745" d="M48.563,21.889c0,0-0.55-6.295,2.901-7.788c2.298-0.995,2.096,1.92,0.814,2.385
						c0,0,2.204-1.59,2.785-0.156c0.47,1.149-1.215,1.902-2.492,1.902c0,0,2.274-0.372,2.267,0.581
						c-0.004,0.707-0.58,0.931-2.675,0.697C50.069,19.278,48.563,21.889,48.563,21.889z"/>
					<path fill="#3D9955" d="M51.465,14.101c0.784-0.338,1.278-0.223,1.535,0.095c-0.048,0.749-1.823,1.525-2.868,3.348
						c-0.642,1.12-0.622,2.74-0.984,3.532c-0.373,0.446-0.584,0.812-0.584,0.812S48.014,15.593,51.465,14.101z"/>
				</g>
			</g>
			<g>
				<circle fill="#2F7745" cx="48.558" cy="14.183" r="0.794"/>
				<path fill="#3D9955" d="M49.352,14.183c0,0.438-0.355,0.105-0.794,0.105c-0.439,0-0.794,0.333-0.794-0.105
					c0-0.438,0.354-0.794,0.794-0.794C48.996,13.389,49.352,13.745,49.352,14.183z"/>
			</g>
			<g>
				<circle fill="#2F7745" cx="48.557" cy="15.826" r="0.425"/>
				<path fill="#3D9955" d="M48.982,15.826c0,0.234-0.188,0.055-0.425,0.055c-0.235,0-0.426,0.179-0.426-0.055
					c0-0.236,0.19-0.426,0.426-0.426C48.795,15.4,48.982,15.59,48.982,15.826z"/>
			</g>
		</g>
	</g>
	<g>
		<path fill="#43A52F" d="M38.575,20.112H38.47l-1.398,0.376l-1.4-0.376h-0.104c0,0-0.544,0.412-0.413,0.827l0.465-0.129
			l0.361,0.621l0.207-0.362l0.337,0.232l0.156-0.284l0.354,0.354l0.013,0.059l0.023-0.023l0.022,0.023l0.013-0.059l0.354-0.354
			l0.156,0.284l0.336-0.232l0.206,0.362l0.363-0.621l0.465,0.129C39.118,20.524,38.575,20.112,38.575,20.112z"/>
		<path fill="#43A52F" d="M37.041,8.833c0,0,0.518-2.612-0.388-5.613c0,0,0.128,2.172-0.08,3c-0.205,0.827,0.105,0.982,0.182,1.421
			C36.833,8.082,37.041,8.833,37.041,8.833z"/>
		<path fill="#43A52F" d="M37.257,9.104c0,0-0.982-0.648-1.01-3.001c-0.024-2.354-0.594-4.475-0.594-4.475s0.75,1.552,0.904,2.639
			c0.157,1.085,0.208,2.974,0.208,2.974l0.362,0.725L37.257,9.104z"/>
		<path fill="#43A52F" d="M37.129,9.362c0,0-0.696-1.823,0.234-3.997c0.931-2.172,2.252-2.367,2.252-2.367s-1.942,0.893-2.019,3.803
			c0,0-0.156,0.699-0.233,1.281S37.129,9.362,37.129,9.362z"/>
		<g>
			<g>
				<path fill="#D84A81" d="M34.035,20.487c1.26,0,2.373-0.637,3.036-1.604c0.663,0.967,1.772,1.604,3.036,1.604
					c2.029,0,3.75-1.648,3.676-3.678c-0.136-3.767-4.878-3.881-6.49-7.987c-0.082-0.209-0.155-0.293-0.222-0.286
					c-0.067-0.007-0.142,0.077-0.223,0.286c-1.611,4.105-6.354,4.22-6.491,7.987C30.285,18.839,32.005,20.487,34.035,20.487z"/>
				<path fill="#C63C74" d="M37.071,15.208c-2.44,0-4.66-0.079-6.319,0.032c-0.228,0.45-0.373,0.962-0.395,1.57
					c-0.033,0.946,0.325,1.806,0.92,2.458c0.353,0.1,0.726,0.193,1.116,0.274c0.17,0.017,0.338,0.025,0.511,0.025
					c1.732,0,3.259-0.873,4.167-2.201c0.908,1.328,2.435,2.201,4.166,2.201c0.171,0,0.34-0.01,0.511-0.025
					c0.391-0.082,0.764-0.174,1.115-0.273c0.596-0.651,0.954-1.513,0.92-2.459c-0.021-0.608-0.165-1.12-0.396-1.57
					C41.73,15.129,39.512,15.208,37.071,15.208z"/>
				<path fill="#A82D65" d="M37.071,17.309c-3.186,0-5.857-0.187-6.579,0.582c0.303,1.03,1.076,1.867,2.07,2.291
					c0.338,0.108,0.707,0.203,1.101,0.286c0.124,0.013,0.247,0.02,0.372,0.02c1.26,0,2.373-0.637,3.036-1.604
					c0.663,0.967,1.772,1.604,3.036,1.604c0.124,0,0.249-0.007,0.372-0.02c0.393-0.082,0.762-0.177,1.098-0.286
					c0.993-0.424,1.769-1.261,2.07-2.291C42.929,17.122,40.256,17.309,37.071,17.309z"/>
			</g>
			<ellipse fill="#A82D65" cx="37.07" cy="19.373" rx="2.93" ry="1.476"/>
		</g>
	</g>
	<g>
		<g>
			<ellipse fill="#76A32F" cx="24.093" cy="18.938" rx="8.298" ry="4.347"/>
			<path fill="#E56107" d="M34.001,32.83c0,2.517-4.435,5.568-9.906,5.568c-5.474,0-9.908-3.051-9.908-5.568
				c0-2.519,4.435-4.559,9.908-4.559C29.566,28.271,34.001,30.311,34.001,32.83z"/>
			<g>
				<g>
					<path fill="#FF8C1A" d="M17.715,26.521c0,5.504,3.83,9.967-1.121,9.967c-4.949,0-8.962-4.462-8.962-9.967
						c0-5.507,4.013-9.971,8.962-9.971C21.545,16.551,17.715,21.015,17.715,26.521z"/>
					<path fill="#FF7415" d="M17.715,26.521c0,5.504,3.83,9.967-1.121,9.967c-4.949,0-8.962-4.462-8.962-9.967"/>
					<path fill="#E56107" d="M11.203,26.521c0,4.745,2.985,8.706,6.978,9.714c2.366-1.016-0.466-4.978-0.466-9.714
						c0-4.74,2.832-8.703,0.466-9.716C14.188,17.812,11.203,21.774,11.203,26.521z"/>
				</g>
				<g>
					<path fill="#FF8C1A" d="M30.473,26.521c0-5.506-3.831-9.971,1.119-9.971s8.963,4.465,8.963,9.971
						c0,5.504-4.013,9.967-8.963,9.967S30.473,32.026,30.473,26.521z"/>
					<path fill="#FF7415" d="M40.555,26.521c0,5.504-4.013,9.967-8.963,9.967s-1.119-4.462-1.119-9.967"/>
					<path fill="#E56107" d="M36.983,26.521c0-4.747-2.984-8.709-6.978-9.716c-2.365,1.013,0.467,4.976,0.467,9.716
						c0,4.738-2.832,8.7-0.467,9.714C33.999,35.228,36.983,31.267,36.983,26.521z"/>
				</g>
			</g>
			<ellipse fill="#FF8C1A" cx="24.095" cy="26.693" rx="9.191" ry="10.54"/>
			<path fill="#FF7415" d="M14.903,26.693c0,5.819,4.113,10.54,9.191,10.54c5.076,0,9.191-4.721,9.191-10.54"/>
		</g>
		<path fill="none" stroke="#F68C23" stroke-width="2" stroke-miterlimit="10" d="M22.469,9.293"/>
		<path fill="none" stroke="#F68C23" stroke-width="2" stroke-miterlimit="10" d="M24.466,6.794"/>
		<g>
			<path fill="#76A32F" d="M22.489,15.703c-0.148,0-0.297-0.055-0.412-0.169c-2.08-2.081-2.08-5.468,0-7.549
				c1.712-1.709,4.494-1.711,6.206,0c1.412,1.413,1.412,3.714-0.002,5.127c-1.176,1.177-3.091,1.177-4.266,0
				c-0.984-0.986-0.983-2.59,0.001-3.577c0.229-0.226,0.596-0.226,0.822,0c0.227,0.228,0.227,0.596,0,0.821
				c-0.533,0.534-0.534,1.401-0.002,1.935c0.724,0.725,1.9,0.723,2.624,0c0.961-0.96,0.961-2.524,0-3.484
				c-1.259-1.255-3.305-1.255-4.561,0c-1.63,1.629-1.63,4.279,0,5.906c0.226,0.228,0.226,0.595,0,0.821
				C22.786,15.648,22.638,15.703,22.489,15.703z"/>
		</g>
	</g>
	<g>
		<path fill="#F41650" d="M44.154,25.226c-2.057,2.056-6.556,3.224-8.612,1.166c-2.055-2.055-0.888-6.554,1.169-8.612
			c2.055-2.055,4.443-1.109,6.499,0.947C45.265,20.782,46.21,23.17,44.154,25.226z"/>
		<path fill="#E0103D" d="M44.154,25.226c-2.057,2.056-6.556,3.224-8.612,1.166c-2.055-2.055-0.888-6.554,1.169-8.612
			c2.055-2.055,4.012-0.679,6.067,1.375C44.834,21.212,46.21,23.17,44.154,25.226z"/>
		<path fill="#C10C3C" d="M44.154,25.226c-2.057,2.056-6.556,3.224-8.612,1.166c-2.055-2.055-0.888-6.554,1.169-8.612
			c2.055-2.055,1.939,1.394,3.994,3.449C42.762,23.284,46.21,23.17,44.154,25.226z"/>
		<path fill="#C10C3C" d="M35.542,26.391c2.057,2.058,6.556,0.89,8.612-1.166c2.056-2.056,1.11-4.444-0.944-6.5"/>
		<path fill="#AA0539" d="M40.705,21.228l-5.163,5.163c2.057,2.058,6.556,0.89,8.612-1.166C46.21,23.17,42.762,23.284,40.705,21.228
			z"/>
		<g>
			<g>
				<circle fill="#A0104B" cx="39.742" cy="17.531" r="0.233"/>
				<path fill="#8E0939" d="M39.906,17.696c-0.089,0.093-0.238,0.093-0.329,0.001c-0.092-0.092-0.092-0.239,0.001-0.332
					c0.09-0.091,0.164-0.016,0.256,0.073C39.926,17.532,39.999,17.605,39.906,17.696z"/>
			</g>
			<g>
				<circle fill="#A0104B" cx="40.674" cy="18.463" r="0.235"/>
				<path fill="#8E0939" d="M40.84,18.628c-0.092,0.093-0.24,0.093-0.33,0.001c-0.094-0.091-0.094-0.24-0.002-0.333
					c0.092-0.09,0.167-0.017,0.259,0.076C40.856,18.463,40.931,18.538,40.84,18.628z"/>
			</g>
			<g>
				<circle fill="#A0104B" cx="41.607" cy="19.395" r="0.234"/>
				<path fill="#8E0939" d="M41.772,19.561c-0.092,0.091-0.239,0.092-0.331,0.001c-0.091-0.092-0.092-0.242,0-0.333
					c0.092-0.092,0.166-0.017,0.258,0.076C41.79,19.395,41.864,19.47,41.772,19.561z"/>
			</g>
			<g>
				<circle fill="#A0104B" cx="42.539" cy="20.329" r="0.234"/>
				<path fill="#8E0939" d="M42.704,20.494c-0.091,0.092-0.238,0.092-0.331,0s-0.091-0.239,0.001-0.331
					c0.092-0.092,0.165-0.019,0.256,0.073C42.724,20.33,42.796,20.403,42.704,20.494z"/>
			</g>
			<g>
				<circle fill="#A0104B" cx="43.473" cy="21.26" r="0.235"/>
				<path fill="#8E0939" d="M43.64,21.426c-0.095,0.092-0.24,0.092-0.334,0c-0.091-0.091-0.091-0.239,0-0.332
					c0.094-0.091,0.165-0.017,0.258,0.075C43.654,21.261,43.73,21.335,43.64,21.426z"/>
			</g>
			<g>
				<circle fill="#A0104B" cx="44.405" cy="22.193" r="0.234"/>
				<path fill="#8E0939" d="M44.57,22.358c-0.092,0.091-0.239,0.091-0.331,0c-0.092-0.092-0.092-0.24,0-0.331
					c0.092-0.092,0.164-0.019,0.257,0.073C44.588,22.192,44.66,22.266,44.57,22.358z"/>
			</g>
		</g>
		<g>
			<g>
				<circle fill="#A0104B" cx="38.805" cy="18.469" r="0.235"/>
				<path fill="#8E0939" d="M38.971,18.635c-0.094,0.093-0.241,0.093-0.334,0c-0.091-0.09-0.091-0.238,0.002-0.332
					c0.091-0.091,0.165-0.016,0.256,0.075C38.987,18.47,39.061,18.545,38.971,18.635z"/>
			</g>
			<g>
				<circle fill="#A0104B" cx="39.736" cy="19.402" r="0.234"/>
				<path fill="#8E0939" d="M39.901,19.567c-0.092,0.093-0.239,0.093-0.33,0.002c-0.092-0.092-0.092-0.241,0-0.333
					c0.091-0.091,0.165-0.017,0.258,0.074C39.919,19.403,39.993,19.477,39.901,19.567z"/>
			</g>
			<g>
				<circle fill="#A0104B" cx="40.668" cy="20.334" r="0.235"/>
				<path fill="#8E0939" d="M40.834,20.5c-0.092,0.092-0.241,0.092-0.332,0.001c-0.091-0.092-0.092-0.241,0-0.333
					c0.091-0.09,0.166-0.015,0.257,0.075C40.851,20.335,40.924,20.409,40.834,20.5z"/>
			</g>
			<g>
				<circle fill="#A0104B" cx="41.601" cy="21.267" r="0.234"/>
				<path fill="#8E0939" d="M41.767,21.433c-0.094,0.092-0.241,0.092-0.331,0c-0.092-0.092-0.092-0.239,0-0.332
					c0.09-0.092,0.165-0.018,0.257,0.075C41.783,21.267,41.858,21.341,41.767,21.433z"/>
			</g>
			<g>
				<circle fill="#A0104B" cx="42.534" cy="22.199" r="0.234"/>
				<path fill="#8E0939" d="M42.699,22.365c-0.093,0.092-0.24,0.091-0.331,0c-0.093-0.091-0.093-0.239,0-0.331
					c0.091-0.092,0.165-0.017,0.256,0.073C42.717,22.198,42.79,22.274,42.699,22.365z"/>
			</g>
			<g>
				<circle fill="#A0104B" cx="43.465" cy="23.132" r="0.235"/>
				<path fill="#8E0939" d="M43.632,23.297c-0.093,0.092-0.241,0.092-0.333,0c-0.091-0.091-0.091-0.24,0-0.332
					c0.092-0.091,0.166-0.018,0.258,0.075C43.647,23.131,43.723,23.206,43.632,23.297z"/>
			</g>
		</g>
		<g>
			<g>
				<circle fill="#A0104B" cx="37.474" cy="18.867" r="0.234"/>
				<path fill="#8E0939" d="M37.639,19.033c-0.091,0.092-0.239,0.092-0.33,0.001c-0.092-0.091-0.092-0.241,0-0.333
					c0.091-0.09,0.165-0.017,0.257,0.075C37.656,18.868,37.73,18.942,37.639,19.033z"/>
			</g>
			<g>
				<circle fill="#A0104B" cx="38.406" cy="19.799" r="0.234"/>
				<path fill="#8E0939" d="M38.571,19.964c-0.092,0.092-0.239,0.092-0.331,0.001c-0.091-0.092-0.093-0.241,0-0.332
					c0.092-0.092,0.167-0.017,0.258,0.075C38.59,19.799,38.663,19.874,38.571,19.964z"/>
			</g>
			<g>
				<circle fill="#A0104B" cx="39.338" cy="20.731" r="0.234"/>
				<path fill="#8E0939" d="M39.504,20.896c-0.091,0.092-0.239,0.093-0.331,0.001c-0.092-0.091-0.092-0.24,0-0.333
					c0.092-0.091,0.165-0.017,0.257,0.076C39.521,20.731,39.597,20.806,39.504,20.896z"/>
			</g>
			<g>
				<circle fill="#A0104B" cx="40.271" cy="21.664" r="0.234"/>
				<path fill="#8E0939" d="M40.437,21.83c-0.093,0.092-0.241,0.092-0.332,0c-0.093-0.092-0.093-0.24,0.001-0.331
					c0.091-0.092,0.163-0.02,0.255,0.074C40.454,21.665,40.527,21.738,40.437,21.83z"/>
			</g>
			<g>
				<circle fill="#A0104B" cx="41.203" cy="22.596" r="0.234"/>
				<path fill="#8E0939" d="M41.369,22.762c-0.092,0.092-0.24,0.092-0.332,0c-0.092-0.091-0.09-0.239,0-0.331
					c0.092-0.092,0.167-0.018,0.258,0.074C41.386,22.596,41.46,22.67,41.369,22.762z"/>
			</g>
			<g>
				<circle fill="#A0104B" cx="42.135" cy="23.529" r="0.234"/>
				<path fill="#8E0939" d="M42.301,23.694c-0.091,0.093-0.239,0.093-0.331,0.002c-0.091-0.093-0.091-0.242,0-0.333
					c0.093-0.092,0.166-0.017,0.258,0.076C42.318,23.529,42.393,23.603,42.301,23.694z"/>
			</g>
			<g>
				<circle fill="#A0104B" cx="43.069" cy="24.462" r="0.234"/>
				<path fill="#8E0939" d="M43.234,24.627c-0.093,0.091-0.24,0.091-0.333,0c-0.091-0.092-0.091-0.239,0.002-0.332
					c0.091-0.091,0.166-0.017,0.255,0.074C43.251,24.461,43.325,24.535,43.234,24.627z"/>
			</g>
		</g>
		<g>
			<g>
				<circle fill="#A0104B" cx="36.962" cy="20.312" r="0.235"/>
				<path fill="#8E0939" d="M37.128,20.478c-0.091,0.091-0.238,0.09-0.332-0.002c-0.091-0.092-0.091-0.24,0-0.331
					c0.093-0.092,0.167-0.017,0.258,0.074C37.146,20.311,37.22,20.384,37.128,20.478z"/>
			</g>
			<g>
				<path fill="#A0104B" d="M38.06,21.409c-0.092,0.091-0.238,0.091-0.329,0c-0.094-0.092-0.094-0.239,0-0.332
					c0.091-0.091,0.238-0.091,0.33,0C38.152,21.17,38.152,21.317,38.06,21.409z"/>
				<path fill="#8E0939" d="M38.06,21.409c-0.092,0.091-0.238,0.091-0.329,0c-0.094-0.092-0.094-0.239,0-0.332
					c0.091-0.091,0.165-0.017,0.256,0.075C38.077,21.245,38.152,21.317,38.06,21.409z"/>
			</g>
			<g>
				<path fill="#A0104B" d="M38.991,22.341c-0.09,0.092-0.237,0.091-0.329,0c-0.093-0.091-0.093-0.238,0-0.332
					c0.092-0.092,0.239-0.091,0.329,0C39.085,22.101,39.085,22.249,38.991,22.341z"/>
				<path fill="#8E0939" d="M38.991,22.341c-0.09,0.092-0.237,0.091-0.329,0c-0.093-0.091-0.093-0.238,0-0.332
					c0.092-0.092,0.164-0.016,0.258,0.074C39.011,22.175,39.085,22.249,38.991,22.341z"/>
			</g>
			<g>
				<circle fill="#A0104B" cx="39.76" cy="23.108" r="0.234"/>
				<path fill="#8E0939" d="M39.926,23.273c-0.092,0.092-0.24,0.092-0.332,0c-0.091-0.091-0.091-0.239,0-0.331
					c0.092-0.091,0.166-0.018,0.257,0.075C39.94,23.108,40.016,23.182,39.926,23.273z"/>
			</g>
			<g>
				<path fill="#A0104B" d="M40.856,24.206c-0.092,0.092-0.239,0.092-0.329,0c-0.092-0.091-0.094-0.24-0.002-0.331
					c0.094-0.091,0.241-0.091,0.331,0C40.948,23.965,40.95,24.115,40.856,24.206z"/>
				<path fill="#8E0939" d="M40.856,24.206c-0.092,0.092-0.239,0.092-0.329,0c-0.092-0.091-0.094-0.24-0.002-0.331
					c0.094-0.091,0.167-0.017,0.258,0.074C40.874,24.04,40.95,24.115,40.856,24.206z"/>
			</g>
			<g>
				<circle fill="#A0104B" cx="41.624" cy="24.973" r="0.234"/>
				<path fill="#8E0939" d="M41.789,25.138c-0.091,0.092-0.238,0.091-0.331,0c-0.091-0.092-0.091-0.238,0-0.331
					c0.093-0.092,0.166-0.018,0.258,0.074C41.808,24.973,41.882,25.046,41.789,25.138z"/>
			</g>
		</g>
		<g>
			<g>
				<circle fill="#A0104B" cx="36.099" cy="21.176" r="0.235"/>
				<path fill="#8E0939" d="M36.265,21.341c-0.091,0.09-0.239,0.09-0.332-0.001c-0.091-0.092-0.091-0.24,0-0.331
					c0.093-0.092,0.166-0.018,0.258,0.073C36.281,21.175,36.356,21.248,36.265,21.341z"/>
			</g>
			<g>
				<circle fill="#A0104B" cx="37.031" cy="22.106" r="0.234"/>
				<path fill="#8E0939" d="M37.195,22.272c-0.091,0.092-0.238,0.093-0.329,0c-0.093-0.091-0.093-0.24,0-0.332
					c0.091-0.091,0.165-0.017,0.256,0.075C37.215,22.107,37.288,22.181,37.195,22.272z"/>
			</g>
			<g>
				<circle fill="#A0104B" cx="37.963" cy="23.039" r="0.234"/>
				<path fill="#8E0939" d="M38.129,23.204c-0.092,0.091-0.239,0.091-0.331,0c-0.092-0.091-0.092-0.24,0-0.331
					c0.092-0.092,0.166-0.016,0.258,0.074C38.146,23.04,38.221,23.112,38.129,23.204z"/>
			</g>
			<g>
				<circle fill="#A0104B" cx="38.896" cy="23.972" r="0.234"/>
				<path fill="#8E0939" d="M39.062,24.137c-0.092,0.092-0.241,0.092-0.332,0c-0.092-0.091-0.092-0.239,0-0.331
					c0.091-0.091,0.165-0.017,0.257,0.075C39.079,23.971,39.154,24.046,39.062,24.137z"/>
			</g>
			<g>
				<circle fill="#A0104B" cx="39.828" cy="24.905" r="0.234"/>
				<path fill="#8E0939" d="M39.993,25.07c-0.091,0.091-0.239,0.091-0.331,0c-0.09-0.092-0.09-0.242,0-0.332
					c0.094-0.092,0.167-0.018,0.257,0.075C40.01,24.903,40.087,24.978,39.993,25.07z"/>
			</g>
			<g>
				<path fill="#A0104B" d="M40.924,26.002c-0.089,0.09-0.236,0.09-0.329,0c-0.091-0.092-0.091-0.24,0.001-0.331
					c0.092-0.092,0.239-0.092,0.328,0C41.018,25.762,41.018,25.91,40.924,26.002z"/>
				<path fill="#8E0939" d="M40.924,26.002c-0.089,0.09-0.236,0.09-0.329,0c-0.091-0.092-0.091-0.24,0.001-0.331
					c0.092-0.092,0.165-0.018,0.256,0.073C40.945,25.836,41.018,25.91,40.924,26.002z"/>
			</g>
		</g>
		<g>
			<g>
				<circle fill="#A0104B" cx="35.626" cy="22.579" r="0.234"/>
				<path fill="#8E0939" d="M35.792,22.745c-0.091,0.092-0.239,0.092-0.331,0c-0.093-0.091-0.093-0.239,0-0.332
					c0.091-0.091,0.165-0.016,0.257,0.075C35.81,22.581,35.883,22.654,35.792,22.745z"/>
			</g>
			<g>
				<circle fill="#A0104B" cx="36.559" cy="23.512" r="0.234"/>
				<path fill="#8E0939" d="M36.725,23.677c-0.092,0.093-0.24,0.093-0.332,0.001c-0.091-0.091-0.091-0.239,0-0.331
					c0.092-0.091,0.167-0.019,0.258,0.074C36.741,23.512,36.816,23.586,36.725,23.677z"/>
			</g>
			<g>
				<circle fill="#A0104B" cx="37.491" cy="24.445" r="0.234"/>
				<path fill="#8E0939" d="M37.656,24.61c-0.091,0.091-0.238,0.091-0.33,0c-0.091-0.092-0.091-0.241,0-0.332
					c0.092-0.092,0.165-0.017,0.258,0.074C37.675,24.444,37.749,24.519,37.656,24.61z"/>
			</g>
			<g>
				<path fill="#A0104B" d="M38.59,25.542c-0.092,0.094-0.24,0.092-0.332,0c-0.091-0.09-0.091-0.237,0-0.331
					c0.092-0.091,0.24-0.09,0.332,0C38.681,25.303,38.681,25.451,38.59,25.542z"/>
				<path fill="#8E0939" d="M38.59,25.542c-0.092,0.094-0.24,0.092-0.332,0c-0.091-0.09-0.091-0.237,0-0.331
					c0.092-0.091,0.167-0.017,0.257,0.074C38.607,25.377,38.681,25.451,38.59,25.542z"/>
			</g>
			<g>
				<circle fill="#A0104B" cx="39.356" cy="26.309" r="0.234"/>
				<path fill="#8E0939" d="M39.521,26.474c-0.092,0.092-0.239,0.091-0.331,0c-0.092-0.092-0.092-0.239,0-0.331
					c0.093-0.091,0.165-0.018,0.257,0.074C39.539,26.309,39.614,26.383,39.521,26.474z"/>
			</g>
		</g>
		<g>
			<g>
				<circle fill="#A0104B" cx="35.229" cy="23.908" r="0.234"/>
				<path fill="#8E0939" d="M35.395,24.074c-0.092,0.092-0.238,0.092-0.331,0.001c-0.093-0.092-0.091-0.24,0-0.332
					c0.093-0.091,0.164-0.017,0.258,0.075C35.413,23.91,35.485,23.983,35.395,24.074z"/>
			</g>
			<g>
				<circle fill="#A0104B" cx="36.162" cy="24.84" r="0.234"/>
				<path fill="#8E0939" d="M36.328,25.005c-0.093,0.093-0.242,0.093-0.332,0.002c-0.092-0.092-0.092-0.24,0-0.333
					c0.091-0.091,0.167-0.017,0.257,0.075C36.345,24.84,36.419,24.915,36.328,25.005z"/>
			</g>
			<g>
				<circle fill="#A0104B" cx="37.094" cy="25.774" r="0.234"/>
				<path fill="#8E0939" d="M37.259,25.939c-0.091,0.093-0.237,0.093-0.331,0c-0.092-0.091-0.092-0.24,0.001-0.331
					c0.093-0.092,0.165-0.02,0.258,0.074C37.276,25.773,37.351,25.848,37.259,25.939z"/>
			</g>
			<g>
				<circle fill="#A0104B" cx="38.027" cy="26.706" r="0.234"/>
				<path fill="#8E0939" d="M38.192,26.872c-0.092,0.091-0.24,0.091-0.332,0c-0.092-0.092-0.092-0.241,0.001-0.332
					c0.091-0.092,0.165-0.017,0.258,0.074C38.21,26.706,38.284,26.78,38.192,26.872z"/>
			</g>
		</g>
		<path fill="#3A8708" d="M45.606,18.872c0,0,0.444-0.358,0.072-0.806c-0.372-0.45-1.371,0.118-1.371,0.118s0.497-0.497,0.45-0.884
			c-0.001-0.044-0.018-0.068-0.039-0.082c-0.013-0.021-0.04-0.038-0.083-0.042c-0.387-0.046-0.885,0.452-0.885,0.452
			s0.568-1,0.119-1.373c-0.448-0.372-0.808,0.075-0.808,0.075c0.228-0.617-0.706-2.275-1.422-0.737
			c-0.624,1.336,0.696,3.114,1.051,3.554c-0.004,0.006-0.008,0.011-0.008,0.011s0.019,0.015,0.049,0.043
			c0.029,0.033,0.045,0.05,0.045,0.05s0.003-0.002,0.009-0.008c0.443,0.355,2.219,1.676,3.556,1.053
			C47.88,19.578,46.222,18.645,45.606,18.872z"/>
		<path fill="#49A010" d="M42.194,14.974c-0.021,0.039-0.044,0.083-0.065,0.131c-0.623,1.336,0.698,3.115,1.051,3.554l-0.007,0.011
			c0,0,0.018,0.015,0.051,0.043c0.027,0.032,0.042,0.05,0.042,0.05s0.006-0.003,0.012-0.007c0.439,0.355,2.217,1.675,3.554,1.052
			c0.048-0.023,0.09-0.044,0.131-0.067c0.156-0.555-0.895-1.038-1.355-0.869c0,0,0.444-0.358,0.072-0.806
			c-0.372-0.45-1.371,0.118-1.371,0.118s0.497-0.497,0.45-0.884c-0.001-0.044-0.018-0.068-0.039-0.082
			c-0.013-0.021-0.04-0.038-0.083-0.042c-0.387-0.046-0.885,0.452-0.885,0.452s0.568-1,0.119-1.373
			c-0.448-0.372-0.808,0.075-0.808,0.075C43.234,15.866,42.749,14.817,42.194,14.974z"/>
	</g>
	<g>
		<g>
			<g>
				<path fill="#AF8D5F" d="M58.271,33.858c0,1.241-1.007,2.249-2.248,2.249H8.749c-1.244,0-2.249-1.008-2.249-2.249v-4.245
					c0-1.242,1.005-2.249,2.249-2.249h47.274c1.241,0,2.248,1.006,2.248,2.249V33.858z"/>
				<path fill="#C69D6B" d="M56.023,27.365H8.749c-1.244,0-2.249,1.006-2.249,2.249v2.466c0,1.243,1.005,2.247,2.249,2.247h47.274
					c1.241,0,2.248-1.004,2.248-2.247v-2.466C58.271,28.372,57.265,27.365,56.023,27.365z"/>
				<g>
					<circle fill="#AF8D5F" cx="10.169" cy="31.735" r="0.984"/>
					<circle fill="#AF8D5F" cx="55.132" cy="31.735" r="0.984"/>
				</g>
			</g>
			<g>
				<path fill="#AF8D5F" d="M58.271,42.666c0,1.241-1.007,2.246-2.248,2.246H8.749c-1.244,0-2.249-1.005-2.249-2.246v-4.248
					c0-1.241,1.005-2.247,2.249-2.247h47.274c1.241,0,2.248,1.006,2.248,2.247V42.666z"/>
				<path fill="#C69D6B" d="M56.023,36.171H8.749c-1.244,0-2.249,1.006-2.249,2.247v2.466c0,1.241,1.005,2.249,2.249,2.249h47.274
					c1.241,0,2.248-1.008,2.248-2.249v-2.466C58.271,37.177,57.265,36.171,56.023,36.171z"/>
				<g>
					<circle fill="#AF8D5F" cx="10.169" cy="40.541" r="0.984"/>
					<circle fill="#AF8D5F" cx="55.132" cy="40.541" r="0.984"/>
				</g>
			</g>
			<g>
				<path fill="#AF8D5F" d="M58.271,51.469c0,1.244-1.007,2.25-2.248,2.25H8.749c-1.244,0-2.249-1.006-2.249-2.25v-4.245
					c0-1.242,1.005-2.248,2.249-2.248h47.274c1.241,0,2.248,1.006,2.248,2.248V51.469z"/>
				<path fill="#C69D6B" d="M56.023,44.976H8.749c-1.244,0-2.249,1.006-2.249,2.248v2.465c0,1.242,1.005,2.25,2.249,2.25h47.274
					c1.241,0,2.248-1.008,2.248-2.25v-2.465C58.271,45.981,57.265,44.976,56.023,44.976z"/>
				<g>
					<circle fill="#AF8D5F" cx="10.169" cy="49.347" r="0.984"/>
					<circle fill="#AF8D5F" cx="55.132" cy="49.347" r="0.984"/>
				</g>
			</g>
			<g>
				<path fill="#AF8D5F" d="M58.271,60.274c0,1.243-1.007,2.249-2.248,2.249H8.749c-1.244,0-2.249-1.006-2.249-2.249v-4.246
					c0-1.241,1.005-2.246,2.249-2.246h47.274c1.241,0,2.248,1.005,2.248,2.246V60.274z"/>
				<path fill="#C69D6B" d="M56.023,53.782H8.749c-1.244,0-2.249,1.005-2.249,2.246v2.467c0,1.242,1.005,2.247,2.249,2.247h47.274
					c1.241,0,2.248-1.005,2.248-2.247v-2.467C58.271,54.787,57.265,53.782,56.023,53.782z"/>
				<g>
					<circle fill="#AF8D5F" cx="10.169" cy="58.152" r="0.984"/>
					<circle fill="#AF8D5F" cx="55.132" cy="58.152" r="0.984"/>
				</g>
			</g>
		</g>
		<g>
			<g>
				<path fill="#CC9D6E" d="M18.162,26c1.199,0,2.171,0.973,2.171,2.172v33.545c0,1.202-0.972,2.174-2.171,2.174h-4.104
					c-1.2,0-2.172-0.972-2.172-2.174V28.171c0-1.199,0.972-2.172,2.172-2.172H18.162z"/>
				<path fill="#E2B481" d="M11.887,28.171v33.545c0,1.202,0.972,2.174,2.172,2.174h2.382c1.202,0,2.174-0.972,2.174-2.174V28.171
					c0-1.199-0.972-2.172-2.174-2.172h-2.382C12.858,26,11.887,26.973,11.887,28.171z"/>
				<g>
					<circle fill="#AF8D5F" cx="16.11" cy="58.445" r="0.95"/>
					<circle fill="#AF8D5F" cx="16.11" cy="31.964" r="0.95"/>
				</g>
			</g>
			<g>
				<path fill="#CC9D6E" d="M45.198,26c-1.199,0-2.17,0.973-2.17,2.172v33.545c0,1.202,0.971,2.174,2.17,2.174h4.105
					c1.197,0,2.171-0.972,2.171-2.174V28.171c0-1.199-0.974-2.172-2.171-2.172H45.198z"/>
				<path fill="#E2B481" d="M51.475,28.171v33.545c0,1.202-0.974,2.174-2.171,2.174h-2.385c-1.2,0-2.17-0.972-2.17-2.174V28.171
					c0-1.199,0.97-2.172,2.17-2.172h2.385C50.501,26,51.475,26.973,51.475,28.171z"/>
				<g>
					<circle fill="#AF8D5F" cx="47.25" cy="58.445" r="0.95"/>
					<circle fill="#AF8D5F" cx="47.25" cy="31.964" r="0.95"/>
				</g>
			</g>
		</g>
	</g>
</g>
</svg>
