<?xml version="1.0" encoding="utf-8"?>
<!-- Generator: Adobe Illustrator 16.0.0, SVG Export Plug-In . SVG Version: 6.00 Build 0)  -->
<!DOCTYPE svg PUBLIC "-//W3C//DTD SVG 1.1//EN" "http://www.w3.org/Graphics/SVG/1.1/DTD/svg11.dtd">
<svg version="1.1" id="Layer_1" xmlns="http://www.w3.org/2000/svg" xmlns:xlink="http://www.w3.org/1999/xlink" x="0px" y="0px"
	 width="65px" height="65px" viewBox="0 0 65 65" enable-background="new 0 0 65 65" xml:space="preserve">
<g>
	<g>
		<path fill="#AA1A7E" d="M56.965,43.53c0,11.582-10.954,20.969-24.465,20.969S8.035,55.112,8.035,43.53S18.989,30.822,32.5,30.822
			S56.965,31.948,56.965,43.53z"/>
		<path fill="#891B62" d="M56.965,43.53c0,11.582-10.954,20.969-24.465,20.969S8.035,55.112,8.035,43.53s10.954-4.236,24.465-4.236
			S56.965,31.948,56.965,43.53z"/>
		<path fill="#BF2E9A" d="M42.666,32.728c0,1.521-4.55,1.588-10.166,1.588c-5.617,0-10.167-0.066-10.167-1.588
			c0-1.52,4.55-2.751,10.167-2.751C38.116,29.976,42.666,31.208,42.666,32.728z"/>
		<path fill="#AA1A7E" d="M11.172,41.136c1.454-0.453,2.325,2.113,3.324,5.307c1,3.193,1.744,5.801,0.291,6.254
			c-1.451,0.455-3.436-1.766-4.436-4.957C9.354,44.546,9.721,41.591,11.172,41.136z"/>
		<circle fill="#AA1A7E" cx="17.461" cy="55.075" r="0.74"/>
		<circle fill="#AA1A7E" cx="20.745" cy="58.358" r="1.06"/>
	</g>
	<g>
		<path fill="#A9217E" d="M32.082,32.407c-0.325,0-0.65-0.123-0.898-0.371c-3.607-3.605-5.593-8.4-5.593-13.5
			c0.001-5.098,1.987-9.893,5.593-13.498c6.051-6.049,15.9-6.051,21.955,0c4.941,4.943,4.941,12.984,0,17.926
			c-4.051,4.051-10.643,4.053-14.699,0c-3.341-3.342-3.341-8.777,0-12.117c2.771-2.771,7.281-2.773,10.054-0.002
			c0.496,0.496,0.496,1.301,0,1.797c-0.497,0.496-1.3,0.496-1.798,0c-1.78-1.779-4.678-1.781-6.459,0.002
			c-2.35,2.35-2.35,6.172,0,8.523c3.062,3.062,8.047,3.059,11.104,0c3.951-3.951,3.951-10.379,0-14.332
			c-5.063-5.062-13.302-5.061-18.36,0c-3.125,3.127-4.848,7.283-4.848,11.701c0,4.42,1.721,8.576,4.848,11.701
			c0.496,0.498,0.496,1.3,0,1.798C32.732,32.284,32.407,32.407,32.082,32.407z"/>
	</g>
</g>
</svg>
