<?xml version="1.0" encoding="utf-8"?>
<!-- Generator: Adobe Illustrator 16.0.0, SVG Export Plug-In . SVG Version: 6.00 Build 0)  -->
<!DOCTYPE svg PUBLIC "-//W3C//DTD SVG 1.1//EN" "http://www.w3.org/Graphics/SVG/1.1/DTD/svg11.dtd">
<svg version="1.1" id="Layer_1" xmlns="http://www.w3.org/2000/svg" xmlns:xlink="http://www.w3.org/1999/xlink" x="0px" y="0px"
	 width="65px" height="65px" viewBox="0 0 65 65" enable-background="new 0 0 65 65" xml:space="preserve">
<g>
	<path fill="#11A569" d="M37.122,5.122c0,2.553-2.069,12.668-4.622,12.668S27.878,7.675,27.878,5.122s2.069-4.621,4.622-4.621
		S37.122,2.569,37.122,5.122z"/>
	<path fill="#048950" d="M32.5,0.501c2.553,0,4.622,2.068,4.622,4.621S35.053,17.79,32.5,17.79"/>
	<g>
		<g>
			<g>
				<g>
					<circle fill="#7746BC" cx="20.33" cy="26.807" r="7.87"/>
					<path fill="#5C339E" d="M25.895,21.241c3.074,3.074,3.074,8.057,0.001,11.133c-3.074,3.072-8.057,3.072-11.131-0.002
						c-3.075-3.074,3.213-1.77,6.286-4.844C24.125,24.454,22.821,18.167,25.895,21.241z"/>
					<path fill="#9F84D3" d="M19.201,20.802c0.647,0.648-1.005,1.18-2.352,2.525c-1.346,1.346-1.878,3-2.525,2.352
						c-0.648-0.65-0.081-2.268,1.264-3.613C16.934,20.72,18.551,20.153,19.201,20.802z"/>
					<circle fill="#9F84D3" cx="21.051" cy="20.383" r="0.485"/>
					<circle fill="#9F84D3" cx="14.319" cy="27.048" r="0.194"/>
				</g>
				<g>
					<circle fill="#7746BC" cx="44.671" cy="26.807" r="7.871"/>
					<path fill="#5C339E" d="M39.105,21.241c-3.074,3.074-3.074,8.057-0.001,11.133c3.074,3.072,8.057,3.072,11.132-0.002
						c3.074-3.074-3.214-1.77-6.288-4.844C40.876,24.454,42.179,18.167,39.105,21.241z"/>
					<path fill="#9F84D3" d="M45.799,20.802c-0.646,0.648,1.004,1.18,2.352,2.525c1.346,1.346,1.878,3,2.525,2.352
						c0.648-0.65,0.082-2.268-1.264-3.613S46.449,20.153,45.799,20.802z"/>
					<circle fill="#9F84D3" cx="43.949" cy="20.383" r="0.485"/>
					<circle fill="#9F84D3" cx="50.681" cy="27.048" r="0.194"/>
				</g>
			</g>
			<g>
				<circle fill="#7746BC" cx="32.5" cy="21.269" r="7.87"/>
				<path fill="#5C339E" d="M40.369,21.269c0,4.348-3.521,7.871-7.869,7.871s-7.87-3.523-7.87-7.871s3.522,1.021,7.87,1.021
					S40.369,16.921,40.369,21.269z"/>
				<path fill="#9F84D3" d="M35.948,16.224c0,0.916-1.544,0.125-3.448,0.125s-3.447,0.791-3.447-0.125
					c0-0.918,1.543-1.66,3.447-1.66S35.948,15.306,35.948,16.224z"/>
				<circle fill="#9F84D3" cx="37.554" cy="17.237" r="0.485"/>
				<circle fill="#9F84D3" cx="28.081" cy="17.188" r="0.195"/>
			</g>
		</g>
		<g>
			<g>
				<g>
					<circle fill="#7746BC" cx="21.497" cy="36.89" r="7.116"/>
					<path fill="#5C339E" d="M26.529,31.858c2.778,2.779,2.778,7.285,0,10.064c-2.78,2.777-7.284,2.777-10.064-0.002
						c-2.781-2.777,2.904-1.6,5.686-4.377C24.928,34.763,23.749,29.077,26.529,31.858z"/>
					<path fill="#9F84D3" d="M20.475,31.46c0.586,0.586-0.907,1.068-2.124,2.285c-1.216,1.217-1.698,2.709-2.283,2.123
						c-0.586-0.586-0.074-2.047,1.143-3.264S19.887,30.874,20.475,31.46z"/>
					<circle fill="#9F84D3" cx="22.149" cy="31.081" r="0.439"/>
					<circle fill="#9F84D3" cx="16.063" cy="37.107" r="0.176"/>
				</g>
				<g>
					<circle fill="#7746BC" cx="43.504" cy="36.89" r="7.115"/>
					<path fill="#5C339E" d="M38.473,31.858c-2.78,2.779-2.78,7.285-0.001,10.064c2.778,2.777,7.285,2.777,10.063-0.002
						c2.781-2.777-2.904-1.6-5.685-4.377C40.072,34.763,41.25,29.077,38.473,31.858z"/>
					<path fill="#9F84D3" d="M44.525,31.46c-0.586,0.586,0.908,1.068,2.124,2.285s1.697,2.709,2.284,2.123
						c0.586-0.586,0.073-2.047-1.144-3.264C46.574,31.388,45.111,30.874,44.525,31.46z"/>
					<circle fill="#9F84D3" cx="42.851" cy="31.081" r="0.439"/>
					<circle fill="#9F84D3" cx="48.938" cy="37.107" r="0.176"/>
				</g>
			</g>
			<g>
				<circle fill="#7746BC" cx="32.5" cy="31.882" r="7.117"/>
				<path fill="#5C339E" d="M39.617,31.882c0,3.932-3.188,7.117-7.117,7.117s-7.117-3.186-7.117-7.117
					c0-3.93,3.188,0.922,7.117,0.922S39.617,27.952,39.617,31.882z"/>
				<path fill="#9F84D3" d="M35.617,27.323c0,0.826-1.396,0.111-3.117,0.111s-3.117,0.715-3.117-0.111
					c0-0.832,1.396-1.502,3.117-1.502S35.617,26.491,35.617,27.323z"/>
				<circle fill="#9F84D3" cx="37.068" cy="28.237" r="0.439"/>
				<circle fill="#9F84D3" cx="28.504" cy="28.192" r="0.176"/>
			</g>
		</g>
		<g>
			<g>
				<g>
					<circle fill="#7746BC" cx="22.332" cy="46.903" r="6.577"/>
					<path fill="#5C339E" d="M26.982,42.253c2.566,2.568,2.566,6.732,0,9.301c-2.569,2.568-6.733,2.568-9.302,0
						c-2.569-2.568,2.684-1.48,5.254-4.047C25.502,44.938,24.413,39.683,26.982,42.253z"/>
					<path fill="#9F84D3" d="M21.387,41.884c0.541,0.543-0.841,0.988-1.963,2.111c-1.126,1.125-1.569,2.504-2.11,1.965
						c-0.544-0.545-0.069-1.895,1.055-3.018C19.494,41.817,20.844,41.343,21.387,41.884z"/>
					<circle fill="#9F84D3" cx="22.932" cy="41.535" r="0.405"/>
					<circle fill="#9F84D3" cx="17.309" cy="47.104" r="0.163"/>
				</g>
				<g>
					<circle fill="#7746BC" cx="42.671" cy="46.903" r="6.576"/>
					<path fill="#5C339E" d="M38.021,42.253c-2.57,2.568-2.57,6.732-0.003,9.301c2.569,2.568,6.733,2.568,9.303,0
						c2.568-2.568-2.687-1.48-5.254-4.047C39.498,44.938,40.588,39.683,38.021,42.253z"/>
					<path fill="#9F84D3" d="M43.614,41.884c-0.542,0.543,0.839,0.988,1.964,2.111c1.125,1.125,1.569,2.504,2.11,1.965
						c0.542-0.545,0.067-1.895-1.057-3.018C45.508,41.817,44.157,41.343,43.614,41.884z"/>
					<circle fill="#9F84D3" cx="42.067" cy="41.535" r="0.405"/>
					<circle fill="#9F84D3" cx="47.693" cy="47.104" r="0.164"/>
				</g>
			</g>
			<g>
				<path fill="#7746BC" d="M39.077,42.276c0,3.631-2.944,6.574-6.577,6.574c-3.632,0-6.576-2.943-6.576-6.574
					c0-3.635,2.944-6.578,6.576-6.578C36.133,35.698,39.077,38.642,39.077,42.276z"/>
				<path fill="#5C339E" d="M39.077,42.276c0,3.631-2.944,6.574-6.577,6.574c-3.632,0-6.576-2.943-6.576-6.574
					c0-3.635,2.944,0.852,6.576,0.852C36.133,43.128,39.077,38.642,39.077,42.276z"/>
				<path fill="#9F84D3" d="M35.382,38.06c0,0.766-1.29,0.104-2.882,0.104s-2.881,0.662-2.881-0.104
					c0-0.768,1.289-1.387,2.881-1.387S35.382,37.292,35.382,38.06z"/>
				<circle fill="#9F84D3" cx="36.722" cy="38.905" r="0.406"/>
				<circle fill="#9F84D3" cx="28.807" cy="38.864" r="0.163"/>
			</g>
		</g>
		<g>
			<g>
				<g>
					<circle fill="#7746BC" cx="24.748" cy="54.733" r="5.014"/>
					<path fill="#5C339E" d="M28.294,51.188c1.956,1.959,1.956,5.133,0,7.09c-1.96,1.959-5.133,1.959-7.093,0
						c-1.958-1.957,2.047-1.127,4.007-3.086C27.166,53.235,26.334,49.229,28.294,51.188z"/>
					<path fill="#9F84D3" d="M24.028,50.907c0.413,0.414-0.642,0.754-1.496,1.609c-0.858,0.857-1.196,1.91-1.61,1.498
						c-0.412-0.414-0.053-1.443,0.807-2.301C22.586,50.856,23.614,50.493,24.028,50.907z"/>
					<circle fill="#9F84D3" cx="25.208" cy="50.642" r="0.309"/>
					<path fill="#9F84D3" d="M21.008,54.8c0.047,0.047,0.047,0.127,0,0.176c-0.05,0.047-0.13,0.047-0.177-0.002
						c-0.048-0.047-0.048-0.127,0-0.174C20.878,54.749,20.958,54.749,21.008,54.8z"/>
				</g>
				<g>
					<circle fill="#7746BC" cx="40.253" cy="54.733" r="5.013"/>
					<path fill="#5C339E" d="M36.709,51.188c-1.959,1.959-1.959,5.133-0.002,7.09c1.958,1.959,5.132,1.959,7.091,0
						c1.959-1.957-2.048-1.127-4.005-3.086C37.834,53.235,38.665,49.229,36.709,51.188z"/>
					<path fill="#9F84D3" d="M40.972,50.907c-0.412,0.414,0.641,0.754,1.497,1.609c0.858,0.857,1.195,1.91,1.609,1.498
						c0.413-0.414,0.052-1.443-0.805-2.301C42.415,50.856,41.387,50.493,40.972,50.907z"/>
					<circle fill="#9F84D3" cx="39.793" cy="50.642" r="0.309"/>
					<path fill="#9F84D3" d="M43.993,54.8c-0.047,0.047-0.047,0.127,0,0.176c0.051,0.047,0.129,0.047,0.177-0.002
						c0.047-0.047,0.047-0.127,0-0.174C44.122,54.749,44.044,54.749,43.993,54.8z"/>
				</g>
			</g>
			<g>
				<circle fill="#7746BC" cx="32.5" cy="51.206" r="5.014"/>
				<path fill="#5C339E" d="M37.514,51.206c0,2.77-2.244,5.012-5.014,5.012c-2.769,0-5.014-2.242-5.014-5.012
					s2.245,0.648,5.014,0.648C35.27,51.854,37.514,48.437,37.514,51.206z"/>
				<path fill="#9F84D3" d="M34.696,47.991c0,0.584-0.982,0.08-2.196,0.08c-1.215,0-2.197,0.504-2.197-0.08s0.982-1.057,2.197-1.057
					C33.714,46.935,34.696,47.407,34.696,47.991z"/>
				<circle fill="#9F84D3" cx="35.719" cy="48.636" r="0.31"/>
				<circle fill="#9F84D3" cx="29.685" cy="48.606" r="0.125"/>
			</g>
		</g>
		<g>
			<circle fill="#7746BC" cx="32.5" cy="59.487" r="5.014"/>
			<path fill="#5C339E" d="M37.514,59.487c0,2.77-2.244,5.012-5.014,5.012c-2.769,0-5.014-2.242-5.014-5.012
				s2.245,0.648,5.014,0.648C35.27,60.136,37.514,56.718,37.514,59.487z"/>
			<path fill="#9F84D3" d="M34.696,56.274c0,0.584-0.982,0.078-2.196,0.078c-1.215,0-2.197,0.506-2.197-0.078
				c0-0.586,0.982-1.059,2.197-1.059C33.714,55.216,34.696,55.688,34.696,56.274z"/>
			<path fill="#9F84D3" d="M36.028,56.917c0,0.172-0.138,0.312-0.311,0.312c-0.169,0-0.309-0.141-0.309-0.312
				c0-0.168,0.14-0.309,0.309-0.309C35.891,56.608,36.028,56.749,36.028,56.917z"/>
			<circle fill="#9F84D3" cx="29.685" cy="56.888" r="0.125"/>
		</g>
	</g>
	<g>
		<g>
			<path fill="#048950" d="M26.371,11.38c0,0-5.812-4.994-11.236-2.104c0,0,1.821,0.084,2.291,1.75
				c0.472,1.666,1.439,1.684,1.439,1.684s-1.518-1.031-2.947,1.885c-1.426,2.918-5.69,3.758-5.69,3.758s8.192,3.752,11.447,1.605
				c0,0-0.183,1.586,0.9,2.727c0,0,1.619-2.445,3.447-3.531c1.827-1.088,2.419-3.184,2.6-4.77c0,0-2.921-2.113-10.437,1.561
				c0,0,4.222-3.744,10.328-2.926L26.371,11.38z"/>
			<path fill="#11A569" d="M28.221,14.179c-1.02-0.426-4.082-1.145-10.035,1.766c0,0,4.222-3.744,10.328-2.926l-2.143-1.639
				c0,0-5.812-4.994-11.236-2.104c0,0,1.821,0.084,2.291,1.75c0.265,0.936,0.682,1.342,1.001,1.527
				c-0.554-0.094-1.551,0.086-2.509,2.041c-1.426,2.918-5.69,3.758-5.69,3.758s0.146,0.066,0.397,0.172
				c1.448,0.303,2.987,0.465,4.582,0.465C20.689,18.989,25.49,17.065,28.221,14.179z"/>
		</g>
		<g>
			<path fill="#048950" d="M38.629,11.38c0,0,5.812-4.994,11.236-2.104c0,0-1.821,0.084-2.291,1.75
				c-0.472,1.666-1.44,1.684-1.44,1.684s1.519-1.031,2.947,1.885c1.427,2.918,5.691,3.758,5.691,3.758s-8.193,3.752-11.447,1.605
				c0,0,0.183,1.586-0.9,2.727c0,0-1.619-2.445-3.447-3.531c-1.827-1.088-2.419-3.184-2.6-4.77c0,0,2.921-2.113,10.437,1.561
				c0,0-4.222-3.744-10.328-2.926L38.629,11.38z"/>
			<path fill="#11A569" d="M36.779,14.179c1.019-0.426,4.082-1.145,10.035,1.766c0,0-4.222-3.744-10.328-2.926l2.143-1.639
				c0,0,5.812-4.994,11.236-2.104c0,0-1.821,0.084-2.291,1.75c-0.265,0.936-0.682,1.342-1.001,1.527
				c0.554-0.094,1.551,0.086,2.508,2.041c1.427,2.918,5.691,3.758,5.691,3.758s-0.146,0.066-0.397,0.172
				c-1.448,0.303-2.988,0.465-4.582,0.465C44.311,18.989,39.51,17.065,36.779,14.179z"/>
		</g>
	</g>
</g>
</svg>
