<?xml version="1.0" encoding="utf-8"?>
<!-- Generator: Adobe Illustrator 16.0.0, SVG Export Plug-In . SVG Version: 6.00 Build 0)  -->
<!DOCTYPE svg PUBLIC "-//W3C//DTD SVG 1.1//EN" "http://www.w3.org/Graphics/SVG/1.1/DTD/svg11.dtd">
<svg version="1.1" id="Layer_1" xmlns="http://www.w3.org/2000/svg" xmlns:xlink="http://www.w3.org/1999/xlink" x="0px" y="0px"
	 width="65px" height="65px" viewBox="0 0 65 65" enable-background="new 0 0 65 65" xml:space="preserve">
<g>
	<path fill="#E09B00" d="M54.576,36.74c0,9.775-9.883,12.927-22.076,12.927c-12.191,0-22.074-3.151-22.074-12.927
		S20.309,19.042,32.5,19.042C44.693,19.042,54.576,26.964,54.576,36.74z"/>
	<path fill="#D89103" d="M54.576,36.74c0-4.845-2.432-9.232-6.363-12.429l-2.275,2.275l-2.688-2.688l-2.688,2.688l-2.688-2.688
		l-2.688,2.688L32.5,23.899l-2.688,2.688l-2.688-2.688l-2.688,2.688l-2.688-2.688l-2.688,2.688l-2.275-2.274
		c-3.932,3.195-6.361,7.583-6.361,12.428c0,9.775,9.883,12.927,22.074,12.927C44.693,49.667,54.576,46.515,54.576,36.74z"/>
	<path fill="#F4C237" d="M48.898,14.314c0,7.262-7.342,9.603-16.398,9.603s-16.398-2.341-16.398-9.603S23.443,1.167,32.5,1.167
		S48.898,7.052,48.898,14.314z"/>
	<path fill="#EFB600" d="M48.898,14.314c0,7.262-7.342,9.603-16.398,9.603s-16.398-2.341-16.398-9.603S23.443,2.479,32.5,2.479
		S48.898,7.052,48.898,14.314z"/>
	<path fill="#EDA900" d="M48.898,14.314c0,7.262-7.342,9.603-16.398,9.603s-16.398-2.341-16.398-9.603"/>
	<g>
		<g>
			<ellipse fill="#97A8AA" cx="32.499" cy="58.747" rx="20.979" ry="5.087"/>
			<path fill="#AEB9BA" d="M53.479,58.747c0,2.811-9.393,5.087-20.98,5.087S11.52,61.557,11.52,58.747"/>
		</g>
		<g>
			<path fill="#E8B277" d="M54.428,25.971l-3.115,3.115l-2.688-2.688l-2.688,2.688l-2.688-2.688l-2.688,2.688l-2.688-2.688
				l-2.688,2.688L32.5,26.399l-2.688,2.688l-2.688-2.688l-2.688,2.688l-2.688-2.688l-2.688,2.688l-2.688-2.688l-2.688,2.688
				l-3.115-3.114c-1.164,4.039-1.809,7.935-1.809,11.158c0,13.112,10.629,23.74,23.734,23.74c13.113,0,23.738-10.628,23.738-23.74
				C56.236,33.907,55.592,30.011,54.428,25.971z"/>
		</g>
		<g>
			<path fill="#EFBF8B" d="M13.688,29.086l-3.115-3.114c-1.164,4.039-1.809,7.935-1.809,11.158l5.459-8.579L13.688,29.086z"/>
		</g>
		<g>
			<path fill="#D89E60" d="M54.428,25.971l-3.115,3.115l-2.688-2.688l-2.688,2.688l-2.688-2.688l-2.688,2.688l-2.688-2.688
				l-2.688,2.688L32.5,26.399L32.498,26.4v34.471c13.113,0,23.738-10.628,23.738-23.74C56.236,33.907,55.592,30.011,54.428,25.971z"
				/>
		</g>
	</g>
	<g>
		<g>
			<circle fill="#2D2612" cx="25.209" cy="10.209" r="1.791"/>
			<path fill="#443B23" d="M23.418,10.209c0,0.182,0.035,0.354,0.084,0.518c0.166,0.051,0.338,0.086,0.52,0.086
				c0.988,0,1.791-0.802,1.791-1.791c0-0.182-0.035-0.354-0.086-0.52c-0.164-0.05-0.336-0.085-0.518-0.085
				C24.219,8.417,23.418,9.219,23.418,10.209z"/>
		</g>
		<g>
			<circle fill="#2D2612" cx="39.791" cy="10.209" r="1.791"/>
			<path fill="#443B23" d="M38,10.209c0,0.182,0.035,0.354,0.086,0.518c0.164,0.051,0.336,0.086,0.518,0.086
				c0.99,0,1.793-0.802,1.793-1.791c0-0.182-0.035-0.354-0.086-0.52c-0.166-0.05-0.336-0.085-0.52-0.085
				C38.803,8.417,38,9.219,38,10.209z"/>
		</g>
	</g>
	<path fill="#D15400" d="M36.324,13.071l-3.535-2.5c-0.174-0.123-0.404-0.123-0.578,0l-3.535,2.5
		c-0.139,0.098-0.217,0.258-0.211,0.427s0.098,0.323,0.242,0.41l3.535,2.125c0.078,0.048,0.168,0.071,0.258,0.071
		s0.18-0.023,0.258-0.071l3.535-2.125c0.145-0.087,0.236-0.241,0.242-0.41S36.463,13.168,36.324,13.071z"/>
	<path fill="#FF6D00" d="M36.324,13.071l-3.535-2.5c-0.174-0.123-0.404-0.123-0.578,0l-3.535,2.5
		c-0.139,0.098-0.217,0.258-0.211,0.427s0.098,0.323,0.242,0.41l3.535,0.665c0.078,0.048,0.168,0.071,0.258,0.071
		s0.18-0.023,0.258-0.071l3.535-0.665c0.145-0.087,0.236-0.241,0.242-0.41S36.463,13.168,36.324,13.071z"/>
</g>
</svg>
