<?xml version="1.0" encoding="utf-8"?>
<!-- Generator: Adobe Illustrator 16.0.0, SVG Export Plug-In . SVG Version: 6.00 Build 0)  -->
<!DOCTYPE svg PUBLIC "-//W3C//DTD SVG 1.1//EN" "http://www.w3.org/Graphics/SVG/1.1/DTD/svg11.dtd">
<svg version="1.1" id="Layer_1" xmlns="http://www.w3.org/2000/svg" xmlns:xlink="http://www.w3.org/1999/xlink" x="0px" y="0px"
	 width="65px" height="65px" viewBox="0 0 65 65" enable-background="new 0 0 65 65" xml:space="preserve">
<g>
	<g>
		<path fill="#839392" d="M32.5,64h-0.002c-8.017,0-15.552-3.134-21.222-8.804C-0.425,43.495-0.426,19.905,11.274,8.203l6.943,6.938
			c-7.875,7.875-7.875,20.688,0,28.562c3.817,3.816,8.887,5.917,14.28,5.917c5.397,0,10.467-2.101,14.283-5.916
			c7.875-7.876,7.876-20.691,0.001-28.566l6.942-6.94c11.702,11.702,11.7,35.299-0.002,47.001C48.053,60.867,40.517,64,32.5,64z"/>
	</g>
	<path fill="#96AAA8" d="M11.274,8.197C6.994,12.48,4.287,18.355,3.138,24.655c1.149,6.301,3.857,12.224,8.139,16.505
		C16.946,46.83,24.481,50,32.498,50H32.5c8.017,0,15.553-3.169,21.222-8.838c4.282-4.283,6.992-10.183,8.14-16.485
		c-1.148-6.3-3.855-12.187-8.138-16.469l-1.776,1.769c1.12,4.076,0.938,8.423-0.539,12.41c2.657,7.176,1.127,15.562-4.628,21.317
		c-3.816,3.814-8.886,5.915-14.283,5.915c-5.393,0-10.463-2.101-14.28-5.917c-5.755-5.755-7.285-14.144-4.626-21.318
		c-1.478-3.984-1.66-8.335-0.541-12.411L11.274,8.197z"/>
	<g>
		<g>
			<path fill="#96AAA8" d="M24.711,10.948c0.269,0.246,0.284,0.663,0.038,0.93L19.836,17.2c-0.245,0.267-0.662,0.284-0.928,0.037
				L8.342,7.487C8.075,7.242,8.058,6.824,8.306,6.557l4.913-5.323c0.245-0.267,0.663-0.283,0.93-0.038L24.711,10.948z"/>
			<path fill="#A5BFBC" d="M24.75,11.877c0.246-0.267,0.231-0.684-0.038-0.93L14.148,1.196c-0.267-0.246-0.685-0.229-0.93,0.038
				l-2.475,2.681l11.534,10.643L24.75,11.877z"/>
		</g>
		<g>
			<path fill="#96AAA8" d="M40.288,10.948c-0.268,0.246-0.283,0.663-0.038,0.93l4.914,5.323c0.245,0.267,0.661,0.284,0.929,0.037
				l10.565-9.75c0.266-0.246,0.283-0.664,0.036-0.931l-4.913-5.323c-0.246-0.267-0.663-0.283-0.93-0.038L40.288,10.948z"/>
			<path fill="#A5BFBC" d="M40.25,11.877c-0.245-0.267-0.23-0.684,0.038-0.93l10.564-9.751c0.267-0.246,0.684-0.229,0.93,0.038
				l2.475,2.681L42.723,14.558L40.25,11.877z"/>
		</g>
	</g>
	<g>
		<g>
			<g>
				<circle fill="#55605F" cx="7.903" cy="23.774" r="1.841"/>
				<path fill="#323F3E" d="M7.902,21.933c-0.45,0-0.859,0.168-1.178,0.437c-0.269,0.32-0.438,0.729-0.438,1.178
					c0,1.017,0.825,1.841,1.842,1.841c0.45,0,0.857-0.168,1.178-0.436c0.269-0.321,0.437-0.729,0.437-1.179
					C9.743,22.757,8.92,21.933,7.902,21.933z"/>
				<path fill="#465453" d="M7.902,21.933c-0.45,0-0.859,0.168-1.178,0.437c-0.269,0.32-0.438,0.729-0.438,1.178
					c0,1.017,0.825,1.841,1.842,1.841c0.45,0,0.857-0.168,1.178-0.436"/>
			</g>
			<g>
				<circle fill="#55605F" cx="8.874" cy="39.01" r="2.037"/>
				<path fill="#323F3E" d="M8.393,37.032c-0.486,0.118-0.878,0.406-1.153,0.779c-0.205,0.415-0.279,0.896-0.16,1.381
					c0.267,1.091,1.368,1.761,2.461,1.493c0.484-0.117,0.878-0.405,1.151-0.779c0.204-0.414,0.279-0.895,0.161-1.38
					C10.585,37.435,9.483,36.765,8.393,37.032z"/>
				<path fill="#465453" d="M8.393,37.032c-0.486,0.118-0.878,0.406-1.153,0.779c-0.205,0.415-0.279,0.896-0.16,1.381
					c0.267,1.091,1.368,1.761,2.461,1.493c0.484-0.117,0.878-0.405,1.151-0.779"/>
			</g>
			<g>
				<circle fill="#55605F" cx="16.369" cy="51.996" r="2.209"/>
				<path fill="#323F3E" d="M15.845,49.848c-0.526,0.129-0.953,0.442-1.25,0.847c-0.224,0.45-0.305,0.972-0.175,1.499
					c0.291,1.187,1.486,1.913,2.672,1.622c0.525-0.127,0.953-0.44,1.251-0.845c0.221-0.451,0.302-0.972,0.171-1.5
					C18.228,50.284,17.028,49.558,15.845,49.848z"/>
				<path fill="#465453" d="M15.845,49.848c-0.526,0.129-0.953,0.442-1.25,0.847c-0.224,0.45-0.305,0.972-0.175,1.499
					c0.291,1.187,1.486,1.913,2.672,1.622c0.525-0.127,0.953-0.44,1.251-0.845"/>
			</g>
		</g>
		<g>
			<g>
				<circle fill="#55605F" cx="57.096" cy="23.774" r="1.84"/>
				<path fill="#323F3E" d="M57.097,21.933c0.45,0,0.859,0.168,1.179,0.437c0.269,0.32,0.437,0.729,0.437,1.178
					c0,1.017-0.824,1.841-1.84,1.841c-0.451,0-0.859-0.168-1.179-0.436c-0.269-0.321-0.438-0.729-0.438-1.179
					C55.256,22.757,56.079,21.933,57.097,21.933z"/>
				<path fill="#465453" d="M57.097,21.933c0.45,0,0.859,0.168,1.179,0.437c0.269,0.32,0.437,0.729,0.437,1.178
					c0,1.017-0.824,1.841-1.84,1.841c-0.451,0-0.859-0.168-1.179-0.436"/>
			</g>
			<g>
				<circle fill="#55605F" cx="56.125" cy="39.01" r="2.036"/>
				<path fill="#323F3E" d="M56.607,37.032c0.485,0.118,0.878,0.406,1.152,0.779c0.205,0.415,0.279,0.896,0.159,1.381
					c-0.265,1.091-1.366,1.761-2.459,1.493c-0.485-0.117-0.878-0.405-1.151-0.779c-0.204-0.414-0.279-0.895-0.16-1.38
					C54.414,37.435,55.517,36.765,56.607,37.032z"/>
				<path fill="#465453" d="M56.607,37.032c0.485,0.118,0.878,0.406,1.152,0.779c0.205,0.415,0.279,0.896,0.159,1.381
					c-0.265,1.091-1.366,1.761-2.459,1.493c-0.485-0.117-0.878-0.405-1.151-0.779"/>
			</g>
			<g>
				<circle fill="#55605F" cx="48.631" cy="51.996" r="2.209"/>
				<path fill="#323F3E" d="M49.155,49.848c0.525,0.129,0.953,0.442,1.249,0.847c0.226,0.45,0.305,0.972,0.175,1.499
					c-0.29,1.187-1.485,1.913-2.672,1.622c-0.524-0.127-0.952-0.44-1.25-0.845c-0.222-0.451-0.303-0.972-0.172-1.5
					C46.772,50.284,47.971,49.558,49.155,49.848z"/>
				<path fill="#465453" d="M49.155,49.848c0.525,0.129,0.953,0.442,1.249,0.847c0.226,0.45,0.305,0.972,0.175,1.499
					c-0.29,1.187-1.485,1.913-2.672,1.622c-0.524-0.127-0.952-0.44-1.25-0.845"/>
			</g>
		</g>
	</g>
	<g>
		<circle fill="#55605F" cx="32.5" cy="57.36" r="2.756"/>
		<path fill="#323F3E" d="M30.143,55.929c-0.35,0.576-0.452,1.23-0.355,1.85c0.199,0.593,0.591,1.125,1.169,1.475
			c1.302,0.79,2.997,0.377,3.787-0.926c0.351-0.576,0.452-1.229,0.356-1.85c-0.201-0.594-0.59-1.123-1.17-1.474
			C32.631,54.212,30.93,54.628,30.143,55.929z"/>
		<path fill="#465453" d="M30.143,55.929c-0.35,0.576-0.452,1.23-0.355,1.85c0.199,0.593,0.591,1.125,1.169,1.475
			c1.302,0.79,2.997,0.377,3.787-0.926c0.351-0.576,0.452-1.229,0.356-1.85"/>
	</g>
</g>
</svg>
