<?xml version="1.0" encoding="utf-8"?>
<!-- Generator: Adobe Illustrator 16.0.0, SVG Export Plug-In . SVG Version: 6.00 Build 0)  -->
<!DOCTYPE svg PUBLIC "-//W3C//DTD SVG 1.1//EN" "http://www.w3.org/Graphics/SVG/1.1/DTD/svg11.dtd">
<svg version="1.1" id="Layer_1" xmlns="http://www.w3.org/2000/svg" xmlns:xlink="http://www.w3.org/1999/xlink" x="0px" y="0px"
	 width="65px" height="65px" viewBox="0 0 65 65" enable-background="new 0 0 65 65" xml:space="preserve">
<g>
	<path fill="#844719" d="M61,52.683C61,54.341,59.324,56,57.668,56H7.334C5.676,56,4,54.341,4,52.683V32.851
		C4,31.194,5.676,30,7.334,30h50.334C59.324,30,61,31.194,61,32.851V52.683z"/>
	<g>
		<g>
			<g>
				<path fill="#C16F33" d="M17.467,16.798c1.324,2.18-0.5,5.709-4.076,7.881s-7.002,7.02-8.326,4.84S2.406,14.651,5.982,12.479
					C9.559,10.31,16.143,14.618,17.467,16.798z"/>
				<path fill="#DB602A" d="M13.148,19.853c1.324,2.18,3.818,2.654,0.242,4.826s-7.002,7.02-8.326,4.84S2.406,14.651,5.982,12.479
					C9.559,10.31,11.824,17.673,13.148,19.853z"/>
				<path fill="#C4491E" d="M5.982,12.479c3.576-2.17,5.842,5.193,7.166,7.373s3.818,2.654,0.242,4.826"/>
			</g>
			<g>
				<path fill="#C16F33" d="M47.365,16.798c-1.324,2.18,0.5,5.709,4.076,7.881s7.004,7.02,8.326,4.84
					c1.324-2.18,2.66-14.867-0.916-17.039C55.275,10.31,48.689,14.618,47.365,16.798z"/>
				<path fill="#DB602A" d="M51.686,19.853c-1.324,2.18-3.82,2.654-0.244,4.826s7.004,7.02,8.326,4.84
					c1.324-2.18,2.66-14.867-0.916-17.039C55.275,10.31,53.01,17.673,51.686,19.853z"/>
				<path fill="#C4491E" d="M58.852,12.479c-3.576-2.17-5.842,5.193-7.166,7.373s-3.82,2.654-0.244,4.826"/>
			</g>
		</g>
		<g>
			<path fill="#DD7F3E" d="M61.996,34.823c0,12.031-13.244,15.408-29.58,15.408S2.838,46.854,2.838,34.823
				c0-12.033,13.242-21.787,29.578-21.787S61.996,22.79,61.996,34.823z"/>
			<path fill="#C16F33" d="M62.162,34.323c0,12.031-13.242,15.408-29.578,15.408s-29.58-3.377-29.58-15.408
				c0-12.033,13.244-18.762,29.58-18.762S62.162,22.29,62.162,34.323z"/>
			<path fill="#A3612B" d="M61.996,34.823c0,12.031-13.244,15.408-29.58,15.408S2.838,46.854,2.838,34.823
				c0-12.033,13.242-5.492,29.578-5.492S61.996,22.79,61.996,34.823z"/>
			<g>
				<circle fill="#082856" cx="20.727" cy="27.519" r="2.656"/>
				<circle fill="#082856" cx="44.106" cy="27.519" r="2.657"/>
			</g>
			<g>
				<path d="M23.383,27.519c0,1.469-1.189,2.658-2.656,2.658c-1.469,0-2.656-1.189-2.656-2.658"/>
				<path d="M46.764,27.519c0,1.469-1.189,2.658-2.656,2.658c-1.469,0-2.658-1.189-2.658-2.658"/>
			</g>
		</g>
		<g>
			<path fill="#1E0B07" d="M13.506,40.921c0-7.691,8.467-9.85,18.91-9.85s18.912,2.158,18.912,9.85s-8.469,13.93-18.912,13.93
				S13.506,48.612,13.506,40.921z"/>
			<path fill="#381911" d="M13.506,40.921c0-7.691,8.467-9.85,18.91-9.85s18.912,2.158,18.912,9.85s-8.469,11.996-18.912,11.996
				S13.506,48.612,13.506,40.921z"/>
			<path fill="#4C2619" d="M13.506,40.921c0-7.691,8.467-9.85,18.91-9.85s18.912,2.158,18.912,9.85s-8.469,3.51-18.912,3.51
				S13.506,48.612,13.506,40.921z"/>
			<g>
				<path fill="#C4491E" d="M38.191,42.392c0-0.938,0.76-1.695,1.699-1.695c0.938,0,1.697,0.758,1.697,1.695
					c0,0.941-0.76,1.701-1.697,1.701C38.951,44.093,38.191,43.333,38.191,42.392z"/>
				<path fill="#C4491E" d="M23.244,42.392c0-0.938,0.76-1.695,1.697-1.695c0.939,0,1.699,0.758,1.699,1.695
					c0,0.941-0.76,1.701-1.699,1.701C24.004,44.093,23.244,43.333,23.244,42.392z"/>
			</g>
			<g>
				<path fill="#B23610" d="M38.191,42.392c0-0.938,0.76-1.695,1.699-1.695c0.938,0,1.697,0.758,1.697,1.695"/>
				<path fill="#B23610" d="M23.244,42.392c0-0.938,0.76-1.695,1.697-1.695c0.939,0,1.699,0.758,1.699,1.695"/>
			</g>
		</g>
		<path fill="#4C2619" d="M24.166,10.767c0,0-6,2.875-2.875,7.625s17.965,0.146,15.5,3.75c-0.812,1.188-2.188,0.812-4.125-0.375
			c0,0,4.35,7.354,8.562,2.125c7.25-9,3.062-13.312-5.562-14.312S24.166,10.767,24.166,10.767z"/>
	</g>
</g>
</svg>
