<?xml version="1.0" encoding="utf-8"?>
<!-- Generator: Adobe Illustrator 16.0.0, SVG Export Plug-In . SVG Version: 6.00 Build 0)  -->
<!DOCTYPE svg PUBLIC "-//W3C//DTD SVG 1.1//EN" "http://www.w3.org/Graphics/SVG/1.1/DTD/svg11.dtd">
<svg version="1.1" id="Layer_1" xmlns="http://www.w3.org/2000/svg" xmlns:xlink="http://www.w3.org/1999/xlink" x="0px" y="0px"
	 width="65px" height="65px" viewBox="0 0 65 65" enable-background="new 0 0 65 65" xml:space="preserve">
<g>
	<g>
		<path fill="#3A7F0D" d="M43.635,0.5c0,0,5.654,13.832-18.578,23.123C11.89,28.67,1.777,41.606,13.852,61.589
			c1-8.932,5.288-28.626,23.726-33.12c0,0-17.161,6.417-18.677,35.464c8.818,1.238,29.499,2.07,35.639-15.877
			C62.648,24.344,43.635,0.5,43.635,0.5z"/>
		<path fill="#49A010" d="M18.909,63.812c18.72-7.471,32.341-24.973,34.221-45.866C49.303,7.623,43.635,0.5,43.635,0.5
			s5.654,13.832-18.578,23.123C11.89,28.67,1.777,41.606,13.852,61.589c1-8.932,5.288-28.626,23.726-33.12
			C37.577,28.469,20.467,34.87,18.909,63.812z"/>
	</g>
	<circle fill="#3A7F0D" cx="11.984" cy="22.334" r="1.75"/>
	<circle fill="#49A010" cx="17.484" cy="20.584" r="1.25"/>
	<circle fill="#49A010" cx="16.359" cy="8.709" r="3.125"/>
	<circle fill="#49A010" cx="25.984" cy="15.834" r="1"/>
	<circle fill="#49A010" cx="34.359" cy="10.209" r="2.875"/>
</g>
</svg>
