<?xml version="1.0" encoding="utf-8"?>
<!-- Generator: Adobe Illustrator 16.0.0, SVG Export Plug-In . SVG Version: 6.00 Build 0)  -->
<!DOCTYPE svg PUBLIC "-//W3C//DTD SVG 1.1//EN" "http://www.w3.org/Graphics/SVG/1.1/DTD/svg11.dtd">
<svg version="1.1" id="Layer_1" xmlns="http://www.w3.org/2000/svg" xmlns:xlink="http://www.w3.org/1999/xlink" x="0px" y="0px"
	 width="65px" height="65px" viewBox="0 0 65 65" enable-background="new 0 0 65 65" xml:space="preserve">
<g>
	<path fill="#28AF89" d="M24.971,6.754c-0.016,0.199-0.029,0.4-0.029,0.604v49.887c0,4.006,3.248,7.256,7.256,7.256h0.605
		c4.006,0,7.256-3.25,7.256-7.256V7.357c0-0.203-0.014-0.404-0.031-0.604H24.971z"/>
	<path fill="#1B9687" d="M40.059,57.244V7.357c0-0.203-0.014-0.404-0.031-0.604H24.971c-0.016,0.199-0.029,0.4-0.029,0.604"/>
	<path fill="#5DC9A8" d="M41.814,3.826c0,1.836-1.49,3.326-3.328,3.326H26.512c-1.838,0-3.326-1.49-3.326-3.326l0,0
		c0-1.838,1.488-3.326,3.326-3.326h11.975C40.324,0.5,41.814,1.988,41.814,3.826L41.814,3.826z"/>
	<path fill="#5DC9A8" d="M41.814,3.826"/>
	<path fill="#76E2BE" d="M23.186,3.826L23.186,3.826c0-1.838,1.488-3.326,3.326-3.326h11.975"/>
	<path fill="#5DC9A8" d="M30.193,51.623c0,0.342-0.279,0.621-0.621,0.621l0,0c-0.344,0-0.621-0.279-0.621-0.621V11.102
		c0-0.344,0.277-0.621,0.621-0.621l0,0c0.342,0,0.621,0.277,0.621,0.621V51.623z"/>
	<circle fill="#5DC9A8" cx="29.571" cy="52.525" r="1.419"/>
	<g>
		<path fill="#5DC9A8" d="M32.412,12.031c0,0.172-0.141,0.311-0.312,0.311H30.15c-0.172,0-0.311-0.139-0.311-0.311l0,0
			c0-0.172,0.139-0.311,0.311-0.311H32.1C32.271,11.721,32.412,11.859,32.412,12.031L32.412,12.031z"/>
		<path fill="#5DC9A8" d="M31.348,13.562c0,0.172-0.141,0.311-0.312,0.311H30.15c-0.172,0-0.311-0.139-0.311-0.311l0,0
			c0-0.172,0.139-0.311,0.311-0.311h0.885C31.207,13.252,31.348,13.391,31.348,13.562L31.348,13.562z"/>
	</g>
	<g>
		<path fill="#5DC9A8" d="M32.412,15.158c0,0.172-0.141,0.311-0.312,0.311H30.15c-0.172,0-0.311-0.139-0.311-0.311l0,0
			c0-0.172,0.139-0.311,0.311-0.311H32.1C32.271,14.848,32.412,14.986,32.412,15.158L32.412,15.158z"/>
		<path fill="#5DC9A8" d="M31.348,16.689c0,0.17-0.141,0.311-0.312,0.311H30.15c-0.172,0-0.311-0.141-0.311-0.311l0,0
			c0-0.172,0.139-0.312,0.311-0.312h0.885C31.207,16.377,31.348,16.518,31.348,16.689L31.348,16.689z"/>
	</g>
	<g>
		<path fill="#5DC9A8" d="M32.412,18.285c0,0.172-0.141,0.311-0.312,0.311H30.15c-0.172,0-0.311-0.139-0.311-0.311l0,0
			c0-0.172,0.139-0.311,0.311-0.311H32.1C32.271,17.975,32.412,18.113,32.412,18.285L32.412,18.285z"/>
		<path fill="#5DC9A8" d="M31.348,19.816c0,0.17-0.141,0.311-0.312,0.311H30.15c-0.172,0-0.311-0.141-0.311-0.311l0,0
			c0-0.172,0.139-0.312,0.311-0.312h0.885C31.207,19.504,31.348,19.645,31.348,19.816L31.348,19.816z"/>
	</g>
	<g>
		<path fill="#5DC9A8" d="M32.412,21.412c0,0.172-0.141,0.311-0.312,0.311H30.15c-0.172,0-0.311-0.139-0.311-0.311l0,0
			c0-0.172,0.139-0.311,0.311-0.311H32.1C32.271,21.102,32.412,21.24,32.412,21.412L32.412,21.412z"/>
		<path fill="#5DC9A8" d="M31.348,22.941c0,0.172-0.141,0.312-0.312,0.312H30.15c-0.172,0-0.311-0.141-0.311-0.312l0,0
			c0-0.17,0.139-0.311,0.311-0.311h0.885C31.207,22.631,31.348,22.771,31.348,22.941L31.348,22.941z"/>
	</g>
	<g>
		<path fill="#5DC9A8" d="M32.412,24.539c0,0.172-0.141,0.311-0.312,0.311H30.15c-0.172,0-0.311-0.139-0.311-0.311l0,0
			c0-0.172,0.139-0.311,0.311-0.311H32.1C32.271,24.229,32.412,24.367,32.412,24.539L32.412,24.539z"/>
		<path fill="#5DC9A8" d="M31.348,26.068c0,0.172-0.141,0.312-0.312,0.312H30.15c-0.172,0-0.311-0.141-0.311-0.312l0,0
			c0-0.17,0.139-0.311,0.311-0.311h0.885C31.207,25.758,31.348,25.898,31.348,26.068L31.348,26.068z"/>
	</g>
	<g>
		<path fill="#5DC9A8" d="M32.412,27.666c0,0.172-0.141,0.311-0.312,0.311H30.15c-0.172,0-0.311-0.139-0.311-0.311l0,0
			c0-0.172,0.139-0.311,0.311-0.311H32.1C32.271,27.355,32.412,27.494,32.412,27.666L32.412,27.666z"/>
		<path fill="#5DC9A8" d="M31.348,29.195c0,0.172-0.141,0.311-0.312,0.311H30.15c-0.172,0-0.311-0.139-0.311-0.311l0,0
			c0-0.17,0.139-0.311,0.311-0.311h0.885C31.207,28.885,31.348,29.025,31.348,29.195L31.348,29.195z"/>
	</g>
	<g>
		<path fill="#5DC9A8" d="M32.412,30.793c0,0.172-0.141,0.311-0.312,0.311H30.15c-0.172,0-0.311-0.139-0.311-0.311l0,0
			c0-0.172,0.139-0.311,0.311-0.311H32.1C32.271,30.482,32.412,30.621,32.412,30.793L32.412,30.793z"/>
		<path fill="#5DC9A8" d="M31.348,32.322c0,0.172-0.141,0.311-0.312,0.311H30.15c-0.172,0-0.311-0.139-0.311-0.311l0,0
			c0-0.172,0.139-0.311,0.311-0.311h0.885C31.207,32.012,31.348,32.15,31.348,32.322L31.348,32.322z"/>
	</g>
	<g>
		<path fill="#5DC9A8" d="M32.412,33.92c0,0.172-0.141,0.311-0.312,0.311H30.15c-0.172,0-0.311-0.139-0.311-0.311l0,0
			c0-0.172,0.139-0.311,0.311-0.311H32.1C32.271,33.609,32.412,33.748,32.412,33.92L32.412,33.92z"/>
		<path fill="#5DC9A8" d="M31.348,35.449c0,0.172-0.141,0.311-0.312,0.311H30.15c-0.172,0-0.311-0.139-0.311-0.311l0,0
			c0-0.172,0.139-0.311,0.311-0.311h0.885C31.207,35.139,31.348,35.277,31.348,35.449L31.348,35.449z"/>
	</g>
	<g>
		<path fill="#5DC9A8" d="M32.412,37.047c0,0.172-0.141,0.311-0.312,0.311H30.15c-0.172,0-0.311-0.139-0.311-0.311l0,0
			c0-0.172,0.139-0.311,0.311-0.311H32.1C32.271,36.736,32.412,36.875,32.412,37.047L32.412,37.047z"/>
		<path fill="#5DC9A8" d="M31.348,38.576c0,0.172-0.141,0.311-0.312,0.311H30.15c-0.172,0-0.311-0.139-0.311-0.311l0,0
			c0-0.172,0.139-0.311,0.311-0.311h0.885C31.207,38.266,31.348,38.404,31.348,38.576L31.348,38.576z"/>
	</g>
	<g>
		<path fill="#5DC9A8" d="M32.412,40.174c0,0.17-0.141,0.311-0.312,0.311H30.15c-0.172,0-0.311-0.141-0.311-0.311l0,0
			c0-0.172,0.139-0.311,0.311-0.311H32.1C32.271,39.863,32.412,40.002,32.412,40.174L32.412,40.174z"/>
		<path fill="#5DC9A8" d="M31.348,41.703c0,0.172-0.141,0.311-0.312,0.311H30.15c-0.172,0-0.311-0.139-0.311-0.311l0,0
			c0-0.172,0.139-0.311,0.311-0.311h0.885C31.207,41.393,31.348,41.531,31.348,41.703L31.348,41.703z"/>
	</g>
	<g>
		<path fill="#5DC9A8" d="M32.412,43.301c0,0.17-0.141,0.311-0.312,0.311H30.15c-0.172,0-0.311-0.141-0.311-0.311l0,0
			c0-0.172,0.139-0.312,0.311-0.312H32.1C32.271,42.988,32.412,43.129,32.412,43.301L32.412,43.301z"/>
		<path fill="#5DC9A8" d="M31.348,44.83c0,0.172-0.141,0.311-0.312,0.311H30.15c-0.172,0-0.311-0.139-0.311-0.311l0,0
			c0-0.172,0.139-0.311,0.311-0.311h0.885C31.207,44.52,31.348,44.658,31.348,44.83L31.348,44.83z"/>
	</g>
	<g>
		<path fill="#5DC9A8" d="M32.412,46.428c0,0.17-0.141,0.311-0.312,0.311H30.15c-0.172,0-0.311-0.141-0.311-0.311l0,0
			c0-0.172,0.139-0.312,0.311-0.312H32.1C32.271,46.115,32.412,46.256,32.412,46.428L32.412,46.428z"/>
		<path fill="#5DC9A8" d="M31.348,47.957c0,0.172-0.141,0.311-0.312,0.311H30.15c-0.172,0-0.311-0.139-0.311-0.311l0,0
			c0-0.172,0.139-0.311,0.311-0.311h0.885C31.207,47.646,31.348,47.785,31.348,47.957L31.348,47.957z"/>
	</g>
	<g>
		<path fill="#5DC9A8" d="M32.412,49.553c0,0.172-0.141,0.312-0.312,0.312H30.15c-0.172,0-0.311-0.141-0.311-0.312l0,0
			c0-0.17,0.139-0.311,0.311-0.311H32.1C32.271,49.242,32.412,49.383,32.412,49.553L32.412,49.553z"/>
		<path fill="#5DC9A8" d="M31.348,51.084c0,0.172-0.141,0.311-0.312,0.311H30.15c-0.172,0-0.311-0.139-0.311-0.311l0,0
			c0-0.172,0.139-0.311,0.311-0.311h0.885C31.207,50.773,31.348,50.912,31.348,51.084L31.348,51.084z"/>
	</g>
</g>
</svg>
