<?xml version="1.0" encoding="utf-8"?>
<!-- Generator: Adobe Illustrator 16.0.0, SVG Export Plug-In . SVG Version: 6.00 Build 0)  -->
<!DOCTYPE svg PUBLIC "-//W3C//DTD SVG 1.1//EN" "http://www.w3.org/Graphics/SVG/1.1/DTD/svg11.dtd">
<svg version="1.1" id="Layer_1" xmlns="http://www.w3.org/2000/svg" xmlns:xlink="http://www.w3.org/1999/xlink" x="0px" y="0px"
	 width="65px" height="65px" viewBox="0 0 65 65" enable-background="new 0 0 65 65" xml:space="preserve">
<g>
	<path fill="#43A52F" d="M37.358,60h-0.334L32.5,61.219L27.976,60h-0.334c0,0-1.757,1.454-1.339,2.792l1.505-0.358l1.171,2.037
		l0.669-1.157l1.087,0.761l0.502-0.916l1.146,1.146l0.045,0.194l0.073-0.073l0.073,0.074l0.044-0.193l1.146-1.145l0.502,0.92
		l1.086-0.754l0.67,1.172l1.172-2.008l1.503,0.3C39.115,61.454,37.358,60,37.358,60z"/>
	<path fill="#43A52F" d="M32.402,23.784c0,0,1.671-8.443-1.255-18.142c0,0,0.418,7.023-0.251,9.698
		c-0.67,2.675,0.334,3.177,0.585,4.598C31.731,21.36,32.402,23.784,32.402,23.784z"/>
	<path fill="#43A52F" d="M33.102,24.662c0,0-3.178-2.091-3.261-9.698S27.918,0.5,27.918,0.5s2.425,5.017,2.927,8.527
		c0.501,3.512,0.669,9.615,0.669,9.615l1.17,2.341L33.102,24.662z"/>
	<path fill="#43A52F" d="M32.693,25.498c0,0-2.258-5.895,0.752-12.917s7.273-7.649,7.273-7.649s-6.271,2.884-6.521,12.289
		c0,0-0.502,2.258-0.753,4.139S32.693,25.498,32.693,25.498z"/>
	<g>
		<g>
			<path fill="#D84A81" d="M22.688,61.449c4.075,0,7.673-2.057,9.812-5.184c2.14,3.127,5.733,5.184,9.812,5.184
				c6.561,0,12.118-5.326,11.881-11.881c-0.438-12.178-15.768-12.543-20.977-25.816c-0.262-0.673-0.501-0.944-0.717-0.924
				c-0.218-0.021-0.457,0.251-0.719,0.924c-5.207,13.273-20.537,13.639-20.977,25.816C10.568,56.123,16.124,61.449,22.688,61.449z"
				/>
			<path fill="#C63C74" d="M32.501,44.391c-7.889,0-15.063-0.258-20.42,0.104c-0.741,1.455-1.203,3.109-1.275,5.074
				c-0.109,3.057,1.048,5.836,2.972,7.943c1.14,0.324,2.344,0.621,3.608,0.883c0.545,0.055,1.095,0.082,1.649,0.082
				c5.595,0,10.528-2.82,13.466-7.113c2.937,4.293,7.867,7.113,13.465,7.113c0.554,0,1.104-0.029,1.648-0.082
				c1.264-0.262,2.468-0.559,3.604-0.881c1.927-2.107,3.087-4.889,2.976-7.945c-0.07-1.965-0.533-3.619-1.274-5.074
				C47.563,44.133,40.39,44.391,32.501,44.391z"/>
			<path fill="#A82D65" d="M32.501,51.182c-10.298,0-18.931-0.607-21.259,1.875c0.975,3.332,3.482,6.037,6.687,7.41
				c1.091,0.348,2.284,0.656,3.558,0.92c0.396,0.041,0.797,0.062,1.202,0.062c4.075,0,7.673-2.057,9.812-5.184
				c2.14,3.127,5.733,5.184,9.812,5.184c0.404,0,0.806-0.021,1.201-0.062c1.272-0.262,2.464-0.572,3.556-0.918
				c3.203-1.375,5.712-4.08,6.688-7.412C51.428,50.574,42.797,51.182,32.501,51.182z"/>
		</g>
		<ellipse fill="#A82D65" cx="32.5" cy="57.852" rx="9.467" ry="4.766"/>
	</g>
</g>
</svg>
