<?xml version="1.0" encoding="utf-8"?>
<!-- Generator: Adobe Illustrator 16.0.0, SVG Export Plug-In . SVG Version: 6.00 Build 0)  -->
<!DOCTYPE svg PUBLIC "-//W3C//DTD SVG 1.1//EN" "http://www.w3.org/Graphics/SVG/1.1/DTD/svg11.dtd">
<svg version="1.1" id="Layer_1" xmlns="http://www.w3.org/2000/svg" xmlns:xlink="http://www.w3.org/1999/xlink" x="0px" y="0px"
	 width="65px" height="65px" viewBox="0 0 65 65" enable-background="new 0 0 65 65" xml:space="preserve">
<g>
	<path fill="#42892E" d="M49.451,0.586c-0.926-0.301-1.928,0.211-2.221,1.127c-0.299,0.926,0.203,1.92,1.129,2.221
		c3.342,1.092,5.377,4.354,5.062,7.715c-4.703,2.145-8.986,15.616-19.399,26.031c-9.118,9.117-20.577,13.533-24.729,17.649
		c-0.659-0.185-1.404-0.206-2.159-0.025c-2.004,0.483-3.305,2.218-2.904,3.877c0.399,1.659,2.347,2.61,4.354,2.126
		c0.166-0.041,0.32-0.102,0.477-0.158c0.063,0.069,0.114,0.134,0.182,0.203c7.035,7.033,23.582,1.889,36.962-11.49
		C59.582,36.482,64.727,19.934,57.693,12.9c-0.267-0.268-0.527-0.486-0.781-0.681C57.497,7.17,54.469,2.223,49.451,0.586z"/>
	<path fill="#57AF3A" d="M42.953,46.861C56.333,33.482,61.477,16.934,54.443,9.9c-0.267-0.268-0.526-0.486-0.782-0.681
		c0.317-2.738-0.435-5.441-1.983-7.608c-0.689-0.414-1.43-0.766-2.227-1.025c-0.926-0.301-1.928,0.211-2.221,1.127
		c-0.031,0.097-0.049,0.195-0.062,0.293c0.842,0.617,1.523,1.399,2.032,2.286c2.829,1.33,4.507,4.292,4.222,7.356
		c-4.703,2.145-8.986,15.616-19.399,26.031c-9.118,9.117-20.577,13.533-24.729,17.649c-0.659-0.185-1.404-0.206-2.159-0.025
		c-1.695,0.409-2.875,1.716-2.959,3.113c0.377,0.01,0.765-0.016,1.158-0.11c0.166-0.041,0.321-0.102,0.477-0.158
		c0.063,0.069,0.113,0.134,0.183,0.203C13.027,65.385,29.574,60.24,42.953,46.861z"/>
	<g>
		<path fill="#425B36" d="M47.771,27.638c1.954-2.971,2.756-5.895,4.819-4.535c2.064,1.358,2.154,4.868,0.2,7.838
			c-1.954,2.971-5.213,4.276-7.279,2.918C43.449,32.499,45.818,30.607,47.771,27.638z"/>
		<path fill="#263A1E" d="M49.718,28.917c1.955-2.968,0.81-7.174,2.873-5.814c2.064,1.358,2.154,4.868,0.2,7.838
			c-1.954,2.971-5.213,4.276-7.279,2.918C43.449,32.499,47.764,31.888,49.718,28.917z"/>
	</g>
	<g>
		<path fill="#425B36" d="M36.558,41.386c2.523-2.505,3.909-5.201,5.649-3.446c1.741,1.755,1.105,5.208-1.418,7.712
			c-2.525,2.504-5.981,3.111-7.725,1.356C31.326,45.252,34.033,43.889,36.558,41.386z"/>
		<path fill="#263A1E" d="M38.197,43.038c2.525-2.502,2.27-6.854,4.01-5.099c1.741,1.755,1.105,5.208-1.418,7.712
			c-2.525,2.504-5.981,3.111-7.725,1.356C31.326,45.252,35.674,45.543,38.197,43.038z"/>
	</g>
	<g>
		<path fill="#425B36" d="M23.085,51.972c3.028-1.861,4.993-4.17,6.288-2.063c1.293,2.106-0.114,5.323-3.145,7.185
			c-3.029,1.859-6.533,1.661-7.828-0.445C17.109,54.54,20.055,53.832,23.085,51.972z"/>
		<path fill="#263A1E" d="M24.305,53.956c3.029-1.859,3.773-6.154,5.068-4.048c1.293,2.106-0.114,5.323-3.145,7.185
			c-3.029,1.859-6.533,1.661-7.828-0.445C17.109,54.54,21.274,55.817,24.305,53.956z"/>
	</g>
</g>
</svg>
