<?xml version="1.0" encoding="utf-8"?>
<!-- Generator: Adobe Illustrator 16.0.0, SVG Export Plug-In . SVG Version: 6.00 Build 0)  -->
<!DOCTYPE svg PUBLIC "-//W3C//DTD SVG 1.1//EN" "http://www.w3.org/Graphics/SVG/1.1/DTD/svg11.dtd">
<svg version="1.1" id="Layer_1" xmlns="http://www.w3.org/2000/svg" xmlns:xlink="http://www.w3.org/1999/xlink" x="0px" y="0px"
	 width="65px" height="65px" viewBox="0 0 65 65" enable-background="new 0 0 65 65" xml:space="preserve">
<g>
	<path fill="#B6B784" d="M50.951,5.426c0,2.828-8.26,5.121-18.451,5.121c-10.192,0-18.451-2.293-18.451-5.121
		c0-2.83,8.259-4.443,18.451-4.443C42.691,0.982,50.951,2.596,50.951,5.426z"/>
	<path fill="#28AF89" d="M54,56.787C54,60.78,51.102,64,47.11,64H17.89C13.897,64,11,60.78,11,56.787V17.926
		C11,13.935,13.897,11,17.89,11H47.11c3.992,0,6.89,2.935,6.89,6.926V56.787z"/>
	<path fill="#1A9684" d="M10.659,18.077c0-3.991,3.238-7.077,7.23-7.077H47.11c3.992,0,6.89,2.935,6.89,6.926v38.861
		c0,3.993-3.068,7.307-7.06,7.307"/>
	<path fill="#1A9684" d="M10.659,18.077c0-3.991,3.238-7.077,7.23-7.077H47.11c3.992,0,6.89,2.935,6.89,6.926v38.861
		c0,3.993-3.068,7.307-7.06,7.307"/>
	<path fill="#B6B784" d="M56.5,17.524c0,6.267-38.761-5.623-42.978,5.824C8.939,35.786,8.5,23.791,8.5,17.524
		c0-3.808,3.968-7.178,10.055-9.236c3.931-1.329,8.642,0.2,13.844,0.2c5.527,0,10.72-1.427,14.777,0.058
		C52.848,10.622,56.5,13.871,56.5,17.524z"/>
	<path fill="#C2C693" d="M26.025,15.216c11.354,0,24.366,2.4,30.412,1.525c-0.479-3.332-3.998-6.27-9.261-8.195
		c-4.057-1.484-9.25-0.058-14.777-0.058c-5.202,0-9.913-1.529-13.844-0.2c-5.721,1.936-9.566,5.025-10.01,8.551
		C12.049,16.489,17.739,15.216,26.025,15.216z"/>
	<circle fill="#1A9684" cx="29.563" cy="54.753" r="5.347"/>
	<circle fill="#1A9684" cx="17.212" cy="55.056" r="2.937"/>
	<circle fill="#28AF89" cx="41.01" cy="24.931" r="1.582"/>
	<circle fill="#0D7D7F" cx="43.721" cy="46.018" r="2.937"/>
	<path fill="#1A9684" d="M25.386,35.634c-4.227,3.947-6.427,8.458-8.217,6.542c-1.788-1.914,0.187-6.665,4.411-10.612
		c4.224-3.947,9.1-5.595,10.887-3.683C34.257,29.797,29.609,31.688,25.386,35.634z"/>
	<path fill="#1A9684" d="M20.968,27.541c-3.59,2.311-5.783,5.298-6.833,3.672c-1.046-1.627,1.015-4.82,4.604-7.131
		c3.59-2.311,7.348-2.864,8.394-1.241C28.181,24.469,24.556,25.23,20.968,27.541z"/>
	<path fill="#1A9684" d="M35.399,41.263c-6.055,3.519-9.874,8.25-11.473,5.503c-1.593-2.743,2.023-7.823,8.079-11.342
		c6.06-3.519,12.262-4.146,13.857-1.402C47.457,36.769,41.456,37.744,35.399,41.263z"/>
	<path fill="#0D7D7F" d="M21.58,31.563c-0.026,0.024-0.051,0.05-0.078,0.075l3.475,4.392c0.134-0.133,0.268-0.264,0.409-0.396
		c4.223-3.945,8.871-5.837,7.081-7.753C30.68,25.969,25.804,27.616,21.58,31.563z"/>
	<path fill="#0D7D7F" d="M18.739,24.082c-0.74,0.477-1.412,0.992-2.007,1.521l2.505,3.166c0.537-0.411,1.113-0.831,1.732-1.229
		c3.588-2.311,7.213-3.072,6.165-4.7C26.086,21.218,22.329,21.771,18.739,24.082z"/>
	<path fill="#0D7D7F" d="M32.005,35.424c-1.826,1.062-3.426,2.269-4.735,3.507l4.004,5.063c1.235-0.896,2.611-1.853,4.125-2.731
		c6.057-3.519,12.058-4.494,10.464-7.241C44.267,31.278,38.065,31.905,32.005,35.424z"/>
	<circle fill="#28AF89" cx="31.672" cy="21.768" r="0.527"/>
	<circle fill="#28AF89" cx="36.642" cy="24.931" r="1.129"/>
	<circle fill="#28AF89" cx="50.123" cy="27.115" r="1.205"/>
	<circle fill="#1A9684" cx="15.028" cy="45.793" r="1.054"/>
	<circle fill="#0D7D7F" cx="44.324" cy="54.151" r="0.678"/>
	<circle fill="#0D7D7F" cx="50.65" cy="52.043" r="1.431"/>
	<path fill="#D7DDAB" d="M42.185,13.446c0,0.769-5.752,0.244-12.849,0.244c-7.095,0-12.847,0.524-12.847-0.244
		c0-0.77,5.752-1.394,12.847-1.394C36.433,12.053,42.185,12.677,42.185,13.446z"/>
	<circle fill="#D7DDAB" cx="46.357" cy="14.236" r="0.979"/>
	<circle fill="#D7DDAB" cx="49.52" cy="15.065" r="0.528"/>
	<path fill="#7F6849" d="M50.349,8.501c0,0.666-0.54,1.499-1.206,1.499H15.856c-0.666,0-1.206-0.833-1.206-1.499l0,0
		C14.651,7.833,15.19,7,15.856,7h33.287C49.81,7,50.349,7.833,50.349,8.501L50.349,8.501z"/>
	<path fill="#634C32" d="M50.349,8.501c0,0.666-0.54,1.499-1.206,1.499H15.856c-0.666,0-1.206-0.833-1.206-1.499l0,0
		C14.651,7.833,15.19,7,15.856,7h33.287C49.81,7,50.349,7.833,50.349,8.501L50.349,8.501z"/>
	<path fill="#7F6849" d="M49.144,7H15.856c-0.491,0-1.013,0.531-1.097,1c0.188,0.42,0.606,1,1.097,1h33.287
		c0.491,0,0.908-0.58,1.097-1C50.125,7.516,49.634,7,49.144,7z"/>
	<path fill="#C2C693" d="M47.162,3.92c0,0.692-6.565,0.452-14.662,0.452S17.838,4.612,17.838,3.92S24.403,1.861,32.5,1.861
		S47.162,3.228,47.162,3.92z"/>
</g>
</svg>
