<?xml version="1.0" encoding="utf-8"?>
<!-- Generator: Adobe Illustrator 16.0.0, SVG Export Plug-In . SVG Version: 6.00 Build 0)  -->
<!DOCTYPE svg PUBLIC "-//W3C//DTD SVG 1.1//EN" "http://www.w3.org/Graphics/SVG/1.1/DTD/svg11.dtd">
<svg version="1.1" id="Layer_1" xmlns="http://www.w3.org/2000/svg" xmlns:xlink="http://www.w3.org/1999/xlink" x="0px" y="0px"
	 width="65px" height="65px" viewBox="0 0 65 65" enable-background="new 0 0 65 65" xml:space="preserve">
<g>
	<g>
		<g>
			<g>
				<path fill="#F25595" d="M2.413,28.69c2.242,3.756,5.65-1.525,11.617-5.088c5.969-3.559,12.236-4.051,9.996-7.807
					c-2.24-3.752-8.895-3.912-14.863-0.352C3.196,19.007,0.173,24.937,2.413,28.69z"/>
				<path fill="#DD4389" d="M10.265,18.556c-4.725,2.82-7.592,7.123-7.475,10.658c2.244,2.652,5.598-2.242,11.24-5.611
					c4.621-2.756,9.402-3.678,10.295-5.695C21.565,15.169,15.642,15.349,10.265,18.556z"/>
			</g>
		</g>
		<g>
			<g>
				<path fill="#F25595" d="M62.587,28.69c-2.24,3.756-5.65-1.525-11.617-5.088c-5.967-3.559-12.236-4.051-9.996-7.807
					c2.24-3.752,8.895-3.912,14.863-0.352C61.804,19.007,64.827,24.937,62.587,28.69z"/>
				<path fill="#DD4389" d="M54.737,18.556c4.725,2.82,7.59,7.123,7.473,10.658c-2.244,2.652-5.596-2.242-11.24-5.611
					c-4.619-2.756-9.402-3.678-10.293-5.695C43.437,15.169,49.358,15.349,54.737,18.556z"/>
			</g>
		</g>
	</g>
	<g>
		<g>
			<path fill="#FF80BA" d="M62.08,36.718c0,12.031-13.243,15.408-29.579,15.408s-29.58-3.377-29.58-15.408
				c0-12.033,13.244-21.787,29.58-21.787S62.08,24.685,62.08,36.718z"/>
			<path fill="#F25595" d="M62.08,36.718c0,12.031-13.243,15.408-29.579,15.408s-29.58-3.377-29.58-15.408
				c0-12.033,13.244-18.762,29.58-18.762S62.08,24.685,62.08,36.718z"/>
			<path fill="#DD4389" d="M62.08,36.718c0,12.031-13.243,15.408-29.579,15.408s-29.58-3.377-29.58-15.408
				c0-12.033,13.244-5.492,29.58-5.492S62.08,24.685,62.08,36.718z"/>
			<g>
				<circle fill="#082856" cx="20.811" cy="34.413" r="2.657"/>
				<circle fill="#082856" cx="44.191" cy="34.413" r="2.657"/>
			</g>
			<g>
				<path d="M23.468,34.413c0,1.469-1.189,2.658-2.657,2.658s-2.657-1.189-2.657-2.658"/>
				<path d="M46.848,34.413c0,1.469-1.189,2.658-2.656,2.658c-1.468,0-2.657-1.189-2.657-2.658"/>
			</g>
		</g>
		<g>
			<path fill="#E276B7" d="M22.804,40.854c0-3.943,4.34-5.051,9.697-5.051c5.355,0,9.697,1.107,9.697,5.051
				c0,3.945-4.342,7.145-9.697,7.145C27.144,47.999,22.804,44.8,22.804,40.854z"/>
			<path fill="#F28FC5" d="M22.804,40.854c0-3.943,4.34-5.051,9.697-5.051c5.355,0,9.697,1.107,9.697,5.051
				c0,3.945-4.342,6.152-9.697,6.152C27.144,47.007,22.804,44.8,22.804,40.854z"/>
			<path fill="#FFA4D2" d="M22.804,40.854c0-3.943,4.34-5.051,9.697-5.051c5.355,0,9.697,1.107,9.697,5.051
				c0,3.945-4.342,1.803-9.697,1.803C27.144,42.657,22.804,44.8,22.804,40.854z"/>
			<g>
				<circle fill="#DD4389" cx="36.333" cy="41.61" r="0.871"/>
				<circle fill="#DD4389" cx="28.669" cy="41.61" r="0.871"/>
			</g>
			<g>
				<path fill="#BA2A79" d="M35.462,41.61c0-0.48,0.391-0.871,0.873-0.871c0.48,0,0.869,0.391,0.869,0.871"/>
				<path fill="#BA2A79" d="M27.798,41.61c0-0.48,0.389-0.871,0.871-0.871c0.48,0,0.871,0.391,0.871,0.871"/>
			</g>
		</g>
	</g>
</g>
</svg>
