<?xml version="1.0" encoding="utf-8"?>
<!-- Generator: Adobe Illustrator 16.0.0, SVG Export Plug-In . SVG Version: 6.00 Build 0)  -->
<!DOCTYPE svg PUBLIC "-//W3C//DTD SVG 1.1//EN" "http://www.w3.org/Graphics/SVG/1.1/DTD/svg11.dtd">
<svg version="1.1" id="Layer_1" xmlns="http://www.w3.org/2000/svg" xmlns:xlink="http://www.w3.org/1999/xlink" x="0px" y="0px"
	 width="65px" height="65px" viewBox="0 0 65 65" enable-background="new 0 0 65 65" xml:space="preserve">
<g>
	<path fill="#6D4417" d="M63.5,59.297c0,1.626-1.32,2.947-2.947,2.947H4.541c-1.627,0-2.949-1.32-2.949-2.947V31.782
		c0-1.628,1.322-2.947,2.949-2.947h56.012c1.627,0,2.947,1.319,2.947,2.947V59.297z"/>
	<path fill="#825930" d="M1.5,31.491h61.849c-0.147-1.489-1.391-2.657-2.917-2.657H4.419C2.891,28.834,1.65,30.002,1.5,31.491z"/>
	<circle fill="#CE8C4A" cx="32.425" cy="48.54" r="12.252"/>
	<rect x="30.49" y="28.834" fill="#CE8C4A" width="3.869" height="9.512"/>
	<rect x="30.49" y="28.834" fill="#E29E60" width="3.869" height="2.657"/>
	<g>
		<path fill="#518E38" d="M31.9,48.015c-2.892,2.892-4.616,5.859-6.488,3.987c-1.872-1.873-1.047-5.738,1.847-8.629
			c2.891-2.892,6.758-3.717,8.63-1.845C37.761,43.401,34.79,45.124,31.9,48.015z"/>
		<path fill="#3D7026" d="M35.889,41.528c1.872,1.873-1.099,3.595-3.988,6.487c-2.892,2.892-4.616,5.859-6.488,3.987"/>
		<path fill="#3D7026" d="M32.951,49.067c2.893-2.893,4.614-5.859,6.486-3.987c1.872,1.873,1.047,5.736-1.845,8.628
			c-2.89,2.891-6.757,3.717-8.629,1.845C27.092,53.68,30.06,51.957,32.951,49.067z"/>
	</g>
	<path fill="#A7C997" d="M31.801,41.424c0.472,0.473-1.156,1.499-2.793,3.137c-1.637,1.636-2.662,3.265-3.137,2.792
		c-0.473-0.472,0.475-2.182,2.109-3.818C29.62,41.897,31.327,40.952,31.801,41.424z"/>
	<circle fill="#A7C997" cx="32.813" cy="41.448" r="0.322"/>
	<path fill="#518E38" d="M33.513,29.719c0,0.601-0.487,0.442-1.088,0.442l0,0c-0.601,0-1.088,0.158-1.088-0.442V13.475
		c0-0.601,0.487-1.088,1.088-1.088l0,0c0.601,0,1.088,0.487,1.088,1.088V29.719z"/>
	<path fill="#366620" d="M32.425,12.387c-0.601,0-1.088,0.487-1.088,1.088v8.747c0,0.601,0.487,0.443,1.088,0.443
		s1.088,0.158,1.088-0.443v-8.747C33.513,12.875,33.025,12.387,32.425,12.387z"/>
	<g>
		<g>
			<path fill="#518E38" d="M32.415,13.234c0,0,0.544-7.618-6.952-8.344c-7.496-0.725-8.442-2.134-8.442-2.134
				s-1.23,18.035,15.315,12.896L32.415,13.234z"/>
			<path fill="#65AF43" d="M32.409,12.383c-0.113-2.001-0.99-6.917-6.946-7.493c-7.496-0.725-8.442-2.134-8.442-2.134
				s-0.01,0.147-0.016,0.403C17.984,5.896,22.528,16.575,32.409,12.383z"/>
		</g>
		<g>
			<path fill="#518E38" d="M32.435,13.234c0,0-0.543-7.618,6.952-8.344c7.497-0.725,8.445-2.134,8.445-2.134
				s1.228,18.035-15.315,12.896L32.435,13.234z"/>
			<path fill="#65AF43" d="M32.443,12.383c0.111-2.001,0.991-6.917,6.943-7.493c7.497-0.725,8.445-2.134,8.445-2.134
				s0.009,0.147,0.017,0.403C46.868,5.896,42.325,16.575,32.443,12.383z"/>
		</g>
	</g>
	<path fill="#518E38" d="M32.698,16.447c0,0.15-0.121,0.272-0.273,0.272l0,0c-0.148,0-0.271-0.122-0.271-0.272v-3.144
		c0-0.15,0.122-0.272,0.271-0.272l0,0c0.152,0,0.273,0.122,0.273,0.272V16.447z"/>
	<circle fill="#825930" cx="13.064" cy="38.223" r="1.935"/>
	<circle fill="#825930" cx="7.986" cy="35.401" r="0.726"/>
	<circle fill="#825930" cx="21.61" cy="35.805" r="1.128"/>
	<circle fill="#825930" cx="8.632" cy="47.17" r="1.854"/>
	<circle fill="#825930" cx="45.227" cy="35.08" r="0.887"/>
	<path fill="#825930" d="M54.336,42.737c0,0.445-0.362,0.806-0.805,0.806c-0.447,0-0.808-0.361-0.808-0.806
		c0-0.445,0.36-0.807,0.808-0.807C53.974,41.93,54.336,42.292,54.336,42.737z"/>
	<circle fill="#825930" cx="54.982" cy="36.934" r="1.934"/>
	<circle fill="#825930" cx="49.017" cy="39.835" r="0.806"/>
	<circle fill="#825930" cx="59.657" cy="40.963" r="0.967"/>
	<circle fill="#825930" cx="51.354" cy="48.461" r="1.854"/>
	<circle fill="#825930" cx="39.586" cy="34.596" r="0.726"/>
</g>
</svg>
