<?xml version="1.0" encoding="utf-8"?>
<!-- Generator: Adobe Illustrator 16.0.0, SVG Export Plug-In . SVG Version: 6.00 Build 0)  -->
<!DOCTYPE svg PUBLIC "-//W3C//DTD SVG 1.1//EN" "http://www.w3.org/Graphics/SVG/1.1/DTD/svg11.dtd">
<svg version="1.1" id="Layer_1" xmlns="http://www.w3.org/2000/svg" xmlns:xlink="http://www.w3.org/1999/xlink" x="0px" y="0px"
	 width="65px" height="65px" viewBox="0 0 65 65" enable-background="new 0 0 65 65" xml:space="preserve">
<g>
	<g>
		<ellipse fill="#76A32F" cx="32.499" cy="25.587" rx="15.878" ry="8.32"/>
		<path fill="#E56107" d="M51.459,52.172c0,4.818-8.49,10.653-18.959,10.653c-10.472,0-18.959-5.835-18.959-10.653
			c0-4.821,8.487-8.725,18.959-8.725C42.969,43.447,51.459,47.351,51.459,52.172z"/>
		<g>
			<g>
				<path fill="#FF8C1A" d="M20.295,40.097c0,10.535,7.327,19.075-2.145,19.075C8.677,59.172,1,50.632,1,40.097
					c0-10.536,7.677-19.076,17.15-19.076C27.622,21.021,20.295,29.561,20.295,40.097z"/>
				<path fill="#FF7415" d="M20.295,40.097c0,10.535,7.327,19.075-2.145,19.075C8.677,59.172,1,50.632,1,40.097"/>
				<path fill="#E56107" d="M7.835,40.097c0,9.082,5.709,16.665,13.354,18.591c4.525-1.941-0.894-9.524-0.894-18.591
					c0-9.067,5.419-16.651,0.894-18.589C13.544,23.432,7.835,31.014,7.835,40.097z"/>
			</g>
			<g>
				<path fill="#FF8C1A" d="M44.705,40.098c0-10.536-7.329-19.077,2.144-19.077C56.322,21.021,64,29.562,64,40.098
					c0,10.534-7.678,19.074-17.151,19.074C37.376,59.172,44.705,50.632,44.705,40.098z"/>
				<path fill="#FF7415" d="M64,40.098c0,10.534-7.678,19.074-17.151,19.074c-9.473,0-2.144-8.54-2.144-19.074"/>
				<path fill="#E56107" d="M57.166,40.098c0-9.083-5.711-16.666-13.355-18.59c-4.524,1.938,0.895,9.522,0.895,18.59
					c0,9.067-5.419,16.652-0.895,18.59C51.455,56.762,57.166,49.179,57.166,40.098z"/>
			</g>
		</g>
		<ellipse fill="#FF8C1A" cx="32.5" cy="40.427" rx="17.586" ry="20.166"/>
		<path fill="#FF7415" d="M14.913,40.427c0,11.136,7.873,20.166,17.587,20.166s17.586-9.03,17.586-20.166"/>
	</g>
	<path fill="none" stroke="#F68C23" stroke-width="2" stroke-miterlimit="10" d="M29.389,7.133"/>
	<path fill="none" stroke="#F68C23" stroke-width="2" stroke-miterlimit="10" d="M33.209,2.351"/>
	<g>
		<path fill="#76A32F" d="M29.431,19.399c-0.284,0-0.57-0.108-0.787-0.325c-3.982-3.982-3.982-10.462,0-14.445
			c3.272-3.271,8.598-3.273,11.872,0c2.704,2.704,2.704,7.105-0.001,9.811c-2.251,2.25-5.913,2.25-8.164,0
			c-1.885-1.887-1.884-4.958,0.003-6.844c0.434-0.435,1.138-0.435,1.571,0c0.435,0.434,0.435,1.137,0,1.571
			c-1.021,1.021-1.022,2.682-0.002,3.702c1.384,1.385,3.636,1.382,5.021,0c1.838-1.839,1.839-4.831,0.001-6.668
			c-2.407-2.404-6.323-2.404-8.729,0C27.1,9.316,27.1,14.387,30.216,17.502c0.433,0.434,0.433,1.137,0,1.571
			C29.999,19.291,29.714,19.399,29.431,19.399z"/>
	</g>
</g>
</svg>
