<?xml version="1.0" encoding="utf-8"?>
<!-- Generator: Adobe Illustrator 16.0.0, SVG Export Plug-In . SVG Version: 6.00 Build 0)  -->
<!DOCTYPE svg PUBLIC "-//W3C//DTD SVG 1.1//EN" "http://www.w3.org/Graphics/SVG/1.1/DTD/svg11.dtd">
<svg version="1.1" id="Layer_1" xmlns="http://www.w3.org/2000/svg" xmlns:xlink="http://www.w3.org/1999/xlink" x="0px" y="0px"
	 width="65px" height="65px" viewBox="0 0 65 65" enable-background="new 0 0 65 65" xml:space="preserve">
<g>
	<g>
		<path fill="#ACE8E6" d="M62.08,40.57c0,12.031-13.243,15.408-29.579,15.408S2.92,52.602,2.92,40.57
			c0-12.033,13.244-21.787,29.58-21.787S62.08,28.537,62.08,40.57z"/>
		<path fill="#8ED6D6" d="M62.08,40.57c0,12.031-13.243,15.408-29.579,15.408S2.92,52.602,2.92,40.57
			c0-12.033,13.244-18.762,29.58-18.762S62.08,28.537,62.08,40.57z"/>
		<path fill="#76C1BF" d="M62.08,40.57c0,12.031-13.243,15.408-29.579,15.408S2.92,52.602,2.92,40.57
			c0-12.033,13.244-5.492,29.58-5.492S62.08,28.537,62.08,40.57z"/>
		<g>
			<circle fill="#082856" cx="20.81" cy="42.266" r="2.657"/>
			<circle fill="#082856" cx="44.19" cy="42.266" r="2.657"/>
		</g>
		<g>
			<path d="M23.467,42.266c0,1.469-1.189,2.658-2.657,2.658s-2.657-1.189-2.657-2.658"/>
			<path d="M46.847,42.266c0,1.469-1.189,2.658-2.656,2.658c-1.468,0-2.657-1.189-2.657-2.658"/>
		</g>
	</g>
	<g>
		<g>
			<g>
				<path fill="#8ED6D6" d="M1.466,10.686c-3.059,3.127,2.917,5.072,7.888,9.93c4.967,4.861,7.044,10.795,10.103,7.67
					c3.056-3.125,1.509-9.6-3.459-14.459C11.029,8.967,4.523,7.561,1.466,10.686z"/>
				<path fill="#DD4389" d="M13.27,15.686c-3.934-3.848-8.825-5.52-12.214-4.502c-1.99,2.848,3.6,4.838,8.298,9.432
					c3.845,3.764,5.959,8.15,8.138,8.498C19.432,25.746,17.746,20.064,13.27,15.686z"/>
				<path fill="#9B1B61" d="M11.27,17.686c3.214,3.145,6.069,6.969,6.096,10.117l0.126,1.311c1.94-3.367,0.254-9.049-4.222-13.428
					c-3.934-3.848-8.825-5.52-12.214-4.502"/>
			</g>
		</g>
		<g>
			<g>
				<path fill="#8ED6D6" d="M63.534,10.686c3.06,3.127-2.917,5.072-7.887,9.93c-4.966,4.861-7.044,10.795-10.103,7.67
					c-3.056-3.125-1.509-9.6,3.458-14.459C53.972,8.967,60.478,7.561,63.534,10.686z"/>
				<path fill="#DD4389" d="M51.73,15.686c3.934-3.848,8.826-5.52,12.215-4.502c1.99,2.848-3.6,4.838-8.298,9.432
					c-3.845,3.764-5.959,8.15-8.138,8.498C45.569,25.746,47.254,20.064,51.73,15.686z"/>
				<path fill="#9B1B61" d="M53.73,17.686c-3.214,3.145-6.068,6.969-6.096,10.117l-0.125,1.311
					c-1.94-3.367-0.255-9.049,4.221-13.428c3.934-3.848,8.826-5.52,12.215-4.502"/>
			</g>
		</g>
	</g>
	<path fill="#B7257C" d="M38.199,45.141c0,1.617-2.552,4.078-5.698,4.078c-3.148,0-5.698-2.461-5.698-4.078s2.55-1.463,5.698-1.463
		C35.647,43.678,38.199,43.523,38.199,45.141z"/>
	<path fill="#9B1B61" d="M38.199,45.141c0,1.617-2.552,4.078-5.698,4.078c-3.148,0-5.698-2.461-5.698-4.078s2.55,0.453,5.698,0.453
		C35.647,45.594,38.199,43.523,38.199,45.141z"/>
	<path fill="#EBF0F2" d="M32.5,52.846c-1.278,0-2.5-0.047-3.5-0.125v0.781c0,1.064,0.788,1.928,1.853,1.928
		c0.758,0,1.371-0.443,1.686-1.082c0.314,0.639,0.871,1.082,1.63,1.082c1.062,0,1.832-0.863,1.832-1.928v-0.781
		C35,52.799,33.778,52.846,32.5,52.846z"/>
</g>
</svg>
