<?xml version="1.0" encoding="utf-8"?>
<!-- Generator: Adobe Illustrator 16.0.0, SVG Export Plug-In . SVG Version: 6.00 Build 0)  -->
<!DOCTYPE svg PUBLIC "-//W3C//DTD SVG 1.1//EN" "http://www.w3.org/Graphics/SVG/1.1/DTD/svg11.dtd">
<svg version="1.1" id="Layer_1" xmlns="http://www.w3.org/2000/svg" xmlns:xlink="http://www.w3.org/1999/xlink" x="0px" y="0px"
	 width="65px" height="65px" viewBox="0 0 65 65" enable-background="new 0 0 65 65" xml:space="preserve">
<g>
	<path fill="#7FAD8F" d="M44.579,16.956c-5.018,0-9.444,2.531-12.079,6.382c-2.635-3.851-7.059-6.382-12.08-6.382
		c-8.076,0-14.918,6.556-14.625,14.627c0.539,14.988,19.411,15.439,25.822,31.779c0.323,0.828,0.616,1.162,0.883,1.137
		c0.268,0.025,0.562-0.309,0.885-1.137c6.409-16.34,25.28-16.791,25.82-31.779C59.498,23.512,52.659,16.956,44.579,16.956z"/>
	<path fill="#91BCA2" d="M32.5,37.954c9.71,0,18.542,0.32,25.135-0.127c0.914-1.789,1.482-3.826,1.57-6.244
		c0.137-3.764-1.289-7.187-3.657-9.779c-1.402-0.399-2.885-0.764-4.442-1.088c-0.67-0.067-1.347-0.103-2.03-0.103
		c-6.886,0-12.96,3.473-16.575,8.757c-3.615-5.284-9.686-8.757-16.575-8.757c-0.684,0-1.361,0.037-2.03,0.103
		c-1.556,0.323-3.039,0.688-4.438,1.086c-2.37,2.594-3.798,6.017-3.661,9.781c0.087,2.418,0.656,4.455,1.569,6.244
		C13.958,38.274,22.789,37.954,32.5,37.954z"/>
	<path fill="#A7C6B6" d="M32.5,29.594c12.676,0,23.302,0.749,26.169-2.309c-1.2-4.1-4.287-7.429-8.23-9.119
		c-1.345-0.429-2.812-0.809-4.38-1.135c-0.487-0.049-0.981-0.075-1.479-0.075c-5.018,0-9.444,2.531-12.079,6.382
		c-2.635-3.851-7.059-6.382-12.08-6.382c-0.497,0-0.991,0.027-1.479,0.075c-1.565,0.325-3.033,0.705-4.376,1.134
		c-3.944,1.689-7.032,5.021-8.234,9.121C9.2,30.343,19.825,29.594,32.5,29.594z"/>
	<g>
		<path fill="#BFD8CC" d="M28.334,23.116c0,2.31-3.274,0.091-7.314,0.091c-4.038,0-7.312,2.219-7.312-0.091
			c0-2.308,3.274-4.179,7.312-4.179C25.06,18.938,28.334,20.809,28.334,23.116z"/>
		<circle fill="#BFD8CC" cx="11.225" cy="24.597" r="1.175"/>
		<circle fill="#BFD8CC" cx="9.462" cy="26.752" r="0.392"/>
	</g>
	<g>
		<path fill="#BFD8CC" d="M52.019,23.116c0,2.31-3.275,0.091-7.313,0.091c-4.04,0-7.314,2.219-7.314-0.091
			c0-2.308,3.274-4.179,7.314-4.179C48.743,18.938,52.019,20.809,52.019,23.116z"/>
		<circle fill="#BFD8CC" cx="34.909" cy="24.597" r="1.176"/>
		<circle fill="#BFD8CC" cx="33.146" cy="26.752" r="0.392"/>
	</g>
	<g>
		<g>
			<g>
				<path fill="#2F7745" d="M32.486,23.338c0,0,1.475-16.914-7.801-20.925c-6.17-2.671-5.626,5.158-2.188,6.409
					c0,0-5.918-4.273-7.485-0.421c-1.257,3.09,3.266,5.11,6.702,5.11c0,0-6.115-0.996-6.096,1.564
					c0.015,1.899,1.562,2.501,7.191,1.874C28.438,16.326,32.486,23.338,32.486,23.338z"/>
				<path fill="#3D9955" d="M24.686,2.413c-2.106-0.912-3.43-0.599-4.122,0.258c0.131,2.01,4.899,4.097,7.706,8.996
					c1.724,3.006,1.671,7.358,2.644,9.491c1.005,1.197,1.573,2.18,1.573,2.18S33.961,6.424,24.686,2.413z"/>
			</g>
			<g>
				<path fill="#2F7745" d="M32.515,23.338c0,0-1.476-16.914,7.8-20.925c6.169-2.671,5.626,5.158,2.188,6.409
					c0,0,5.918-4.273,7.484-0.421c1.258,3.09-3.265,5.11-6.702,5.11c0,0,6.115-0.996,6.096,1.564
					c-0.015,1.899-1.562,2.501-7.19,1.874C36.562,16.326,32.515,23.338,32.515,23.338z"/>
				<path fill="#3D9955" d="M40.314,2.413c2.105-0.912,3.43-0.599,4.121,0.258c-0.13,2.01-4.898,4.097-7.705,8.996
					c-1.724,3.006-1.671,7.358-2.645,9.491c-1.004,1.197-1.571,2.18-1.571,2.18S31.039,6.424,40.314,2.413z"/>
			</g>
		</g>
		<g>
			<circle fill="#2F7745" cx="32.5" cy="2.633" r="2.133"/>
			<path fill="#3D9955" d="M34.633,2.633c0,1.178-0.955,0.283-2.133,0.283s-2.133,0.895-2.133-0.283S31.322,0.5,32.5,0.5
				S34.633,1.455,34.633,2.633z"/>
		</g>
		<g>
			<circle fill="#2F7745" cx="32.5" cy="7.046" r="1.142"/>
			<path fill="#3D9955" d="M33.642,7.046c0,0.631-0.511,0.151-1.142,0.151s-1.142,0.479-1.142-0.151s0.511-1.143,1.142-1.143
				S33.642,6.415,33.642,7.046z"/>
		</g>
	</g>
</g>
</svg>
