<?xml version="1.0" encoding="utf-8"?>
<!-- Generator: Adobe Illustrator 16.0.0, SVG Export Plug-In . SVG Version: 6.00 Build 0)  -->
<!DOCTYPE svg PUBLIC "-//W3C//DTD SVG 1.1//EN" "http://www.w3.org/Graphics/SVG/1.1/DTD/svg11.dtd">
<svg version="1.1" id="Layer_1" xmlns="http://www.w3.org/2000/svg" xmlns:xlink="http://www.w3.org/1999/xlink" x="0px" y="0px"
	 width="65px" height="65px" viewBox="0 0 65 65" enable-background="new 0 0 65 65" xml:space="preserve">
<g>
	<g>
		<path fill="#92A4A5" d="M55.949,26.693c0,12.951-10.5,19.076-23.449,19.076c-12.95,0-23.449-6.125-23.449-19.076
			c0-12.95,10.499-19.321,23.449-19.321C45.449,7.372,55.949,13.743,55.949,26.693z"/>
		<path fill="#C7D2D3" d="M55.949,26.693c0,12.951-10.5,16.295-23.449,16.295c-12.95,0-23.449-3.344-23.449-16.295
			c0-12.95,10.499-23.449,23.449-23.449C45.449,3.244,55.949,13.743,55.949,26.693z"/>
		<path fill="#AEB9BA" d="M55.949,26.693c0,12.951-10.5,16.295-23.449,16.295c-12.95,0-23.449-3.344-23.449-16.295
			c0-12.95,10.499-19.321,23.449-19.321C45.449,7.372,55.949,13.743,55.949,26.693z"/>
		<g>
			<path fill="#AEB9BA" d="M32.471,31.879c0,8.828-7.155,11.108-15.984,11.108c-8.83,0-15.986-2.28-15.986-11.108
				s7.156-15.985,15.986-15.985C25.315,15.894,32.471,23.051,32.471,31.879z"/>
			<path fill="#AEB9BA" d="M64.5,31.879c0,8.828-7.156,11.108-15.986,11.108s-15.985-2.28-15.985-11.108s7.155-15.985,15.985-15.985
				S64.5,23.051,64.5,31.879z"/>
		</g>
		<g>
			<g>
				<path fill="#09516D" d="M25.113,21.424c0,1.718-1.395,1.556-3.111,1.556s-3.108,0.162-3.108-1.556
					c0-1.717,1.392-3.108,3.108-3.108S25.113,19.708,25.113,21.424z"/>
				<path fill="#082130" d="M25.113,21.424c0,1.718-1.395,1.556-3.111,1.556s-3.108,0.162-3.108-1.556
					c0-1.717,1.392-1.852,3.108-1.852S25.113,19.708,25.113,21.424z"/>
			</g>
			<g>
				<path fill="#09516D" d="M46.106,21.424c0,1.718-1.394,1.556-3.109,1.556c-1.718,0-3.11,0.162-3.11-1.556
					c0-1.717,1.393-3.108,3.11-3.108C44.713,18.316,46.106,19.708,46.106,21.424z"/>
				<path fill="#082130" d="M46.106,21.424c0,1.718-1.394,1.556-3.109,1.556c-1.718,0-3.11,0.162-3.11-1.556
					c0-1.717,1.393-1.852,3.11-1.852C44.713,19.573,46.106,19.708,46.106,21.424z"/>
			</g>
		</g>
		<path fill="#AF3A6A" d="M38.152,25.304c0,1.417-2.531,2.566-5.652,2.566c-3.123,0-5.652-1.149-5.652-2.566
			c0-1.416,2.529,0.172,5.652,0.172C35.621,25.476,38.152,23.888,38.152,25.304z"/>
		<path fill="#821647" d="M32.5,25.476c-2.523,0-4.656-1.035-5.384-0.686c0.704,1.052,2.833,1.823,5.384,1.823
			c2.55,0,4.68-0.771,5.383-1.823C37.155,24.441,35.021,25.476,32.5,25.476z"/>
		<g>
			<path fill="#C7D2D3" d="M14.736,26.839c0,1.041-2.13-0.269-4.756-0.269c-2.625,0-4.756,1.31-4.756,0.269s2.131-1.884,4.756-1.884
				C12.606,24.956,14.736,25.798,14.736,26.839z"/>
			<path fill="#C7D2D3" d="M59.774,26.839c0,1.041-2.13-0.269-4.757-0.269c-2.625,0-4.754,1.31-4.754,0.269s2.129-1.884,4.754-1.884
				C57.645,24.956,59.774,25.798,59.774,26.839z"/>
		</g>
		<g>
			<path fill="#C7D2D3" d="M25.907,14.67c0,0.678-1.388-0.175-3.097-0.175c-1.708,0-3.096,0.853-3.096,0.175
				s1.388-1.227,3.096-1.227C24.52,13.444,25.907,13.993,25.907,14.67z"/>
			<path fill="#C7D2D3" d="M45.284,14.67c0,0.678-1.388-0.175-3.097-0.175c-1.708,0-3.096,0.853-3.096,0.175
				s1.388-1.227,3.096-1.227C43.896,13.444,45.284,13.993,45.284,14.67z"/>
		</g>
	</g>
	<g>
		<g>
			<g>
				<path fill="#5BA9C1" d="M14.165,52.042c0,0.865-0.7,1.566-1.565,1.566s-1.568-0.701-1.568-1.566s0.703-4.451,1.568-4.451
					S14.165,51.176,14.165,52.042z"/>
				<path fill="#2D99B2" d="M12.6,47.59c0.865,0,1.565,3.586,1.565,4.451s-0.7,1.566-1.565,1.566"/>
			</g>
			<g>
				<path fill="#5BA9C1" d="M22.127,52.042c0,0.865-0.703,1.566-1.568,1.566s-1.566-0.701-1.566-1.566s0.701-4.451,1.566-4.451
					S22.127,51.176,22.127,52.042z"/>
				<path fill="#2D99B2" d="M20.559,47.59c0.865,0,1.568,3.586,1.568,4.451s-0.703,1.566-1.568,1.566"/>
			</g>
			<g>
				<path fill="#5BA9C1" d="M30.086,52.042c0,0.865-0.701,1.566-1.566,1.566s-1.567-0.701-1.567-1.566s0.702-4.451,1.567-4.451
					S30.086,51.176,30.086,52.042z"/>
				<path fill="#2D99B2" d="M28.52,47.59c0.865,0,1.566,3.586,1.566,4.451s-0.701,1.566-1.566,1.566"/>
			</g>
			<g>
				<path fill="#5BA9C1" d="M38.047,52.042c0,0.865-0.701,1.566-1.567,1.566s-1.565-0.701-1.565-1.566s0.699-4.451,1.565-4.451
					S38.047,51.176,38.047,52.042z"/>
				<path fill="#2D99B2" d="M36.479,47.59c0.866,0,1.567,3.586,1.567,4.451s-0.701,1.566-1.567,1.566"/>
			</g>
			<g>
				<path fill="#5BA9C1" d="M46.006,52.042c0,0.865-0.699,1.566-1.564,1.566s-1.568-0.701-1.568-1.566s0.703-4.451,1.568-4.451
					S46.006,51.176,46.006,52.042z"/>
				<path fill="#2D99B2" d="M44.441,47.59c0.865,0,1.564,3.586,1.564,4.451s-0.699,1.566-1.564,1.566"/>
			</g>
			<g>
				<path fill="#5BA9C1" d="M53.969,52.042c0,0.865-0.703,1.566-1.568,1.566s-1.566-0.701-1.566-1.566s0.701-4.451,1.566-4.451
					S53.969,51.176,53.969,52.042z"/>
				<path fill="#2D99B2" d="M52.4,47.59c0.865,0,1.568,3.586,1.568,4.451s-0.703,1.566-1.568,1.566"/>
			</g>
		</g>
		<g>
			<g>
				<path fill="#5BA9C1" d="M18.145,60.19c0,0.865-0.699,1.566-1.564,1.566s-1.568-0.701-1.568-1.566s0.703-4.451,1.568-4.451
					S18.145,59.325,18.145,60.19z"/>
				<path fill="#2D99B2" d="M16.58,55.739c0.865,0,1.564,3.586,1.564,4.451s-0.699,1.566-1.564,1.566"/>
			</g>
			<g>
				<path fill="#5BA9C1" d="M26.107,60.19c0,0.865-0.703,1.566-1.568,1.566s-1.566-0.701-1.566-1.566s0.701-4.451,1.566-4.451
					S26.107,59.325,26.107,60.19z"/>
				<path fill="#2D99B2" d="M24.539,55.739c0.865,0,1.568,3.586,1.568,4.451s-0.703,1.566-1.568,1.566"/>
			</g>
			<g>
				<path fill="#5BA9C1" d="M34.066,60.19c0,0.865-0.701,1.566-1.566,1.566s-1.566-0.701-1.566-1.566s0.701-4.451,1.566-4.451
					S34.066,59.325,34.066,60.19z"/>
				<path fill="#2D99B2" d="M32.5,55.739c0.865,0,1.566,3.586,1.566,4.451s-0.701,1.566-1.566,1.566"/>
			</g>
			<g>
				<path fill="#5BA9C1" d="M42.027,60.19c0,0.865-0.701,1.566-1.566,1.566c-0.866,0-1.566-0.701-1.566-1.566s0.7-4.451,1.566-4.451
					C41.326,55.739,42.027,59.325,42.027,60.19z"/>
				<path fill="#2D99B2" d="M40.461,55.739c0.865,0,1.566,3.586,1.566,4.451s-0.701,1.566-1.566,1.566"/>
			</g>
			<g>
				<path fill="#5BA9C1" d="M49.987,60.19c0,0.865-0.7,1.566-1.565,1.566s-1.568-0.701-1.568-1.566s0.703-4.451,1.568-4.451
					S49.987,59.325,49.987,60.19z"/>
				<path fill="#2D99B2" d="M48.422,55.739c0.865,0,1.565,3.586,1.565,4.451s-0.7,1.566-1.565,1.566"/>
			</g>
		</g>
	</g>
</g>
</svg>
