<?xml version="1.0" encoding="utf-8"?>
<!-- Generator: Adobe Illustrator 16.0.0, SVG Export Plug-In . SVG Version: 6.00 Build 0)  -->
<!DOCTYPE svg PUBLIC "-//W3C//DTD SVG 1.1//EN" "http://www.w3.org/Graphics/SVG/1.1/DTD/svg11.dtd">
<svg version="1.1" id="Layer_1" xmlns="http://www.w3.org/2000/svg" xmlns:xlink="http://www.w3.org/1999/xlink" x="0px" y="0px"
	 width="65px" height="65px" viewBox="0 0 65 65" enable-background="new 0 0 65 65" xml:space="preserve">
<g>
	<path fill="#6D4417" d="M26.872,41.408c-0.518,0.518-1.355,0.518-1.874,0l-1.405-1.406c-0.518-0.518-0.518-1.355,0-1.873
		l37.24-37.24c0.516-0.518,1.355-0.518,1.873,0l1.406,1.406c0.519,0.518,0.518,1.355,0,1.871L26.872,41.408z"/>
	<path fill="#895D24" d="M62.565,0.794c-0.518-0.398-1.257-0.383-1.732,0.094l-37.24,37.24c-0.476,0.475-0.492,1.215-0.092,1.732
		c0.518,0.398,1.256,0.383,1.731-0.092l37.241-37.24C62.948,2.052,62.963,1.314,62.565,0.794z"/>
	<path fill="#80C1D1" d="M19.844,48.433c-0.516,0.518-1.355,0.518-1.873,0.002l-1.404-1.408c-0.52-0.516-0.52-1.355,0-1.873
		l7.259-7.26c0.519-0.518,1.357-0.518,1.874,0l1.407,1.404c0.517,0.52,0.517,1.357-0.001,1.875L19.844,48.433z"/>
	<path fill="#9CD8E2" d="M25.606,37.83c-0.521-0.436-1.289-0.426-1.78,0.064l-7.259,7.26c-0.492,0.49-0.503,1.258-0.064,1.781
		c0.521,0.438,1.289,0.426,1.781-0.062l7.758-7.758C26.533,38.623,26.043,38.353,25.606,37.83z"/>
	<path fill="#80C1D1" d="M25.974,59.636c-0.518,0.518-1.356,0.518-1.874,0L5.362,40.9c-0.516-0.52-0.516-1.355,0.002-1.875
		l1.756-1.756c0.519-0.516,1.355-0.518,1.874,0l18.735,18.736c0.52,0.52,0.52,1.357,0,1.873L25.974,59.636z"/>
	<path fill="#9CD8E2" d="M8.994,37.269c-0.407-0.406-1.007-0.482-1.499-0.248c-0.232,0.488-0.157,1.09,0.25,1.498l18.736,18.734
		c0.406,0.408,1.008,0.484,1.498,0.252c0.234-0.492,0.158-1.092-0.25-1.5L8.994,37.269z"/>
	<g>
		<path fill="#80C1D1" d="M1.852,44.937c-0.31,0.311-0.81,0.309-1.12,0l0,0c-0.31-0.309-0.31-0.811,0.001-1.121l4.774-4.773
			c0.309-0.309,0.81-0.309,1.118,0l0,0c0.311,0.309,0.311,0.811,0.001,1.119L1.852,44.937z"/>
		<path fill="#80C1D1" d="M4.614,47.699c-0.311,0.309-0.812,0.309-1.12,0l0,0c-0.31-0.311-0.31-0.811,0.001-1.121l4.773-4.773
			c0.31-0.309,0.811-0.309,1.119,0l0,0c0.31,0.309,0.31,0.811,0,1.119L4.614,47.699z"/>
		<path fill="#80C1D1" d="M7.375,50.458c-0.311,0.311-0.811,0.311-1.121,0l0,0c-0.309-0.309-0.309-0.809,0.002-1.119l4.773-4.773
			c0.309-0.309,0.809-0.311,1.121,0l0,0c0.309,0.309,0.308,0.811,0,1.119L7.375,50.458z"/>
		<path fill="#80C1D1" d="M10.137,53.22c-0.311,0.311-0.809,0.312-1.121,0l0,0c-0.309-0.309-0.309-0.807,0.003-1.117l4.772-4.775
			c0.312-0.309,0.811-0.309,1.121,0l0,0c0.309,0.311,0.307,0.809,0,1.119L10.137,53.22z"/>
		<path fill="#80C1D1" d="M12.899,55.982c-0.311,0.312-0.81,0.312-1.121,0.002l0,0c-0.309-0.311-0.309-0.809,0.003-1.121
			l4.773-4.773c0.31-0.309,0.808-0.311,1.12,0l0,0c0.309,0.309,0.309,0.809-0.002,1.117L12.899,55.982z"/>
		<path fill="#80C1D1" d="M15.661,58.744c-0.31,0.311-0.81,0.311-1.121,0l0,0c-0.309-0.309-0.309-0.811,0.001-1.119l4.772-4.773
			c0.311-0.311,0.812-0.311,1.121,0l0,0c0.311,0.309,0.311,0.811,0.001,1.121L15.661,58.744z"/>
		<path fill="#80C1D1" d="M18.422,61.505c-0.311,0.311-0.812,0.309-1.121,0l0,0c-0.31-0.309-0.31-0.809,0.002-1.119l4.773-4.775
			c0.31-0.309,0.811-0.309,1.119,0l0,0c0.309,0.311,0.31,0.811,0,1.119L18.422,61.505z"/>
		<path fill="#80C1D1" d="M21.183,64.267c-0.311,0.311-0.81,0.311-1.122,0l0,0c-0.308-0.309-0.308-0.809,0.004-1.119l4.773-4.775
			c0.309-0.309,0.809-0.309,1.119,0l0,0c0.31,0.311,0.31,0.811,0,1.119L21.183,64.267z"/>
	</g>
</g>
</svg>
