<?xml version="1.0" encoding="utf-8"?>
<!-- Generator: Adobe Illustrator 16.0.0, SVG Export Plug-In . SVG Version: 6.00 Build 0)  -->
<!DOCTYPE svg PUBLIC "-//W3C//DTD SVG 1.1//EN" "http://www.w3.org/Graphics/SVG/1.1/DTD/svg11.dtd">
<svg version="1.1" id="Layer_1" xmlns="http://www.w3.org/2000/svg" xmlns:xlink="http://www.w3.org/1999/xlink" x="0px" y="0px"
	 width="65px" height="65px" viewBox="0 0 65 65" enable-background="new 0 0 65 65" xml:space="preserve">
<g>
	<g>
		<path fill="#990000" d="M19.382,35.991c3.142,2.205,1.139,3.074-8.169,11.879c-0.911,0.863-3.174,0.033-4.06-0.852
			c-0.887-0.887-1.688-1.77-0.803-2.656C7.238,43.476,18.358,35.272,19.382,35.991z"/>
		<g>
			<path fill="#990000" d="M32.468,49.075c-2.205-3.139-3.074-1.135-11.878,8.172c-0.862,0.91-0.033,3.174,0.852,4.059
				c0.886,0.887,1.771,1.688,2.657,0.801C24.986,61.222,33.188,50.103,32.468,49.075z"/>
		</g>
	</g>
	<path fill="#8EB2B2" d="M36.724,45.253v-5.955h3.107v-4.711h3.106v-4.713h3.107v-4.711h3.108v-4.711h3.107v-4.713h3.107v-4.711
		h3.108V6.317h2.561c0.048-1.48-0.45-2.9-1.621-4.072c-2.326-2.326-6.097-2.326-8.422,0L18.566,34.673
		c-2.325,2.326-0.504,4.275,1.82,6.6c2.326,2.326,10.708,11.348,13.031,9.021l3.31-5.041H36.724z"/>
	<path fill="#76999B" d="M50.995,2.245L18.566,34.673c-0.854,0.855-1.146,1.658-1.062,2.447l4.253,4.252l38.32-38.318
		c-0.195-0.279-0.405-0.553-0.661-0.809C57.09-0.081,53.32-0.081,50.995,2.245z"/>
	<path fill="#BF0C0C" d="M33.942,49.005c0.423,0.426,0.423,1.111,0.001,1.533l-1.748,1.748c-0.423,0.426-1.109,0.426-1.534,0
		l-14.487-14.49c-0.424-0.422-0.425-1.109,0-1.531l1.748-1.748c0.423-0.424,1.109-0.422,1.531,0L33.942,49.005z"/>
	<path fill="#EF0F0F" d="M17.921,34.517l-1.748,1.748c-0.425,0.422-0.424,1.109,0,1.531l4.515,4.516
		c0.423,0.426,1.109,0.426,1.532,0l1.749-1.746c0.422-0.424,0.422-1.109-0.001-1.535l-4.516-4.514
		C19.031,34.095,18.344,34.093,17.921,34.517z"/>
	<circle fill="#EBF0F2" cx="53.485" cy="5.586" r="1.382"/>
	<path fill="#BF0C0C" d="M25.949,59.8c1.273,1.271,0.41,2.475-0.863,3.746l0,0c-1.271,1.273-3.338,1.271-4.61,0L4.914,47.983
		c-1.273-1.273-1.272-3.338,0-4.609l0,0c1.271-1.273,2.473-2.137,3.746-0.865L25.949,59.8z"/>
	<path fill="#EF0F0F" d="M4.914,43.374c-1.272,1.271-1.273,3.336,0,4.609l4.067,4.068c1.271,1.271,3.339,1.273,4.611,0
		c1.272-1.271,2.136-2.475,0.863-3.746L8.66,42.509C7.386,41.237,6.185,42.101,4.914,43.374z"/>
</g>
</svg>
