<?xml version="1.0" encoding="utf-8"?>
<!-- Generator: Adobe Illustrator 16.0.0, SVG Export Plug-In . SVG Version: 6.00 Build 0)  -->
<!DOCTYPE svg PUBLIC "-//W3C//DTD SVG 1.1//EN" "http://www.w3.org/Graphics/SVG/1.1/DTD/svg11.dtd">
<svg version="1.1" id="Layer_1" xmlns="http://www.w3.org/2000/svg" xmlns:xlink="http://www.w3.org/1999/xlink" x="0px" y="0px"
	 width="65px" height="65px" viewBox="0 0 65 65" enable-background="new 0 0 65 65" xml:space="preserve">
<g>
	<g>
		<g>
			<polygon fill="#C98909" points="9.287,23.938 9.84,23.968 9.754,26.453 8.684,26.396 8.533,26.621 8.49,26.577 8.303,27.809 
				9.752,27.628 9.945,30.105 8.479,30.287 9.387,31.432 5.244,36.657 3.848,34.896 4.973,33.477 3.584,34.582 2.529,32.479 
				4.688,30.759 4.117,30.83 4.061,30.086 2.59,30.27 2.396,27.793 3.631,27.639 2.408,27.342 2.781,24.897 3.936,25.18 
				3.986,23.655 4.379,23.676 2.764,22.91 3.459,20.58 4.564,21.104 4.863,20.656 4.254,20.005 5.527,18.105 10,22.879 			"/>
			<polygon fill="#EAA918" points="10.943,29.663 11.502,29.639 11.418,27.643 10.334,27.688 10.18,27.508 10.137,27.543 
				9.945,26.554 11.414,26.699 11.611,24.71 10.125,24.562 11.043,23.645 6.848,19.449 5.436,20.862 6.574,22.003 5.168,21.114 
				4.102,22.805 6.285,24.184 5.709,24.127 5.65,24.725 4.16,24.578 3.963,26.566 5.215,26.69 3.977,26.93 4.355,28.893 
				5.525,28.666 5.576,29.89 5.971,29.873 4.338,30.488 5.043,32.359 6.16,31.938 6.463,32.298 5.844,32.82 7.135,34.347 
				11.666,30.514 			"/>
		</g>
		<g>
			<polygon fill="#C98909" points="55.713,23.938 55.16,23.968 55.246,26.453 56.316,26.396 56.467,26.621 56.508,26.577 
				56.697,27.809 55.248,27.628 55.055,30.105 56.521,30.287 55.613,31.432 59.756,36.657 61.152,34.896 60.027,33.477 
				61.416,34.582 62.471,32.479 60.312,30.759 60.883,30.83 60.939,30.086 62.41,30.27 62.604,27.793 61.369,27.639 62.592,27.342 
				62.219,24.897 61.064,25.18 61.014,23.655 60.621,23.676 62.236,22.91 61.541,20.58 60.436,21.104 60.137,20.656 60.746,20.005 
				59.475,18.105 55,22.879 			"/>
			<polygon fill="#EAA918" points="54.057,29.663 53.498,29.639 53.582,27.643 54.666,27.688 54.82,27.508 54.863,27.543 
				55.055,26.554 53.586,26.699 53.391,24.71 54.877,24.562 53.957,23.645 58.152,19.449 59.564,20.862 58.426,22.003 
				59.832,21.114 60.898,22.805 58.715,24.184 59.293,24.127 59.352,24.725 60.84,24.578 61.037,26.566 59.785,26.69 61.023,26.93 
				60.645,28.893 59.477,28.666 59.426,29.89 59.029,29.873 60.662,30.488 59.959,32.359 58.842,31.938 58.537,32.298 59.156,32.82 
				57.865,34.347 53.334,30.514 			"/>
		</g>
	</g>
	<path fill="#6D4417" d="M35.326,63.047c0,0.803-0.652,1.453-1.453,1.453h-2.746c-0.801,0-1.451-0.65-1.451-1.453V42.224
		c0-0.803,0.65-1.453,1.451-1.453h2.746c0.801,0,1.453,0.65,1.453,1.453V63.047z"/>
	<path fill="#6D4417" d="M35.326,56.685c0,0.803-0.652,1.453-1.453,1.453h-2.746c-0.801,0-1.451-0.65-1.451-1.453V35.861
		c0-0.803,0.65-1.453,1.451-1.453h2.746c0.801,0,1.453,0.65,1.453,1.453V56.685z"/>
	<path fill="#49290A" d="M35.326,56.685c0,0.803-0.652,1.453-1.453,1.453h-2.746c-0.801,0-1.451-0.65-1.451-1.453V35.861
		c0-0.803,0.65-1.453,1.451-1.453h2.746c0.801,0,1.453,0.65,1.453,1.453V56.685z"/>
	<path fill="#F26403" d="M53.65,21.341H11.352c-2.277,0-2.064,1.581-2.064,3.524v4.987c0,1.943,1.852,3.524,4.127,3.524h7.777
		L18.41,52.14c-0.045,0.296,0.043,0.598,0.24,0.825c0.195,0.227,0.48,0.357,0.781,0.357h26.137c0.008,0,0.018,0,0.021,0
		c0.57,0,1.031-0.461,1.031-1.031c0-0.124-0.021-0.242-0.062-0.352l-2.75-18.562h7.777c2.275,0,4.127-1.581,4.127-3.524v-4.987
		C55.713,22.922,55.926,21.341,53.65,21.341z"/>
	<path fill="#C64200" d="M53.65,25.038H11.352c-1.803,0-2.043,0.998-2.064,2.374v1.15v1.29c0,1.943,1.852,3.524,4.127,3.524h7.777
		l-0.547,3.697h0.547l-2.373,16.017c0.178,0.136,0.385,0.231,0.613,0.231h26.137c0.008,0,0.018,0,0.021,0
		c0.227,0,0.426-0.088,0.594-0.211l-2.375-16.037h0.547l-0.547-3.697h7.777c2.275,0,4.127-1.581,4.127-3.524v-1.29v-1.15
		C55.691,26.036,55.451,25.038,53.65,25.038z"/>
	<polygon fill="#49290A" points="32.5,27.312 38.471,21.341 26.529,21.341 	"/>
	<g>
		<path fill="#C98909" d="M23.498,10.336c0,0,2.539,0.043,2.967-5.223c0.24-2.938,2.645-6.578,6.191-3.354
			c3.545,3.225,2.707-0.838,4.898,0.322c2.193,1.161,1.678,7.48,4,8.447c2.32,0.967-10.77,2.321-10.77,2.321l-6.514-2.192
			L23.498,10.336z"/>
		<path fill="#723E14" d="M42.543,11.131c0,1.104-0.895,1.999-2,1.999H25.197c-1.104,0-2-0.896-2-1.999l0,0
			c0-1.104,0.896-1.999,2-1.999h15.346C41.648,9.132,42.543,10.026,42.543,11.131L42.543,11.131z"/>
		<path fill="#49290A" d="M37.869,11.131c0,1.104-0.465,1.999-1.035,1.999h-7.928c-0.57,0-1.033-0.896-1.033-1.999l0,0
			c0-1.104,0.463-1.999,1.033-1.999h7.928C37.404,9.132,37.869,10.026,37.869,11.131L37.869,11.131z"/>
		<path fill="#EAA918" d="M48.361,10.248c0,2.994-7.102,5.42-15.861,5.42c-8.762,0-15.861-2.426-15.861-5.42
			c0-2.993,7.1,0.957,15.861,0.957C41.26,11.205,48.361,7.255,48.361,10.248z"/>
		<path fill="#C98909" d="M32.5,11.205c-7.162,0-13.207-2.635-15.18-1.965c1.973,2.229,8.018,3.85,15.18,3.85
			c7.16,0,13.207-1.621,15.18-3.85C45.707,8.57,39.66,11.205,32.5,11.205z"/>
	</g>
	<g>
		<circle fill="#F26403" cx="32.5" cy="31.313" r="0.902"/>
		<circle fill="#F26403" cx="32.5" cy="36.858" r="0.902"/>
		<circle fill="#F26403" cx="32.5" cy="42.404" r="0.902"/>
		<circle fill="#F26403" cx="32.5" cy="47.949" r="0.902"/>
	</g>
</g>
</svg>
