<?xml version="1.0" encoding="utf-8"?>
<!-- Generator: Adobe Illustrator 16.0.0, SVG Export Plug-In . SVG Version: 6.00 Build 0)  -->
<!DOCTYPE svg PUBLIC "-//W3C//DTD SVG 1.1//EN" "http://www.w3.org/Graphics/SVG/1.1/DTD/svg11.dtd">
<svg version="1.1" id="Layer_1" xmlns="http://www.w3.org/2000/svg" xmlns:xlink="http://www.w3.org/1999/xlink" x="0px" y="0px"
	 width="65px" height="65px" viewBox="0 0 65 65" enable-background="new 0 0 65 65" xml:space="preserve">
<g>
	<ellipse fill="#CCE2DD" cx="32.152" cy="30.452" rx="29.666" ry="17.75"/>
	<g>
		<path fill="#0C3C75" d="M62.079,40.558c0,12.031-13.243,15.408-29.579,15.408S2.92,52.589,2.92,40.558
			c0-12.033,13.244-21.787,29.58-21.787S62.079,28.524,62.079,40.558z"/>
		<path fill="#082856" d="M62.079,40.558c0,12.031-13.243,15.408-29.579,15.408S2.92,52.589,2.92,40.558
			c0-12.033,13.244-18.762,29.58-18.762S62.079,28.524,62.079,40.558z"/>
		<path d="M62.079,40.558c0,12.031-13.243,15.408-29.579,15.408S2.92,52.589,2.92,40.558c0-12.033,13.244-5.492,29.58-5.492
			S62.079,28.524,62.079,40.558z"/>
		<g>
			<circle fill="#CCE2DD" cx="20.81" cy="38.253" r="2.657"/>
			<circle fill="#CCE2DD" cx="44.19" cy="38.253" r="2.657"/>
		</g>
	</g>
	<g>
		<g>
			<g>
				<path fill="#DDD7B3" d="M7.781,46.583c-1.874,0-3.719-0.883-4.872-2.529c-1.562-2.236-1.017-5.326,1.217-6.891
					c1.879-1.311,4.478-0.854,5.792,1.023c1.112,1.598,0.722,3.799-0.871,4.912c-0.45,0.314-1.075,0.205-1.393-0.248
					c-0.315-0.453-0.205-1.076,0.248-1.393c0.688-0.48,0.857-1.436,0.376-2.127c-0.682-0.973-2.03-1.209-3.006-0.529
					c-1.329,0.932-1.655,2.773-0.725,4.105c1.244,1.775,3.702,2.207,5.479,0.969c1.13-0.791,1.885-1.975,2.125-3.334
					s-0.063-2.732-0.854-3.863c-0.316-0.451-0.206-1.076,0.246-1.393c0.453-0.316,1.075-0.207,1.392,0.246
					c1.098,1.568,1.52,3.471,1.187,5.357c-0.335,1.885-1.381,3.527-2.949,4.625C10.14,46.235,8.955,46.583,7.781,46.583z"/>
			</g>
			<path fill="#F2EAC7" d="M4.126,37.163c-1.237,0.867-1.935,2.203-2.064,3.602c0.077,0.826,0.341,1.645,0.848,2.373
				c1.153,1.646,2.998,2.529,4.872,2.529c1.174,0,2.358-0.348,3.392-1.068c1.568-1.098,2.614-2.74,2.949-4.625
				c0.044-0.254,0.073-0.508,0.091-0.76c-0.076-1.311-0.505-2.578-1.277-3.682c-0.316-0.453-0.938-0.562-1.392-0.246
				c-0.134,0.094-0.228,0.219-0.3,0.355c0.021,0.039,0.027,0.084,0.054,0.121c0.7,1.002,0.995,2.195,0.891,3.4
				c0.042,0.455,0.046,0.916-0.036,1.379c-0.24,1.359-0.995,2.543-2.125,3.334c-1.777,1.238-4.235,0.807-5.479-0.969
				c-0.46-0.658-0.61-1.441-0.487-2.176c-0.156-1.07,0.27-2.186,1.212-2.846c0.976-0.68,2.324-0.443,3.006,0.529
				c0.282,0.404,0.335,0.898,0.197,1.334c0.194,0.621-0.016,1.318-0.573,1.709c-0.135,0.094-0.229,0.219-0.301,0.355
				c0.021,0.039,0.026,0.082,0.053,0.121c0.317,0.453,0.942,0.562,1.393,0.248c0.838-0.586,1.333-1.475,1.461-2.416
				c-0.068-0.551-0.251-1.094-0.59-1.58C8.604,36.31,6.005,35.853,4.126,37.163z"/>
		</g>
		<g>
			<g>
				<path fill="#DDD7B3" d="M57.219,46.583c1.874,0,3.719-0.883,4.872-2.529c1.562-2.236,1.017-5.326-1.217-6.891
					c-1.879-1.311-4.478-0.854-5.792,1.023c-1.112,1.598-0.721,3.799,0.871,4.912c0.449,0.314,1.075,0.205,1.393-0.248
					c0.315-0.453,0.205-1.076-0.248-1.393c-0.688-0.48-0.857-1.436-0.376-2.127c0.681-0.973,2.03-1.209,3.006-0.529
					c1.33,0.932,1.655,2.773,0.725,4.105c-1.244,1.775-3.703,2.207-5.479,0.969c-1.131-0.791-1.886-1.975-2.126-3.334
					s0.063-2.732,0.854-3.863c0.317-0.451,0.207-1.076-0.245-1.393c-0.454-0.316-1.076-0.207-1.393,0.246
					c-1.098,1.568-1.519,3.471-1.186,5.357c0.334,1.885,1.381,3.527,2.949,4.625C54.861,46.235,56.045,46.583,57.219,46.583z"/>
			</g>
			<path fill="#F2EAC7" d="M60.874,37.163c1.237,0.867,1.935,2.203,2.064,3.602c-0.077,0.826-0.34,1.645-0.848,2.373
				c-1.153,1.646-2.998,2.529-4.872,2.529c-1.174,0-2.357-0.348-3.392-1.068c-1.568-1.098-2.615-2.74-2.949-4.625
				c-0.045-0.254-0.073-0.508-0.091-0.76c0.076-1.311,0.505-2.578,1.276-3.682c0.316-0.453,0.938-0.562,1.393-0.246
				c0.134,0.094,0.228,0.219,0.3,0.355c-0.021,0.039-0.027,0.084-0.055,0.121c-0.7,1.002-0.994,2.195-0.89,3.4
				c-0.042,0.455-0.046,0.916,0.036,1.379c0.24,1.359,0.995,2.543,2.126,3.334c1.775,1.238,4.234,0.807,5.479-0.969
				c0.46-0.658,0.61-1.441,0.487-2.176c0.156-1.07-0.27-2.186-1.212-2.846c-0.976-0.68-2.325-0.443-3.006,0.529
				c-0.282,0.404-0.335,0.898-0.197,1.334c-0.194,0.621,0.016,1.318,0.573,1.709c0.135,0.094,0.229,0.219,0.301,0.355
				c-0.021,0.039-0.026,0.082-0.053,0.121c-0.317,0.453-0.943,0.562-1.393,0.248c-0.838-0.586-1.334-1.475-1.461-2.416
				c0.068-0.551,0.251-1.094,0.59-1.58C56.396,36.31,58.995,35.853,60.874,37.163z"/>
		</g>
	</g>
	<ellipse fill="#CCE2DD" cx="32.152" cy="22.474" rx="17.166" ry="6.729"/>
	<g>
		<circle fill="#CCE2DD" cx="14.339" cy="23.827" r="2.292"/>
		<circle fill="#CCE2DD" cx="49.965" cy="23.827" r="2.291"/>
	</g>
	<circle fill="#CCE2DD" cx="7.736" cy="20.952" r="2.25"/>
	<circle fill="#CCE2DD" cx="13.651" cy="18.202" r="5.167"/>
	<circle fill="#CCE2DD" cx="21.152" cy="15.702" r="3.5"/>
	<circle fill="#CCE2DD" cx="29.736" cy="14.284" r="5.25"/>
	<circle fill="#CCE2DD" cx="38.902" cy="16.452" r="5.084"/>
	<circle fill="#CCE2DD" cx="45.985" cy="14.036" r="2.333"/>
	<circle fill="#CCE2DD" cx="51.152" cy="19.702" r="4.5"/>
	<circle fill="#CCE2DD" cx="48.485" cy="16.034" r="2.833"/>
	<circle fill="#CCE2DD" cx="55.902" cy="21.118" r="2.75"/>
	<circle fill="#CCE2DD" cx="6.819" cy="24.536" r="3.333"/>
</g>
</svg>
