<?xml version="1.0" encoding="utf-8"?>
<!-- Generator: Adobe Illustrator 16.0.0, SVG Export Plug-In . SVG Version: 6.00 Build 0)  -->
<!DOCTYPE svg PUBLIC "-//W3C//DTD SVG 1.1//EN" "http://www.w3.org/Graphics/SVG/1.1/DTD/svg11.dtd">
<svg version="1.1" id="Layer_1" xmlns="http://www.w3.org/2000/svg" xmlns:xlink="http://www.w3.org/1999/xlink" x="0px" y="0px"
	 width="65px" height="65px" viewBox="0 0 65 65" enable-background="new 0 0 65 65" xml:space="preserve">
<g>
	<path fill="#9CD8E2" d="M22.248,58.103c-5.212,5.209-12.873,5.999-17.11,1.759c-4.239-4.237-3.45-11.898,1.759-17.11
		c5.216-5.215,7.075-0.202,11.314,4.037C22.451,51.028,27.457,52.887,22.248,58.103z"/>
	<path fill="#80C1D1" d="M21.337,59.012c-5.212,5.209-12.871,5.999-17.11,1.761c-4.237-4.239-3.449-11.899,1.761-17.11
		c5.21-5.21,7.076-0.203,11.313,4.035C21.541,51.937,26.548,53.797,21.337,59.012z"/>
	<g>
		<path fill="#6D4417" d="M18.701,49.463c-0.5,0.498-1.308,0.5-1.812,0.001l-1.353-1.354c-0.499-0.504-0.499-1.312,0-1.811
			l35.926-35.924c0.497-0.501,1.305-0.501,1.807,0l1.356,1.355c0.5,0.502,0.5,1.31,0,1.807L18.701,49.463z"/>
		<path fill="#895D24" d="M53.131,10.285c-0.499-0.382-1.211-0.369-1.668,0.091L15.537,46.3c-0.457,0.459-0.474,1.175-0.089,1.672
			c0.501,0.384,1.21,0.369,1.67-0.088L53.044,11.96C53.502,11.497,53.519,10.785,53.131,10.285z"/>
		<path fill="#80C1D1" d="M16.811,51.352c-0.499,0.5-1.307,0.5-1.807,0.002l-1.355-1.358c-0.501-0.5-0.501-1.308,0-1.807
			l7.002-7.004c0.501-0.5,1.31-0.5,1.808,0.001l1.357,1.354c0.497,0.501,0.499,1.31-0.002,1.809L16.811,51.352z"/>
		<path fill="#9CD8E2" d="M22.369,41.123c-0.504-0.42-1.245-0.41-1.718,0.062l-7.002,7.004c-0.475,0.473-0.485,1.214-0.062,1.719
			c0.501,0.422,1.244,0.413,1.719-0.061l7.482-7.484C23.262,41.888,22.792,41.631,22.369,41.123z"/>
	</g>
	<g>
		<path fill="#6D4417" d="M52.77,12.228c-3.133-3.138-4.158-6.837-2.385-8.613l1.364,1.364c-0.728,0.731-0.172,3.322,2.387,5.882
			c2.563,2.562,5.156,3.118,5.885,2.39l1.364,1.364C59.609,16.388,55.91,15.363,52.77,12.228z"/>
	</g>
	<path fill="#6D4417" d="M62.364,14.998c-0.376,0.379-0.987,0.379-1.364,0.001L50,4c-0.379-0.376-0.379-0.988,0.002-1.363
		l0.852-0.853c0.377-0.378,0.986-0.378,1.363,0l10.999,10.999c0.378,0.377,0.378,0.986,0,1.363L62.364,14.998z"/>
	<path fill="#845425" d="M63.217,12.782L52.218,1.783c-0.377-0.378-0.986-0.378-1.363,0c-0.378,0.375-0.378,0.986,0,1.366
		l10.996,10.996c0.38,0.378,0.991,0.378,1.366,0C63.595,13.769,63.595,13.16,63.217,12.782z"/>
</g>
</svg>
