<?xml version="1.0" encoding="utf-8"?>
<!-- Generator: Adobe Illustrator 16.0.0, SVG Export Plug-In . SVG Version: 6.00 Build 0)  -->
<!DOCTYPE svg PUBLIC "-//W3C//DTD SVG 1.1//EN" "http://www.w3.org/Graphics/SVG/1.1/DTD/svg11.dtd">
<svg version="1.1" id="Layer_1" xmlns="http://www.w3.org/2000/svg" xmlns:xlink="http://www.w3.org/1999/xlink" x="0px" y="0px"
	 width="65px" height="65px" viewBox="0 0 65 65" enable-background="new 0 0 65 65" xml:space="preserve">
<g>
	<path fill="#ED9370" d="M64.475,38.055c0.033-0.385,0.033-0.762,0-1.133V25.408L0.572,28.621L0.564,40.375
		c-0.029,0.26-0.024,0.543,0.021,0.854c0.761,5.215,32.483,8.873,49.43,6.4c10.193-1.486,13.961-5.59,14.434-9.316l0.026-0.002
		V38.055z"/>
	<path fill="#D36F50" d="M0.568,36.812C0.574,36.875,0.576,36.936,0.585,37c0.761,5.215,32.483,8.873,49.43,6.4
		c10.193-1.486,13.961-5.59,14.434-9.316l0.026-0.002v-0.256v-1.133v-4.291L0.572,31.615L0.568,36.812z"/>
	<path fill="#ED9370" d="M0.568,33.818c0.006,0.062,0.008,0.121,0.017,0.188c0.761,5.215,32.483,8.873,49.43,6.4
		c10.193-1.486,13.961-5.59,14.434-9.316l0.026-0.002v-0.256v-1.133v-4.291L0.572,28.621L0.568,33.818z"/>
	<path fill="#A51E17" d="M61.911,20.186c4.204,3.176,5.007,12.881-11.94,15.354c-16.946,2.473-48.669-1.186-49.43-6.4
		c-0.762-5.215,9.189-3.041,26.138-5.516C43.625,21.15,50.277,11.389,61.911,20.186z"/>
	<path fill="#CE2C24" d="M61.911,20.186c-11.634-8.797-18.286,0.965-35.232,3.438C13.492,25.549,4.543,24.66,1.578,26.627
		c5.676,4.408,33.07,7.184,48.393,4.949c9.146-1.334,13.115-4.775,14.18-8.158C63.73,22.09,62.922,20.949,61.911,20.186z"/>
	<ellipse fill="#ED9370" cx="44.151" cy="24.99" rx="4.822" ry="1.453"/>
	<ellipse fill="#EFBEAF" cx="44.064" cy="24.812" rx="2.338" ry="0.705"/>
	<ellipse fill="#A51E17" cx="23.564" cy="27.896" rx="1.586" ry="0.617"/>
	<ellipse fill="#A51E17" cx="52.012" cy="22.723" rx="1.585" ry="0.615"/>
	<ellipse fill="#A51E17" cx="30.533" cy="26.994" rx="0.958" ry="0.373"/>
	<ellipse fill="#A51E17" cx="39.988" cy="22.238" rx="0.799" ry="0.311"/>
	<ellipse fill="#A51E17" cx="45.868" cy="28.932" rx="0.958" ry="0.373"/>
	<path fill="#EA7373" d="M56.24,19.045c0,0.801-2.159,0.043-4.933,0.043c-2.774,0-5.108,0.758-5.108-0.043
		c0-0.803,2.247-1.453,5.02-1.453C53.993,17.592,56.24,18.242,56.24,19.045z"/>
	<path fill="#EA7373" d="M11.747,27.07c0.089,0.799-2.142,0.283-4.897,0.592s-4.992,1.32-5.082,0.523
		c-0.089-0.797,2.072-1.693,4.828-2.002C9.352,25.877,11.658,26.273,11.747,27.07z"/>
	<circle fill="#EA7373" cx="57.518" cy="19.75" r="0.396"/>
	<circle fill="#EA7373" cx="59.235" cy="20.498" r="0.441"/>
</g>
</svg>
