<?xml version="1.0" encoding="utf-8"?>
<!-- Generator: Adobe Illustrator 16.0.0, SVG Export Plug-In . SVG Version: 6.00 Build 0)  -->
<!DOCTYPE svg PUBLIC "-//W3C//DTD SVG 1.1//EN" "http://www.w3.org/Graphics/SVG/1.1/DTD/svg11.dtd">
<svg version="1.1" id="Layer_1" xmlns="http://www.w3.org/2000/svg" xmlns:xlink="http://www.w3.org/1999/xlink" x="0px" y="0px"
	 width="65px" height="65px" viewBox="0 0 65 65" enable-background="new 0 0 65 65" xml:space="preserve">
<g>
	<path fill="#F41650" d="M58.303,30.61c0,14.249-11.553,33.89-25.803,33.89S6.697,44.859,6.697,30.61
		c0-14.25,11.553-19.256,25.803-19.256S58.303,16.36,58.303,30.61z"/>
	<path fill="#E0103D" d="M58.303,30.61c0,14.249-11.553,33.89-25.803,33.89S6.697,44.859,6.697,30.61
		c0-14.25,11.553-16.271,25.803-16.271S58.303,16.36,58.303,30.61z"/>
	<path fill="#C10C3C" d="M58.303,30.61c0,14.249-11.553,33.89-25.803,33.89S6.697,44.859,6.697,30.61
		c0-14.25,11.553-1.902,25.803-1.902S58.303,16.36,58.303,30.61z"/>
	<path fill="#C10C3C" d="M32.5,64.5c14.25,0,25.803-19.641,25.803-33.89c0-14.25-11.553-19.256-25.803-19.256"/>
	<path fill="#AA0539" d="M32.5,28.708V64.5c14.25,0,25.803-19.641,25.803-33.89C58.303,16.36,46.75,28.708,32.5,28.708z"/>
	<g>
		<g>
			<circle fill="#A0104B" cx="16.343" cy="19.233" r="1.148"/>
			<path fill="#8E0939" d="M17.491,19.233c0,0.635-0.515,1.148-1.147,1.148c-0.636,0-1.148-0.514-1.148-1.148
				s0.513-0.635,1.148-0.635C16.977,18.599,17.491,18.599,17.491,19.233z"/>
		</g>
		<g>
			<circle fill="#A0104B" cx="22.804" cy="19.233" r="1.148"/>
			<path fill="#8E0939" d="M23.952,19.233c0,0.635-0.513,1.148-1.147,1.148c-0.632,0-1.148-0.514-1.148-1.148
				s0.517-0.635,1.148-0.635C23.439,18.599,23.952,18.599,23.952,19.233z"/>
		</g>
		<g>
			<path fill="#A0104B" d="M30.416,19.233c0,0.635-0.511,1.148-1.148,1.148c-0.634,0-1.146-0.514-1.146-1.148
				s0.513-1.148,1.146-1.148C29.905,18.085,30.416,18.599,30.416,19.233z"/>
			<path fill="#8E0939" d="M30.416,19.233c0,0.635-0.511,1.148-1.148,1.148c-0.634,0-1.146-0.514-1.146-1.148
				s0.513-0.635,1.146-0.635C29.905,18.599,30.416,18.599,30.416,19.233z"/>
		</g>
		<g>
			<circle fill="#A0104B" cx="35.731" cy="19.233" r="1.147"/>
			<path fill="#8E0939" d="M36.879,19.233c0,0.635-0.514,1.148-1.148,1.148c-0.634,0-1.146-0.514-1.146-1.148
				s0.513-0.635,1.146-0.635C36.365,18.599,36.879,18.599,36.879,19.233z"/>
		</g>
		<g>
			<circle fill="#A0104B" cx="42.196" cy="19.233" r="1.148"/>
			<path fill="#8E0939" d="M43.344,19.233c0,0.635-0.515,1.148-1.148,1.148c-0.635,0-1.147-0.514-1.147-1.148
				s0.513-0.635,1.147-0.635C42.829,18.599,43.344,18.599,43.344,19.233z"/>
		</g>
		<g>
			<circle fill="#A0104B" cx="48.658" cy="19.233" r="1.147"/>
			<path fill="#8E0939" d="M49.805,19.233c0,0.635-0.513,1.148-1.146,1.148c-0.635,0-1.147-0.514-1.147-1.148
				s0.513-0.635,1.147-0.635C49.292,18.599,49.805,18.599,49.805,19.233z"/>
		</g>
	</g>
	<g>
		<g>
			<circle fill="#A0104B" cx="16.341" cy="25.741" r="1.148"/>
			<path fill="#8E0939" d="M17.489,25.741c0,0.635-0.513,1.148-1.147,1.148c-0.632,0-1.148-0.514-1.148-1.148
				s0.517-0.635,1.148-0.635C16.977,25.106,17.489,25.106,17.489,25.741z"/>
		</g>
		<g>
			<path fill="#A0104B" d="M23.953,25.741c0,0.635-0.51,1.148-1.147,1.148c-0.634,0-1.147-0.514-1.147-1.148
				s0.514-1.148,1.147-1.148C23.443,24.593,23.953,25.106,23.953,25.741z"/>
			<path fill="#8E0939" d="M23.953,25.741c0,0.635-0.51,1.148-1.147,1.148c-0.634,0-1.147-0.514-1.147-1.148
				s0.514-0.635,1.147-0.635C23.443,25.106,23.953,25.106,23.953,25.741z"/>
		</g>
		<g>
			<circle fill="#A0104B" cx="29.269" cy="25.741" r="1.148"/>
			<path fill="#8E0939" d="M30.417,25.741c0,0.635-0.515,1.148-1.149,1.148c-0.634,0-1.146-0.514-1.146-1.148
				s0.513-0.635,1.146-0.635C29.902,25.106,30.417,25.106,30.417,25.741z"/>
		</g>
		<g>
			<circle fill="#A0104B" cx="35.733" cy="25.741" r="1.147"/>
			<path fill="#8E0939" d="M36.881,25.741c0,0.635-0.514,1.148-1.148,1.148c-0.636,0-1.146-0.514-1.146-1.148
				s0.511-0.635,1.146-0.635C36.367,25.106,36.881,25.106,36.881,25.741z"/>
		</g>
		<g>
			<circle fill="#A0104B" cx="42.195" cy="25.741" r="1.147"/>
			<path fill="#8E0939" d="M43.343,25.741c0,0.635-0.514,1.148-1.147,1.148s-1.147-0.514-1.147-1.148s0.514-0.635,1.147-0.635
				S43.343,25.106,43.343,25.741z"/>
		</g>
		<g>
			<circle fill="#A0104B" cx="48.659" cy="25.741" r="1.148"/>
			<path fill="#8E0939" d="M49.807,25.741c0,0.635-0.515,1.148-1.148,1.148c-0.633,0-1.147-0.514-1.147-1.148
				s0.515-0.635,1.147-0.635C49.292,25.106,49.807,25.106,49.807,25.741z"/>
		</g>
	</g>
	<g>
		<g>
			<circle fill="#A0104B" cx="13.111" cy="31.725" r="1.148"/>
			<path fill="#8E0939" d="M14.259,31.725c0,0.635-0.515,1.148-1.147,1.148c-0.636,0-1.148-0.514-1.148-1.148
				c0-0.634,0.513-0.634,1.148-0.634C13.744,31.091,14.259,31.091,14.259,31.725z"/>
		</g>
		<g>
			<circle fill="#A0104B" cx="19.571" cy="31.725" r="1.147"/>
			<path fill="#8E0939" d="M20.719,31.725c0,0.635-0.512,1.148-1.146,1.148c-0.632,0-1.148-0.514-1.148-1.148
				c0-0.634,0.517-0.634,1.148-0.634C20.207,31.091,20.719,31.091,20.719,31.725z"/>
		</g>
		<g>
			<path fill="#A0104B" d="M27.184,31.725c0,0.635-0.511,1.148-1.147,1.148c-0.634,0-1.147-0.514-1.147-1.148
				c0-0.634,0.514-1.148,1.147-1.148C26.673,30.577,27.184,31.091,27.184,31.725z"/>
			<path fill="#8E0939" d="M27.184,31.725c0,0.635-0.511,1.148-1.147,1.148c-0.634,0-1.147-0.514-1.147-1.148
				c0-0.634,0.514-0.634,1.147-0.634C26.673,31.091,27.184,31.091,27.184,31.725z"/>
		</g>
		<g>
			<circle fill="#A0104B" cx="32.5" cy="31.725" r="1.148"/>
			<path fill="#8E0939" d="M33.647,31.725c0,0.635-0.514,1.148-1.149,1.148c-0.634,0-1.146-0.514-1.146-1.148
				c0-0.634,0.513-0.634,1.146-0.634C33.134,31.091,33.647,31.091,33.647,31.725z"/>
		</g>
		<g>
			<circle fill="#A0104B" cx="38.964" cy="31.725" r="1.147"/>
			<path fill="#8E0939" d="M40.111,31.725c0,0.635-0.514,1.148-1.148,1.148c-0.636,0-1.146-0.514-1.146-1.148
				c0-0.634,0.511-0.634,1.146-0.634C39.598,31.091,40.111,31.091,40.111,31.725z"/>
		</g>
		<g>
			<circle fill="#A0104B" cx="45.426" cy="31.725" r="1.147"/>
			<path fill="#8E0939" d="M46.573,31.725c0,0.635-0.514,1.148-1.147,1.148s-1.147-0.514-1.147-1.148
				c0-0.634,0.514-0.634,1.147-0.634S46.573,31.091,46.573,31.725z"/>
		</g>
		<g>
			<circle fill="#A0104B" cx="51.889" cy="31.725" r="1.148"/>
			<path fill="#8E0939" d="M53.037,31.725c0,0.635-0.515,1.148-1.148,1.148c-0.633,0-1.147-0.514-1.147-1.148
				c0-0.634,0.515-0.634,1.147-0.634C52.522,31.091,53.037,31.091,53.037,31.725z"/>
		</g>
	</g>
	<g>
		<g>
			<circle fill="#A0104B" cx="16.341" cy="38.502" r="1.148"/>
			<path fill="#8E0939" d="M17.489,38.502c0,0.637-0.513,1.148-1.147,1.148c-0.632,0-1.148-0.512-1.148-1.148
				c0-0.633,0.517-0.633,1.148-0.633C16.977,37.869,17.489,37.869,17.489,38.502z"/>
		</g>
		<g>
			<path fill="#A0104B" d="M23.953,38.502c0,0.637-0.51,1.148-1.147,1.148c-0.634,0-1.147-0.512-1.147-1.148
				c0-0.633,0.514-1.146,1.147-1.146C23.443,37.355,23.953,37.869,23.953,38.502z"/>
			<path fill="#8E0939" d="M23.953,38.502c0,0.637-0.51,1.148-1.147,1.148c-0.634,0-1.147-0.512-1.147-1.148
				c0-0.633,0.514-0.633,1.147-0.633C23.443,37.869,23.953,37.869,23.953,38.502z"/>
		</g>
		<g>
			<circle fill="#A0104B" cx="29.269" cy="38.502" r="1.148"/>
			<path fill="#8E0939" d="M30.417,38.502c0,0.637-0.515,1.148-1.149,1.148c-0.634,0-1.146-0.512-1.146-1.148
				c0-0.633,0.513-0.633,1.146-0.633C29.902,37.869,30.417,37.869,30.417,38.502z"/>
		</g>
		<g>
			<circle fill="#A0104B" cx="35.733" cy="38.502" r="1.147"/>
			<path fill="#8E0939" d="M36.881,38.502c0,0.637-0.514,1.148-1.148,1.148c-0.636,0-1.146-0.512-1.146-1.148
				c0-0.633,0.511-0.633,1.146-0.633C36.367,37.869,36.881,37.869,36.881,38.502z"/>
		</g>
		<g>
			<circle fill="#A0104B" cx="42.195" cy="38.502" r="1.147"/>
			<path fill="#8E0939" d="M43.343,38.502c0,0.637-0.514,1.148-1.147,1.148s-1.147-0.512-1.147-1.148
				c0-0.633,0.514-0.633,1.147-0.633S43.343,37.869,43.343,38.502z"/>
		</g>
		<g>
			<circle fill="#A0104B" cx="48.659" cy="38.502" r="1.148"/>
			<path fill="#8E0939" d="M49.807,38.502c0,0.637-0.515,1.148-1.148,1.148c-0.633,0-1.147-0.512-1.147-1.148
				c0-0.633,0.515-0.633,1.147-0.633C49.292,37.869,49.807,37.869,49.807,38.502z"/>
		</g>
	</g>
	<g>
		<g>
			<circle fill="#A0104B" cx="16.341" cy="44.486" r="1.148"/>
			<path fill="#8E0939" d="M17.489,44.486c0,0.637-0.513,1.148-1.147,1.148c-0.632,0-1.148-0.512-1.148-1.148
				c0-0.633,0.517-0.633,1.148-0.633C16.977,43.854,17.489,43.854,17.489,44.486z"/>
		</g>
		<g>
			<path fill="#A0104B" d="M23.953,44.486c0,0.637-0.51,1.148-1.147,1.148c-0.634,0-1.147-0.512-1.147-1.148
				c0-0.633,0.514-1.146,1.147-1.146C23.443,43.34,23.953,43.854,23.953,44.486z"/>
			<path fill="#8E0939" d="M23.953,44.486c0,0.637-0.51,1.148-1.147,1.148c-0.634,0-1.147-0.512-1.147-1.148
				c0-0.633,0.514-0.633,1.147-0.633C23.443,43.854,23.953,43.854,23.953,44.486z"/>
		</g>
		<g>
			<circle fill="#A0104B" cx="29.269" cy="44.486" r="1.148"/>
			<path fill="#8E0939" d="M30.417,44.486c0,0.637-0.515,1.148-1.149,1.148c-0.634,0-1.146-0.512-1.146-1.148
				c0-0.633,0.513-0.633,1.146-0.633C29.902,43.854,30.417,43.854,30.417,44.486z"/>
		</g>
		<g>
			<circle fill="#A0104B" cx="35.733" cy="44.486" r="1.147"/>
			<path fill="#8E0939" d="M36.881,44.486c0,0.637-0.514,1.148-1.148,1.148c-0.636,0-1.146-0.512-1.146-1.148
				c0-0.633,0.511-0.633,1.146-0.633C36.367,43.854,36.881,43.854,36.881,44.486z"/>
		</g>
		<g>
			<circle fill="#A0104B" cx="42.195" cy="44.486" r="1.147"/>
			<path fill="#8E0939" d="M43.343,44.486c0,0.637-0.514,1.148-1.147,1.148s-1.147-0.512-1.147-1.148
				c0-0.633,0.514-0.633,1.147-0.633S43.343,43.854,43.343,44.486z"/>
		</g>
		<g>
			<circle fill="#A0104B" cx="48.659" cy="44.486" r="1.148"/>
			<path fill="#8E0939" d="M49.807,44.486c0,0.637-0.515,1.148-1.148,1.148c-0.633,0-1.147-0.512-1.147-1.148
				c0-0.633,0.515-0.633,1.147-0.633C49.292,43.854,49.807,43.854,49.807,44.486z"/>
		</g>
	</g>
	<g>
		<g>
			<path fill="#A0104B" d="M20.721,50.994c0,0.637-0.512,1.148-1.146,1.148c-0.631,0-1.148-0.512-1.148-1.148
				c0-0.635,0.518-1.148,1.148-1.148C20.209,49.846,20.721,50.359,20.721,50.994z"/>
			<path fill="#8E0939" d="M20.721,50.994c0,0.637-0.512,1.148-1.146,1.148c-0.631,0-1.148-0.512-1.148-1.148
				c0-0.635,0.518-0.635,1.148-0.635C20.209,50.359,20.721,50.359,20.721,50.994z"/>
		</g>
		<g>
			<path fill="#A0104B" d="M27.186,50.994c0,0.637-0.511,1.148-1.148,1.148c-0.635,0-1.146-0.512-1.146-1.148
				c0-0.635,0.512-1.148,1.146-1.148C26.675,49.846,27.186,50.359,27.186,50.994z"/>
			<path fill="#8E0939" d="M27.186,50.994c0,0.637-0.511,1.148-1.148,1.148c-0.635,0-1.146-0.512-1.146-1.148
				c0-0.635,0.512-0.635,1.146-0.635C26.675,50.359,27.186,50.359,27.186,50.994z"/>
		</g>
		<g>
			<circle fill="#A0104B" cx="32.501" cy="50.994" r="1.147"/>
			<path fill="#8E0939" d="M33.648,50.994c0,0.637-0.514,1.148-1.148,1.148s-1.146-0.512-1.146-1.148
				c0-0.635,0.512-0.635,1.146-0.635S33.648,50.359,33.648,50.994z"/>
		</g>
		<g>
			<circle fill="#A0104B" cx="38.966" cy="50.994" r="1.147"/>
			<path fill="#8E0939" d="M40.113,50.994c0,0.637-0.515,1.148-1.148,1.148c-0.635,0-1.146-0.512-1.146-1.148
				c0-0.635,0.512-0.635,1.146-0.635C39.599,50.359,40.113,50.359,40.113,50.994z"/>
		</g>
		<g>
			<circle fill="#A0104B" cx="45.427" cy="50.994" r="1.147"/>
			<path fill="#8E0939" d="M46.574,50.994c0,0.637-0.513,1.148-1.146,1.148c-0.635,0-1.147-0.512-1.147-1.148
				c0-0.635,0.513-0.635,1.147-0.635C46.062,50.359,46.574,50.359,46.574,50.994z"/>
		</g>
	</g>
	<g>
		<g>
			<path fill="#A0104B" d="M23.952,56.979c0,0.637-0.509,1.148-1.147,1.148c-0.635,0-1.146-0.512-1.146-1.148
				c0-0.635,0.512-1.148,1.146-1.148C23.443,55.83,23.952,56.344,23.952,56.979z"/>
			<path fill="#8E0939" d="M23.952,56.979c0,0.637-0.509,1.148-1.147,1.148c-0.635,0-1.146-0.512-1.146-1.148
				c0-0.635,0.512-0.635,1.146-0.635C23.443,56.344,23.952,56.344,23.952,56.979z"/>
		</g>
		<g>
			<circle fill="#A0104B" cx="29.269" cy="56.979" r="1.147"/>
			<path fill="#8E0939" d="M30.416,56.979c0,0.637-0.514,1.148-1.148,1.148c-0.634,0-1.146-0.512-1.146-1.148
				c0-0.635,0.513-0.635,1.146-0.635C29.902,56.344,30.416,56.344,30.416,56.979z"/>
		</g>
		<g>
			<circle fill="#A0104B" cx="35.732" cy="56.979" r="1.148"/>
			<path fill="#8E0939" d="M36.881,56.979c0,0.637-0.516,1.148-1.148,1.148c-0.636,0-1.148-0.512-1.148-1.148
				c0-0.635,0.513-0.635,1.148-0.635C36.365,56.344,36.881,56.344,36.881,56.979z"/>
		</g>
		<g>
			<circle fill="#A0104B" cx="42.195" cy="56.979" r="1.147"/>
			<path fill="#8E0939" d="M43.342,56.979c0,0.637-0.513,1.148-1.146,1.148c-0.635,0-1.147-0.512-1.147-1.148
				c0-0.635,0.513-0.635,1.147-0.635C42.829,56.344,43.342,56.344,43.342,56.979z"/>
		</g>
	</g>
	<path fill="#3A8708" d="M41.312,3.554c0,0,0.301-2.779-2.545-3.045c-2.845-0.264-4.342,5.164-4.342,5.164s0-3.441-1.498-4.633
		c-0.165-0.133-0.306-0.168-0.428-0.139c-0.121-0.029-0.262,0.006-0.428,0.139c-1.498,1.191-1.498,4.633-1.498,4.633
		s-1.497-5.428-4.342-5.164c-2.846,0.266-2.545,3.045-2.545,3.045c-1.347-2.912-10.331-5.428-7.486,2.385
		c2.475,6.793,13.21,8.379,15.969,8.678c0.005,0.033,0.01,0.061,0.01,0.061s0.115-0.008,0.32-0.025
		c0.205,0.018,0.32,0.025,0.32,0.025s0.005-0.027,0.01-0.061c2.759-0.299,13.495-1.885,15.969-8.678
		C51.644-1.874,42.66,0.642,41.312,3.554z"/>
	<path fill="#49A010" d="M15.977,1.87c0.065,0.217,0.139,0.441,0.225,0.678c2.475,6.795,13.21,8.381,15.969,8.678
		c0.005,0.035,0.01,0.062,0.01,0.062s0.115-0.01,0.32-0.027c0.205,0.018,0.32,0.027,0.32,0.027s0.005-0.027,0.01-0.062
		c2.759-0.297,13.495-1.883,15.969-8.678c0.086-0.236,0.16-0.461,0.226-0.678c-1.383-2.465-6.699-0.502-7.712,1.684
		c0,0,0.301-2.779-2.545-3.045c-2.845-0.264-4.342,5.164-4.342,5.164s0-3.441-1.498-4.633c-0.165-0.133-0.306-0.168-0.428-0.139
		c-0.121-0.029-0.262,0.006-0.428,0.139c-1.498,1.191-1.498,4.633-1.498,4.633s-1.497-5.428-4.342-5.164
		c-2.846,0.266-2.545,3.045-2.545,3.045C22.676,1.368,17.359-0.595,15.977,1.87z"/>
</g>
</svg>
