<?xml version="1.0" encoding="utf-8"?>
<!-- Generator: Adobe Illustrator 16.0.0, SVG Export Plug-In . SVG Version: 6.00 Build 0)  -->
<!DOCTYPE svg PUBLIC "-//W3C//DTD SVG 1.1//EN" "http://www.w3.org/Graphics/SVG/1.1/DTD/svg11.dtd">
<svg version="1.1" id="Layer_1" xmlns="http://www.w3.org/2000/svg" xmlns:xlink="http://www.w3.org/1999/xlink" x="0px" y="0px"
	 width="65px" height="65px" viewBox="0 0 65 65" enable-background="new 0 0 65 65" xml:space="preserve">
<g>
	<g>
		<g>
			<g>
				<path fill="#FFD110" d="M36.975,11.438c0,2.471-2.004,4.474-4.475,4.474c-2.469,0-4.475-2.003-4.475-4.474
					C28.025,8.964,30.031,0.5,32.5,0.5C34.971,0.5,36.975,8.964,36.975,11.438z"/>
				<path fill="#F7B90B" d="M32.5,0.5c2.471,0,4.475,8.464,4.475,10.938c0,2.471-2.004,4.474-4.475,4.474"/>
			</g>
			<g>
				<path fill="#FFD110" d="M28.025,53.562c0-2.471,2.004-4.474,4.475-4.474c2.469,0,4.475,2.003,4.475,4.474
					c0,2.475-2.006,10.938-4.475,10.938C30.029,64.5,28.025,56.036,28.025,53.562z"/>
				<path fill="#F7B90B" d="M32.5,64.5c-2.471,0-4.475-8.464-4.475-10.938c0-2.471,2.004-4.474,4.475-4.474"/>
			</g>
		</g>
		<g>
			<g>
				<path fill="#FFD110" d="M50.557,20.771c-1.748,1.747-4.58,1.748-6.326,0c-1.746-1.746-1.748-4.58-0.002-6.327
					c1.75-1.75,9.152-6.316,10.898-4.571C56.875,11.62,52.307,19.022,50.557,20.771z"/>
				<path fill="#F7B90B" d="M55.127,9.872c1.748,1.748-2.82,9.15-4.57,10.898c-1.748,1.747-4.58,1.748-6.326,0"/>
			</g>
			<g>
				<path fill="#FFD110" d="M14.443,44.229c1.746-1.747,4.58-1.747,6.326,0c1.746,1.746,1.748,4.58,0.002,6.328
					c-1.75,1.748-9.152,6.316-10.898,4.57C8.125,53.38,12.693,45.979,14.443,44.229z"/>
				<path fill="#F7B90B" d="M9.873,55.128c-1.748-1.748,2.82-9.149,4.57-10.898c1.746-1.747,4.58-1.747,6.326,0"/>
			</g>
		</g>
		<g>
			<g>
				<path fill="#FFD110" d="M53.561,36.974c-2.469,0.002-4.475-2.002-4.473-4.473c0-2.471,2.003-4.475,4.473-4.475
					c2.475,0,10.938,2.004,10.939,4.474C64.5,34.972,56.035,36.976,53.561,36.974z"/>
				<path fill="#F7B90B" d="M64.5,32.5c0,2.472-8.465,4.476-10.939,4.474c-2.469,0.002-4.475-2.002-4.473-4.473"/>
			</g>
			<g>
				<path fill="#FFD110" d="M11.438,28.026c2.471,0,4.475,2.004,4.475,4.474s-2.004,4.474-4.475,4.476
					C8.963,36.974,0.5,34.97,0.5,32.5C0.5,30.028,8.963,28.026,11.438,28.026z"/>
				<path fill="#F7B90B" d="M0.5,32.5c0-2.472,8.463-4.474,10.938-4.474c2.471,0,4.475,2.004,4.475,4.474"/>
			</g>
		</g>
		<g>
			<g>
				<path fill="#FFD110" d="M44.228,50.556c-1.745-1.744-1.747-4.579,0.001-6.324c1.747-1.746,4.58-1.749,6.328-0.002
					c1.748,1.749,6.316,9.152,4.57,10.898C53.379,56.876,45.977,52.306,44.228,50.556z"/>
				<path fill="#F7B90B" d="M55.127,55.128c-1.748,1.748-9.15-2.822-10.899-4.572c-1.745-1.744-1.747-4.579,0.001-6.324"/>
			</g>
			<g>
				<path fill="#FFD110" d="M20.77,14.443c1.746,1.747,1.748,4.581,0,6.327c-1.746,1.747-4.58,1.747-6.326,0
					c-1.75-1.75-6.317-9.15-4.57-10.898C11.62,8.125,19.021,12.693,20.77,14.443z"/>
				<path fill="#F7B90B" d="M9.873,9.872c1.747-1.747,9.148,2.821,10.896,4.571c1.746,1.747,1.748,4.581,0,6.327"/>
			</g>
		</g>
	</g>
	<g>
		<g>
			<g>
				<path fill="#FFD110" d="M25.844,12.022c1.236,2.14,0.503,4.877-1.637,6.111c-2.139,1.234-4.875,0.502-6.113-1.637
					c-1.234-2.143-3.732-10.476-1.593-11.71C18.641,3.552,24.607,9.88,25.844,12.022z"/>
				<path fill="#F7B90B" d="M16.501,4.787c2.14-1.235,8.106,5.093,9.343,7.235c1.236,2.14,0.503,4.877-1.637,6.111"/>
			</g>
			<g>
				<path fill="#FFD110" d="M39.157,52.978c-1.235-2.14-0.502-4.877,1.636-6.112c2.139-1.234,4.88-0.501,6.113,1.639
					c1.237,2.142,3.731,10.474,1.592,11.708C46.361,61.448,40.393,55.12,39.157,52.978z"/>
				<path fill="#F7B90B" d="M48.498,60.212c-2.137,1.236-8.105-5.092-9.341-7.234c-1.235-2.14-0.502-4.877,1.636-6.112"/>
			</g>
		</g>
		<g>
			<g>
				<path fill="#FFD110" d="M42.274,13.315c-0.64,2.385-3.093,3.802-5.479,3.162c-2.385-0.64-3.802-3.093-3.165-5.479
					c0.642-2.392,4.769-10.047,7.151-9.408C43.17,2.23,42.913,10.925,42.274,13.315z"/>
				<path fill="#F7B90B" d="M40.781,1.591c2.389,0.64,2.132,9.334,1.493,11.725c-0.64,2.385-3.093,3.802-5.479,3.162"/>
			</g>
			<g>
				<path fill="#FFD110" d="M22.728,51.687c0.64-2.386,3.095-3.803,5.479-3.162c2.387,0.638,3.805,3.091,3.165,5.479
					c-0.641,2.389-4.769,10.046-7.154,9.406C21.83,62.769,22.086,54.075,22.728,51.687z"/>
				<path fill="#F7B90B" d="M24.218,63.409c-2.388-0.641-2.132-9.334-1.49-11.723c0.64-2.386,3.095-3.803,5.479-3.162"/>
			</g>
		</g>
		<g>
			<g>
				<path fill="#FFD110" d="M52.979,25.844c-2.139,1.235-4.877,0.505-6.113-1.636c-1.234-2.141-0.5-4.877,1.639-6.113
					c2.143-1.237,10.475-3.732,11.71-1.596C61.449,18.642,55.121,24.608,52.979,25.844z"/>
				<path fill="#F7B90B" d="M60.214,16.499c1.235,2.143-5.093,8.109-7.235,9.345c-2.139,1.235-4.877,0.505-6.113-1.636"/>
			</g>
			<g>
				<path fill="#FFD110" d="M12.024,39.156c2.138-1.235,4.878-0.502,6.11,1.638c1.234,2.139,0.502,4.877-1.637,6.113
					c-2.145,1.235-10.477,3.731-11.71,1.594C3.553,46.36,9.879,40.394,12.024,39.156z"/>
				<path fill="#F7B90B" d="M4.788,48.501c-1.235-2.141,5.091-8.107,7.236-9.345c2.138-1.235,4.878-0.502,6.11,1.638"/>
			</g>
		</g>
		<g>
			<g>
				<path fill="#FFD110" d="M51.687,42.272c-2.386-0.639-3.804-3.092-3.162-5.478c0.638-2.386,3.092-3.804,5.478-3.165
					c2.391,0.641,10.047,4.768,9.407,7.152C62.771,43.171,54.076,42.915,51.687,42.272z"/>
				<path fill="#F7B90B" d="M63.409,40.782c-0.639,2.389-9.333,2.133-11.723,1.49c-2.386-0.639-3.804-3.092-3.162-5.478"/>
			</g>
			<g>
				<path fill="#FFD110" d="M13.312,22.728c2.387,0.64,3.805,3.094,3.166,5.479c-0.641,2.387-3.093,3.804-5.48,3.164
					c-2.391-0.64-10.045-4.767-9.407-7.153C2.231,21.831,10.924,22.087,13.312,22.728z"/>
				<path fill="#F7B90B" d="M1.591,24.218c0.641-2.387,9.333-2.131,11.722-1.49c2.387,0.64,3.805,3.094,3.166,5.479"/>
			</g>
		</g>
	</g>
	<g>
		<g>
			<g>
				<path fill="#FFD110" d="M16.501,18.094c2.138,1.234,2.871,3.973,1.636,6.112c-1.234,2.137-3.973,2.872-6.115,1.638
					c-2.14-1.237-8.467-7.205-7.233-9.345C6.024,14.36,14.355,16.857,16.501,18.094z"/>
				<path fill="#F7B90B" d="M4.788,16.499c1.236-2.139,9.567,0.358,11.713,1.595c2.138,1.234,2.871,3.973,1.636,6.112"/>
			</g>
			<g>
				<path fill="#FFD110" d="M48.506,46.905c-2.141-1.234-2.875-3.972-1.641-6.111c1.233-2.138,3.975-2.873,6.113-1.637
					c2.143,1.235,8.469,7.205,7.232,9.344C58.979,50.64,50.646,48.143,48.506,46.905z"/>
				<path fill="#F7B90B" d="M60.211,48.501c-1.232,2.139-9.564-0.358-11.705-1.596c-2.141-1.234-2.875-3.972-1.641-6.111"/>
			</g>
		</g>
		<g>
			<g>
				<path fill="#FFD110" d="M31.372,10.997c0.64,2.387-0.776,4.841-3.162,5.48c-2.386,0.637-4.841-0.778-5.479-3.162
					c-0.642-2.393-0.896-11.086,1.487-11.725C26.605,0.951,30.731,8.608,31.372,10.997z"/>
				<path fill="#F7B90B" d="M24.218,1.591c2.388-0.64,6.514,7.018,7.154,9.406c0.64,2.387-0.776,4.841-3.162,5.48"/>
			</g>
			<g>
				<path fill="#FFD110" d="M33.631,54.002c-0.638-2.386,0.779-4.84,3.164-5.479c2.387-0.64,4.84,0.775,5.479,3.164
					c0.642,2.39,0.894,11.084-1.493,11.723C38.395,64.049,34.271,56.392,33.631,54.002z"/>
				<path fill="#F7B90B" d="M40.781,63.409c-2.387,0.64-6.51-7.018-7.15-9.407c-0.638-2.386,0.779-4.84,3.164-5.479"/>
			</g>
		</g>
		<g>
			<g>
				<path fill="#FFD110" d="M46.906,16.497c-1.233,2.139-3.971,2.875-6.111,1.639c-2.138-1.236-2.871-3.974-1.636-6.113
					c1.235-2.143,7.204-8.469,9.343-7.236C50.641,6.024,48.144,14.355,46.906,16.497z"/>
				<path fill="#F7B90B" d="M48.502,4.786c2.139,1.238-0.358,9.569-1.596,11.711c-1.233,2.139-3.971,2.875-6.111,1.639"/>
			</g>
			<g>
				<path fill="#FFD110" d="M18.096,48.503c1.233-2.139,3.973-2.874,6.111-1.637c2.139,1.234,2.873,3.972,1.637,6.111
					c-1.236,2.143-7.205,8.471-9.343,7.234C14.361,58.978,16.855,50.646,18.096,48.503z"/>
				<path fill="#F7B90B" d="M16.501,60.212c-2.14-1.234,0.354-9.565,1.595-11.709c1.233-2.139,3.973-2.874,6.111-1.637"/>
			</g>
		</g>
		<g>
			<g>
				<path fill="#FFD110" d="M54.004,31.371c-2.385,0.64-4.842-0.776-5.477-3.163c-0.641-2.386,0.773-4.84,3.159-5.48
					c2.39-0.641,11.085-0.895,11.723,1.49C64.051,26.606,56.395,30.731,54.004,31.371z"/>
				<path fill="#F7B90B" d="M63.409,24.218c0.642,2.389-7.015,6.514-9.405,7.153c-2.385,0.64-4.842-0.776-5.477-3.163"/>
			</g>
			<g>
				<path fill="#FFD110" d="M10.998,33.631c2.385-0.64,4.84,0.776,5.48,3.162c0.641,2.387-0.774,4.84-3.166,5.479
					c-2.387,0.643-11.081,0.895-11.722-1.49C0.953,38.394,8.607,34.271,10.998,33.631z"/>
				<path fill="#F7B90B" d="M1.591,40.782c-0.638-2.389,7.017-6.512,9.407-7.151c2.385-0.64,4.84,0.776,5.48,3.162"/>
			</g>
		</g>
	</g>
	<g>
		<circle fill="#1A3D5B" cx="32.5" cy="32.5" r="18.629"/>
		<g>
			<path fill="#1A3D5B" d="M32.5,52.281c-5.285,0-10.252-2.057-13.988-5.793c-7.713-7.714-7.713-20.263,0-27.976
				c3.736-3.736,8.705-5.795,13.988-5.795s10.25,2.059,13.987,5.795c7.713,7.713,7.713,20.262,0,27.975
				C42.75,50.224,37.783,52.281,32.5,52.281z"/>
			<path fill="#E5A10A" d="M32.5,13.87c4.767,0,9.536,1.818,13.173,5.457c7.274,7.275,7.274,19.07,0,26.346
				c-3.637,3.638-8.406,5.456-13.173,5.456c-4.768,0-9.537-1.818-13.173-5.455c-7.274-7.276-7.274-19.071,0-26.347
				C22.963,15.688,27.734,13.87,32.5,13.87 M32.5,11.565c-5.592,0-10.848,2.178-14.803,6.133c-8.161,8.161-8.161,21.441,0,29.605
				c3.955,3.953,9.211,6.13,14.803,6.13c5.591,0,10.848-2.177,14.802-6.132c8.163-8.162,8.163-21.442,0-29.604
				C43.348,13.743,38.092,11.565,32.5,11.565L32.5,11.565z"/>
		</g>
		<path fill="#082130" d="M45.673,19.327c7.274,7.275,7.274,19.07,0,26.346c-7.276,7.275-19.07,7.275-26.346,0.001"/>
		<g>
			<path fill="#0E2C42" d="M46.327,22.417c0,0.278-0.225,0.504-0.504,0.504H19.177c-0.28,0-0.505-0.226-0.505-0.504l0,0
				c0-0.277,0.225-0.504,0.505-0.504h26.646C46.103,21.913,46.327,22.14,46.327,22.417L46.327,22.417z"/>
			<path fill="#0E2C42" d="M46.327,27.458c0,0.278-0.225,0.505-0.504,0.505H19.177c-0.28,0-0.505-0.227-0.505-0.505l0,0
				c0-0.277,0.225-0.504,0.505-0.504h26.646C46.103,26.954,46.327,27.181,46.327,27.458L46.327,27.458z"/>
			<path fill="#0E2C42" d="M46.327,32.5c0,0.278-0.225,0.504-0.504,0.504H19.177c-0.28,0-0.505-0.226-0.505-0.504l0,0
				c0-0.278,0.225-0.505,0.505-0.505h26.646C46.103,31.995,46.327,32.222,46.327,32.5L46.327,32.5z"/>
			<path fill="#0E2C42" d="M46.327,37.541c0,0.278-0.225,0.505-0.504,0.505H19.177c-0.28,0-0.505-0.227-0.505-0.505l0,0
				c0-0.278,0.225-0.504,0.505-0.504h26.646C46.103,37.037,46.327,37.263,46.327,37.541L46.327,37.541z"/>
			<path fill="#0E2C42" d="M46.327,42.583c0,0.277-0.225,0.504-0.504,0.504H19.177c-0.28,0-0.505-0.227-0.505-0.504l0,0
				c0-0.278,0.225-0.504,0.505-0.504h26.646C46.103,42.079,46.327,42.305,46.327,42.583L46.327,42.583z"/>
		</g>
		<g>
			<path fill="#0E2C42" d="M42.582,46.327c-0.279,0-0.504-0.225-0.504-0.504V19.177c0-0.279,0.225-0.504,0.504-0.504l0,0
				c0.277,0,0.504,0.225,0.504,0.504v26.646C43.086,46.103,42.859,46.327,42.582,46.327L42.582,46.327z"/>
			<path fill="#0E2C42" d="M37.541,46.327c-0.279,0-0.504-0.225-0.504-0.504V19.177c0-0.279,0.225-0.504,0.504-0.504l0,0
				c0.277,0,0.504,0.225,0.504,0.504v26.646C38.045,46.103,37.818,46.327,37.541,46.327L37.541,46.327z"/>
			<path fill="#0E2C42" d="M32.5,46.327c-0.279,0-0.504-0.225-0.504-0.504V19.177c0-0.279,0.225-0.504,0.504-0.504l0,0
				c0.277,0,0.504,0.225,0.504,0.504v26.646C33.004,46.103,32.777,46.327,32.5,46.327L32.5,46.327z"/>
			<path fill="#0E2C42" d="M27.459,46.327c-0.279,0-0.506-0.225-0.506-0.504V19.177c0-0.279,0.227-0.504,0.506-0.504l0,0
				c0.277,0,0.504,0.225,0.504,0.504v26.646C27.963,46.103,27.736,46.327,27.459,46.327L27.459,46.327z"/>
			<path fill="#0E2C42" d="M22.417,46.327c-0.278,0-0.504-0.225-0.504-0.504V19.177c0-0.279,0.226-0.504,0.504-0.504l0,0
				c0.277,0,0.505,0.225,0.505,0.504v26.646C22.922,46.103,22.694,46.327,22.417,46.327L22.417,46.327z"/>
		</g>
	</g>
</g>
</svg>
