<?xml version="1.0" encoding="utf-8"?>
<!-- Generator: Adobe Illustrator 16.0.0, SVG Export Plug-In . SVG Version: 6.00 Build 0)  -->
<!DOCTYPE svg PUBLIC "-//W3C//DTD SVG 1.1//EN" "http://www.w3.org/Graphics/SVG/1.1/DTD/svg11.dtd">
<svg version="1.1" id="Layer_1" xmlns="http://www.w3.org/2000/svg" xmlns:xlink="http://www.w3.org/1999/xlink" x="0px" y="0px"
	 width="65px" height="65px" viewBox="0 0 65 65" enable-background="new 0 0 65 65" xml:space="preserve">
<g>
	<g>
		<circle fill="#FFB133" cx="32.5" cy="32.5" r="22.661"/>
		<path fill="#F49C00" d="M55.161,32.5c0,12.514-10.146,22.66-22.661,22.66S9.84,45.013,9.84,32.5
			c0-12.516,10.145-18.332,22.66-18.332S55.161,19.984,55.161,32.5z"/>
		<path fill="#F28A00" d="M55.161,32.5c0,12.514-10.146,22.66-22.661,22.66S9.84,45.013,9.84,32.5"/>
		<g>
			<g>
				<path fill="#F28A00" d="M50.25,15.591c-0.156-0.156-0.256-0.373-0.256-0.616c0-1.317,0.514-2.558,1.447-3.491
					c0.932-0.933,2.172-1.447,3.492-1.447c0.48,0.002,0.871,0.392,0.871,0.872c0,0.483-0.391,0.871-0.871,0.871
					c-0.855,0-1.656,0.333-2.26,0.937s-0.936,1.404-0.936,2.259c0,0.481-0.392,0.872-0.873,0.872
					C50.626,15.847,50.408,15.75,50.25,15.591z"/>
			</g>
			<g>
				<path fill="#F28A00" d="M14.75,49.406c0.157,0.159,0.256,0.378,0.256,0.617c0.002,1.318-0.514,2.562-1.445,3.49
					c-0.934,0.936-2.174,1.447-3.492,1.447c-0.482,0-0.872-0.389-0.872-0.873c0-0.479,0.39-0.871,0.872-0.871
					c0.854,0,1.654-0.33,2.26-0.936c0.6-0.602,0.934-1.403,0.934-2.258c0-0.482,0.391-0.871,0.873-0.871
					C14.374,49.152,14.592,49.251,14.75,49.406z"/>
			</g>
		</g>
		<g>
			<g>
				<g>
					<path fill="#F28A00" d="M33.096,7.994c-0.224,0-0.445-0.086-0.616-0.257c-0.934-0.931-1.447-2.172-1.447-3.489
						c0-1.32,0.514-2.562,1.447-3.492c0.341-0.34,0.892-0.34,1.231,0s0.34,0.892,0,1.232c-0.602,0.604-0.934,1.406-0.934,2.26
						c0,0.852,0.332,1.652,0.934,2.258c0.34,0.34,0.34,0.891,0,1.231C33.542,7.908,33.32,7.994,33.096,7.994z"/>
				</g>
				<g>
					<path fill="#F28A00" d="M31.903,57.006c0.224,0,0.447,0.085,0.616,0.255c0.934,0.93,1.447,2.172,1.447,3.49
						c0,1.32-0.514,2.559-1.447,3.492c-0.34,0.342-0.891,0.342-1.231,0c-0.34-0.34-0.34-0.891,0-1.23
						c0.604-0.607,0.935-1.408,0.935-2.262c0-0.852-0.331-1.655-0.935-2.259c-0.34-0.341-0.34-0.892,0-1.231
						C31.459,57.091,31.68,57.006,31.903,57.006z"/>
				</g>
			</g>
			<g>
				<g>
					<path fill="#F28A00" d="M57.006,33.093c0-0.221,0.084-0.442,0.256-0.613c0.932-0.934,2.173-1.447,3.49-1.447
						c1.32,0,2.561,0.514,3.493,1.447c0.339,0.341,0.341,0.893,0,1.232c-0.342,0.34-0.892,0.34-1.231,0
						c-0.605-0.605-1.407-0.936-2.262-0.936c-0.852,0-1.654,0.33-2.258,0.936c-0.342,0.34-0.892,0.34-1.232,0
						C57.09,33.542,57.008,33.32,57.006,33.093z"/>
				</g>
				<g>
					<path fill="#F28A00" d="M7.992,31.904c0,0.223-0.084,0.447-0.254,0.617c-0.931,0.934-2.172,1.445-3.488,1.445
						c-1.323,0-2.562-0.512-3.493-1.445c-0.343-0.342-0.343-0.893,0-1.233c0.338-0.341,0.89-0.341,1.231,0
						c0.605,0.604,1.404,0.937,2.262,0.937c0.85,0,1.653-0.332,2.255-0.937c0.339-0.341,0.892-0.341,1.233,0
						C7.908,31.459,7.992,31.683,7.992,31.904z"/>
				</g>
			</g>
			<g>
				<g>
					<path fill="#F28A00" d="M49.407,50.25c0.157-0.159,0.374-0.255,0.612-0.255c1.32-0.002,2.562,0.514,3.495,1.444
						c0.934,0.936,1.447,2.177,1.447,3.494c-0.003,0.479-0.391,0.87-0.871,0.87c-0.483,0-0.873-0.388-0.873-0.87
						c0.001-0.855-0.332-1.654-0.937-2.261c-0.603-0.604-1.404-0.937-2.262-0.936c-0.479,0-0.869-0.39-0.869-0.871
						C49.152,50.626,49.25,50.408,49.407,50.25z"/>
				</g>
				<g>
					<path fill="#F28A00" d="M15.591,14.75c-0.156,0.156-0.376,0.256-0.615,0.256c-1.317,0.004-2.562-0.513-3.489-1.444
						c-0.938-0.935-1.449-2.173-1.449-3.493c0-0.484,0.391-0.871,0.872-0.871c0.48,0,0.872,0.387,0.872,0.871
						c0,0.854,0.332,1.654,0.937,2.262c0.603,0.602,1.403,0.934,2.258,0.932c0.48,0,0.872,0.393,0.872,0.871
						C15.848,14.375,15.748,14.592,15.591,14.75z"/>
				</g>
			</g>
		</g>
		<g>
			<g>
				<g>
					<path fill="#F28A00" d="M20.763,10.981c-0.192,0.109-0.429,0.146-0.664,0.085c-1.272-0.341-2.339-1.158-2.996-2.299
						c-0.659-1.143-0.837-2.475-0.493-3.748c0.122-0.467,0.602-0.742,1.066-0.617c0.467,0.123,0.741,0.604,0.615,1.066
						c-0.221,0.828-0.104,1.689,0.32,2.428c0.426,0.736,1.113,1.266,1.939,1.487c0.465,0.123,0.738,0.604,0.618,1.065
						C21.106,10.681,20.953,10.869,20.763,10.981z"/>
				</g>
				<g>
					<path fill="#F28A00" d="M44.236,54.021c0.191-0.111,0.429-0.15,0.662-0.085c1.271,0.337,2.338,1.156,2.996,2.297
						c0.66,1.145,0.837,2.476,0.497,3.749c-0.128,0.466-0.607,0.742-1.071,0.615c-0.461-0.126-0.74-0.602-0.615-1.068
						c0.222-0.825,0.105-1.685-0.319-2.424c-0.427-0.738-1.114-1.266-1.938-1.486c-0.468-0.123-0.743-0.604-0.62-1.067
						C43.894,54.317,44.044,54.132,44.236,54.021z"/>
				</g>
			</g>
			<g>
				<g>
					<path fill="#F28A00" d="M54.019,20.761c-0.108-0.189-0.147-0.426-0.085-0.66c0.341-1.271,1.158-2.339,2.301-2.998
						c1.144-0.66,2.471-0.834,3.746-0.494c0.465,0.129,0.741,0.604,0.618,1.068c-0.128,0.466-0.604,0.742-1.069,0.615
						c-0.824-0.221-1.686-0.105-2.422,0.32c-0.743,0.427-1.271,1.114-1.492,1.941c-0.123,0.467-0.6,0.742-1.066,0.615
						C54.314,21.109,54.135,20.956,54.019,20.761z"/>
				</g>
				<g>
					<path fill="#F28A00" d="M10.979,44.24c0.113,0.19,0.146,0.428,0.085,0.66c-0.338,1.272-1.159,2.34-2.294,2.996
						c-1.148,0.661-2.476,0.836-3.754,0.492c-0.465-0.123-0.74-0.6-0.611-1.064c0.123-0.465,0.598-0.742,1.065-0.617
						c0.824,0.223,1.686,0.109,2.427-0.32c0.736-0.423,1.264-1.111,1.484-1.938c0.123-0.465,0.6-0.742,1.07-0.617
						C10.683,43.896,10.865,44.047,10.979,44.24z"/>
				</g>
			</g>
			<g>
				<g>
					<path fill="#F28A00" d="M56.016,39.418c0.055-0.214,0.198-0.409,0.406-0.527c1.141-0.661,2.472-0.836,3.748-0.495
						c1.273,0.344,2.34,1.16,2.996,2.301c0.238,0.417,0.102,0.951-0.319,1.191c-0.416,0.242-0.946,0.098-1.188-0.319
						c-0.426-0.74-1.113-1.266-1.94-1.489c-0.824-0.221-1.686-0.11-2.424,0.321c-0.421,0.239-0.95,0.098-1.191-0.32
						C55.984,39.872,55.959,39.632,56.016,39.418z"/>
				</g>
				<g>
					<path fill="#F28A00" d="M8.98,25.582c-0.055,0.215-0.197,0.409-0.404,0.531c-1.142,0.662-2.477,0.836-3.743,0.493
						c-1.279-0.341-2.343-1.157-3.003-2.302c-0.241-0.418-0.098-0.949,0.32-1.189c0.416-0.24,0.947-0.102,1.191,0.318
						c0.426,0.739,1.11,1.268,1.941,1.489c0.82,0.221,1.682,0.108,2.42-0.32c0.416-0.241,0.949-0.098,1.188,0.319
						C9.014,25.13,9.037,25.367,8.98,25.582z"/>
				</g>
			</g>
		</g>
		<g>
			<g>
				<g>
					<path fill="#F28A00" d="M11.572,19.734c-0.11,0.191-0.297,0.34-0.529,0.404c-1.272,0.342-2.604,0.167-3.745-0.492
						c-1.144-0.66-1.961-1.726-2.302-3c-0.127-0.465,0.15-0.943,0.613-1.066c0.471-0.126,0.945,0.152,1.068,0.615
						C6.9,17.021,7.432,17.71,8.17,18.136c0.734,0.425,1.598,0.539,2.425,0.318c0.462-0.123,0.938,0.153,1.067,0.615
						C11.723,19.3,11.684,19.539,11.572,19.734z"/>
				</g>
				<g>
					<path fill="#F28A00" d="M53.422,45.269c0.111-0.19,0.3-0.344,0.531-0.402c1.273-0.348,2.604-0.169,3.744,0.49
						c1.146,0.66,1.963,1.726,2.304,2.998c0.126,0.467-0.15,0.947-0.618,1.068c-0.463,0.121-0.941-0.15-1.064-0.617
						c-0.227-0.825-0.756-1.514-1.492-1.941c-0.737-0.426-1.6-0.539-2.424-0.32c-0.463,0.129-0.939-0.148-1.068-0.611
						C53.273,45.699,53.312,45.462,53.422,45.269z"/>
				</g>
			</g>
			<g>
				<g>
					<path fill="#F28A00" d="M45.266,11.576c-0.191-0.109-0.342-0.295-0.401-0.529c-0.345-1.271-0.17-2.604,0.495-3.746
						c0.659-1.145,1.721-1.959,2.992-2.302c0.469-0.123,0.943,0.151,1.07,0.615c0.119,0.47-0.152,0.945-0.616,1.068
						c-0.825,0.22-1.515,0.75-1.94,1.489c-0.43,0.738-0.545,1.6-0.319,2.426c0.124,0.465-0.149,0.943-0.616,1.068
						C45.695,11.728,45.463,11.685,45.266,11.576z"/>
				</g>
				<g>
					<path fill="#F28A00" d="M19.731,53.427c0.19,0.109,0.341,0.299,0.401,0.529c0.347,1.271,0.17,2.605-0.49,3.742
						c-0.662,1.148-1.723,1.963-2.998,2.305c-0.467,0.124-0.944-0.148-1.067-0.617c-0.126-0.464,0.15-0.942,0.617-1.065
						c0.824-0.222,1.515-0.749,1.943-1.491c0.423-0.736,0.538-1.598,0.313-2.424c-0.122-0.463,0.148-0.938,0.62-1.066
						C19.302,53.279,19.537,53.318,19.731,53.427z"/>
				</g>
			</g>
			<g>
				<g>
					<path fill="#F28A00" d="M56.323,26.734c-0.057-0.214-0.034-0.453,0.087-0.66c0.658-1.141,1.725-1.959,3-2.303
						c1.273-0.338,2.605-0.164,3.746,0.496c0.412,0.24,0.562,0.771,0.314,1.191c-0.236,0.416-0.768,0.558-1.187,0.316
						c-0.738-0.43-1.597-0.537-2.423-0.32c-0.825,0.223-1.516,0.748-1.943,1.492c-0.239,0.416-0.771,0.558-1.19,0.316
						C56.52,27.144,56.381,26.949,56.323,26.734z"/>
				</g>
				<g>
					<path fill="#F28A00" d="M8.674,38.269c0.057,0.214,0.03,0.453-0.088,0.662c-0.658,1.143-1.727,1.962-2.993,2.299
						c-1.28,0.346-2.608,0.168-3.753-0.492c-0.418-0.242-0.561-0.771-0.314-1.189c0.237-0.418,0.768-0.562,1.191-0.322
						c0.734,0.43,1.592,0.545,2.422,0.32c0.82-0.217,1.514-0.746,1.936-1.488C7.315,37.644,7.85,37.5,8.266,37.74
						C8.477,37.861,8.612,38.055,8.674,38.269z"/>
				</g>
			</g>
		</g>
		<g>
			<g>
				<g>
					<path fill="#F28A00" d="M11.572,19.734c-0.11,0.191-0.297,0.34-0.529,0.404c-1.272,0.342-2.604,0.167-3.745-0.492
						c-1.144-0.66-1.961-1.726-2.302-3c-0.127-0.465,0.15-0.943,0.613-1.066c0.471-0.126,0.945,0.152,1.068,0.615
						C6.9,17.021,7.432,17.71,8.17,18.136c0.734,0.425,1.598,0.539,2.425,0.318c0.462-0.123,0.938,0.153,1.067,0.615
						C11.723,19.3,11.684,19.539,11.572,19.734z"/>
				</g>
				<g>
					<path fill="#F28A00" d="M53.422,45.269c0.111-0.19,0.3-0.344,0.531-0.402c1.273-0.348,2.604-0.169,3.744,0.49
						c1.146,0.66,1.963,1.726,2.304,2.998c0.126,0.467-0.15,0.947-0.618,1.068c-0.463,0.121-0.941-0.15-1.064-0.617
						c-0.227-0.825-0.756-1.514-1.492-1.941c-0.737-0.426-1.6-0.539-2.424-0.32c-0.463,0.129-0.939-0.148-1.068-0.611
						C53.273,45.699,53.312,45.462,53.422,45.269z"/>
				</g>
			</g>
			<g>
				<g>
					<path fill="#F28A00" d="M45.266,11.576c-0.191-0.109-0.342-0.295-0.401-0.529c-0.345-1.271-0.17-2.604,0.495-3.746
						c0.659-1.145,1.721-1.959,2.992-2.302c0.469-0.123,0.943,0.151,1.07,0.615c0.119,0.47-0.152,0.945-0.616,1.068
						c-0.825,0.22-1.515,0.75-1.94,1.489c-0.43,0.738-0.545,1.6-0.319,2.426c0.124,0.465-0.149,0.943-0.616,1.068
						C45.695,11.728,45.463,11.685,45.266,11.576z"/>
				</g>
				<g>
					<path fill="#F28A00" d="M19.731,53.427c0.19,0.109,0.341,0.299,0.401,0.529c0.347,1.271,0.17,2.605-0.49,3.742
						c-0.662,1.148-1.723,1.963-2.998,2.305c-0.467,0.124-0.944-0.148-1.067-0.617c-0.126-0.464,0.15-0.942,0.617-1.065
						c0.824-0.222,1.515-0.749,1.943-1.491c0.423-0.736,0.538-1.598,0.313-2.424c-0.122-0.463,0.148-0.938,0.62-1.066
						C19.302,53.279,19.537,53.318,19.731,53.427z"/>
				</g>
			</g>
			<g>
				<g>
					<path fill="#F28A00" d="M56.323,26.734c-0.057-0.214-0.034-0.453,0.087-0.66c0.658-1.141,1.725-1.959,3-2.303
						c1.273-0.338,2.605-0.164,3.746,0.496c0.412,0.24,0.562,0.771,0.314,1.191c-0.236,0.416-0.768,0.558-1.187,0.316
						c-0.738-0.43-1.597-0.537-2.423-0.32c-0.825,0.223-1.516,0.748-1.943,1.492c-0.239,0.416-0.771,0.558-1.19,0.316
						C56.52,27.144,56.381,26.949,56.323,26.734z"/>
				</g>
				<g>
					<path fill="#F28A00" d="M8.674,38.269c0.057,0.214,0.03,0.453-0.088,0.662c-0.658,1.143-1.727,1.962-2.993,2.299
						c-1.28,0.346-2.608,0.168-3.753-0.492c-0.418-0.242-0.561-0.771-0.314-1.189c0.237-0.418,0.768-0.562,1.191-0.322
						c0.734,0.43,1.592,0.545,2.422,0.32c0.82-0.217,1.514-0.746,1.936-1.488C7.315,37.644,7.85,37.5,8.266,37.74
						C8.477,37.861,8.612,38.055,8.674,38.269z"/>
				</g>
			</g>
		</g>
		<g>
			<g>
				<g>
					<path fill="#F28A00" d="M10.982,44.242c0.109,0.191,0.143,0.428,0.081,0.664c-0.341,1.271-1.159,2.337-2.298,2.994
						c-1.145,0.66-2.472,0.836-3.75,0.496c-0.465-0.125-0.738-0.605-0.613-1.066c0.125-0.471,0.6-0.742,1.064-0.619
						c0.827,0.223,1.688,0.105,2.427-0.32c0.736-0.425,1.267-1.112,1.487-1.939c0.123-0.462,0.604-0.736,1.07-0.621
						C10.683,43.896,10.869,44.047,10.982,44.242z"/>
				</g>
				<g>
					<path fill="#F28A00" d="M54.019,20.767c-0.108-0.192-0.15-0.432-0.081-0.662c0.337-1.275,1.157-2.34,2.293-2.996
						c1.145-0.661,2.475-0.836,3.75-0.496c0.465,0.125,0.741,0.604,0.615,1.068c-0.125,0.462-0.602,0.742-1.066,0.611
						c-0.83-0.215-1.688-0.1-2.426,0.324c-0.739,0.426-1.268,1.117-1.488,1.938c-0.119,0.464-0.6,0.74-1.066,0.621
						C54.314,21.111,54.135,20.957,54.019,20.767z"/>
				</g>
			</g>
			<g>
				<g>
					<path fill="#F28A00" d="M20.76,10.986c-0.189,0.106-0.426,0.146-0.657,0.081c-1.276-0.337-2.343-1.155-3-2.3
						c-0.659-1.146-0.837-2.471-0.497-3.746c0.131-0.464,0.605-0.74,1.07-0.619c0.467,0.133,0.741,0.607,0.615,1.07
						c-0.221,0.824-0.104,1.686,0.322,2.424c0.424,0.74,1.111,1.271,1.938,1.49c0.468,0.125,0.743,0.601,0.618,1.068
						C21.106,10.689,20.953,10.87,20.76,10.986z"/>
				</g>
				<g>
					<path fill="#F28A00" d="M44.236,54.024c0.191-0.111,0.429-0.147,0.662-0.085c1.275,0.338,2.342,1.154,2.996,2.296
						c0.66,1.146,0.837,2.476,0.492,3.747c-0.123,0.467-0.599,0.746-1.066,0.617c-0.461-0.121-0.74-0.6-0.615-1.064
						c0.226-0.826,0.113-1.688-0.315-2.432c-0.427-0.733-1.118-1.263-1.941-1.482c-0.464-0.124-0.743-0.598-0.618-1.069
						C43.894,54.322,44.047,54.136,44.236,54.024z"/>
				</g>
			</g>
			<g>
				<g>
					<path fill="#F28A00" d="M39.42,8.986c-0.219-0.055-0.412-0.195-0.528-0.404c-0.664-1.143-0.837-2.475-0.497-3.75
						c0.344-1.271,1.158-2.339,2.303-2.996c0.416-0.236,0.95-0.1,1.191,0.322c0.24,0.414,0.096,0.945-0.32,1.186
						c-0.742,0.427-1.268,1.114-1.491,1.941C39.859,6.111,39.969,6.97,40.4,7.71c0.238,0.42,0.096,0.948-0.323,1.191
						C39.869,9.019,39.63,9.042,39.42,8.986z"/>
				</g>
				<g>
					<path fill="#F28A00" d="M25.584,56.021c0.211,0.057,0.404,0.199,0.531,0.406c0.656,1.143,0.83,2.477,0.49,3.74
						c-0.342,1.283-1.158,2.346-2.307,3.004c-0.413,0.244-0.944,0.101-1.184-0.32c-0.244-0.415-0.104-0.947,0.316-1.193
						c0.738-0.422,1.271-1.105,1.488-1.938c0.221-0.821,0.109-1.683-0.32-2.42c-0.238-0.417-0.096-0.951,0.32-1.19
						C25.127,55.989,25.367,55.964,25.584,56.021z"/>
				</g>
			</g>
		</g>
		<g>
			<g>
				<g>
					<path fill="#F28A00" d="M19.736,53.427c0.189,0.113,0.336,0.3,0.398,0.535c0.345,1.271,0.168,2.603-0.492,3.742
						c-0.662,1.145-1.723,1.957-2.995,2.302c-0.47,0.126-0.943-0.153-1.07-0.612c-0.126-0.472,0.153-0.947,0.614-1.07
						c0.83-0.222,1.518-0.752,1.942-1.49c0.427-0.736,0.542-1.598,0.317-2.426c-0.122-0.458,0.156-0.938,0.62-1.07
						C19.302,53.279,19.541,53.318,19.736,53.427z"/>
				</g>
				<g>
					<path fill="#F28A00" d="M45.268,11.58c-0.189-0.113-0.344-0.299-0.4-0.533c-0.348-1.271-0.166-2.604,0.487-3.74
						c0.661-1.145,1.726-1.962,2.997-2.305c0.469-0.126,0.947,0.152,1.066,0.617c0.123,0.465-0.148,0.943-0.612,1.063
						c-0.827,0.228-1.512,0.761-1.94,1.493c-0.43,0.738-0.538,1.603-0.319,2.422c0.128,0.461-0.149,0.941-0.614,1.071
						C45.697,11.729,45.463,11.687,45.268,11.58z"/>
				</g>
			</g>
			<g>
				<g>
					<path fill="#F28A00" d="M11.572,19.739c-0.106,0.188-0.295,0.341-0.526,0.399c-1.272,0.346-2.603,0.17-3.748-0.494
						c-1.144-0.66-1.961-1.721-2.302-2.994c-0.123-0.465,0.154-0.943,0.613-1.07c0.473-0.117,0.945,0.154,1.068,0.619
						c0.223,0.822,0.754,1.512,1.495,1.936c0.734,0.432,1.598,0.548,2.422,0.324c0.465-0.127,0.945,0.148,1.067,0.616
						C11.727,19.308,11.684,19.542,11.572,19.739z"/>
				</g>
				<g>
					<path fill="#F28A00" d="M53.427,45.273c0.106-0.191,0.295-0.342,0.53-0.402c1.27-0.348,2.604-0.173,3.74,0.488
						c1.146,0.662,1.963,1.725,2.304,3c0.126,0.465-0.15,0.943-0.618,1.064c-0.459,0.127-0.941-0.146-1.064-0.613
						c-0.219-0.828-0.746-1.518-1.488-1.948c-0.738-0.421-1.602-0.534-2.426-0.31c-0.46,0.121-0.938-0.148-1.064-0.621
						C53.277,45.703,53.318,45.464,53.427,45.273z"/>
				</g>
			</g>
			<g>
				<g>
					<path fill="#F28A00" d="M26.736,8.677c-0.217,0.061-0.459,0.035-0.658-0.086c-1.147-0.657-1.962-1.724-2.309-3
						c-0.338-1.273-0.164-2.604,0.497-3.746c0.244-0.412,0.773-0.561,1.191-0.316c0.416,0.238,0.554,0.771,0.316,1.188
						c-0.433,0.74-0.54,1.598-0.323,2.428c0.228,0.824,0.75,1.513,1.494,1.938c0.416,0.244,0.555,0.773,0.317,1.193
						C27.139,8.482,26.945,8.622,26.736,8.677z"/>
				</g>
				<g>
					<path fill="#F28A00" d="M38.268,56.33c0.213-0.058,0.454-0.031,0.664,0.086c1.141,0.66,1.959,1.73,2.296,2.994
						c0.348,1.281,0.169,2.608-0.493,3.754c-0.238,0.418-0.771,0.561-1.188,0.312c-0.416-0.234-0.562-0.768-0.321-1.191
						c0.431-0.733,0.545-1.591,0.321-2.42c-0.218-0.822-0.748-1.512-1.491-1.938c-0.411-0.24-0.555-0.775-0.318-1.19
						C37.857,56.528,38.055,56.39,38.268,56.33z"/>
				</g>
			</g>
		</g>
	</g>
	<g>
		<g>
			<g>
				<path fill="#09516D" d="M25.113,36.895c0,1.718-1.395,1.556-3.111,1.556s-3.108,0.162-3.108-1.556
					c0-1.717,1.392-3.108,3.108-3.108S25.113,35.178,25.113,36.895z"/>
				<path fill="#082130" d="M25.113,36.895c0,1.718-1.395,1.556-3.111,1.556s-3.108,0.162-3.108-1.556
					c0-1.717,1.392-1.852,3.108-1.852S25.113,35.178,25.113,36.895z"/>
			</g>
			<g>
				<path fill="#09516D" d="M46.106,36.895c0,1.718-1.394,1.556-3.109,1.556c-1.718,0-3.11,0.162-3.11-1.556
					c0-1.717,1.393-3.108,3.11-3.108C44.713,33.787,46.106,35.178,46.106,36.895z"/>
				<path fill="#082130" d="M46.106,36.895c0,1.718-1.394,1.556-3.109,1.556c-1.718,0-3.11,0.162-3.11-1.556
					c0-1.717,1.393-1.852,3.11-1.852C44.713,35.043,46.106,35.178,46.106,36.895z"/>
			</g>
		</g>
	</g>
	<circle fill="#AF3A6A" cx="32.5" cy="41.917" r="1.334"/>
</g>
</svg>
