<?xml version="1.0" encoding="utf-8"?>
<!-- Generator: Adobe Illustrator 16.0.0, SVG Export Plug-In . SVG Version: 6.00 Build 0)  -->
<!DOCTYPE svg PUBLIC "-//W3C//DTD SVG 1.1//EN" "http://www.w3.org/Graphics/SVG/1.1/DTD/svg11.dtd">
<svg version="1.1" id="Layer_1" xmlns="http://www.w3.org/2000/svg" xmlns:xlink="http://www.w3.org/1999/xlink" x="0px" y="0px"
	 width="65px" height="65px" viewBox="0 0 65 65" enable-background="new 0 0 65 65" xml:space="preserve">
<g>
	<path fill="#79AAA7" d="M48.461,34.31c0,0.94-0.762,1.703-1.702,1.703H18.241c-0.94,0-1.703-0.762-1.703-1.703v-5.959
		c0-0.941,0.762-1.703,1.703-1.703H46.76c0.939,0,1.702,0.761,1.702,1.703V34.31z"/>
	<path fill="#BA0F0F" d="M51.447,25.476c0,0.745-0.949,1.35-2.12,1.35H15.671c-1.171,0-2.119-0.604-2.119-1.35v-2.026
		c0-0.745,0.948-1.35,2.119-1.35h33.656c1.171,0,2.12,0.604,2.12,1.35V25.476z"/>
	<g>
		<path fill="#79AAA7" d="M46.214,23.335c0,1.171-3.07,5.3-4.24,5.3H23.026c-1.171,0-4.24-4.129-4.24-5.3l2.12-11.396
			c0-1.171,0.95-2.12,2.121-2.12h18.947c1.17,0,2.12,0.949,2.12,2.12L46.214,23.335z"/>
		<path fill="#5B8985" d="M41.974,9.82c1.17,0,2.12,0.949,2.12,2.12l2.121,11.396c0,1.171-3.07,5.3-4.24,5.3H23.026
			c-1.171,0-4.24-4.129-4.24-5.3"/>
		<path fill="#BA0F0F" d="M41.974,30.225H23.026c-2.218,0-5.83-5.032-5.83-6.89l0.027-0.292l2.097-11.27
			c0.087-1.969,1.716-3.543,3.706-3.543h18.947c1.989,0,3.619,1.575,3.706,3.543l2.124,11.562
			C47.804,25.192,44.189,30.225,41.974,30.225z M23.243,27.044h18.515c0.777-0.487,2.519-2.765,2.841-3.705l-2.095-11.4
			c0-0.291-0.237-0.529-0.53-0.529H23.026c-0.293,0-0.531,0.238-0.531,0.529l-0.027,0.292L20.402,23.34
			C20.723,24.28,22.467,26.557,23.243,27.044z"/>
		<path fill="#7F1105" d="M41.974,11.277H23.026c-1.99,0-3.619,1.575-3.706,3.543l-1.815,9.743c0.919,2.241,3.692,5.661,5.521,5.661
			h18.947c1.817,0,4.567-3.378,5.503-5.621l-1.797-9.783C45.593,12.852,43.962,11.277,41.974,11.277z M44.598,26.387
			c-0.322,0.94-2.064,3.217-2.841,3.705H23.243c-0.776-0.487-2.52-2.765-2.841-3.705l0.415-2.234
			c-0.189-0.314-0.342-0.601-0.415-0.813l2.067-11.109l0.027-0.292c0-0.291,0.238-0.529,0.531-0.529h18.947
			c0.292,0,0.53,0.238,0.53,0.529l2.095,11.4c-0.071,0.211-0.223,0.495-0.413,0.807L44.598,26.387z"/>
	</g>
	<path fill="#343F3F" d="M53.435,42.9c0,1.171-0.95,2.121-2.121,2.121H13.686c-1.171,0-2.121-0.95-2.121-2.121l0,0
		c0-1.171,0.95-2.12,2.121-2.12h37.629C52.485,40.781,53.435,41.729,53.435,42.9L53.435,42.9z"/>
	<g>
		<g>
			<path fill="#931C0C" d="M28.657,26.692c0,1.829-1.481,3.312-3.312,3.312H10.24c-1.831,0-2.252-1.483-2.252-3.312l0,0
				c0-1.83,1.481-3.313,3.312-3.313h14.046C27.175,23.379,28.657,24.862,28.657,26.692L28.657,26.692z"/>
			<path fill="#7F1105" d="M25.345,23.379c1.83,0,3.312,1.483,3.312,3.313l0,0c0,1.829-1.481,3.312-3.312,3.312H10.24
				c-1.831,0-2.252-1.483-2.252-3.312l0,0"/>
		</g>
		<g>
			<path fill="#931C0C" d="M36.342,26.692c0,1.829,1.482,3.312,3.312,3.312H54.76c1.831,0,2.253-1.483,2.253-3.312l0,0
				c0-1.83-1.483-3.313-3.312-3.313H39.654C37.825,23.379,36.342,24.862,36.342,26.692L36.342,26.692z"/>
			<path fill="#7F1105" d="M39.654,23.379c-1.829,0-3.312,1.483-3.312,3.313l0,0c0,1.829,1.482,3.312,3.312,3.312H54.76
				c1.831,0,2.253-1.483,2.253-3.312l0,0"/>
		</g>
	</g>
	<path fill="#B21606" d="M47.34,42.725c0,2.927-2.373,3.003-5.3,3.003H22.96c-2.928,0-5.3-0.076-5.3-3.003V22.76
		c0-2.927,2.372-5.3,5.3-5.3h19.08c2.927,0,5.3,2.373,5.3,5.3V42.725z"/>
	<path fill="#C91911" d="M17.66,22.76c0-2.927,2.372-5.3,5.3-5.3h19.08c2.927,0,5.3,2.373,5.3,5.3"/>
	<path fill="#C91911" d="M17.66,25.012c0-2.927,2.372-5.299,5.3-5.299h19.08c2.927,0,5.3,2.373,5.3,5.299"/>
	<path fill="#EA1F1F" d="M22.96,19.713h19.08c2.118,0,3.933,1.251,4.779,3.047h0.521c0-2.927-2.373-5.3-5.3-5.3H22.96
		c-2.928,0-5.3,2.373-5.3,5.3h0.52C19.026,20.964,20.842,19.713,22.96,19.713z"/>
	<g>
		<path fill="#7F1105" d="M40.625,35.747c0,0.341-0.274,0.618-0.617,0.618H24.993c-0.341,0-0.619-0.277-0.619-0.618l0,0
			c0-0.341,0.278-0.619,0.619-0.619h15.015C40.351,35.128,40.625,35.406,40.625,35.747L40.625,35.747z"/>
		<path fill="#7F1105" d="M40.625,38.795c0,0.341-0.274,0.617-0.617,0.617H24.993c-0.341,0-0.619-0.276-0.619-0.617l0,0
			c0-0.342,0.278-0.619,0.619-0.619h15.015C40.351,38.176,40.625,38.453,40.625,38.795L40.625,38.795z"/>
		<path fill="#7F1105" d="M40.625,41.843c0,0.341-0.274,0.617-0.617,0.617H24.993c-0.341,0-0.619-0.276-0.619-0.617l0,0
			c0-0.342,0.278-0.619,0.619-0.619h15.015C40.351,41.224,40.625,41.5,40.625,41.843L40.625,41.843z"/>
	</g>
	<g>
		<g>
			<circle fill="#ABD8D8" cx="21.503" cy="27.354" r="4.77"/>
			<path fill="#87C1BF" d="M26.272,27.354c0,2.635-2.138,4.77-4.77,4.77c-2.634,0-4.77-2.135-4.77-4.77"/>
			<path fill="#4C5454" d="M21.503,33.185c-3.215,0-5.832-2.616-5.832-5.831c0-3.213,2.617-5.829,5.832-5.829
				c3.213,0,5.829,2.616,5.829,5.829C27.332,30.569,24.716,33.185,21.503,33.185z M21.503,23.645c-2.046,0-3.711,1.664-3.711,3.709
				c0,2.046,1.665,3.711,3.711,3.711c2.045,0,3.708-1.665,3.708-3.711C25.211,25.309,23.548,23.645,21.503,23.645z"/>
			<path fill="#343F3F" d="M21.503,23.556c-2.869,0-5.253,2.084-5.735,4.815c0.482,2.73,2.867,4.813,5.735,4.813
				c2.867,0,5.252-2.083,5.733-4.813C26.755,25.64,24.37,23.556,21.503,23.556z M25.211,29.386c0,2.046-1.663,3.711-3.708,3.711
				c-2.046,0-3.711-1.665-3.711-3.711c0-0.354,0.066-0.69,0.16-1.015c-0.093-0.325-0.16-0.663-0.16-1.017
				c0-2.045,1.665-3.709,3.711-3.709c2.045,0,3.708,1.664,3.708,3.709c0,0.354-0.065,0.692-0.159,1.017
				C25.146,28.696,25.211,29.032,25.211,29.386z"/>
		</g>
		<g>
			<circle fill="#ABD8D8" cx="43.497" cy="27.354" r="4.77"/>
			<path fill="#87C1BF" d="M48.267,27.354c0,2.635-2.136,4.77-4.77,4.77c-2.634,0-4.77-2.135-4.77-4.77"/>
			<path fill="#4C5454" d="M43.497,33.185c-3.213,0-5.829-2.616-5.829-5.831c0-3.213,2.616-5.829,5.829-5.829
				c3.215,0,5.831,2.616,5.831,5.829C49.328,30.569,46.712,33.185,43.497,33.185z M43.497,23.645c-2.045,0-3.709,1.664-3.709,3.709
				c0,2.046,1.664,3.711,3.709,3.711c2.046,0,3.711-1.665,3.711-3.711C47.208,25.309,45.543,23.645,43.497,23.645z"/>
			<path fill="#343F3F" d="M43.497,23.556c-2.867,0-5.252,2.084-5.734,4.815c0.481,2.73,2.867,4.813,5.734,4.813
				c2.868,0,5.253-2.083,5.735-4.813C48.75,25.64,46.365,23.556,43.497,23.556z M47.208,29.386c0,2.046-1.665,3.711-3.711,3.711
				c-2.045,0-3.709-1.665-3.709-3.711c0-0.354,0.066-0.69,0.159-1.015c-0.092-0.325-0.159-0.663-0.159-1.017
				c0-2.045,1.664-3.709,3.709-3.709c2.046,0,3.711,1.664,3.711,3.709c0,0.354-0.066,0.692-0.16,1.017
				C47.142,28.696,47.208,29.032,47.208,29.386z"/>
		</g>
	</g>
	<g>
		<circle fill="#C91911" cx="28.591" cy="24.937" r="0.298"/>
		<circle fill="#C91911" cx="30.546" cy="24.937" r="0.299"/>
		<circle fill="#C91911" cx="32.5" cy="24.937" r="0.298"/>
		<circle fill="#C91911" cx="34.454" cy="24.937" r="0.298"/>
		<circle fill="#C91911" cx="36.409" cy="24.937" r="0.298"/>
	</g>
	<g>
		<circle fill="#C91911" cx="28.591" cy="26.625" r="0.298"/>
		<circle fill="#C91911" cx="30.546" cy="26.625" r="0.299"/>
		<circle fill="#C91911" cx="32.5" cy="26.625" r="0.298"/>
		<circle fill="#C91911" cx="34.454" cy="26.625" r="0.298"/>
		<circle fill="#C91911" cx="36.409" cy="26.625" r="0.298"/>
	</g>
	<g>
		<circle fill="#C91911" cx="28.591" cy="28.315" r="0.298"/>
		<circle fill="#C91911" cx="30.546" cy="28.315" r="0.299"/>
		<circle fill="#C91911" cx="32.5" cy="28.315" r="0.298"/>
		<circle fill="#C91911" cx="34.454" cy="28.315" r="0.298"/>
		<circle fill="#C91911" cx="36.409" cy="28.315" r="0.298"/>
	</g>
	<g>
		<circle fill="#C91911" cx="28.591" cy="30.004" r="0.298"/>
		<circle fill="#C91911" cx="30.546" cy="30.004" r="0.299"/>
		<circle fill="#C91911" cx="32.5" cy="30.004" r="0.298"/>
		<circle fill="#C91911" cx="34.454" cy="30.004" r="0.298"/>
		<circle fill="#C91911" cx="36.409" cy="30.004" r="0.298"/>
	</g>
	<g>
		<circle fill="#C91911" cx="28.591" cy="31.693" r="0.298"/>
		<circle fill="#C91911" cx="30.546" cy="31.693" r="0.299"/>
		<circle fill="#C91911" cx="32.5" cy="31.693" r="0.298"/>
		<circle fill="#C91911" cx="34.454" cy="31.693" r="0.298"/>
		<circle fill="#C91911" cx="36.409" cy="31.693" r="0.298"/>
	</g>
	<g>
		<g>
			<ellipse fill="#6AA8A5" cx="4.147" cy="44.58" rx="3.147" ry="7.155"/>
			<path fill="#87C1BF" d="M7.294,44.58c0,3.952-1.409-0.795-3.147-0.795C2.409,43.785,1,48.532,1,44.58
				c0-3.953,1.409-7.155,3.147-7.155C5.885,37.425,7.294,40.627,7.294,44.58z"/>
			<path fill="#2B4860" d="M14.886,55.399c0,0.757-0.613,1.371-1.37,1.371H3.449c-0.757,0-1.371-0.613-1.371-1.371V33.758
				c0-0.755,0.613-1.369,1.371-1.369h10.067c0.757,0,1.37,0.613,1.37,1.369V55.399z"/>
			<path fill="#1F3747" d="M13.516,32.39c0.757,0,1.37,0.613,1.37,1.369v21.641c0,0.757-0.613,1.371-1.37,1.371H3.449
				c-0.757,0-1.371-0.613-1.371-1.371"/>
			<g>
				<path fill="#29526D" d="M15.637,34.145c0,0.713-0.577,1.292-1.292,1.292H2.619c-0.715,0-1.292-0.579-1.292-1.292l0,0
					c0-0.713,0.577-1.292,1.292-1.292h11.726C15.06,32.853,15.637,33.432,15.637,34.145L15.637,34.145z"/>
				<path fill="#29526D" d="M15.637,38.319c0,0.713-0.577,1.292-1.292,1.292H2.619c-0.715,0-1.292-0.579-1.292-1.292l0,0
					c0-0.713,0.577-1.292,1.292-1.292h11.726C15.06,37.027,15.637,37.605,15.637,38.319L15.637,38.319z"/>
				<path fill="#29526D" d="M15.637,42.493c0,0.713-0.577,1.292-1.292,1.292H2.619c-0.715,0-1.292-0.579-1.292-1.292l0,0
					c0-0.713,0.577-1.292,1.292-1.292h11.726C15.06,41.201,15.637,41.779,15.637,42.493L15.637,42.493z"/>
				<path fill="#29526D" d="M15.637,46.667c0,0.713-0.577,1.292-1.292,1.292H2.619c-0.715,0-1.292-0.579-1.292-1.292l0,0
					c0-0.713,0.577-1.292,1.292-1.292h11.726C15.06,45.375,15.637,45.954,15.637,46.667L15.637,46.667z"/>
				<path fill="#29526D" d="M15.637,50.841c0,0.712-0.577,1.291-1.292,1.291H2.619c-0.715,0-1.292-0.579-1.292-1.291l0,0
					c0-0.713,0.577-1.292,1.292-1.292h11.726C15.06,49.549,15.637,50.127,15.637,50.841L15.637,50.841z"/>
				<path fill="#29526D" d="M15.637,55.014c0,0.713-0.577,1.292-1.292,1.292H2.619c-0.715,0-1.292-0.579-1.292-1.292l0,0
					c0-0.713,0.577-1.292,1.292-1.292h11.726C15.06,53.722,15.637,54.3,15.637,55.014L15.637,55.014z"/>
			</g>
		</g>
		<g>
			<ellipse fill="#6AA8A5" cx="60.853" cy="44.58" rx="3.147" ry="7.155"/>
			<path fill="#87C1BF" d="M57.707,44.58c0,3.952,1.408-0.795,3.146-0.795c1.738,0,3.147,4.747,3.147,0.795
				c0-3.953-1.409-7.155-3.147-7.155C59.115,37.425,57.707,40.627,57.707,44.58z"/>
			<path fill="#2B4860" d="M50.113,55.399c0,0.757,0.614,1.371,1.371,1.371h10.067c0.756,0,1.371-0.613,1.371-1.371V33.758
				c0-0.755-0.614-1.369-1.371-1.369H51.484c-0.757,0-1.371,0.613-1.371,1.369V55.399z"/>
			<path fill="#1F3747" d="M51.484,32.39c-0.757,0-1.371,0.613-1.371,1.369v21.641c0,0.757,0.614,1.371,1.371,1.371h10.067
				c0.756,0,1.371-0.613,1.371-1.371"/>
			<g>
				<path fill="#29526D" d="M49.363,34.145c0,0.713,0.577,1.292,1.292,1.292h11.726c0.714,0,1.292-0.579,1.292-1.292l0,0
					c0-0.713-0.578-1.292-1.292-1.292H50.655C49.94,32.853,49.363,33.432,49.363,34.145L49.363,34.145z"/>
				<path fill="#29526D" d="M49.363,38.319c0,0.713,0.577,1.292,1.292,1.292h11.726c0.714,0,1.292-0.579,1.292-1.292l0,0
					c0-0.713-0.578-1.292-1.292-1.292H50.655C49.94,37.027,49.363,37.605,49.363,38.319L49.363,38.319z"/>
				<path fill="#29526D" d="M49.363,42.493c0,0.713,0.577,1.292,1.292,1.292h11.726c0.714,0,1.292-0.579,1.292-1.292l0,0
					c0-0.713-0.578-1.292-1.292-1.292H50.655C49.94,41.201,49.363,41.779,49.363,42.493L49.363,42.493z"/>
				<path fill="#29526D" d="M49.363,46.667c0,0.713,0.577,1.292,1.292,1.292h11.726c0.714,0,1.292-0.579,1.292-1.292l0,0
					c0-0.713-0.578-1.292-1.292-1.292H50.655C49.94,45.375,49.363,45.954,49.363,46.667L49.363,46.667z"/>
				<path fill="#29526D" d="M49.363,50.841c0,0.712,0.577,1.291,1.292,1.291h11.726c0.714,0,1.292-0.579,1.292-1.291l0,0
					c0-0.713-0.578-1.292-1.292-1.292H50.655C49.94,49.549,49.363,50.127,49.363,50.841L49.363,50.841z"/>
				<path fill="#29526D" d="M49.363,55.014c0,0.713,0.577,1.292,1.292,1.292h11.726c0.714,0,1.292-0.579,1.292-1.292l0,0
					c0-0.713-0.578-1.292-1.292-1.292H50.655C49.94,53.722,49.363,54.3,49.363,55.014L49.363,55.014z"/>
			</g>
		</g>
	</g>
	<path fill="#87C1BF" d="M47.804,46.902c0,0.459-0.373,0.832-0.832,0.832H18.027c-0.458,0-0.831-0.372-0.831-0.832v-2.287
		c0-0.458,0.373-0.831,0.831-0.831h28.944c0.459,0,0.832,0.372,0.832,0.831V46.902z"/>
	<path fill="#79AAA7" d="M47.804,48.426c0,0.459-0.373,0.832-0.832,0.832H18.027c-0.458,0-0.831-0.372-0.831-0.832V46.14
		c0-0.459,0.373-0.832,0.831-0.832h28.944c0.459,0,0.832,0.372,0.832,0.832V48.426z"/>
</g>
</svg>
