<?xml version="1.0" encoding="utf-8"?>
<!-- Generator: Adobe Illustrator 16.0.0, SVG Export Plug-In . SVG Version: 6.00 Build 0)  -->
<!DOCTYPE svg PUBLIC "-//W3C//DTD SVG 1.1//EN" "http://www.w3.org/Graphics/SVG/1.1/DTD/svg11.dtd">
<svg version="1.1" id="Layer_1" xmlns="http://www.w3.org/2000/svg" xmlns:xlink="http://www.w3.org/1999/xlink" x="0px" y="0px"
	 width="65px" height="65px" viewBox="0 0 65 65" enable-background="new 0 0 65 65" xml:space="preserve">
<g>
	<path fill="#FF9100" d="M63.776,31.914l-8.816-8.816c-0.209-0.211-0.521-0.281-0.799-0.182c-0.28,0.098-0.479,0.348-0.512,0.641
		l-0.575,5.166l-7.577,5.76L38.97,23.178c-0.688-1.191-1.96-1.926-3.337-1.926H16.613l-0.261-0.15V10.686l9.022-5.207l10.175,5.873
		c1.104,0.639,2.518,0.262,3.157-0.846c0.638-1.105,0.261-2.52-0.845-3.156L26.531,0.809c-0.717-0.412-1.596-0.412-2.312,0
		L12.885,7.35c-0.715,0.412-1.156,1.176-1.156,2.002v13.084c0,0.229,0.043,0.451,0.105,0.666c-0.017,0.027-0.042,0.047-0.059,0.076
		L1.515,40.949c-0.688,1.191-0.688,2.66,0,3.854l10.261,17.771c0.688,1.191,1.961,1.926,3.337,1.926h20.521
		c1.377,0,2.648-0.734,3.337-1.926l10.139-17.561l8.474-11.15l5.734-0.639c0.293-0.033,0.543-0.232,0.641-0.512
		S63.985,32.123,63.776,31.914z"/>
	<path fill="#FF6D00" d="M63.776,31.914l-8.816-8.816c-0.209-0.211-0.521-0.281-0.799-0.182c-0.28,0.098-0.479,0.348-0.512,0.641
		l-0.575,5.166l-5.006,10.111L38.97,23.178c-0.688-1.191-1.96-1.926-3.337-1.926H16.613l-0.261-0.15V10.686l9.022-5.207
		l10.175,5.873c1.104,0.639,2.518,0.262,3.157-0.846c0.638-1.105,0.261-2.52-0.845-3.156L26.531,0.809
		c-0.717-0.412-1.596-0.412-2.312,0L12.885,7.35c-0.715,0.412-1.156,1.176-1.156,2.002v13.084c0,0.229,0.043,0.451,0.105,0.666
		c-0.017,0.027-0.042,0.047-0.059,0.076L1.515,40.949c-0.688,1.191-0.688,2.66,0,3.854l10.261,17.771
		c0.688,1.191,1.961,1.926,3.337,1.926h20.521c1.377,0,2.648-0.734,3.337-1.926l10.139-17.561l8.474-11.15l5.734-0.639
		c0.293-0.033,0.543-0.232,0.641-0.512S63.985,32.123,63.776,31.914z"/>
	<path fill="#FF9100" d="M6.566,53.551l31.46-31.461c-0.67-0.533-1.508-0.838-2.393-0.838H16.613l-0.261-0.15V10.686l9.022-5.207
		l10.175,5.873c1.104,0.639,2.518,0.262,3.157-0.846c0.638-1.105,0.261-2.52-0.845-3.156L26.531,0.809
		c-0.717-0.412-1.596-0.412-2.312,0L13.557,6.961l-1.721,1.721c-0.066,0.215-0.107,0.438-0.107,0.67v13.084
		c0,0.229,0.043,0.451,0.105,0.666c-0.017,0.027-0.042,0.047-0.059,0.076L1.515,40.949c-0.688,1.191-0.688,2.66,0,3.854
		L6.566,53.551z"/>
	<path fill="#FFAA00" d="M16.352,10.686l9.022-5.207l10.175,5.873c1.104,0.639,2.518,0.262,3.157-0.846
		c0.638-1.105,0.261-2.52-0.845-3.156L26.531,0.809c-0.717-0.412-1.596-0.412-2.312,0L13.557,6.961l-1.721,0.893
		c-0.066,0.215-0.107,1.266-0.107,1.498v13.084c0,0.229,0.043,0.451,0.105,0.666c-0.017,0.027-0.042,0.047-0.059,0.076L1.515,40.949
		c-0.688,1.191-0.688,2.66,0,3.854l5.051,8.748"/>
	<path fill="#FFAA00" d="M16.613,21.252"/>
	<path fill="#FF6D00" d="M36.153,21.955c0,1.959-5.038,1.363-11.25,1.363c-6.214,0-11.25,0.596-11.25-1.363
		c0-1.957,5.036-3.545,11.25-3.545C31.115,18.41,36.153,19.998,36.153,21.955z"/>
	<path fill="#FF9100" d="M24.903,21.902c5.38,0,9.872,0.443,10.98-0.711c-1.108-1.59-5.601-2.781-10.98-2.781
		c-5.383,0-9.874,1.191-10.982,2.781C15.029,22.346,19.52,21.902,24.903,21.902z"/>
	<path fill="#082856" d="M28.86,17.291c0,1.221-0.99,2.209-2.207,2.209h-3.5c-1.221,0-2.209-0.988-2.209-2.209l0,0
		c0-1.219,0.988-2.207,2.209-2.207h3.5C27.87,15.084,28.86,16.072,28.86,17.291L28.86,17.291z"/>
	<path fill="#144682" d="M26.653,15.084h-3.5c-0.842,0-1.563,0.475-1.938,1.166c0.374,0.691,1.096,1.166,1.938,1.166h3.5
		c0.84,0,1.562-0.475,1.934-1.166C28.214,15.559,27.493,15.084,26.653,15.084z"/>
	<path fill="#EA5706" d="M11.776,62.574c0.688,1.191,1.961,1.926,3.337,1.926h20.521c1.377,0,2.648-0.734,3.337-1.926l10.139-17.561
		l0.036-0.049L8.568,57.018L11.776,62.574z"/>
</g>
</svg>
