<?xml version="1.0" encoding="utf-8"?>
<!-- Generator: Adobe Illustrator 16.0.0, SVG Export Plug-In . SVG Version: 6.00 Build 0)  -->
<!DOCTYPE svg PUBLIC "-//W3C//DTD SVG 1.1//EN" "http://www.w3.org/Graphics/SVG/1.1/DTD/svg11.dtd">
<svg version="1.1" id="Layer_1" xmlns="http://www.w3.org/2000/svg" xmlns:xlink="http://www.w3.org/1999/xlink" x="0px" y="0px"
	 width="65px" height="65px" viewBox="0 0 65 65" enable-background="new 0 0 65 65" xml:space="preserve">
<g>
	<polygon fill="#F49C00" points="60.484,9.792 43.797,12.792 43.797,2.917 60.484,5.917 	"/>
	<polygon fill="#F28A00" points="60.484,9.792 43.797,12.792 43.797,6.604 60.484,5.917 	"/>
	<g>
		<path fill="#148DE0" d="M42.438,4.932v6h-11.25v15.375h11.25v6h-11.25c-3.309,0-6-2.691-6-6V10.932c0-3.309,2.691-6,6-6H42.438z"
			/>
	</g>
	<path fill="#0475BA" d="M35.25,8.995c-3.309,0-6,2.691-6,6V30.37c0,0.588,0.088,1.154,0.246,1.691
		c0.537,0.157,1.104,0.246,1.691,0.246h11.25V30.37H35.25v-4.062h-4.062V10.932h11.25V8.995H35.25z"/>
	<path fill="#586468" d="M64.5,63.208v-2.425c0-1.676-1.359-3.035-3.035-3.035H3.535c-1.676,0-3.035,1.359-3.035,3.035v2.425H64.5z"
		/>
	<g>
		<g>
			<path fill="#1CA6F4" d="M45.166,29.583c0,1.657-1.342,3-3,3H3.5c-1.656,0-3-1.343-3-3V29.25c0-1.657,1.344-3,3-3h38.666
				c1.658,0,3,1.343,3,3V29.583z"/>
			<path fill="#148DE0" d="M3.5,28.667c-1.289,0-2.379,0.817-2.803,1.958c0.424,1.141,1.514,1.958,2.803,1.958h38.666
				c1.29,0,2.38-0.817,2.805-1.958c-0.425-1.141-1.515-1.958-2.805-1.958H3.5z"/>
			<g>
				<path fill="#50C9FF" d="M14.001,27.667H4.168c-0.276,0-0.5-0.224-0.5-0.5s0.224-0.5,0.5-0.5h9.833c0.276,0,0.5,0.224,0.5,0.5
					S14.277,27.667,14.001,27.667z"/>
			</g>
			<g>
				<path fill="#50C9FF" d="M16.501,27.667H15.71c-0.276,0-0.5-0.224-0.5-0.5s0.224-0.5,0.5-0.5h0.791c0.276,0,0.5,0.224,0.5,0.5
					S16.777,27.667,16.501,27.667z"/>
			</g>
		</g>
		<g>
			<path fill="#1CA6F4" d="M45.166,35.958c0,1.657-1.342,3-3,3H3.5c-1.656,0-3-1.343-3-3v-0.333c0-1.657,1.344-3,3-3h38.666
				c1.658,0,3,1.343,3,3V35.958z"/>
			<path fill="#148DE0" d="M3.5,35.042c-1.289,0-2.379,0.817-2.803,1.958c0.424,1.141,1.514,1.958,2.803,1.958h38.666
				c1.29,0,2.38-0.817,2.805-1.958c-0.425-1.141-1.515-1.958-2.805-1.958H3.5z"/>
			<g>
				<path fill="#50C9FF" d="M14.001,34.042H4.168c-0.276,0-0.5-0.224-0.5-0.5s0.224-0.5,0.5-0.5h9.833c0.276,0,0.5,0.224,0.5,0.5
					S14.277,34.042,14.001,34.042z"/>
			</g>
			<g>
				<path fill="#50C9FF" d="M16.501,34.042H15.71c-0.276,0-0.5-0.224-0.5-0.5s0.224-0.5,0.5-0.5h0.791c0.276,0,0.5,0.224,0.5,0.5
					S16.777,34.042,16.501,34.042z"/>
			</g>
		</g>
		<g>
			<path fill="#1CA6F4" d="M45.166,42.333c0,1.657-1.342,3-3,3H3.5c-1.656,0-3-1.343-3-3V42c0-1.657,1.344-3,3-3h38.666
				c1.658,0,3,1.343,3,3V42.333z"/>
			<path fill="#148DE0" d="M3.5,41.417c-1.289,0-2.379,0.817-2.803,1.958c0.424,1.141,1.514,1.958,2.803,1.958h38.666
				c1.29,0,2.38-0.817,2.805-1.958c-0.425-1.141-1.515-1.958-2.805-1.958H3.5z"/>
			<g>
				<path fill="#50C9FF" d="M14.001,40.417H4.168c-0.276,0-0.5-0.224-0.5-0.5s0.224-0.5,0.5-0.5h9.833c0.276,0,0.5,0.224,0.5,0.5
					S14.277,40.417,14.001,40.417z"/>
			</g>
			<g>
				<path fill="#50C9FF" d="M16.501,40.417H15.71c-0.276,0-0.5-0.224-0.5-0.5s0.224-0.5,0.5-0.5h0.791c0.276,0,0.5,0.224,0.5,0.5
					S16.777,40.417,16.501,40.417z"/>
			</g>
		</g>
		<g>
			<path fill="#1CA6F4" d="M45.166,48.708c0,1.657-1.342,3-3,3H3.5c-1.656,0-3-1.343-3-3v-0.333c0-1.657,1.344-3,3-3h38.666
				c1.658,0,3,1.343,3,3V48.708z"/>
			<path fill="#148DE0" d="M3.5,47.792c-1.289,0-2.379,0.817-2.803,1.958c0.424,1.141,1.514,1.958,2.803,1.958h38.666
				c1.29,0,2.38-0.817,2.805-1.958c-0.425-1.141-1.515-1.958-2.805-1.958H3.5z"/>
			<g>
				<path fill="#50C9FF" d="M14.001,46.792H4.168c-0.276,0-0.5-0.224-0.5-0.5s0.224-0.5,0.5-0.5h9.833c0.276,0,0.5,0.224,0.5,0.5
					S14.277,46.792,14.001,46.792z"/>
			</g>
			<g>
				<path fill="#50C9FF" d="M16.501,46.792H15.71c-0.276,0-0.5-0.224-0.5-0.5s0.224-0.5,0.5-0.5h0.791c0.276,0,0.5,0.224,0.5,0.5
					S16.777,46.792,16.501,46.792z"/>
			</g>
		</g>
		<g>
			<path fill="#1CA6F4" d="M45.166,55.083c0,1.657-1.342,3-3,3H3.5c-1.656,0-3-1.343-3-3V54.75c0-1.657,1.344-3,3-3h38.666
				c1.658,0,3,1.343,3,3V55.083z"/>
			<path fill="#148DE0" d="M3.5,54.167c-1.289,0-2.379,0.817-2.803,1.958c0.424,1.141,1.514,1.958,2.803,1.958h38.666
				c1.29,0,2.38-0.817,2.805-1.958c-0.425-1.141-1.515-1.958-2.805-1.958H3.5z"/>
			<g>
				<path fill="#50C9FF" d="M14.001,53.167H4.168c-0.276,0-0.5-0.224-0.5-0.5s0.224-0.5,0.5-0.5h9.833c0.276,0,0.5,0.224,0.5,0.5
					S14.277,53.167,14.001,53.167z"/>
			</g>
			<g>
				<path fill="#50C9FF" d="M16.501,53.167H15.71c-0.276,0-0.5-0.224-0.5-0.5s0.224-0.5,0.5-0.5h0.791c0.276,0,0.5,0.224,0.5,0.5
					S16.777,53.167,16.501,53.167z"/>
			</g>
		</g>
	</g>
	<path fill="#0475BA" d="M43.172,12.104c0,0.587-0.476,1.062-1.062,1.062l0,0c-0.587,0-1.062-0.476-1.062-1.062v-8.5
		c0-0.587,0.476-1.062,1.062-1.062l0,0c0.587,0,1.062,0.476,1.062,1.062V12.104z"/>
	<path fill="#F28A00" d="M44.383,12.704c0,0.67-0.541,1.213-1.211,1.213l0,0c-0.67,0-1.213-0.543-1.213-1.213V3.004
		c0-0.67,0.543-1.213,1.213-1.213l0,0c0.67,0,1.211,0.543,1.211,1.213V12.704z"/>
	<path fill="#F28A00" d="M60.634,9.829c0,0.272-0.221,0.494-0.493,0.494l0,0c-0.273,0-0.494-0.222-0.494-0.494V5.879
		c0-0.272,0.221-0.494,0.494-0.494l0,0c0.272,0,0.493,0.222,0.493,0.494V9.829z"/>
	<path fill="#F49C00" d="M42.631,1.934c-0.395,0.2-0.672,0.598-0.672,1.07v9.699c0,0.473,0.277,0.87,0.672,1.07
		c0.393-0.2,0.67-0.598,0.67-1.07V3.004C43.301,2.532,43.023,2.134,42.631,1.934z"/>
	<path fill="#50C9FF" d="M27.068,20.583c0,0.254-0.205,0.459-0.459,0.459l0,0c-0.254,0-0.457-0.205-0.457-0.459v-9.5
		c0-0.253,0.203-0.458,0.457-0.458l0,0c0.254,0,0.459,0.205,0.459,0.458V20.583z"/>
	<circle fill="#50C9FF" cx="28.319" cy="9.542" r="1.083"/>
	<circle fill="#50C9FF" cx="29.694" cy="7.417" r="0.458"/>
</g>
</svg>
