<?xml version="1.0" encoding="utf-8"?>
<!-- Generator: Adobe Illustrator 16.0.0, SVG Export Plug-In . SVG Version: 6.00 Build 0)  -->
<!DOCTYPE svg PUBLIC "-//W3C//DTD SVG 1.1//EN" "http://www.w3.org/Graphics/SVG/1.1/DTD/svg11.dtd">
<svg version="1.1" id="Layer_1" xmlns="http://www.w3.org/2000/svg" xmlns:xlink="http://www.w3.org/1999/xlink" x="0px" y="0px"
	 width="65px" height="65px" viewBox="0 0 65 65" enable-background="new 0 0 65 65" xml:space="preserve">
<g>
	<g>
		<g>
			<circle fill="#FFB133" cx="32.5" cy="21.615" r="14.953"/>
			<path fill="#F49C00" d="M47.453,21.615c0,8.258-6.695,14.951-14.953,14.951s-14.953-6.693-14.953-14.951
				c0-8.26,6.695-12.096,14.953-12.096S47.453,13.355,47.453,21.615z"/>
			<path fill="#F28A00" d="M47.453,21.615c0,8.258-6.695,14.951-14.953,14.951s-14.953-6.693-14.953-14.951"/>
			<g>
				<g>
					<path fill="#F28A00" d="M44.213,10.459c-0.105-0.104-0.17-0.248-0.17-0.408c0-0.869,0.34-1.688,0.955-2.303
						s1.434-0.955,2.305-0.955c0.316,0.002,0.574,0.258,0.574,0.574c0,0.32-0.258,0.576-0.574,0.576
						c-0.564,0-1.094,0.219-1.49,0.617c-0.398,0.398-0.619,0.926-0.619,1.49c0,0.318-0.256,0.576-0.574,0.576
						C44.461,10.627,44.316,10.562,44.213,10.459z"/>
				</g>
				<g>
					<path fill="#F28A00" d="M20.787,32.771c0.104,0.105,0.17,0.248,0.17,0.406c0,0.869-0.34,1.691-0.953,2.303
						c-0.617,0.617-1.436,0.955-2.305,0.955c-0.32,0-0.578-0.256-0.578-0.576c0-0.314,0.258-0.574,0.578-0.574
						c0.562,0,1.092-0.219,1.49-0.617c0.395-0.396,0.615-0.926,0.615-1.49c0-0.318,0.258-0.574,0.576-0.574
						C20.539,32.604,20.684,32.668,20.787,32.771z"/>
				</g>
			</g>
			<g>
				<g>
					<g>
						<path fill="#F28A00" d="M32.893,5.445c-0.146,0-0.295-0.057-0.406-0.17c-0.617-0.615-0.955-1.434-0.955-2.303
							c0-0.871,0.338-1.691,0.955-2.305c0.225-0.225,0.588-0.225,0.812,0c0.223,0.225,0.223,0.588,0,0.812
							c-0.396,0.4-0.617,0.93-0.617,1.492s0.221,1.09,0.617,1.49c0.223,0.225,0.223,0.588,0,0.812
							C33.188,5.389,33.041,5.445,32.893,5.445z"/>
					</g>
					<g>
						<path fill="#F28A00" d="M32.105,37.785c0.148,0,0.295,0.057,0.408,0.168c0.615,0.615,0.953,1.434,0.953,2.305
							s-0.338,1.688-0.953,2.303c-0.225,0.227-0.588,0.227-0.812,0c-0.227-0.223-0.227-0.588,0-0.811
							c0.396-0.4,0.615-0.93,0.615-1.492s-0.219-1.094-0.615-1.492c-0.227-0.225-0.227-0.588,0-0.812
							C31.812,37.842,31.959,37.785,32.105,37.785z"/>
					</g>
				</g>
				<g>
					<g>
						<path fill="#F28A00" d="M48.67,22.006c0-0.145,0.057-0.291,0.168-0.404c0.615-0.615,1.436-0.955,2.303-0.955
							c0.873,0,1.691,0.34,2.305,0.955c0.225,0.225,0.227,0.59,0,0.812c-0.223,0.225-0.586,0.225-0.812,0
							c-0.398-0.398-0.928-0.615-1.492-0.615c-0.561,0-1.092,0.217-1.488,0.615c-0.225,0.225-0.59,0.225-0.814,0
							C48.727,22.303,48.672,22.156,48.67,22.006z"/>
					</g>
					<g>
						<path fill="#F28A00" d="M16.326,21.223c0,0.146-0.055,0.295-0.166,0.406c-0.613,0.617-1.432,0.955-2.303,0.955
							s-1.689-0.338-2.305-0.955c-0.225-0.227-0.225-0.59,0-0.812c0.225-0.227,0.588-0.227,0.812,0
							c0.4,0.396,0.928,0.617,1.492,0.617c0.561,0,1.092-0.221,1.488-0.617c0.225-0.227,0.59-0.227,0.814,0
							C16.271,20.928,16.326,21.076,16.326,21.223z"/>
					</g>
				</g>
				<g>
					<g>
						<path fill="#F28A00" d="M43.656,33.326c0.104-0.104,0.246-0.166,0.404-0.166c0.871-0.002,1.691,0.338,2.307,0.951
							c0.615,0.619,0.953,1.438,0.953,2.307c0,0.314-0.258,0.574-0.574,0.574c-0.318,0-0.574-0.256-0.574-0.574
							c0-0.564-0.221-1.092-0.619-1.492c-0.398-0.396-0.928-0.617-1.492-0.617c-0.316,0-0.574-0.256-0.574-0.574
							C43.488,33.576,43.553,33.432,43.656,33.326z"/>
					</g>
					<g>
						<path fill="#F28A00" d="M21.34,9.902c-0.102,0.104-0.246,0.168-0.404,0.168c-0.869,0.004-1.689-0.338-2.303-0.951
							c-0.617-0.617-0.957-1.434-0.957-2.307c0-0.318,0.258-0.574,0.578-0.574c0.314,0,0.574,0.256,0.574,0.574
							c0,0.564,0.221,1.092,0.617,1.494c0.398,0.396,0.926,0.615,1.49,0.613c0.318,0,0.576,0.26,0.576,0.574
							C21.512,9.654,21.445,9.799,21.34,9.902z"/>
					</g>
				</g>
			</g>
			<g>
				<g>
					<g>
						<path fill="#F28A00" d="M24.756,7.416c-0.127,0.072-0.283,0.096-0.439,0.057c-0.84-0.227-1.543-0.766-1.977-1.518
							c-0.436-0.754-0.553-1.633-0.326-2.473c0.08-0.309,0.396-0.49,0.705-0.408c0.307,0.082,0.488,0.398,0.406,0.703
							c-0.148,0.547-0.07,1.117,0.209,1.604c0.281,0.486,0.736,0.834,1.281,0.98c0.307,0.08,0.486,0.398,0.408,0.703
							C24.98,7.219,24.881,7.342,24.756,7.416z"/>
					</g>
					<g>
						<path fill="#F28A00" d="M40.244,35.816c0.127-0.074,0.283-0.1,0.438-0.057c0.838,0.223,1.543,0.764,1.977,1.516
							c0.436,0.756,0.553,1.635,0.328,2.475c-0.084,0.307-0.402,0.488-0.707,0.406c-0.305-0.084-0.488-0.398-0.406-0.705
							c0.146-0.545,0.068-1.113-0.211-1.6c-0.281-0.488-0.734-0.836-1.279-0.982c-0.307-0.08-0.49-0.396-0.408-0.703
							C40.018,36.012,40.117,35.889,40.244,35.816z"/>
					</g>
				</g>
				<g>
					<g>
						<path fill="#F28A00" d="M46.699,13.869c-0.072-0.125-0.098-0.281-0.057-0.436c0.225-0.84,0.766-1.543,1.518-1.979
							c0.756-0.436,1.631-0.551,2.473-0.324c0.307,0.084,0.488,0.396,0.408,0.703c-0.084,0.309-0.398,0.49-0.707,0.406
							c-0.543-0.145-1.111-0.07-1.596,0.211c-0.492,0.281-0.842,0.736-0.986,1.281c-0.08,0.309-0.396,0.49-0.703,0.406
							C46.895,14.098,46.775,13.998,46.699,13.869z"/>
					</g>
					<g>
						<path fill="#F28A00" d="M18.297,29.361c0.078,0.127,0.098,0.283,0.059,0.436c-0.225,0.84-0.766,1.545-1.514,1.979
							c-0.76,0.436-1.635,0.551-2.479,0.324c-0.307-0.08-0.488-0.396-0.402-0.703c0.08-0.307,0.393-0.49,0.703-0.406
							c0.543,0.146,1.111,0.072,1.6-0.211c0.486-0.281,0.834-0.734,0.98-1.279c0.082-0.307,0.396-0.49,0.705-0.408
							C18.104,29.135,18.223,29.234,18.297,29.361z"/>
					</g>
				</g>
				<g>
					<g>
						<path fill="#F28A00" d="M48.016,26.182c0.037-0.141,0.131-0.271,0.27-0.35c0.752-0.436,1.631-0.551,2.473-0.326
							c0.84,0.227,1.545,0.766,1.977,1.518c0.158,0.275,0.068,0.627-0.209,0.787c-0.275,0.16-0.625,0.064-0.785-0.211
							c-0.281-0.488-0.734-0.836-1.281-0.984c-0.543-0.145-1.111-0.072-1.6,0.213c-0.277,0.158-0.627,0.064-0.785-0.211
							C47.996,26.479,47.979,26.322,48.016,26.182z"/>
					</g>
					<g>
						<path fill="#F28A00" d="M16.98,17.049c-0.037,0.143-0.131,0.271-0.268,0.352c-0.752,0.438-1.635,0.551-2.469,0.326
							c-0.846-0.225-1.547-0.764-1.982-1.52c-0.16-0.275-0.064-0.627,0.211-0.785s0.625-0.066,0.787,0.211
							c0.281,0.486,0.732,0.836,1.281,0.982c0.541,0.146,1.109,0.072,1.596-0.213c0.275-0.158,0.627-0.064,0.785,0.213
							C17,16.752,17.018,16.908,16.98,17.049z"/>
					</g>
				</g>
			</g>
			<g>
				<g>
					<g>
						<path fill="#F28A00" d="M18.689,13.191c-0.072,0.127-0.195,0.225-0.35,0.268c-0.84,0.225-1.717,0.109-2.471-0.326
							s-1.293-1.139-1.518-1.979c-0.084-0.307,0.1-0.623,0.404-0.705c0.311-0.082,0.623,0.102,0.705,0.406
							c0.146,0.545,0.496,1,0.984,1.281c0.484,0.281,1.055,0.355,1.6,0.211c0.305-0.082,0.621,0.102,0.705,0.406
							C18.791,12.906,18.764,13.062,18.689,13.191z"/>
					</g>
					<g>
						<path fill="#F28A00" d="M46.305,30.041c0.074-0.125,0.197-0.229,0.352-0.266c0.84-0.23,1.719-0.111,2.469,0.324
							c0.758,0.436,1.297,1.139,1.521,1.979c0.084,0.307-0.1,0.625-0.408,0.703c-0.307,0.08-0.621-0.098-0.703-0.406
							c-0.148-0.545-0.498-0.998-0.984-1.281c-0.484-0.281-1.055-0.355-1.6-0.211c-0.305,0.084-0.619-0.098-0.703-0.404
							C46.207,30.324,46.232,30.168,46.305,30.041z"/>
					</g>
				</g>
				<g>
					<g>
						<path fill="#F28A00" d="M40.922,7.809c-0.125-0.072-0.225-0.195-0.264-0.35c-0.227-0.84-0.111-1.719,0.326-2.473
							c0.436-0.754,1.137-1.291,1.975-1.518c0.309-0.082,0.625,0.1,0.707,0.406c0.078,0.309-0.102,0.623-0.408,0.703
							c-0.543,0.145-0.998,0.496-1.279,0.982c-0.283,0.488-0.359,1.057-0.211,1.602c0.082,0.309-0.1,0.623-0.406,0.705
							C41.207,7.908,41.053,7.881,40.922,7.809z"/>
					</g>
					<g>
						<path fill="#F28A00" d="M24.074,35.424c0.127,0.072,0.225,0.197,0.266,0.35c0.229,0.84,0.111,1.721-0.324,2.469
							c-0.438,0.758-1.137,1.297-1.979,1.521c-0.309,0.082-0.623-0.098-0.705-0.408c-0.082-0.305,0.1-0.621,0.408-0.701
							c0.543-0.146,1-0.494,1.283-0.986c0.277-0.484,0.354-1.053,0.205-1.598c-0.08-0.307,0.1-0.619,0.41-0.705
							C23.791,35.326,23.945,35.352,24.074,35.424z"/>
					</g>
				</g>
				<g>
					<g>
						<path fill="#F28A00" d="M48.221,17.811c-0.039-0.141-0.023-0.299,0.057-0.436c0.434-0.752,1.139-1.293,1.979-1.521
							c0.842-0.221,1.719-0.105,2.473,0.328c0.273,0.16,0.371,0.512,0.209,0.787c-0.158,0.275-0.508,0.367-0.785,0.209
							c-0.486-0.283-1.053-0.354-1.598-0.211c-0.545,0.146-1,0.492-1.283,0.984c-0.158,0.273-0.508,0.367-0.785,0.209
							C48.35,18.082,48.258,17.951,48.221,17.811z"/>
					</g>
					<g>
						<path fill="#F28A00" d="M16.777,25.422c0.037,0.141,0.02,0.299-0.059,0.438c-0.434,0.754-1.139,1.295-1.975,1.516
							c-0.844,0.229-1.721,0.111-2.477-0.324c-0.275-0.16-0.369-0.508-0.207-0.785c0.156-0.275,0.508-0.371,0.785-0.211
							c0.484,0.283,1.051,0.357,1.6,0.209c0.541-0.143,0.998-0.49,1.275-0.98c0.16-0.273,0.514-0.369,0.787-0.211
							C16.648,25.152,16.736,25.281,16.777,25.422z"/>
					</g>
				</g>
			</g>
			<g>
				<g>
					<g>
						<path fill="#F28A00" d="M18.689,13.191c-0.072,0.127-0.195,0.225-0.35,0.268c-0.84,0.225-1.717,0.109-2.471-0.326
							s-1.293-1.139-1.518-1.979c-0.084-0.307,0.1-0.623,0.404-0.705c0.311-0.082,0.623,0.102,0.705,0.406
							c0.146,0.545,0.496,1,0.984,1.281c0.484,0.281,1.055,0.355,1.6,0.211c0.305-0.082,0.621,0.102,0.705,0.406
							C18.791,12.906,18.764,13.062,18.689,13.191z"/>
					</g>
					<g>
						<path fill="#F28A00" d="M46.305,30.041c0.074-0.125,0.197-0.229,0.352-0.266c0.84-0.23,1.719-0.111,2.469,0.324
							c0.758,0.436,1.297,1.139,1.521,1.979c0.084,0.307-0.1,0.625-0.408,0.703c-0.307,0.08-0.621-0.098-0.703-0.406
							c-0.148-0.545-0.498-0.998-0.984-1.281c-0.484-0.281-1.055-0.355-1.6-0.211c-0.305,0.084-0.619-0.098-0.703-0.404
							C46.207,30.324,46.232,30.168,46.305,30.041z"/>
					</g>
				</g>
				<g>
					<g>
						<path fill="#F28A00" d="M40.922,7.809c-0.125-0.072-0.225-0.195-0.264-0.35c-0.227-0.84-0.111-1.719,0.326-2.473
							c0.436-0.754,1.137-1.291,1.975-1.518c0.309-0.082,0.625,0.1,0.707,0.406c0.078,0.309-0.102,0.623-0.408,0.703
							c-0.543,0.145-0.998,0.496-1.279,0.982c-0.283,0.488-0.359,1.057-0.211,1.602c0.082,0.309-0.1,0.623-0.406,0.705
							C41.207,7.908,41.053,7.881,40.922,7.809z"/>
					</g>
					<g>
						<path fill="#F28A00" d="M24.074,35.424c0.127,0.072,0.225,0.197,0.266,0.35c0.229,0.84,0.111,1.721-0.324,2.469
							c-0.438,0.758-1.137,1.297-1.979,1.521c-0.309,0.082-0.623-0.098-0.705-0.408c-0.082-0.305,0.1-0.621,0.408-0.701
							c0.543-0.146,1-0.494,1.283-0.986c0.277-0.484,0.354-1.053,0.205-1.598c-0.08-0.307,0.1-0.619,0.41-0.705
							C23.791,35.326,23.945,35.352,24.074,35.424z"/>
					</g>
				</g>
				<g>
					<g>
						<path fill="#F28A00" d="M48.221,17.811c-0.039-0.141-0.023-0.299,0.057-0.436c0.434-0.752,1.139-1.293,1.979-1.521
							c0.842-0.221,1.719-0.105,2.473,0.328c0.273,0.16,0.371,0.512,0.209,0.787c-0.158,0.275-0.508,0.367-0.785,0.209
							c-0.486-0.283-1.053-0.354-1.598-0.211c-0.545,0.146-1,0.492-1.283,0.984c-0.158,0.273-0.508,0.367-0.785,0.209
							C48.35,18.082,48.258,17.951,48.221,17.811z"/>
					</g>
					<g>
						<path fill="#F28A00" d="M16.777,25.422c0.037,0.141,0.02,0.299-0.059,0.438c-0.434,0.754-1.139,1.295-1.975,1.516
							c-0.844,0.229-1.721,0.111-2.477-0.324c-0.275-0.16-0.369-0.508-0.207-0.785c0.156-0.275,0.508-0.371,0.785-0.211
							c0.484,0.283,1.051,0.357,1.6,0.209c0.541-0.143,0.998-0.49,1.275-0.98c0.16-0.273,0.514-0.369,0.787-0.211
							C16.648,25.152,16.736,25.281,16.777,25.422z"/>
					</g>
				</g>
			</g>
			<g>
				<g>
					<g>
						<path fill="#F28A00" d="M18.301,29.363c0.074,0.127,0.094,0.283,0.055,0.438c-0.225,0.84-0.766,1.543-1.518,1.977
							c-0.756,0.436-1.631,0.551-2.475,0.328c-0.307-0.084-0.488-0.4-0.404-0.705c0.082-0.311,0.395-0.488,0.701-0.408
							c0.547,0.146,1.115,0.07,1.604-0.211c0.486-0.281,0.834-0.734,0.98-1.281c0.082-0.305,0.398-0.484,0.705-0.408
							C18.104,29.135,18.227,29.234,18.301,29.363z"/>
					</g>
					<g>
						<path fill="#F28A00" d="M46.699,13.873c-0.072-0.127-0.1-0.285-0.053-0.438c0.221-0.842,0.762-1.543,1.512-1.977
							c0.756-0.436,1.633-0.551,2.475-0.326c0.307,0.082,0.488,0.398,0.406,0.705c-0.082,0.305-0.396,0.488-0.705,0.402
							c-0.547-0.141-1.111-0.066-1.598,0.213c-0.49,0.281-0.84,0.738-0.984,1.279c-0.078,0.307-0.396,0.488-0.703,0.41
							C46.895,14.1,46.775,13.998,46.699,13.873z"/>
					</g>
				</g>
				<g>
					<g>
						<path fill="#F28A00" d="M24.754,7.418c-0.125,0.072-0.281,0.098-0.436,0.055c-0.842-0.223-1.545-0.764-1.979-1.518
							c-0.436-0.756-0.553-1.631-0.328-2.473c0.086-0.305,0.398-0.486,0.707-0.408c0.307,0.088,0.488,0.4,0.406,0.707
							c-0.148,0.543-0.07,1.113,0.211,1.6c0.279,0.488,0.734,0.838,1.279,0.982c0.309,0.082,0.49,0.396,0.408,0.705
							C24.98,7.223,24.881,7.342,24.754,7.418z"/>
					</g>
					<g>
						<path fill="#F28A00" d="M40.244,35.818c0.127-0.074,0.283-0.098,0.438-0.057c0.84,0.223,1.545,0.762,1.977,1.516
							c0.436,0.756,0.553,1.633,0.324,2.473c-0.08,0.307-0.395,0.492-0.703,0.406c-0.305-0.08-0.488-0.395-0.406-0.701
							c0.148-0.545,0.074-1.115-0.209-1.605c-0.281-0.484-0.736-0.832-1.281-0.977c-0.305-0.084-0.49-0.395-0.406-0.707
							C40.018,36.014,40.119,35.893,40.244,35.818z"/>
					</g>
				</g>
				<g>
					<g>
						<path fill="#F28A00" d="M37.064,6.098c-0.145-0.035-0.271-0.129-0.348-0.266c-0.438-0.754-0.551-1.633-0.328-2.475
							c0.227-0.838,0.766-1.543,1.521-1.977c0.273-0.156,0.625-0.066,0.785,0.213c0.158,0.273,0.062,0.623-0.211,0.781
							c-0.49,0.283-0.838,0.736-0.984,1.281c-0.145,0.545-0.072,1.113,0.213,1.602c0.156,0.277,0.064,0.625-0.213,0.785
							C37.363,6.121,37.203,6.137,37.064,6.098z"/>
					</g>
					<g>
						<path fill="#F28A00" d="M27.936,37.135c0.141,0.039,0.268,0.133,0.352,0.268c0.434,0.756,0.547,1.635,0.322,2.471
							c-0.227,0.846-0.764,1.547-1.521,1.98c-0.273,0.16-0.623,0.066-0.781-0.211c-0.162-0.273-0.066-0.625,0.209-0.787
							c0.486-0.279,0.84-0.729,0.982-1.279c0.146-0.541,0.072-1.111-0.213-1.596c-0.156-0.275-0.062-0.629,0.213-0.787
							C27.635,37.115,27.793,37.098,27.936,37.135z"/>
					</g>
				</g>
			</g>
			<g>
				<g>
					<g>
						<path fill="#F28A00" d="M24.078,35.424c0.125,0.074,0.221,0.197,0.262,0.354c0.229,0.84,0.111,1.717-0.324,2.471
							c-0.438,0.754-1.137,1.291-1.977,1.518c-0.311,0.082-0.623-0.102-0.707-0.404c-0.082-0.311,0.102-0.625,0.406-0.705
							c0.547-0.146,1.002-0.496,1.281-0.984c0.281-0.486,0.357-1.055,0.209-1.6c-0.08-0.303,0.104-0.619,0.41-0.707
							C23.791,35.326,23.949,35.352,24.078,35.424z"/>
					</g>
					<g>
						<path fill="#F28A00" d="M40.924,7.811c-0.125-0.074-0.227-0.197-0.264-0.352c-0.229-0.84-0.109-1.719,0.32-2.469
							c0.438-0.754,1.141-1.295,1.979-1.52c0.309-0.084,0.625,0.1,0.703,0.406c0.082,0.307-0.098,0.623-0.404,0.701
							c-0.545,0.15-0.996,0.504-1.279,0.984c-0.283,0.488-0.355,1.059-0.211,1.6c0.086,0.305-0.1,0.621-0.406,0.709
							C41.209,7.908,41.053,7.881,40.924,7.811z"/>
					</g>
				</g>
				<g>
					<g>
						<path fill="#F28A00" d="M18.689,13.195c-0.07,0.123-0.195,0.223-0.348,0.264c-0.838,0.227-1.717,0.111-2.473-0.326
							c-0.754-0.436-1.293-1.137-1.518-1.977c-0.082-0.307,0.102-0.623,0.404-0.707c0.311-0.076,0.623,0.104,0.705,0.41
							c0.146,0.541,0.496,0.996,0.986,1.277c0.484,0.285,1.053,0.361,1.598,0.213c0.307-0.084,0.625,0.098,0.705,0.406
							C18.793,12.91,18.764,13.064,18.689,13.195z"/>
					</g>
					<g>
						<path fill="#F28A00" d="M46.309,30.043c0.07-0.125,0.193-0.225,0.35-0.264c0.838-0.23,1.717-0.115,2.467,0.322
							c0.758,0.436,1.297,1.137,1.521,1.979c0.084,0.307-0.1,0.623-0.408,0.701c-0.303,0.084-0.621-0.096-0.703-0.404
							c-0.145-0.547-0.49-1-0.98-1.285c-0.486-0.277-1.059-0.352-1.602-0.205c-0.303,0.08-0.619-0.096-0.703-0.408
							C46.209,30.326,46.236,30.17,46.309,30.043z"/>
					</g>
				</g>
				<g>
					<g>
						<path fill="#F28A00" d="M28.697,5.895c-0.143,0.041-0.305,0.023-0.436-0.055c-0.756-0.436-1.295-1.139-1.523-1.98
							c-0.223-0.84-0.109-1.719,0.328-2.473c0.162-0.271,0.51-0.369,0.785-0.209c0.277,0.158,0.367,0.51,0.211,0.785
							c-0.285,0.488-0.357,1.053-0.215,1.602C28,4.107,28.344,4.562,28.834,4.842c0.275,0.162,0.365,0.51,0.209,0.787
							C28.963,5.766,28.834,5.859,28.697,5.895z"/>
					</g>
					<g>
						<path fill="#F28A00" d="M36.305,37.338c0.141-0.037,0.301-0.02,0.439,0.059c0.752,0.436,1.293,1.143,1.514,1.975
							c0.23,0.846,0.111,1.723-0.324,2.477c-0.156,0.277-0.51,0.371-0.785,0.207c-0.273-0.154-0.371-0.506-0.213-0.785
							c0.287-0.484,0.361-1.051,0.213-1.598c-0.143-0.543-0.494-0.996-0.982-1.277c-0.271-0.16-0.367-0.514-0.211-0.787
							C36.035,37.471,36.166,37.379,36.305,37.338z"/>
					</g>
				</g>
			</g>
		</g>
		<g>
			<g>
				<g>
					<path fill="#09516D" d="M27.625,14.393c0,1.135-0.92,1.027-2.053,1.027s-2.051,0.107-2.051-1.027
						c0-1.133,0.918-2.051,2.051-2.051S27.625,13.26,27.625,14.393z"/>
					<path fill="#082130" d="M27.625,14.393c0,1.135-0.92,1.027-2.053,1.027s-2.051,0.107-2.051-1.027
						c0-1.133,0.918-1.221,2.051-1.221S27.625,13.26,27.625,14.393z"/>
				</g>
				<g>
					<path fill="#09516D" d="M41.479,14.393c0,1.135-0.92,1.027-2.053,1.027s-2.051,0.107-2.051-1.027
						c0-1.133,0.918-2.051,2.051-2.051S41.479,13.26,41.479,14.393z"/>
					<path fill="#082130" d="M41.479,14.393c0,1.135-0.92,1.027-2.053,1.027s-2.051,0.107-2.051-1.027
						c0-1.133,0.918-1.221,2.051-1.221S41.479,13.26,41.479,14.393z"/>
				</g>
			</g>
		</g>
		<path fill="#AF3A6A" d="M33.379,17.707c0,0.486-0.395,0.879-0.879,0.879c-0.486,0-0.881-0.393-0.881-0.879
			c0-0.488,0.395-0.881,0.881-0.881C32.984,16.826,33.379,17.219,33.379,17.707z"/>
	</g>
	<g>
		<g>
			<path fill="#92A4A5" d="M51.01,43.254c0,10.223-8.289,15.059-18.51,15.059c-10.223,0-18.51-4.836-18.51-15.059
				s8.287-15.252,18.51-15.252C42.721,28.002,51.01,33.031,51.01,43.254z"/>
			<path fill="#C7D2D3" d="M51.01,43.254c0,10.223-8.289,12.863-18.51,12.863c-10.223,0-18.51-2.641-18.51-12.863
				s8.287-18.51,18.51-18.51C42.721,24.744,51.01,33.031,51.01,43.254z"/>
			<path fill="#AEB9BA" d="M51.01,43.254c0,10.223-8.289,12.863-18.51,12.863c-10.223,0-18.51-2.641-18.51-12.863
				s8.287-15.252,18.51-15.252C42.721,28.002,51.01,33.031,51.01,43.254z"/>
			<g>
				<path fill="#AEB9BA" d="M32.477,47.348c0,6.969-5.648,8.77-12.619,8.77c-6.969,0-12.617-1.801-12.617-8.77
					S12.889,34.73,19.857,34.73C26.828,34.73,32.477,40.379,32.477,47.348z"/>
				<path fill="#AEB9BA" d="M57.76,47.348c0,6.969-5.65,8.77-12.619,8.77c-6.971,0-12.619-1.801-12.619-8.77
					S38.17,34.73,45.141,34.73C52.109,34.73,57.76,40.379,57.76,47.348z"/>
			</g>
			<g>
				<g>
					<path fill="#09516D" d="M26.67,39.096c0,1.355-1.102,1.227-2.457,1.227s-2.453,0.129-2.453-1.227s1.098-2.455,2.453-2.455
						S26.67,37.74,26.67,39.096z"/>
					<path fill="#082130" d="M26.67,39.096c0,1.355-1.102,1.227-2.457,1.227s-2.453,0.129-2.453-1.227s1.098-1.463,2.453-1.463
						S26.67,37.74,26.67,39.096z"/>
				</g>
				<g>
					<path fill="#09516D" d="M43.24,39.096c0,1.355-1.1,1.227-2.455,1.227s-2.455,0.129-2.455-1.227s1.1-2.455,2.455-2.455
						S43.24,37.74,43.24,39.096z"/>
					<path fill="#082130" d="M43.24,39.096c0,1.355-1.1,1.227-2.455,1.227s-2.455,0.129-2.455-1.227s1.1-1.463,2.455-1.463
						S43.24,37.74,43.24,39.096z"/>
				</g>
			</g>
			<path fill="#AF3A6A" d="M36.961,42.158c0,1.117-1.998,2.025-4.461,2.025c-2.465,0-4.463-0.908-4.463-2.025
				c0-1.119,1.998,0.135,4.463,0.135C34.963,42.293,36.961,41.039,36.961,42.158z"/>
			<path fill="#821647" d="M32.5,42.293c-1.992,0-3.676-0.816-4.25-0.541c0.557,0.83,2.236,1.439,4.25,1.439
				s3.693-0.609,4.248-1.439C36.174,41.477,34.49,42.293,32.5,42.293z"/>
			<g>
				<path fill="#C7D2D3" d="M18.477,43.369c0,0.822-1.68-0.211-3.752-0.211c-2.074,0-3.756,1.033-3.756,0.211
					s1.682-1.486,3.756-1.486C16.797,41.883,18.477,42.547,18.477,43.369z"/>
				<path fill="#C7D2D3" d="M54.029,43.369c0,0.822-1.682-0.211-3.756-0.211c-2.07,0-3.752,1.033-3.752,0.211
					s1.682-1.486,3.752-1.486C52.348,41.883,54.029,42.547,54.029,43.369z"/>
			</g>
			<g>
				<path fill="#C7D2D3" d="M27.295,33.764c0,0.535-1.096-0.137-2.443-0.137c-1.35,0-2.445,0.672-2.445,0.137
					s1.096-0.969,2.445-0.969C26.199,32.795,27.295,33.229,27.295,33.764z"/>
				<path fill="#C7D2D3" d="M42.592,33.764c0,0.535-1.096-0.137-2.445-0.137c-1.348,0-2.443,0.672-2.443,0.137
					s1.096-0.969,2.443-0.969C41.496,32.795,42.592,33.229,42.592,33.764z"/>
			</g>
		</g>
		<g>
			<g>
				<g>
					<path fill="#5BA9C1" d="M18.027,63.264c0,0.682-0.553,1.236-1.236,1.236s-1.238-0.555-1.238-1.236
						c0-0.684,0.555-3.514,1.238-3.514S18.027,62.58,18.027,63.264z"/>
					<path fill="#2D99B2" d="M16.791,59.75c0.684,0,1.236,2.83,1.236,3.514c0,0.682-0.553,1.236-1.236,1.236"/>
				</g>
				<g>
					<path fill="#5BA9C1" d="M24.311,63.264c0,0.682-0.555,1.236-1.236,1.236c-0.684,0-1.236-0.555-1.236-1.236
						c0-0.684,0.553-3.514,1.236-3.514C23.756,59.75,24.311,62.58,24.311,63.264z"/>
					<path fill="#2D99B2" d="M23.074,59.75c0.682,0,1.236,2.83,1.236,3.514c0,0.682-0.555,1.236-1.236,1.236"/>
				</g>
				<g>
					<path fill="#5BA9C1" d="M30.594,63.264c0,0.682-0.553,1.236-1.236,1.236c-0.682,0-1.238-0.555-1.238-1.236
						c0-0.684,0.557-3.514,1.238-3.514C30.041,59.75,30.594,62.58,30.594,63.264z"/>
					<path fill="#2D99B2" d="M29.357,59.75c0.684,0,1.236,2.83,1.236,3.514c0,0.682-0.553,1.236-1.236,1.236"/>
				</g>
				<g>
					<path fill="#5BA9C1" d="M36.879,63.264c0,0.682-0.555,1.236-1.238,1.236s-1.234-0.555-1.234-1.236
						c0-0.684,0.551-3.514,1.234-3.514S36.879,62.58,36.879,63.264z"/>
					<path fill="#2D99B2" d="M35.641,59.75c0.684,0,1.238,2.83,1.238,3.514c0,0.682-0.555,1.236-1.238,1.236"/>
				</g>
				<g>
					<path fill="#5BA9C1" d="M43.16,63.264c0,0.682-0.553,1.236-1.234,1.236c-0.684,0-1.238-0.555-1.238-1.236
						c0-0.684,0.555-3.514,1.238-3.514C42.607,59.75,43.16,62.58,43.16,63.264z"/>
					<path fill="#2D99B2" d="M41.926,59.75c0.682,0,1.234,2.83,1.234,3.514c0,0.682-0.553,1.236-1.234,1.236"/>
				</g>
				<g>
					<path fill="#5BA9C1" d="M49.447,63.264c0,0.682-0.555,1.236-1.238,1.236s-1.236-0.555-1.236-1.236
						c0-0.684,0.553-3.514,1.236-3.514S49.447,62.58,49.447,63.264z"/>
					<path fill="#2D99B2" d="M48.209,59.75c0.684,0,1.238,2.83,1.238,3.514c0,0.682-0.555,1.236-1.238,1.236"/>
				</g>
			</g>
		</g>
	</g>
</g>
</svg>
