<?xml version="1.0" encoding="utf-8"?>
<!-- Generator: Adobe Illustrator 16.0.0, SVG Export Plug-In . SVG Version: 6.00 Build 0)  -->
<!DOCTYPE svg PUBLIC "-//W3C//DTD SVG 1.1//EN" "http://www.w3.org/Graphics/SVG/1.1/DTD/svg11.dtd">
<svg version="1.1" id="Layer_1" xmlns="http://www.w3.org/2000/svg" xmlns:xlink="http://www.w3.org/1999/xlink" x="0px" y="0px"
	 width="65px" height="65px" viewBox="0 0 65 65" enable-background="new 0 0 65 65" xml:space="preserve">
<g>
	<path fill="#FF912E" d="M31.998,51.453c0,0.51-0.414,0.924-0.924,0.924l0,0c-0.51,0-0.922-0.414-0.922-0.924V13.897
		c0-0.509,0.412-0.922,0.922-0.922l0,0c0.51,0,0.924,0.413,0.924,0.922V51.453z"/>
	<path fill="#FFB92C" d="M31.074,52.377"/>
	<path fill="#FFB92C" d="M30.152,13.897c0-0.509,0.412-0.922,0.922-0.922l0,0c0.51,0,0.924,0.413,0.924,0.922v37.556"/>
	<path fill="#559B0B" d="M31.998,63.576c0,0.51-0.414,0.924-0.924,0.924l0,0c-0.51,0-0.922-0.414-0.922-0.924V51.717
		c0-0.51,0.412-0.922,0.922-0.922l0,0c0.51,0,0.924,0.412,0.924,0.922V63.576z"/>
	<g>
		<path fill="#FFB92C" d="M31.074,0.5v14.057c0,0-4.582-1.069-4.582-5.042C26.492,5.543,31.074,0.5,31.074,0.5z"/>
		<path fill="#FF912E" d="M31.074,0.5v14.057c0,0,4.584-1.069,4.584-5.042C35.658,5.543,31.074,0.5,31.074,0.5z"/>
	</g>
	<g>
		<g>
			<path fill="#FFB92C" d="M21.209,12.292l8.574,8.571c0,0-3.449,2.144-5.871-0.278C21.488,18.162,21.209,12.292,21.209,12.292z"/>
			<path fill="#FF912E" d="M21.209,12.292l8.574,8.571c0,0,2.143-3.446-0.281-5.87C27.08,12.571,21.209,12.292,21.209,12.292z"/>
		</g>
		<g>
			<path fill="#FF912E" d="M41.109,12.292l-8.572,8.571c0,0,3.449,2.144,5.871-0.278C40.83,18.162,41.109,12.292,41.109,12.292z"/>
			<path fill="#FFB92C" d="M41.109,12.292l-8.572,8.571c0,0-2.143-3.446,0.279-5.87C35.24,12.571,41.109,12.292,41.109,12.292z"/>
		</g>
	</g>
	<g>
		<g>
			<path fill="#FFB92C" d="M21.209,21.253l8.574,8.571c0,0-3.449,2.144-5.871-0.279C21.488,27.123,21.209,21.253,21.209,21.253z"/>
			<path fill="#FF912E" d="M21.209,21.253l8.574,8.571c0,0,2.143-3.446-0.281-5.87C27.08,21.531,21.209,21.253,21.209,21.253z"/>
		</g>
		<g>
			<path fill="#FF912E" d="M41.109,21.253l-8.572,8.571c0,0,3.449,2.144,5.871-0.279C40.83,27.123,41.109,21.253,41.109,21.253z"/>
			<path fill="#FFB92C" d="M41.109,21.253l-8.572,8.571c0,0-2.143-3.446,0.279-5.87C35.24,21.531,41.109,21.253,41.109,21.253z"/>
		</g>
	</g>
	<g>
		<g>
			<path fill="#FFB92C" d="M21.209,30.214l8.574,8.571c0,0-3.449,2.143-5.871-0.279C21.488,36.084,21.209,30.214,21.209,30.214z"/>
			<path fill="#FF912E" d="M21.209,30.214l8.574,8.571c0,0,2.143-3.447-0.281-5.871C27.08,30.492,21.209,30.214,21.209,30.214z"/>
		</g>
		<g>
			<path fill="#FF912E" d="M41.109,30.214l-8.572,8.571c0,0,3.449,2.143,5.871-0.279S41.109,30.214,41.109,30.214z"/>
			<path fill="#FFB92C" d="M41.109,30.214l-8.572,8.571c0,0-2.143-3.447,0.279-5.871C35.24,30.492,41.109,30.214,41.109,30.214z"/>
		</g>
	</g>
	<g>
		<g>
			<path fill="#FFB92C" d="M21.209,39.174l8.574,8.572c0,0-3.449,2.143-5.871-0.279C21.488,45.045,21.209,39.174,21.209,39.174z"/>
			<path fill="#FF912E" d="M21.209,39.174l8.574,8.572c0,0,2.143-3.447-0.281-5.871C27.08,39.453,21.209,39.174,21.209,39.174z"/>
		</g>
		<g>
			<path fill="#FF912E" d="M41.109,39.174l-8.572,8.572c0,0,3.449,2.143,5.871-0.279S41.109,39.174,41.109,39.174z"/>
			<path fill="#FFB92C" d="M41.109,39.174l-8.572,8.572c0,0-2.143-3.447,0.279-5.871C35.24,39.453,41.109,39.174,41.109,39.174z"/>
		</g>
	</g>
	<path fill="#559B0B" d="M31.932,59.559c0,0,1.186-7.973,6.26-7.314c5.072,0.658,5.6-5.535,5.6-5.535s0,5.799-4.941,8.303
		s-5.205,7.051-6.918,6.984S31.932,59.559,31.932,59.559z"/>
</g>
</svg>
