<?xml version="1.0" encoding="utf-8"?>
<!-- Generator: Adobe Illustrator 16.0.0, SVG Export Plug-In . SVG Version: 6.00 Build 0)  -->
<!DOCTYPE svg PUBLIC "-//W3C//DTD SVG 1.1//EN" "http://www.w3.org/Graphics/SVG/1.1/DTD/svg11.dtd">
<svg version="1.1" id="Layer_1" xmlns="http://www.w3.org/2000/svg" xmlns:xlink="http://www.w3.org/1999/xlink" x="0px" y="0px"
	 width="65px" height="65px" viewBox="0 0 65 65" enable-background="new 0 0 65 65" xml:space="preserve">
<g>
	<g>
		<path fill="#769392" d="M42.807,47.862c-0.387,0-0.768-0.15-1.052-0.436L31.246,36.919l2.104-2.105l7.971,7.969V24.798h2.975
			v21.576c0,0.602-0.363,1.146-0.919,1.375C43.191,47.827,42.998,47.862,42.807,47.862z"/>
	</g>
	<path fill="#148DE0" d="M41.019,25.12c-0.266-0.641-0.892-1.059-1.585-1.059H3.787c-0.693,0-1.318,0.418-1.584,1.059
		c-0.268,0.641-0.119,1.379,0.371,1.869l17.824,17.822c0.335,0.334,0.773,0.502,1.213,0.502c0.438,0,0.878-0.168,1.213-0.502
		l17.822-17.822C41.137,26.499,41.284,25.761,41.019,25.12z"/>
	<path fill="#1F5D9B" d="M9.637,25.12c-0.266,0.641-0.118,1.379,0.372,1.869l15.319,15.318l15.318-15.318
		c0.49-0.49,0.638-1.229,0.372-1.869s-0.892-1.059-1.585-1.059H11.222C10.528,24.062,9.902,24.479,9.637,25.12z"/>
	<path fill="#769392" d="M42.675,25.142c0,0.672-0.544,1.217-1.219,1.217H1.719c-0.673,0-1.219-0.545-1.219-1.217l0,0
		c0-0.674,0.546-1.219,1.219-1.219h39.737C42.131,23.923,42.675,24.468,42.675,25.142L42.675,25.142z"/>
	<path fill="#566D6C" d="M42.675,25.142c0-0.674-0.544-1.219-1.219-1.219H8.392c-0.674,0-1.219,0.545-1.219,1.219
		c0,0.672,0.545,1.217,1.219,1.217h33.064C42.131,26.358,42.675,25.813,42.675,25.142z"/>
	<g>
		<path fill="#8CAFAF" d="M17.417,52.229c-0.585,0-1.17-0.223-1.618-0.67c-0.893-0.893-0.893-2.342,0-3.234l23.92-23.92V6.481
			c0-1.264,1.025-2.287,2.288-2.287h10.865c1.263,0,2.288,1.023,2.288,2.287s-1.025,2.287-2.288,2.287h-8.577v16.584
			c0,0.605-0.242,1.188-0.671,1.617L19.033,51.56C18.588,52.007,18.002,52.229,17.417,52.229z"/>
	</g>
	<path fill="#769392" d="M52.872,8.769c0.272,0,0.53-0.057,0.772-0.143c-0.242-0.088-0.5-0.143-0.772-0.143H42.007
		c-1.263,0-2.288,1.023-2.288,2.287v13.635v4.289L16.423,51.991c0.313,0.152,0.652,0.238,0.994,0.238
		c0.585,0,1.171-0.223,1.616-0.67l24.591-24.59c0.429-0.43,0.671-1.012,0.671-1.617V13.058V8.769H52.872z"/>
	<g>
		<path fill="#FFC41F" d="M17.183,50.358c2.013,2.01,2.011,5.271,0,7.281c-2.008,2.008-5.27,2.012-7.28,0
			c-2.013-2.012-2.008-5.271,0-7.281C11.913,48.349,15.175,48.349,17.183,50.358z"/>
		<path fill="#FFA522" d="M9.902,50.358c2.011-2.01,5.272-2.01,7.28,0c2.013,2.01,2.011,5.271,0,7.281"/>
		<path fill="#1A3D5B" d="M18.898,59.353c-2.953,2.953-7.756,2.953-10.709,0s-2.953-7.754,0-10.707
			c2.953-2.955,7.756-2.955,10.709,0C21.85,51.599,21.85,56.399,18.898,59.353z M11.617,52.069c-1.064,1.064-1.064,2.793,0,3.855
			c1.062,1.064,2.791,1.064,3.854,0c1.062-1.062,1.062-2.791,0-3.855C14.408,51.009,12.68,51.009,11.617,52.069z"/>
	</g>
	<path fill="#0D273A" d="M64.5,8.292c0,0.633-0.511,1.145-1.144,1.145H51.348c-0.633,0-1.145-0.512-1.145-1.145V4.575
		c0-0.631,0.512-1.143,1.145-1.143h12.009c0.633,0,1.144,0.512,1.144,1.143V8.292z"/>
	<path fill="#1A3D5B" d="M63.356,3.433H51.348c-0.633,0-1.145,0.512-1.145,1.143V5.72c0,0.633,0.512,1.143,1.145,1.143h12.009
		c0.633,0,1.144-0.51,1.144-1.143V4.575C64.5,3.944,63.989,3.433,63.356,3.433z"/>
</g>
</svg>
