<?xml version="1.0" encoding="utf-8"?>
<!-- Generator: Adobe Illustrator 16.0.0, SVG Export Plug-In . SVG Version: 6.00 Build 0)  -->
<!DOCTYPE svg PUBLIC "-//W3C//DTD SVG 1.1//EN" "http://www.w3.org/Graphics/SVG/1.1/DTD/svg11.dtd">
<svg version="1.1" id="Layer_1" xmlns="http://www.w3.org/2000/svg" xmlns:xlink="http://www.w3.org/1999/xlink" x="0px" y="0px"
	 width="65px" height="65px" viewBox="0 0 65 65" enable-background="new 0 0 65 65" xml:space="preserve">
<g>
	<g>
		<path fill="#148DE0" d="M47,59V30.545C47,24.091,41.551,19,35.095,19h-5.194C23.446,19,18,24.091,18,30.545V59H47z"/>
		<path fill="#0C76BF" d="M47,59V30.545C47,24.091,41.551,19,35.095,19h-5.194c-6.455,0-11.578,5.04-11.578,11.494"/>
		<path fill="#0C76BF" d="M24.951,46.499c0,0.39-0.314,0.501-0.704,0.501h-2.896c-0.388,0-0.703-0.111-0.703-0.501l0,0
			c0-0.388,0.315-0.499,0.703-0.499h2.896C24.637,46,24.951,46.111,24.951,46.499L24.951,46.499z"/>
		<path fill="#0C76BF" d="M24.951,52.499c0,0.389-0.314,0.501-0.704,0.501h-2.896c-0.388,0-0.703-0.112-0.703-0.501l0,0
			c0-0.389,0.315-0.499,0.703-0.499h2.896C24.637,52,24.951,52.11,24.951,52.499L24.951,52.499z"/>
		<path fill="#0C76BF" d="M27,48.5c0,0.276-0.224,0.5-0.5,0.5h-3c-0.276,0-0.5-0.224-0.5-0.5l0,0c0-0.276,0.224-0.5,0.5-0.5h3
			C26.776,48,27,48.224,27,48.5L27,48.5z"/>
		<path fill="#148DE0" d="M43,41.5c0,0.276-0.224,0.5-0.5,0.5h-3c-0.276,0-0.5-0.224-0.5-0.5l0,0c0-0.276,0.224-0.5,0.5-0.5h3
			C42.776,41,43,41.224,43,41.5L43,41.5z"/>
		<path fill="#148DE0" d="M45.021,45.499c0,0.389-0.314,0.501-0.703,0.501h-2.896c-0.388,0-0.703-0.112-0.703-0.501l0,0
			c0-0.388,0.315-0.499,0.703-0.499h2.896C44.707,45,45.021,45.111,45.021,45.499L45.021,45.499z"/>
		<circle fill="#465453" cx="32.499" cy="28.789" r="4.469"/>
		<path fill="#2B3534" d="M32.499,26.554c-2.081,0-3.812,1.427-4.312,3.352c0.5,1.924,2.231,3.352,4.312,3.352
			s3.812-1.428,4.312-3.352C36.311,27.98,34.58,26.554,32.499,26.554z"/>
		<g>
			<g>
				<g>
					<g>
						<path fill="#2B3534" d="M33.561,27.718c-0.309-0.309-0.31-0.808-0.002-1.116l9.435-9.434c0.308-0.308,0.806-0.308,1.116,0.002
							c0.308,0.307,0.308,0.806,0,1.114l-9.435,9.433C34.366,28.026,33.869,28.027,33.561,27.718z"/>
					</g>
					<path fill="#FFA522" d="M47.456,26.927c-0.924,0.924-2.422,0.924-3.345,0l-4.563-4.563c-0.925-0.923-0.127-1.625,0.797-2.549
						l11.851-11.85c0.924-0.924,2.424-0.922,3.346,0l3.766,3.765c0.923,0.923,0.924,2.421,0,3.346L47.456,26.927z"/>
					<path fill="#FF7C24" d="M45.923,25.394l11.849-11.852c0.926-0.924,0.926-2.422,0.002-3.346l-2.232-2.231
						c-0.922-0.922-2.422-0.924-3.346,0l-11.851,11.85c-0.924,0.924-1.722,1.625-0.797,2.549l3.03,3.03
						C43.499,26.316,44.996,26.317,45.923,25.394z"/>
					<path fill="#FFA522" d="M56.844,15.775c-0.206,0.205-0.541,0.204-0.745,0l-1.486-1.488c-0.206-0.205-0.206-0.537,0-0.743l0,0
						c0.206-0.206,0.539-0.206,0.744-0.002l1.487,1.488C57.047,15.235,57.048,15.569,56.844,15.775L56.844,15.775z"/>
					<path fill="#FFA522" d="M55.125,17.494c-0.205,0.206-0.539,0.206-0.746,0l-1.486-1.487c-0.204-0.205-0.204-0.538,0.001-0.744
						l0,0c0.205-0.205,0.538-0.206,0.742,0l1.488,1.487C55.327,16.955,55.329,17.289,55.125,17.494L55.125,17.494z"/>
					<path fill="#FFA522" d="M53.405,19.213c-0.206,0.206-0.541,0.205-0.745,0l-1.488-1.487c-0.205-0.206-0.204-0.539,0.002-0.744
						l0,0c0.204-0.205,0.537-0.206,0.744-0.001l1.485,1.488C53.61,18.674,53.61,19.008,53.405,19.213L53.405,19.213z"/>
				</g>
				<g>
					<g>
						<path fill="#2B3534" d="M31.438,29.859c0.309,0.308,0.309,0.809,0,1.117l-9.434,9.433c-0.308,0.308-0.807,0.308-1.117,0
							c-0.308-0.308-0.308-0.807,0-1.116l9.436-9.434C30.631,29.552,31.129,29.551,31.438,29.859z"/>
					</g>
					<path fill="#FFA522" d="M17.542,30.65c0.924-0.925,2.423-0.924,3.345-0.001l4.563,4.563c0.924,0.924,0.126,1.623-0.797,2.549
						l-11.851,11.85c-0.924,0.925-2.425,0.923-3.346,0l-3.765-3.766c-0.922-0.923-0.922-2.42,0-3.346L17.542,30.65z"/>
					<path fill="#FF7C24" d="M19.076,32.184L7.226,44.034c-0.925,0.925-0.925,2.423-0.001,3.346l2.232,2.231
						c0.921,0.923,2.422,0.925,3.346,0l11.851-11.85c0.923-0.926,1.722-1.625,0.797-2.549l-3.03-3.03
						C21.498,31.259,20.001,31.259,19.076,32.184z"/>
					<path fill="#FFA522" d="M8.154,41.802c0.206-0.205,0.54-0.205,0.745,0.002l1.486,1.485c0.206,0.205,0.206,0.537,0,0.743l0,0
						c-0.206,0.206-0.54,0.205-0.743,0.001l-1.488-1.487C7.951,42.341,7.949,42.008,8.154,41.802L8.154,41.802z"/>
					<path fill="#FFA522" d="M9.873,40.083c0.207-0.205,0.541-0.205,0.747,0l1.487,1.488c0.203,0.204,0.203,0.537-0.002,0.743l0,0
						c-0.205,0.206-0.54,0.206-0.743,0.001l-1.487-1.487C9.67,40.622,9.669,40.288,9.873,40.083L9.873,40.083z"/>
					<path fill="#FFA522" d="M11.593,38.364c0.206-0.206,0.54-0.206,0.745,0l1.487,1.487c0.205,0.205,0.205,0.538-0.001,0.744l0,0
						c-0.205,0.205-0.538,0.205-0.743,0l-1.486-1.487C11.388,38.903,11.388,38.569,11.593,38.364L11.593,38.364z"/>
				</g>
			</g>
			<g>
				<g>
					<g>
						<path fill="#2B3534" d="M33.57,29.849c0.309-0.308,0.808-0.308,1.116,0l9.434,9.434c0.307,0.308,0.307,0.808-0.001,1.116
							c-0.309,0.308-0.806,0.308-1.115,0l-9.434-9.435C33.261,30.656,33.26,30.157,33.57,29.849z"/>
					</g>
					<path fill="#FFA522" d="M34.36,43.745c-0.924-0.923-0.923-2.423,0-3.346l4.562-4.562c0.925-0.926,1.624-0.127,2.548,0.796
						l11.852,11.852c0.924,0.924,0.924,2.423,0,3.347l-3.765,3.764c-0.923,0.924-2.422,0.924-3.346-0.001L34.36,43.745z"/>
					<path fill="#FF7C24" d="M35.894,42.212l11.852,11.849c0.923,0.926,2.421,0.925,3.345,0.002l2.231-2.23
						c0.924-0.924,0.924-2.423,0-3.347L41.47,36.633c-0.924-0.923-1.623-1.722-2.548-0.796l-3.028,3.027
						C34.97,39.79,34.97,41.287,35.894,42.212z"/>
					<path fill="#FFA522" d="M45.514,53.133c-0.207-0.206-0.207-0.539,0-0.745L47,50.901c0.205-0.205,0.538-0.205,0.745,0.001l0,0
						c0.205,0.206,0.205,0.537,0,0.743l-1.487,1.487C46.053,53.337,45.719,53.339,45.514,53.133L45.514,53.133z"/>
					<path fill="#FFA522" d="M43.794,51.414c-0.206-0.206-0.206-0.541,0-0.745l1.485-1.487c0.207-0.206,0.539-0.205,0.745,0.001l0,0
						c0.204,0.205,0.205,0.538,0.001,0.744l-1.488,1.486C44.333,51.619,43.999,51.619,43.794,51.414L43.794,51.414z"/>
					<path fill="#FFA522" d="M42.076,49.694c-0.207-0.206-0.206-0.54,0-0.745l1.485-1.486c0.204-0.206,0.537-0.206,0.743,0l0,0
						c0.206,0.206,0.206,0.538,0,0.743l-1.486,1.488C42.613,49.898,42.28,49.899,42.076,49.694L42.076,49.694z"/>
				</g>
				<g>
					<g>
						<path fill="#2B3534" d="M31.429,27.728c-0.31,0.309-0.809,0.308-1.116,0l-9.435-9.433c-0.308-0.309-0.308-0.809,0-1.117
							c0.31-0.308,0.808-0.307,1.116,0l9.434,9.435C31.737,26.92,31.737,27.418,31.429,27.728z"/>
					</g>
					<path fill="#FFA522" d="M30.638,13.831c0.925,0.924,0.922,2.422,0.001,3.346l-4.563,4.564
						c-0.925,0.923-1.623,0.127-2.548-0.799L11.677,9.092c-0.925-0.924-0.924-2.424,0-3.347l3.765-3.765
						c0.923-0.924,2.421-0.924,3.347,0.001L30.638,13.831z"/>
					<path fill="#FF7C24" d="M29.103,15.366l-11.85-11.85c-0.924-0.926-2.421-0.926-3.345-0.002l-2.231,2.231
						c-0.924,0.923-0.925,2.422,0,3.347l11.851,11.85c0.925,0.926,1.623,1.722,2.548,0.799l3.029-3.03
						C30.028,17.788,30.028,16.29,29.103,15.366z"/>
					<path fill="#FFA522" d="M19.484,4.444c0.206,0.206,0.206,0.539,0,0.744l-1.486,1.487c-0.206,0.205-0.539,0.205-0.745-0.001l0,0
						c-0.206-0.205-0.204-0.538,0-0.743l1.489-1.487C18.946,4.239,19.28,4.238,19.484,4.444L19.484,4.444z"/>
					<path fill="#FFA522" d="M21.204,6.163c0.206,0.206,0.205,0.539,0,0.744l-1.486,1.486c-0.207,0.206-0.538,0.206-0.744,0l0,0
						c-0.204-0.206-0.204-0.539,0-0.744l1.487-1.487C20.665,5.958,20.999,5.958,21.204,6.163L21.204,6.163z"/>
					<path fill="#FFA522" d="M22.923,7.882c0.207,0.205,0.205,0.539,0,0.744l-1.485,1.487c-0.205,0.205-0.539,0.205-0.744-0.001l0,0
						c-0.206-0.205-0.206-0.539-0.001-0.743l1.485-1.487C22.384,7.677,22.718,7.677,22.923,7.882L22.923,7.882z"/>
				</g>
			</g>
		</g>
		<circle fill="#FFA522" cx="32.499" cy="28.789" r="2.173"/>
		<path fill="#FF7C24" d="M34.035,27.252c0.85,0.849,0.85,2.224,0,3.072c-0.848,0.848-2.223,0.849-3.073,0"/>
	</g>
	<path fill="#559913" d="M56.333,61.501c0,1.371,1.868,2.499,0.497,2.499H8.168c-1.372,0,0.496-1.128,0.496-2.499l0,0
		c0-1.372,1.111-2.501,2.483-2.501h42.703C55.223,59,56.333,60.129,56.333,61.501L56.333,61.501z"/>
	<path fill="#7DA81D" d="M53.851,59H11.147c-1.344,0-2.431,1-2.476,2h47.654C56.282,60,55.194,59,53.851,59z"/>
</g>
</svg>
